<?xml version="1.0" standalone="yes"?>

<svg version="1.1" viewBox="0.0 0.0 902.3753280839895 594.5931758530184" fill="none" stroke="none" stroke-linecap="square" stroke-miterlimit="10" xmlns="http://www.w3.org/2000/svg" xmlns:xlink="http://www.w3.org/1999/xlink"><clipPath id="p.0"><path d="m0 0l902.3753 0l0 594.5932l-902.3753 0l0 -594.5932z" clip-rule="nonzero"></path></clipPath><g clip-path="url(#p.0)"><path fill="#000000" fill-opacity="0.0" d="m0 0l902.3753 0l0 594.5932l-902.3753 0z" fill-rule="evenodd"></path><path fill="#000000" fill-opacity="0.0" d="m79.10499 471.5067c29.205597 -7.3635254 130.6763 -29.578308 175.23358 -44.18109c44.557297 -14.602814 67.52275 -26.461517 92.110245 -43.4357c24.587494 -16.974182 39.314514 -38.814514 55.414703 -58.409454c16.100159 -19.59491 30.328064 -65.650055 41.18634 -59.160095c10.858276 6.489929 8.490814 122.05597 23.963257 98.09973c15.472443 -23.956268 53.730103 -193.50745 68.8714 -241.83728c15.141296 -48.329834 13.08136 -46.2231 21.97638 -48.14173c8.89502 -1.9186401 20.449707 -30.671043 31.393677 36.62992c10.944031 67.30096 6.9663086 308.3513 34.270386 367.17587c27.304016 58.824585 103.96759 -17.9729 129.55377 -14.228363c25.586182 3.7445374 9.6102295 30.829407 23.963257 36.695526c14.353027 5.86615 51.795715 -1.2489014 62.154846 -1.4986877" fill-rule="evenodd"></path><path stroke="#ff0000" stroke-width="4.0" stroke-linejoin="round" stroke-linecap="butt" d="m79.10499 471.5067c29.205597 -7.3635254 130.6763 -29.578308 175.23358 -44.18109c44.557297 -14.602814 67.52275 -26.461517 92.110245 -43.4357c24.587494 -16.974182 39.314514 -38.814514 55.414703 -58.409454c16.100159 -19.59491 30.328064 -65.650055 41.18634 -59.160095c10.858276 6.489929 8.490814 122.05597 23.963257 98.09973c15.472443 -23.956268 53.730103 -193.50745 68.8714 -241.83728c15.141296 -48.329834 13.08136 -46.2231 21.97638 -48.14173c8.89502 -1.9186401 20.449707 -30.671043 31.393677 36.62992c10.944031 67.30096 6.9663086 308.3513 34.270386 367.17587c27.304016 58.824585 103.96759 -17.9729 129.55377 -14.228363c25.586182 3.7445374 9.6102295 30.829407 23.963257 36.695526c14.353027 5.86615 51.795715 -1.2489014 62.154846 -1.4986877" fill-rule="evenodd"></path><path fill="#000000" fill-opacity="0.0" d="m25.041994 517.20996l0 -487.9685" fill-rule="evenodd"></path><path stroke="#000000" stroke-width="3.0" stroke-linejoin="round" stroke-linecap="butt" d="m25.041994 517.20996l0 -469.9685" fill-rule="evenodd"></path><path fill="#000000" stroke="#000000" stroke-width="3.0" stroke-linecap="butt" d="m29.997192 47.24147l-4.9551983 -13.614292l-4.9551964 13.614292z" fill-rule="evenodd"></path><path fill="#000000" fill-opacity="0.0" d="m25.041994 517.20996l843.6221 0.94488525" fill-rule="evenodd"></path><path stroke="#000000" stroke-width="3.0" stroke-linejoin="round" stroke-linecap="butt" d="m25.041994 517.20996l825.6221 0.92474365" fill-rule="evenodd"></path><path fill="#000000" stroke="#000000" stroke-width="3.0" stroke-linecap="butt" d="m850.6585 523.0899l13.619812 -4.9399414l-13.608704 -4.970459z" fill-rule="evenodd"></path><path fill="#000000" fill-opacity="0.0" d="m25.041994 533.5722l80.53544 0l0 39.24408l-80.53544 0z" fill-rule="evenodd"></path><path fill="#000000" d="m35.18262 565.6122l0 -1.578125l5.59375 -6.21875q1.5 -1.671875 2.03125 -2.65625q0.53125 -0.984375 0.53125 -2.015625q0 -1.28125 -0.75 -2.15625q-0.75 -0.875 -1.984375 -0.875q-1.765625 0 -2.609375 0.90625q-0.828125 0.90625 -0.828125 2.5625l-2.203125 0l-0.03125 -0.078125q-0.0625 -2.203125 1.453125 -3.703125q1.53125 -1.5 4.21875 -1.5q2.3125 0 3.671875 1.34375q1.375 1.34375 1.375 3.421875q0 1.390625 -0.828125 2.78125q-0.828125 1.390625 -2.328125 3.015625l-4.484375 4.890625l0.015625 0.046875l6.0625 0l0.1875 -1.953125l1.953125 0l0 3.765625l-11.046875 0zm24.394531 -6.5q0 3.265625 -1.453125 5.015625q-1.453125 1.734375 -3.96875 1.734375q-2.515625 0 -3.984375 -1.75q-1.453125 -1.75 -1.453125 -5.0l0 -4.046875q0 -3.265625 1.453125 -5.015625q1.453125 -1.75 3.953125 -1.75q2.53125 0 3.984375 1.75q1.46875 1.75 1.46875 5.015625l0 4.046875zm-2.3125 -4.546875q0 -2.203125 -0.796875 -3.328125q-0.796875 -1.125 -2.34375 -1.125q-1.5 0 -2.296875 1.125q-0.796875 1.125 -0.796875 3.328125l0 5.015625q0 2.203125 0.796875 3.34375q0.8125 1.125 2.328125 1.125q1.53125 0 2.3125 -1.125q0.796875 -1.125 0.796875 -3.34375l0 -5.015625zm15.999996 4.546875q0 3.265625 -1.453125 5.015625q-1.453125 1.734375 -3.96875 1.734375q-2.515625 0 -3.9843712 -1.75q-1.453125 -1.75 -1.453125 -5.0l0 -4.046875q0 -3.265625 1.453125 -5.015625q1.4531212 -1.75 3.9531212 -1.75q2.53125 0 3.984375 1.75q1.46875 1.75 1.46875 5.015625l0 4.046875zm-2.3125 -4.546875q0 -2.203125 -0.796875 -3.328125q-0.796875 -1.125 -2.34375 -1.125q-1.5 0 -2.296875 1.125q-0.796875 1.125 -0.796875 3.328125l0 5.015625q0 2.203125 0.796875 3.34375q0.8125 1.125 2.328125 1.125q1.53125 0 2.3125 -1.125q0.796875 -1.125 0.796875 -3.34375l0 -5.015625zm13.3125 -2.640625l-0.21875 -1.328125l-5.09375 0l-0.546875 4.796875q0.515625 -0.40625 1.171875 -0.65625q0.671875 -0.265625 1.546875 -0.296875q2.34375 -0.015625 3.703125 1.546875q1.359375 1.546875 1.359375 4.1875q0 2.5625 -1.390625 4.125q-1.375 1.5625 -4.0 1.5625q-2.171875 0 -3.609375 -1.1875q-1.4375 -1.1875 -1.375 -3.484375l0.015625 -0.0625l2.09375 0q0 1.375 0.796875 2.15625q0.8125 0.765625 2.078125 0.765625q1.453125 0 2.265625 -1.03125q0.8125 -1.03125 0.8125 -2.828125q0 -1.640625 -0.8125 -2.6875q-0.8125 -1.0625 -2.265625 -1.0625q-1.359375 0 -1.96875 0.421875q-0.609375 0.40625 -0.890625 1.25l-1.921875 -0.203125l0.984375 -9.359375l9.0 0l0 3.375l-1.734375 0z" fill-rule="nonzero"></path><path fill="#000000" fill-opacity="0.0" d="m204.16011 533.5722l80.535416 0l0 39.24408l-80.535416 0z" fill-rule="evenodd"></path><path fill="#000000" d="m214.30074 565.6122l0 -1.578125l5.59375 -6.21875q1.5 -1.671875 2.03125 -2.65625q0.53125 -0.984375 0.53125 -2.015625q0 -1.28125 -0.75 -2.15625q-0.75 -0.875 -1.984375 -0.875q-1.765625 0 -2.609375 0.90625q-0.828125 0.90625 -0.828125 2.5625l-2.203125 0l-0.03125 -0.078125q-0.0625 -2.203125 1.453125 -3.703125q1.53125 -1.5 4.21875 -1.5q2.3125 0 3.671875 1.34375q1.375 1.34375 1.375 3.421875q0 1.390625 -0.828125 2.78125q-0.828125 1.390625 -2.328125 3.015625l-4.484375 4.890625l0.015625 0.046875l6.0625 0l0.1875 -1.953125l1.953125 0l0 3.765625l-11.046875 0zm24.394531 -6.5q0 3.265625 -1.453125 5.015625q-1.453125 1.734375 -3.96875 1.734375q-2.515625 0 -3.984375 -1.75q-1.453125 -1.75 -1.453125 -5.0l0 -4.046875q0 -3.265625 1.453125 -5.015625q1.453125 -1.75 3.953125 -1.75q2.53125 0 3.984375 1.75q1.46875 1.75 1.46875 5.015625l0 4.046875zm-2.3125 -4.546875q0 -2.203125 -0.796875 -3.328125q-0.796875 -1.125 -2.34375 -1.125q-1.5 0 -2.296875 1.125q-0.796875 1.125 -0.796875 3.328125l0 5.015625q0 2.203125 0.796875 3.34375q0.8125 1.125 2.328125 1.125q1.53125 0 2.3125 -1.125q0.796875 -1.125 0.796875 -3.34375l0 -5.015625zm16.0 4.546875q0 3.265625 -1.453125 5.015625q-1.453125 1.734375 -3.96875 1.734375q-2.515625 0 -3.984375 -1.75q-1.453125 -1.75 -1.453125 -5.0l0 -4.046875q0 -3.265625 1.453125 -5.015625q1.453125 -1.75 3.953125 -1.75q2.53125 0 3.984375 1.75q1.46875 1.75 1.46875 5.015625l0 4.046875zm-2.3125 -4.546875q0 -2.203125 -0.796875 -3.328125q-0.796875 -1.125 -2.34375 -1.125q-1.5 0 -2.296875 1.125q-0.796875 1.125 -0.796875 3.328125l0 5.015625q0 2.203125 0.796875 3.34375q0.8125 1.125 2.328125 1.125q1.53125 0 2.3125 -1.125q0.796875 -1.125 0.796875 -3.34375l0 -5.015625zm15.42186 -1.5625q0 1.328125 -0.75 2.34375q-0.75 1.0 -2.015625 1.484375q1.46875 0.515625 2.34375 1.625q0.890625 1.09375 0.890625 2.53125q0 2.375 -1.546875 3.625q-1.53125 1.25 -3.984375 1.25q-2.515625 0 -4.046875 -1.25q-1.5156097 -1.25 -1.5156097 -3.625q0 -1.4375 0.859375 -2.53125q0.87498474 -1.109375 2.3593597 -1.625q-1.28125 -0.484375 -2.015625 -1.484375q-0.71873474 -1.015625 -0.71873474 -2.34375q0 -2.25 1.3906097 -3.46875q1.390625 -1.234375 3.65625 -1.234375q2.25 0 3.671875 1.234375q1.421875 1.21875 1.421875 3.46875zm-1.828125 7.9375q0 -1.40625 -0.921875 -2.296875q-0.921875 -0.90625 -2.34375 -0.90625q-1.421875 0 -2.328125 0.90625q-0.890625 0.890625 -0.890625 2.296875q0 1.453125 0.875 2.28125q0.890625 0.828125 2.375 0.828125q1.4375 0 2.328125 -0.828125q0.90625 -0.828125 0.90625 -2.28125zm-0.46875 -7.890625q0 -1.265625 -0.796875 -2.09375q-0.796875 -0.84375 -2.0 -0.84375q-1.234375 0 -1.984375 0.8125q-0.75 0.796875 -0.75 2.125q0 1.296875 0.75 2.09375q0.765625 0.78125 2.015625 0.78125q1.21875 0 1.984375 -0.78125q0.78125 -0.796875 0.78125 -2.09375z" fill-rule="nonzero"></path><path fill="#000000" fill-opacity="0.0" d="m376.22833 533.5722l80.53546 0l0 39.24408l-80.53546 0z" fill-rule="evenodd"></path><path fill="#000000" d="m386.36896 565.6122l0 -1.578125l5.59375 -6.21875q1.5 -1.671875 2.03125 -2.65625q0.53125 -0.984375 0.53125 -2.015625q0 -1.28125 -0.75 -2.15625q-0.75 -0.875 -1.984375 -0.875q-1.765625 0 -2.609375 0.90625q-0.828125 0.90625 -0.828125 2.5625l-2.203125 0l-0.03125 -0.078125q-0.0625 -2.203125 1.453125 -3.703125q1.53125 -1.5 4.21875 -1.5q2.3125 0 3.671875 1.34375q1.375 1.34375 1.375 3.421875q0 1.390625 -0.828125 2.78125q-0.828125 1.390625 -2.328125 3.015625l-4.484375 4.890625l0.015625 0.046875l6.0625 0l0.1875 -1.953125l1.953125 0l0 3.765625l-11.046875 0zm24.394531 -6.5q0 3.265625 -1.453125 5.015625q-1.453125 1.734375 -3.96875 1.734375q-2.515625 0 -3.984375 -1.75q-1.453125 -1.75 -1.453125 -5.0l0 -4.046875q0 -3.265625 1.453125 -5.015625q1.453125 -1.75 3.953125 -1.75q2.53125 0 3.984375 1.75q1.46875 1.75 1.46875 5.015625l0 4.046875zm-2.3125 -4.546875q0 -2.203125 -0.796875 -3.328125q-0.796875 -1.125 -2.34375 -1.125q-1.5 0 -2.296875 1.125q-0.796875 1.125 -0.796875 3.328125l0 5.015625q0 2.203125 0.796875 3.34375q0.8125 1.125 2.328125 1.125q1.53125 0 2.3125 -1.125q0.796875 -1.125 0.796875 -3.34375l0 -5.015625zm5.140625 9.5625l2.640625 -0.328125l0 -12.78125l-2.6875 0.046875l0 -1.4375l4.984375 -1.078125l0 15.25l2.625 0.328125l0 1.484375l-7.5625 0l0 -1.484375zm9.890625 0l2.640625 -0.328125l0 -12.78125l-2.6875 0.046875l0 -1.4375l4.984375 -1.078125l0 15.25l2.625 0.328125l0 1.484375l-7.5625 0l0 -1.484375z" fill-rule="nonzero"></path><path fill="#000000" fill-opacity="0.0" d="m562.13385 533.5722l80.53546 0l0 39.24408l-80.53546 0z" fill-rule="evenodd"></path><path fill="#000000" d="m572.2745 565.6122l0 -1.578125l5.59375 -6.21875q1.5 -1.671875 2.03125 -2.65625q0.53125 -0.984375 0.53125 -2.015625q0 -1.28125 -0.75 -2.15625q-0.75 -0.875 -1.984375 -0.875q-1.765625 0 -2.609375 0.90625q-0.828125 0.90625 -0.828125 2.5625l-2.203125 0l-0.03125 -0.078125q-0.0625 -2.203125 1.453125 -3.703125q1.53125 -1.5 4.21875 -1.5q2.3125 0 3.671875 1.34375q1.375 1.34375 1.375 3.421875q0 1.390625 -0.828125 2.78125q-0.828125 1.390625 -2.328125 3.015625l-4.484375 4.890625l0.015625 0.046875l6.0625 0l0.1875 -1.953125l1.953125 0l0 3.765625l-11.046875 0zm24.394531 -6.5q0 3.265625 -1.453125 5.015625q-1.453125 1.734375 -3.96875 1.734375q-2.515625 0 -3.984375 -1.75q-1.453125 -1.75 -1.453125 -5.0l0 -4.046875q0 -3.265625 1.453125 -5.015625q1.453125 -1.75 3.953125 -1.75q2.53125 0 3.984375 1.75q1.46875 1.75 1.46875 5.015625l0 4.046875zm-2.3125 -4.546875q0 -2.203125 -0.796875 -3.328125q-0.796875 -1.125 -2.34375 -1.125q-1.5 0 -2.296875 1.125q-0.796875 1.125 -0.796875 3.328125l0 5.015625q0 2.203125 0.796875 3.34375q0.8125 1.125 2.328125 1.125q1.53125 0 2.3125 -1.125q0.796875 -1.125 0.796875 -3.34375l0 -5.015625zm5.140625 9.5625l2.640625 -0.328125l0 -12.78125l-2.6875 0.046875l0 -1.4375l4.984375 -1.078125l0 15.25l2.625 0.328125l0 1.484375l-7.5625 0l0 -1.484375zm19.171875 -4.265625l2.359375 0l0 1.8125l-2.359375 0l0 2.125l1.90625 0.328125l0 1.484375l-6.109375 0l0 -1.484375l1.90625 -0.328125l0 -2.125l-7.671875 0l0 -1.296875l7.53125 -11.828125l2.4375 0l0 11.3125zm-7.5 0l5.203125 0l0 -8.015625l-0.078125 -0.03125l-0.234375 0.625l-4.890625 7.421875z" fill-rule="nonzero"></path><path fill="#000000" fill-opacity="0.0" d="m764.03937 533.5722l80.53546 0l0 39.24408l-80.53546 0z" fill-rule="evenodd"></path><path fill="#000000" d="m774.18 565.6122l0 -1.578125l5.59375 -6.21875q1.5 -1.671875 2.03125 -2.65625q0.53125 -0.984375 0.53125 -2.015625q0 -1.28125 -0.75 -2.15625q-0.75 -0.875 -1.984375 -0.875q-1.765625 0 -2.609375 0.90625q-0.828125 0.90625 -0.828125 2.5625l-2.203125 0l-0.03125 -0.078125q-0.0625 -2.203125 1.453125 -3.703125q1.53125 -1.5 4.21875 -1.5q2.3125 0 3.671875 1.34375q1.375 1.34375 1.375 3.421875q0 1.390625 -0.828125 2.78125q-0.828125 1.390625 -2.328125 3.015625l-4.484375 4.890625l0.015625 0.046875l6.0625 0l0.1875 -1.953125l1.953125 0l0 3.765625l-11.046875 0zm24.394531 -6.5q0 3.265625 -1.453125 5.015625q-1.453125 1.734375 -3.96875 1.734375q-2.515625 0 -3.984375 -1.75q-1.453125 -1.75 -1.453125 -5.0l0 -4.046875q0 -3.265625 1.453125 -5.015625q1.453125 -1.75 3.953125 -1.75q2.53125 0 3.984375 1.75q1.46875 1.75 1.46875 5.015625l0 4.046875zm-2.3125 -4.546875q0 -2.203125 -0.796875 -3.328125q-0.796875 -1.125 -2.34375 -1.125q-1.5 0 -2.296875 1.125q-0.796875 1.125 -0.796875 3.328125l0 5.015625q0 2.203125 0.796875 3.34375q0.8125 1.125 2.328125 1.125q1.53125 0 2.3125 -1.125q0.796875 -1.125 0.796875 -3.34375l0 -5.015625zm5.140625 9.5625l2.640625 -0.328125l0 -12.78125l-2.6875 0.046875l0 -1.4375l4.984375 -1.078125l0 15.25l2.625 0.328125l0 1.484375l-7.5625 0l0 -1.484375zm20.890625 -13.765625q-3.09375 3.6875 -4.1875 6.53125q-1.078125 2.828125 -1.546875 6.875l-0.1875 1.84375l-2.3125 0l0.1875 -1.84375q0.484375 -4.03125 1.90625 -7.203125q1.421875 -3.171875 3.875 -6.203125l-7.125 0l-0.171875 1.953125l-1.96875 0l0 -3.765625l11.53125 0l0 1.8125z" fill-rule="nonzero"></path><path fill="#000000" fill-opacity="0.0" d="m76.46457 494.45224c53.79921 -3.1163635 260.8237 -1.8937073 322.7953 -18.698181c61.971558 -16.804443 36.99298 -46.224396 49.03412 -82.1286c12.041107 -35.904205 3.4151306 -108.319336 23.212585 -133.29657c19.797455 -24.977264 75.19119 -17.797043 95.572174 -16.56694c20.381042 1.2300873 20.575684 -9.437881 26.713928 23.947495c6.1382446 33.385406 1.104126 139.7406 10.1154785 176.36484c9.011353 36.624237 4.534546 35.402466 43.95276 43.380585c39.418213 7.978119 160.46368 3.7401428 192.5564 4.4881897" fill-rule="evenodd"></path><path stroke="#4a86e8" stroke-width="4.0" stroke-linejoin="round" stroke-linecap="butt" stroke-dasharray="4.0,12.0" d="m76.46457 494.45224c53.79921 -3.1163635 260.8237 -1.8937073 322.7953 -18.698181c61.971558 -16.804443 36.99298 -46.224396 49.03412 -82.1286c12.041107 -35.904205 3.4151306 -108.319336 23.212585 -133.29657c19.797455 -24.977264 75.19119 -17.797043 95.572174 -16.56694c20.381042 1.2300873 20.575684 -9.437881 26.713928 23.947495c6.1382446 33.385406 1.104126 139.7406 10.1154785 176.36484c9.011353 36.624237 4.534546 35.402466 43.95276 43.380585c39.418213 7.978119 160.46368 3.7401428 192.5564 4.4881897" fill-rule="evenodd"></path><path fill="#000000" fill-opacity="0.0" d="m189.48294 381.1916l109.88977 0l0 47.46457l-109.88977 0z" fill-rule="evenodd"></path><path fill="#cc0000" d="m217.30283 411.97952l2.640625 -0.328125l0 -12.78125l-2.6875 0.046875l0 -1.4375l4.984375 -1.078125l0 15.25l2.625 0.328125l0 1.484375l-7.5625 0l0 -1.484375zm24.027344 -0.03125q-0.625 0.875 -1.53125 1.328125q-0.890625 0.4375 -2.078125 0.4375q-2.3125 0 -3.625 -1.6875q-1.296875 -1.6875 -1.296875 -4.421875l0 -0.25q0 -3.0625 1.296875 -4.9375q1.3125 -1.875 3.65625 -1.875q1.125 0 1.984375 0.421875q0.859375 0.421875 1.46875 1.203125l0 -5.171875l-1.90625 -0.328125l0 -1.484375l1.90625 0l2.3125 0l0 16.46875l1.90625 0.328125l0 1.484375l-3.90625 0l-0.1875 -1.515625zm-6.234375 -4.34375q0 1.90625 0.78125 3.078125q0.796875 1.15625 2.4375 1.15625q1.03125 0 1.734375 -0.46875q0.703125 -0.46875 1.15625 -1.328125l0 -5.890625q-0.4375 -0.796875 -1.15625 -1.265625q-0.71875 -0.46875 -1.71875 -0.46875q-1.640625 0 -2.4375 1.375q-0.796875 1.375 -0.796875 3.5625l0 0.25zm20.355469 5.859375q-0.09375 -0.515625 -0.15625 -0.921875q-0.0625 -0.421875 -0.078125 -0.828125q-0.671875 0.859375 -1.671875 1.4375q-1.0 0.5625 -2.140625 0.5625q-1.984375 0 -3.015625 -0.96875q-1.03125 -0.96875 -1.03125 -2.734375q0 -1.796875 1.453125 -2.765625q1.46875 -0.984375 4.015625 -0.984375l2.375 0l0 -1.484375q0 -1.109375 -0.703125 -1.75q-0.703125 -0.65625 -1.953125 -0.65625q-0.875 0 -1.546875 0.21875q-0.65625 0.21875 -1.0625 0.609375l-0.25 1.328125l-1.78125 0l0 -2.453125q0.875 -0.6875 2.09375 -1.109375q1.234375 -0.421875 2.6875 -0.421875q2.15625 0 3.484375 1.109375q1.34375 1.09375 1.34375 3.15625l0 6.09375q0 0.25 0 0.484375q0 0.234375 0.03125 0.46875l0.9375 0.125l0 1.484375l-3.03125 0zm-3.703125 -1.6875q1.140625 0 2.09375 -0.546875q0.953125 -0.5625 1.359375 -1.328125l0 -2.09375l-2.46875 0q-1.40625 0 -2.234375 0.65625q-0.828125 0.65625 -0.828125 1.59375q0 0.84375 0.515625 1.28125q0.515625 0.4375 1.5625 0.4375zm20.703125 -9.5l-1.140625 0.171875l-4.828125 12.96875q-0.484375 1.265625 -1.390625 2.21875q-0.890625 0.953125 -2.421875 0.953125q-0.265625 0 -0.703125 -0.0625q-0.421875 -0.0625 -0.65625 -0.125l0.234375 -1.8125q-0.078125 -0.015625 0.40625 0.015625q0.484375 0.03125 0.625 0.03125q0.734375 0 1.1875 -0.640625q0.453125 -0.625 0.796875 -1.46875l0.546875 -1.3125l-4.171875 -10.75l-1.171875 -0.1875l0 -1.5l5.125 0l0 1.5l-1.421875 0.234375l2.1875 6.25l0.421875 1.625l0.0625 0l2.640625 -7.875l-1.4375 -0.234375l0 -1.5l5.109375 0l0 1.5z" fill-rule="nonzero"></path><path fill="#000000" fill-opacity="0.0" d="m284.69553 306.87402l109.88977 0l0 47.46457l-109.88977 0z" fill-rule="evenodd"></path><path fill="#cc0000" d="m307.6912 329.55255l2.015625 0q1.546875 0 2.171875 -0.765625q0.640625 -0.78125 0.640625 -2.140625q0 -1.46875 -0.734375 -2.234375q-0.71875 -0.765625 -2.125 -0.765625q-1.359375 0 -2.171875 0.796875q-0.8125 0.796875 -0.8125 2.109375l-2.21875 0l-0.015625 -0.078125q-0.0625 -1.9375 1.390625 -3.28125q1.46875 -1.359375 3.828125 -1.359375q2.359375 0 3.765625 1.265625q1.40625 1.25 1.40625 3.59375q0 1.046875 -0.640625 2.09375q-0.640625 1.046875 -1.90625 1.609375q1.53125 0.5 2.171875 1.578125q0.640625 1.078125 0.640625 2.40625q0 2.34375 -1.53125 3.6875q-1.53125 1.328125 -3.90625 1.328125q-2.34375 0 -3.875 -1.265625q-1.515625 -1.265625 -1.46875 -3.421875l0.046875 -0.0625l2.203125 0q0 1.34375 0.8125 2.140625q0.828125 0.796875 2.28125 0.796875q1.453125 0 2.28125 -0.796875q0.84375 -0.796875 0.84375 -2.359375q0 -1.578125 -0.75 -2.328125q-0.734375 -0.75 -2.328125 -0.75l-2.015625 0l0 -1.796875zm24.269531 8.078125q-0.625 0.875 -1.53125 1.328125q-0.890625 0.4375 -2.078125 0.4375q-2.3125 0 -3.625 -1.6875q-1.296875 -1.6875 -1.296875 -4.421875l0 -0.25q0 -3.0625 1.296875 -4.9375q1.3125 -1.875 3.65625 -1.875q1.125 0 1.984375 0.421875q0.859375 0.421875 1.46875 1.203125l0 -5.171875l-1.90625 -0.328125l0 -1.484375l1.90625 0l2.3125 0l0 16.46875l1.90625 0.328125l0 1.484375l-3.90625 0l-0.1875 -1.515625zm-6.234375 -4.34375q0 1.90625 0.78125 3.078125q0.796875 1.15625 2.4375 1.15625q1.03125 0 1.734375 -0.46875q0.703125 -0.46875 1.15625 -1.328125l0 -5.890625q-0.4375 -0.796875 -1.15625 -1.265625q-0.71875 -0.46875 -1.71875 -0.46875q-1.640625 0 -2.4375 1.375q-0.796875 1.375 -0.796875 3.5625l0 0.25zm20.355469 5.859375q-0.09375 -0.515625 -0.15625 -0.921875q-0.0625 -0.421875 -0.078125 -0.828125q-0.671875 0.859375 -1.671875 1.4375q-1.0 0.5625 -2.140625 0.5625q-1.984375 0 -3.015625 -0.96875q-1.03125 -0.96875 -1.03125 -2.734375q0 -1.796875 1.453125 -2.765625q1.46875 -0.984375 4.015625 -0.984375l2.375 0l0 -1.484375q0 -1.109375 -0.703125 -1.75q-0.703125 -0.65625 -1.953125 -0.65625q-0.875 0 -1.546875 0.21875q-0.65625 0.21875 -1.0625 0.609375l-0.25 1.328125l-1.78125 0l0 -2.453125q0.875 -0.6875 2.09375 -1.109375q1.234375 -0.421875 2.6875 -0.421875q2.15625 0 3.484375 1.109375q1.34375 1.09375 1.34375 3.15625l0 6.09375q0 0.25 0 0.484375q0 0.234375 0.03125 0.46875l0.9375 0.125l0 1.484375l-3.03125 0zm-3.703125 -1.6875q1.140625 0 2.09375 -0.546875q0.953125 -0.5625 1.359375 -1.328125l0 -2.09375l-2.46875 0q-1.40625 0 -2.234375 0.65625q-0.828125 0.65625 -0.828125 1.59375q0 0.84375 0.515625 1.28125q0.515625 0.4375 1.5625 0.4375zm20.703125 -9.5l-1.140625 0.171875l-4.828125 12.96875q-0.484375 1.265625 -1.390625 2.21875q-0.890625 0.953125 -2.421875 0.953125q-0.265625 0 -0.703125 -0.0625q-0.421875 -0.0625 -0.65625 -0.125l0.234375 -1.8125q-0.078125 -0.015625 0.40625 0.015625q0.484375 0.03125 0.625 0.03125q0.734375 0 1.1875 -0.640625q0.453125 -0.625 0.796875 -1.46875l0.546875 -1.3125l-4.171875 -10.75l-1.171875 -0.1875l0 -1.5l5.125 0l0 1.5l-1.421875 0.234375l2.1875 6.25l0.421875 1.625l0.0625 0l2.640625 -7.875l-1.4375 -0.234375l0 -1.5l5.109375 0l0 1.5zm11.2734375 2.484375l-1.734375 0l-0.375 -1.515625q-0.421875 -0.40625 -1.0625 -0.640625q-0.640625 -0.234375 -1.453125 -0.234375q-1.21875 0 -1.828125 0.546875q-0.59375 0.53125 -0.59375 1.28125q0 0.75 0.53125 1.1875q0.53125 0.4375 2.140625 0.78125q2.40625 0.515625 3.578125 1.40625q1.171875 0.875 1.171875 2.359375q0 1.6875 -1.375 2.734375q-1.359375 1.046875 -3.5625 1.046875q-1.4375 0 -2.59375 -0.328125q-1.140625 -0.34375 -2.046875 -0.984375l-0.015625 -2.890625l1.734375 0l0.4375 1.703125q0.40625 0.359375 1.078125 0.53125q0.6875 0.15625 1.40625 0.15625q1.234375 0 1.921875 -0.5q0.703125 -0.5 0.703125 -1.296875q0 -0.765625 -0.578125 -1.25q-0.578125 -0.5 -2.203125 -0.859375q-2.296875 -0.515625 -3.46875 -1.375q-1.171875 -0.875 -1.171875 -2.34375q0 -1.546875 1.3125 -2.640625q1.3125 -1.09375 3.421875 -1.09375q1.453125 0 2.59375 0.375q1.15625 0.375 1.90625 1.046875l0.125 2.796875z" fill-rule="nonzero"></path><path fill="#000000" fill-opacity="0.0" d="m361.55118 214.23097l109.88977 0l0 47.464554l-109.88977 0z" fill-rule="evenodd"></path><path fill="#cc0000" d="m387.85544 229.19075q0.875 0 1.734375 0.203125q0.859375 0.203125 1.421875 0.5l-0.453125 1.71875q-0.546875 -0.265625 -1.203125 -0.4375q-0.65625 -0.171875 -1.5 -0.171875q-1.796875 0 -2.859375 1.359375q-1.046875 1.359375 -1.125 4.078125l0.046875 0.046875q0.65625 -0.609375 1.609375 -0.953125q0.953125 -0.359375 2.046875 -0.359375q2.28125 0 3.640625 1.578125q1.359375 1.578125 1.359375 4.0q0 2.65625 -1.453125 4.328125q-1.4375 1.671875 -3.84375 1.671875q-2.5 0 -4.140625 -1.8125q-1.640625 -1.828125 -1.640625 -5.15625l0 -2.296875q0 -4.046875 1.78125 -6.171875q1.78125 -2.125 4.578125 -2.125zm-0.78125 7.703125q-1.1875 0 -2.015625 0.484375q-0.828125 0.46875 -1.265625 1.265625l0 1.359375q0 2.390625 0.984375 3.671875q1.0 1.265625 2.5 1.265625q1.40625 0 2.203125 -1.203125q0.796875 -1.203125 0.796875 -2.984375q0 -1.6875 -0.859375 -2.765625q-0.84375 -1.09375 -2.34375 -1.09375zm21.964844 8.09375q-0.625 0.875 -1.53125 1.328125q-0.890625 0.4375 -2.078125 0.4375q-2.3125 0 -3.625 -1.6875q-1.296875 -1.6875 -1.296875 -4.421875l0 -0.25q0 -3.0625 1.296875 -4.9375q1.3125 -1.875 3.65625 -1.875q1.125 0 1.984375 0.421875q0.859375 0.421875 1.46875 1.203125l0 -5.171875l-1.90625 -0.328125l0 -1.484375l1.90625 0l2.3125 0l0 16.46875l1.90625 0.328125l0 1.484375l-3.90625 0l-0.1875 -1.515625zm-6.234375 -4.34375q0 1.90625 0.78125 3.078125q0.796875 1.15625 2.4375 1.15625q1.03125 0 1.734375 -0.46875q0.703125 -0.46875 1.15625 -1.328125l0 -5.890625q-0.4375 -0.796875 -1.15625 -1.265625q-0.71875 -0.46875 -1.71875 -0.46875q-1.640625 0 -2.4375 1.375q-0.796875 1.375 -0.796875 3.5625l0 0.25zm20.355469 5.859375q-0.09375 -0.515625 -0.15625 -0.921875q-0.0625 -0.421875 -0.078125 -0.828125q-0.671875 0.859375 -1.671875 1.4375q-1.0 0.5625 -2.140625 0.5625q-1.984375 0 -3.015625 -0.96875q-1.03125 -0.96875 -1.03125 -2.734375q0 -1.796875 1.453125 -2.765625q1.46875 -0.984375 4.015625 -0.984375l2.375 0l0 -1.484375q0 -1.109375 -0.703125 -1.75q-0.703125 -0.65625 -1.953125 -0.65625q-0.875 0 -1.546875 0.21875q-0.65625 0.21875 -1.0625 0.609375l-0.25 1.328125l-1.78125 0l0 -2.453125q0.875 -0.6875 2.09375 -1.109375q1.234375 -0.421875 2.6875 -0.421875q2.15625 0 3.484375 1.109375q1.34375 1.09375 1.34375 3.15625l0 6.09375q0 0.25 0 0.484375q0 0.234375 0.03125 0.46875l0.9375 0.125l0 1.484375l-3.03125 0zm-3.703125 -1.6875q1.140625 0 2.09375 -0.546875q0.953125 -0.5625 1.359375 -1.328125l0 -2.09375l-2.46875 0q-1.40625 0 -2.234375 0.65625q-0.828125 0.65625 -0.828125 1.59375q0 0.84375 0.515625 1.28125q0.515625 0.4375 1.5625 0.4375zm20.703125 -9.5l-1.140625 0.171875l-4.828125 12.96875q-0.484375 1.265625 -1.390625 2.21875q-0.890625 0.953125 -2.421875 0.953125q-0.265625 0 -0.703125 -0.0625q-0.421875 -0.0625 -0.65625 -0.125l0.234375 -1.8125q-0.078125 -0.015625 0.40625 0.015625q0.484375 0.03125 0.625 0.03125q0.734375 0 1.1875 -0.640625q0.453125 -0.625 0.796875 -1.46875l0.546875 -1.3125l-4.171875 -10.75l-1.171875 -0.1875l0 -1.5l5.125 0l0 1.5l-1.421875 0.234375l2.1875 6.25l0.421875 1.625l0.0625 0l2.640625 -7.875l-1.4375 -0.234375l0 -1.5l5.109375 0l0 1.5zm11.2734375 2.484375l-1.734375 0l-0.375 -1.515625q-0.421875 -0.40625 -1.0625 -0.640625q-0.640625 -0.234375 -1.453125 -0.234375q-1.21875 0 -1.828125 0.546875q-0.59375 0.53125 -0.59375 1.28125q0 0.75 0.53125 1.1875q0.53125 0.4375 2.140625 0.78125q2.40625 0.515625 3.578125 1.40625q1.171875 0.875 1.171875 2.359375q0 1.6875 -1.375 2.734375q-1.359375 1.046875 -3.5625 1.046875q-1.4375 0 -2.59375 -0.328125q-1.140625 -0.34375 -2.046875 -0.984375l-0.015625 -2.890625l1.734375 0l0.4375 1.703125q0.40625 0.359375 1.078125 0.53125q0.6875 0.15625 1.40625 0.15625q1.234375 0 1.921875 -0.5q0.703125 -0.5 0.703125 -1.296875q0 -0.765625 -0.578125 -1.25q-0.578125 -0.5 -2.203125 -0.859375q-2.296875 -0.515625 -3.46875 -1.375q-1.171875 -0.875 -1.171875 -2.34375q0 -1.546875 1.3125 -2.640625q1.3125 -1.09375 3.421875 -1.09375q1.453125 0 2.59375 0.375q1.15625 0.375 1.90625 1.046875l0.125 2.796875z" fill-rule="nonzero"></path><path fill="#000000" fill-opacity="0.0" d="m496.08923 20.262466l140.8504 0l0 47.46457l-140.8504 0z" fill-rule="evenodd"></path><path fill="#cc0000" d="m517.2508 42.940998l2.015625 0q1.546875 0 2.171875 -0.765625q0.640625 -0.78125 0.640625 -2.140625q0 -1.46875 -0.734375 -2.234375q-0.71875 -0.765625 -2.125 -0.765625q-1.359375 0 -2.171875 0.796875q-0.8125 0.796875 -0.8125 2.109375l-2.21875 0l-0.015625 -0.078125q-0.0625 -1.9375 1.390625 -3.28125q1.46875 -1.359375 3.828125 -1.359375q2.359375 0 3.765625 1.265625q1.40625 1.25 1.40625 3.59375q0 1.046875 -0.640625 2.09375q-0.640625 1.046875 -1.90625 1.609375q1.53125 0.5 2.171875 1.578125q0.640625 1.078125 0.640625 2.40625q0 2.34375 -1.53125 3.6875q-1.53125 1.328125 -3.90625 1.328125q-2.34375 0 -3.875 -1.265625q-1.515625 -1.265625 -1.46875 -3.421875l0.046875 -0.0625l2.203125 0q0 1.34375 0.8125 2.140625q0.828125 0.796875 2.28125 0.796875q1.453125 0 2.28125 -0.796875q0.84375 -0.796875 0.84375 -2.359375q0 -1.578125 -0.75 -2.328125q-0.734375 -0.75 -2.328125 -0.75l-2.015625 0l0 -1.796875zm15.269531 8.109375l1.90625 -0.328125l0 -9.046875l-1.90625 -0.328125l0 -1.5l3.984375 0l0.140625 1.65625q0.609375 -0.90625 1.5625 -1.390625q0.96875 -0.5 2.234375 -0.5q1.265625 0 2.171875 0.59375q0.921875 0.578125 1.375 1.75q0.59375 -1.078125 1.578125 -1.703125q0.984375 -0.640625 2.296875 -0.640625q1.953125 0 3.078125 1.34375q1.125 1.328125 1.125 4.0l0 5.765625l1.90625 0.328125l0 1.484375l-6.140625 0l0 -1.484375l1.90625 -0.328125l0 -5.796875q0 -1.875 -0.640625 -2.65625q-0.640625 -0.78125 -1.90625 -0.78125q-1.21875 0 -1.953125 0.859375q-0.71875 0.84375 -0.84375 2.140625l0 6.234375l1.90625 0.328125l0 1.484375l-6.125 0l0 -1.484375l1.90625 -0.328125l0 -5.796875q0 -1.78125 -0.65625 -2.609375q-0.65625 -0.828125 -1.921875 -0.828125q-1.046875 0 -1.734375 0.4375q-0.671875 0.4375 -1.03125 1.21875l0 7.578125l1.90625 0.328125l0 1.484375l-6.125 0l0 -1.484375zm23.144531 -4.96875q0 -2.8125 1.515625 -4.640625q1.53125 -1.828125 4.140625 -1.828125q2.625 0 4.15625 1.828125q1.53125 1.8125 1.53125 4.640625l0 0.25q0 2.84375 -1.53125 4.65625q-1.515625 1.796875 -4.140625 1.796875q-2.625 0 -4.15625 -1.8125q-1.515625 -1.8125 -1.515625 -4.640625l0 -0.25zm2.296875 0.25q0 2.015625 0.84375 3.328125q0.859375 1.3125 2.53125 1.3125q1.640625 0 2.5 -1.3125q0.859375 -1.3125 0.859375 -3.328125l0 -0.25q0 -2.0 -0.859375 -3.3125q-0.859375 -1.328125 -2.515625 -1.328125q-1.671875 0 -2.515625 1.328125q-0.84375 1.3125 -0.84375 3.3125l0 0.25zm10.808594 4.71875l1.90625 -0.328125l0 -9.046875l-1.90625 -0.328125l0 -1.5l3.96875 0l0.171875 1.890625q0.625 -1.0 1.578125 -1.5625q0.96875 -0.5625 2.1875 -0.5625q2.046875 0 3.171875 1.203125q1.125 1.203125 1.125 3.71875l0 6.1875l1.90625 0.328125l0 1.484375l-6.125 0l0 -1.484375l1.90625 -0.328125l0 -6.140625q0 -1.6875 -0.671875 -2.390625q-0.65625 -0.703125 -2.015625 -0.703125q-0.984375 0 -1.765625 0.484375q-0.765625 0.484375 -1.21875 1.3125l0 7.4375l1.90625 0.328125l0 1.484375l-6.125 0l0 -1.484375zm19.820312 -14.25l0 3.046875l2.40625 0l0 1.71875l-2.40625 0l0 7.703125q0 0.890625 0.359375 1.25q0.375 0.359375 0.984375 0.359375q0.3125 0 0.6875 -0.046875q0.375 -0.0625 0.640625 -0.109375l0.3125 1.578125q-0.328125 0.203125 -0.96875 0.34375q-0.625 0.140625 -1.25 0.140625q-1.40625 0 -2.25 -0.84375q-0.828125 -0.859375 -0.828125 -2.671875l0 -7.703125l-2.0 0l0 -1.71875l2.0 0l0 -3.046875l2.3125 0zm4.4453125 14.25l1.90625 -0.328125l0 -14.65625l-1.90625 -0.328125l0 -1.484375l4.21875 0l0 7.28125q0.65625 -0.90625 1.59375 -1.40625q0.953125 -0.515625 2.109375 -0.515625q2.046875 0 3.171875 1.21875q1.125 1.21875 1.125 3.75l0 6.140625l1.90625 0.328125l0 1.484375l-6.125 0l0 -1.484375l1.90625 -0.328125l0 -6.15625q0 -1.578125 -0.671875 -2.328125q-0.671875 -0.75 -2.015625 -0.75q-0.9375 0 -1.71875 0.453125q-0.78125 0.453125 -1.28125 1.234375l0 7.546875l1.90625 0.328125l0 1.484375l-6.125 0l0 -1.484375zm25.507812 -7.21875l-1.734375 0l-0.375 -1.515625q-0.421875 -0.40625 -1.0625 -0.640625q-0.640625 -0.234375 -1.453125 -0.234375q-1.21875 0 -1.828125 0.546875q-0.59375 0.53125 -0.59375 1.28125q0 0.75 0.53125 1.1875q0.53125 0.4375 2.140625 0.78125q2.40625 0.515625 3.578125 1.40625q1.171875 0.875 1.171875 2.359375q0 1.6875 -1.375 2.734375q-1.359375 1.046875 -3.5625 1.046875q-1.4375 0 -2.59375 -0.328125q-1.140625 -0.34375 -2.046875 -0.984375l-0.015625 -2.890625l1.734375 0l0.4375 1.703125q0.40625 0.359375 1.078125 0.53125q0.6875 0.15625 1.40625 0.15625q1.234375 0 1.921875 -0.5q0.703125 -0.5 0.703125 -1.296875q0 -0.765625 -0.578125 -1.25q-0.578125 -0.5 -2.203125 -0.859375q-2.296875 -0.515625 -3.46875 -1.375q-1.171875 -0.875 -1.171875 -2.34375q0 -1.546875 1.3125 -2.640625q1.3125 -1.09375 3.421875 -1.09375q1.453125 0 2.59375 0.375q1.15625 0.375 1.90625 1.046875l0.125 2.796875z" fill-rule="nonzero"></path><path fill="#000000" fill-opacity="0.0" d="m703.7244 410.82416l121.98425 0l0 47.46457l-121.98425 0z" fill-rule="evenodd"></path><path fill="#cc0000" d="m736.96265 430.48706q0 1.328125 -0.75 2.34375q-0.75 1.0 -2.015625 1.484375q1.46875 0.515625 2.34375 1.625q0.890625 1.09375 0.890625 2.53125q0 2.375 -1.546875 3.625q-1.53125 1.25 -3.984375 1.25q-2.515625 0 -4.046875 -1.25q-1.515625 -1.25 -1.515625 -3.625q0 -1.4375 0.859375 -2.53125q0.875 -1.109375 2.359375 -1.625q-1.28125 -0.484375 -2.015625 -1.484375q-0.71875 -1.015625 -0.71875 -2.34375q0 -2.25 1.390625 -3.46875q1.390625 -1.234375 3.65625 -1.234375q2.25 0 3.671875 1.234375q1.421875 1.21875 1.421875 3.46875zm-1.828125 7.9375q0 -1.40625 -0.921875 -2.296875q-0.921875 -0.90625 -2.34375 -0.90625q-1.421875 0 -2.328125 0.90625q-0.890625 0.890625 -0.890625 2.296875q0 1.453125 0.875 2.28125q0.890625 0.828125 2.375 0.828125q1.4375 0 2.328125 -0.828125q0.90625 -0.828125 0.90625 -2.28125zm-0.46875 -7.890625q0 -1.265625 -0.796875 -2.09375q-0.796875 -0.84375 -2.0 -0.84375q-1.234375 0 -1.984375 0.8125q-0.75 0.796875 -0.75 2.125q0 1.296875 0.75 2.09375q0.765625 0.78125 2.015625 0.78125q1.21875 0 1.984375 -0.78125q0.78125 -0.796875 0.78125 -2.09375zm16.128906 6.0625q0 3.265625 -1.453125 5.015625q-1.453125 1.734375 -3.96875 1.734375q-2.515625 0 -3.984375 -1.75q-1.453125 -1.75 -1.453125 -5.0l0 -4.046875q0 -3.265625 1.453125 -5.015625q1.453125 -1.75 3.953125 -1.75q2.53125 0 3.984375 1.75q1.46875 1.75 1.46875 5.015625l0 4.046875zm-2.3125 -4.546875q0 -2.203125 -0.796875 -3.328125q-0.796875 -1.125 -2.34375 -1.125q-1.5 0 -2.296875 1.125q-0.796875 1.125 -0.796875 3.328125l0 5.015625q0 2.203125 0.796875 3.34375q0.8125 1.125 2.328125 1.125q1.53125 0 2.3125 -1.125q0.796875 -1.125 0.796875 -3.34375l0 -5.015625zm10.277344 9.5625l1.90625 -0.328125l0 -9.046875l-1.90625 -0.328125l0 -1.5l3.984375 0l0.140625 1.65625q0.609375 -0.90625 1.5625 -1.390625q0.96875 -0.5 2.234375 -0.5q1.265625 0 2.171875 0.59375q0.921875 0.578125 1.375 1.75q0.59375 -1.078125 1.578125 -1.703125q0.984375 -0.640625 2.296875 -0.640625q1.953125 0 3.078125 1.34375q1.125 1.328125 1.125 4.0l0 5.765625l1.90625 0.328125l0 1.484375l-6.140625 0l0 -1.484375l1.90625 -0.328125l0 -5.796875q0 -1.875 -0.640625 -2.65625q-0.640625 -0.78125 -1.90625 -0.78125q-1.21875 0 -1.953125 0.859375q-0.71875 0.84375 -0.84375 2.140625l0 6.234375l1.90625 0.328125l0 1.484375l-6.125 0l0 -1.484375l1.90625 -0.328125l0 -5.796875q0 -1.78125 -0.65625 -2.609375q-0.65625 -0.828125 -1.921875 -0.828125q-1.046875 0 -1.734375 0.4375q-0.671875 0.4375 -1.03125 1.21875l0 7.578125l1.90625 0.328125l0 1.484375l-6.125 0l0 -1.484375zm23.128906 0l1.90625 -0.328125l0 -9.046875l-1.90625 -0.328125l0 -1.5l4.21875 0l0 10.875l1.90625 0.328125l0 1.484375l-6.125 0l0 -1.484375zm4.21875 -14.4375l-2.3125 0l0 -2.359375l2.3125 0l0 2.359375zm3.3242188 14.4375l1.90625 -0.328125l0 -9.046875l-1.90625 -0.328125l0 -1.5l3.96875 0l0.171875 1.890625q0.625 -1.0 1.578125 -1.5625q0.96875 -0.5625 2.1875 -0.5625q2.046875 0 3.171875 1.203125q1.125 1.203125 1.125 3.71875l0 6.1875l1.90625 0.328125l0 1.484375l-6.125 0l0 -1.484375l1.90625 -0.328125l0 -6.140625q0 -1.6875 -0.671875 -2.390625q-0.65625 -0.703125 -2.015625 -0.703125q-0.984375 0 -1.765625 0.484375q-0.765625 0.484375 -1.21875 1.3125l0 7.4375l1.90625 0.328125l0 1.484375l-6.125 0l0 -1.484375z" fill-rule="nonzero"></path><path fill="#000000" fill-opacity="0.0" d="m598.92914 215.5433l171.37006 0l0 47.46457l-171.37006 0z" fill-rule="evenodd"></path><path fill="#0b5394" d="m611.84467 246.3312l2.640625 -0.328125l0 -12.78125l-2.6875 0.046875l0 -1.4375l4.984375 -1.078125l0 15.25l2.625 0.328125l0 1.484375l-7.5625 0l0 -1.484375zm12.71875 -8.109375l2.015625 0q1.546875 0 2.171875 -0.765625q0.640625 -0.78125 0.640625 -2.140625q0 -1.46875 -0.734375 -2.234375q-0.71875 -0.765625 -2.125 -0.765625q-1.359375 0 -2.171875 0.796875q-0.8125 0.796875 -0.8125 2.109375l-2.21875 0l-0.015625 -0.078125q-0.0625 -1.9375 1.390625 -3.28125q1.46875 -1.359375 3.828125 -1.359375q2.359375 0 3.765625 1.265625q1.40625 1.25 1.40625 3.59375q0 1.046875 -0.640625 2.09375q-0.640625 1.046875 -1.90625 1.609375q1.53125 0.5 2.171875 1.578125q0.640625 1.078125 0.640625 2.40625q0 2.34375 -1.53125 3.6875q-1.53125 1.328125 -3.90625 1.328125q-2.34375 0 -3.875 -1.265625q-1.515625 -1.265625 -1.46875 -3.421875l0.046875 -0.0625l2.203125 0q0 1.34375 0.8125 2.140625q0.828125 0.796875 2.28125 0.796875q1.453125 0 2.28125 -0.796875q0.84375 -0.796875 0.84375 -2.359375q0 -1.578125 -0.75 -2.328125q-0.734375 -0.75 -2.328125 -0.75l-2.015625 0l0 -1.796875zm20.992188 3.09375q0 3.265625 -1.453125 5.015625q-1.453125 1.734375 -3.96875 1.734375q-2.515625 0 -3.984375 -1.75q-1.453125 -1.75 -1.453125 -5.0l0 -4.046875q0 -3.265625 1.453125 -5.015625q1.453125 -1.75 3.953125 -1.75q2.53125 0 3.984375 1.75q1.46875 1.75 1.46875 5.015625l0 4.046875zm-2.3125 -4.546875q0 -2.203125 -0.796875 -3.328125q-0.796875 -1.125 -2.34375 -1.125q-1.5 0 -2.296875 1.125q-0.796875 1.125 -0.796875 3.328125l0 5.015625q0 2.203125 0.796875 3.34375q0.8125 1.125 2.328125 1.125q1.53125 0 2.3125 -1.125q0.796875 -1.125 0.796875 -3.34375l0 -5.015625zm10.449219 14.4375l1.90625 -0.328125l0 -13.921875l-1.90625 -0.328125l0 -1.5l3.890625 0l0.203125 1.546875q0.640625 -0.859375 1.546875 -1.3125q0.90625 -0.46875 2.109375 -0.46875q2.34375 0 3.65625 1.875q1.3125 1.875 1.3125 4.9375l0 0.25q0 2.734375 -1.3125 4.421875q-1.3125 1.6875 -3.625 1.6875q-1.171875 0 -2.0625 -0.390625q-0.875 -0.40625 -1.5 -1.171875l0 4.375l1.90625 0.328125l0 1.484375l-6.125 0l0 -1.484375zm10.390625 -9.5q0 -2.171875 -0.84375 -3.546875q-0.84375 -1.390625 -2.5 -1.390625q-0.984375 0 -1.6875 0.453125q-0.703125 0.4375 -1.140625 1.21875l0 6.171875q0.4375 0.78125 1.125 1.21875q0.703125 0.421875 1.71875 0.421875q1.640625 0 2.484375 -1.1875q0.84375 -1.203125 0.84375 -3.109375l0 -0.25zm4.421875 4.625l1.90625 -0.328125l0 -9.046875l-1.90625 -0.328125l0 -1.5l4.21875 0l0 10.875l1.90625 0.328125l0 1.484375l-6.125 0l0 -1.484375zm4.21875 -14.4375l-2.3125 0l0 -2.359375l2.3125 0l0 2.359375zm3.3867188 19.3125l1.90625 -0.328125l0 -13.921875l-1.90625 -0.328125l0 -1.5l3.890625 0l0.203125 1.546875q0.640625 -0.859375 1.546875 -1.3125q0.90625 -0.46875 2.109375 -0.46875q2.34375 0 3.65625 1.875q1.3125 1.875 1.3125 4.9375l0 0.25q0 2.734375 -1.3125 4.421875q-1.3125 1.6875 -3.625 1.6875q-1.171875 0 -2.0625 -0.390625q-0.875 -0.40625 -1.5 -1.171875l0 4.375l1.90625 0.328125l0 1.484375l-6.125 0l0 -1.484375zm10.390625 -9.5q0 -2.171875 -0.84375 -3.546875q-0.84375 -1.390625 -2.5 -1.390625q-0.984375 0 -1.6875 0.453125q-0.703125 0.4375 -1.140625 1.21875l0 6.171875q0.4375 0.78125 1.125 1.21875q0.703125 0.421875 1.71875 0.421875q1.640625 0 2.484375 -1.1875q0.84375 -1.203125 0.84375 -3.109375l0 -0.25zm10.203125 6.359375q-2.640625 0 -4.203125 -1.765625q-1.5625 -1.765625 -1.5625 -4.578125l0 -0.515625q0 -2.703125 1.609375 -4.5q1.609375 -1.8125 3.8125 -1.8125q2.546875 0 3.859375 1.546875q1.328125 1.546875 1.328125 4.125l0 1.453125l-8.21875 0l-0.046875 0.046875q0.046875 1.828125 0.9375 3.015625q0.890625 1.171875 2.484375 1.171875q1.171875 0 2.0625 -0.328125q0.890625 -0.34375 1.53125 -0.921875l0.90625 1.5q-0.6875 0.65625 -1.8125 1.109375q-1.109375 0.453125 -2.6875 0.453125zm-0.34375 -11.34375q-1.15625 0 -1.984375 0.984375q-0.8125 0.96875 -1.0 2.4375l0.015625 0.0625l5.84375 0l0 -0.296875q0 -1.359375 -0.734375 -2.265625q-0.71875 -0.921875 -2.140625 -0.921875zm7.1523438 -5.703125l0 -1.484375l4.21875 0l0 16.46875l1.90625 0.328125l0 1.484375l-6.125 0l0 -1.484375l1.90625 -0.328125l0 -14.65625l-1.90625 -0.328125zm7.8710938 15.3125l1.90625 -0.328125l0 -9.046875l-1.90625 -0.328125l0 -1.5l4.21875 0l0 10.875l1.90625 0.328125l0 1.484375l-6.125 0l0 -1.484375zm4.21875 -14.4375l-2.3125 0l0 -2.359375l2.3125 0l0 2.359375zm3.3242188 14.4375l1.90625 -0.328125l0 -9.046875l-1.90625 -0.328125l0 -1.5l3.96875 0l0.171875 1.890625q0.625 -1.0 1.578125 -1.5625q0.96875 -0.5625 2.1875 -0.5625q2.046814 0 3.171814 1.203125q1.125 1.203125 1.125 3.71875l0 6.1875l1.90625 0.328125l0 1.484375l-6.124939 0l0 -1.484375l1.906189 -0.328125l0 -6.140625q0 -1.6875 -0.671875 -2.390625q-0.65625 -0.703125 -2.015564 -0.703125q-0.984375 0 -1.765625 0.484375q-0.765625 0.484375 -1.21875 1.3125l0 7.4375l1.90625 0.328125l0 1.484375l-6.125 0l0 -1.484375zm21.570251 1.734375q-2.640625 0 -4.203125 -1.765625q-1.5625 -1.765625 -1.5625 -4.578125l0 -0.515625q0 -2.703125 1.609375 -4.5q1.609375 -1.8125 3.8125 -1.8125q2.546875 0 3.859375 1.546875q1.328125 1.546875 1.328125 4.125l0 1.453125l-8.21875 0l-0.046875 0.046875q0.046875 1.828125 0.9375 3.015625q0.890625 1.171875 2.484375 1.171875q1.171875 0 2.0625 -0.328125q0.890625 -0.34375 1.53125 -0.921875l0.90625 1.5q-0.6875 0.65625 -1.8125 1.109375q-1.109375 0.453125 -2.6875 0.453125zm-0.34375 -11.34375q-1.15625 0 -1.984375 0.984375q-0.8125 0.96875 -1.0 2.4375l0.015625 0.0625l5.84375 0l0 -0.296875q0 -1.359375 -0.734375 -2.265625q-0.71875 -0.921875 -2.140625 -0.921875zm17.167969 2.390625l-1.734375 0l-0.375 -1.515625q-0.421875 -0.40625 -1.0625 -0.640625q-0.640625 -0.234375 -1.453125 -0.234375q-1.21875 0 -1.828125 0.546875q-0.59375 0.53125 -0.59375 1.28125q0 0.75 0.53125 1.1875q0.53125 0.4375 2.140625 0.78125q2.40625 0.515625 3.578125 1.40625q1.171875 0.875 1.171875 2.359375q0 1.6875 -1.375 2.734375q-1.359375 1.046875 -3.5625 1.046875q-1.4375 0 -2.59375 -0.328125q-1.140625 -0.34375 -2.046875 -0.984375l-0.015625 -2.890625l1.734375 0l0.4375 1.703125q0.40625 0.359375 1.078125 0.53125q0.6875 0.15625 1.40625 0.15625q1.234375 0 1.921875 -0.5q0.703125 -0.5 0.703125 -1.296875q0 -0.765625 -0.578125 -1.25q-0.578125 -0.5 -2.203125 -0.859375q-2.296875 -0.515625 -3.46875 -1.375q-1.171875 -0.875 -1.171875 -2.34375q0 -1.546875 1.3125 -2.640625q1.3125 -1.09375 3.421875 -1.09375q1.453125 0 2.59375 0.375q1.15625 0.375 1.90625 1.046875l0.125 2.796875z" fill-rule="nonzero"></path><path fill="#000000" fill-opacity="0.0" d="m485.60367 458.28873l140.85037 0l0 47.46457l-140.85037 0z" fill-rule="evenodd"></path><path fill="#0b5394" d="m502.70074 489.07663l2.640625 -0.328125l0 -12.78125l-2.6875 0.046875l0 -1.4375l4.984375 -1.078125l0 15.25l2.625 0.328125l0 1.484375l-7.5625 0l0 -1.484375zm15.199219 4.875l1.90625 -0.328125l0 -13.921875l-1.90625 -0.328125l0 -1.5l3.890625 0l0.203125 1.546875q0.640625 -0.859375 1.546875 -1.3125q0.90625 -0.46875 2.109375 -0.46875q2.34375 0 3.65625 1.875q1.3125 1.875 1.3125 4.9375l0 0.25q0 2.734375 -1.3125 4.421875q-1.3125 1.6875 -3.625 1.6875q-1.171875 0 -2.0625 -0.390625q-0.875 -0.40625 -1.5 -1.171875l0 4.375l1.90625 0.328125l0 1.484375l-6.125 0l0 -1.484375zm10.390625 -9.5q0 -2.171875 -0.84375 -3.546875q-0.84375 -1.390625 -2.5 -1.390625q-0.984375 0 -1.6875 0.453125q-0.703125 0.4375 -1.140625 1.21875l0 6.171875q0.4375 0.78125 1.125 1.21875q0.703125 0.421875 1.71875 0.421875q1.640625 0 2.484375 -1.1875q0.84375 -1.203125 0.84375 -3.109375l0 -0.25zm4.421875 4.625l1.90625 -0.328125l0 -9.046875l-1.90625 -0.328125l0 -1.5l4.21875 0l0 10.875l1.90625 0.328125l0 1.484375l-6.125 0l0 -1.484375zm4.21875 -14.4375l-2.3125 0l0 -2.359375l2.3125 0l0 2.359375zm3.3867188 19.3125l1.90625 -0.328125l0 -13.921875l-1.90625 -0.328125l0 -1.5l3.890625 0l0.203125 1.546875q0.640625 -0.859375 1.546875 -1.3125q0.90625 -0.46875 2.109375 -0.46875q2.34375 0 3.65625 1.875q1.3125 1.875 1.3125 4.9375l0 0.25q0 2.734375 -1.3125 4.421875q-1.3125 1.6875 -3.625 1.6875q-1.171875 0 -2.0625 -0.390625q-0.875 -0.40625 -1.5 -1.171875l0 4.375l1.90625 0.328125l0 1.484375l-6.125 0l0 -1.484375zm10.390625 -9.5q0 -2.171875 -0.84375 -3.546875q-0.84375 -1.390625 -2.5 -1.390625q-0.984375 0 -1.6875 0.453125q-0.703125 0.4375 -1.140625 1.21875l0 6.171875q0.4375 0.78125 1.125 1.21875q0.703125 0.421875 1.71875 0.421875q1.640625 0 2.484375 -1.1875q0.84375 -1.203125 0.84375 -3.109375l0 -0.25zm10.203125 6.359375q-2.640625 0 -4.203125 -1.765625q-1.5625 -1.765625 -1.5625 -4.578125l0 -0.515625q0 -2.703125 1.609375 -4.5q1.609375 -1.8125 3.8125 -1.8125q2.546875 0 3.859375 1.546875q1.328125 1.546875 1.328125 4.125l0 1.453125l-8.21875 0l-0.046875 0.046875q0.046875 1.828125 0.9375 3.015625q0.890625 1.171875 2.484375 1.171875q1.171875 0 2.0625 -0.328125q0.890625 -0.34375 1.53125 -0.921875l0.90625 1.5q-0.6875 0.65625 -1.8125 1.109375q-1.109375 0.453125 -2.6875 0.453125zm-0.34375 -11.34375q-1.15625 0 -1.984375 0.984375q-0.8125 0.96875 -1.0 2.4375l0.015625 0.0625l5.84375 0l0 -0.296875q0 -1.359375 -0.734375 -2.265625q-0.71875 -0.921875 -2.140625 -0.921875zm7.1523438 -5.703125l0 -1.484375l4.21875 0l0 16.46875l1.90625 0.328125l0 1.484375l-6.125 0l0 -1.484375l1.90625 -0.328125l0 -14.65625l-1.90625 -0.328125zm7.8710938 15.3125l1.90625 -0.328125l0 -9.046875l-1.90625 -0.328125l0 -1.5l4.21875 0l0 10.875l1.90625 0.328125l0 1.484375l-6.125 0l0 -1.484375zm4.21875 -14.4375l-2.3125 0l0 -2.359375l2.3125 0l0 2.359375zm3.3242188 14.4375l1.90625 -0.328125l0 -9.046875l-1.90625 -0.328125l0 -1.5l3.96875 0l0.171875 1.890625q0.625 -1.0 1.578125 -1.5625q0.96875 -0.5625 2.1875 -0.5625q2.046875 0 3.171875 1.203125q1.125 1.203125 1.125 3.71875l0 6.1875l1.90625 0.328125l0 1.484375l-6.125 0l0 -1.484375l1.90625 -0.328125l0 -6.140625q0 -1.6875 -0.671875 -2.390625q-0.65625 -0.703125 -2.015625 -0.703125q-0.984375 0 -1.765625 0.484375q-0.765625 0.484375 -1.21875 1.3125l0 7.4375l1.90625 0.328125l0 1.484375l-6.125 0l0 -1.484375zm21.570312 1.734375q-2.640625 0 -4.203125 -1.765625q-1.5625 -1.765625 -1.5625 -4.578125l0 -0.515625q0 -2.703125 1.609375 -4.5q1.609375 -1.8125 3.8125 -1.8125q2.546875 0 3.859375 1.546875q1.328125 1.546875 1.328125 4.125l0 1.453125l-8.21875 0l-0.046875 0.046875q0.046875 1.828125 0.9375 3.015625q0.890625 1.171875 2.484375 1.171875q1.171875 0 2.0625 -0.328125q0.890625 -0.34375 1.53125 -0.921875l0.90625 1.5q-0.6875 0.65625 -1.8125 1.109375q-1.109375 0.453125 -2.6875 0.453125zm-0.34375 -11.34375q-1.15625 0 -1.984375 0.984375q-0.8125 0.96875 -1.0 2.4375l0.015625 0.0625l5.84375 0l0 -0.296875q0 -1.359375 -0.734375 -2.265625q-0.71875 -0.921875 -2.140625 -0.921875z" fill-rule="nonzero"></path><path fill="#000000" fill-opacity="0.0" d="m609.5486 434.3596l113.57477 0l0 47.46457l-113.57477 0z" fill-rule="evenodd"></path><path fill="#cc0000" d="m637.2539 460.88187l2.359375 0l0 1.8125l-2.359375 0l0 2.125l1.90625 0.328125l0 1.484375l-6.109375 0l0 -1.484375l1.90625 -0.328125l0 -2.125l-7.671875 0l0 -1.296875l7.53125 -11.828125l2.4375 0l0 11.3125zm-7.5 0l5.203125 0l0 -8.015625l-0.078125 -0.03125l-0.234375 0.625l-4.890625 7.421875zm22.988281 -0.75q0 3.265625 -1.453125 5.015625q-1.453125 1.734375 -3.96875 1.734375q-2.515625 0 -3.984375 -1.75q-1.453125 -1.75 -1.453125 -5.0l0 -4.046875q0 -3.265625 1.453125 -5.015625q1.453125 -1.75 3.953125 -1.75q2.53125 0 3.984375 1.75q1.46875 1.75 1.46875 5.015625l0 4.046875zm-2.3125 -4.546875q0 -2.203125 -0.796875 -3.328125q-0.796875 -1.125 -2.34375 -1.125q-1.5 0 -2.296875 1.125q-0.796875 1.125 -0.796875 3.328125l0 5.015625q0 2.203125 0.796875 3.34375q0.8125 1.125 2.328125 1.125q1.53125 0 2.3125 -1.125q0.796875 -1.125 0.796875 -3.34375l0 -5.015625zm10.277344 9.5625l1.90625 -0.328125l0 -9.046875l-1.90625 -0.328125l0 -1.5l3.984375 0l0.140625 1.65625q0.609375 -0.90625 1.5625 -1.390625q0.96875 -0.5 2.234375 -0.5q1.265625 0 2.171875 0.59375q0.921875 0.578125 1.375 1.75q0.59375 -1.078125 1.578125 -1.703125q0.984375 -0.640625 2.296875 -0.640625q1.953125 0 3.078125 1.34375q1.125 1.328125 1.125 4.0l0 5.765625l1.90625 0.328125l0 1.484375l-6.140625 0l0 -1.484375l1.90625 -0.328125l0 -5.796875q0 -1.875 -0.640625 -2.65625q-0.640625 -0.78125 -1.90625 -0.78125q-1.21875 0 -1.953125 0.859375q-0.71875 0.84375 -0.84375 2.140625l0 6.234375l1.90625 0.328125l0 1.484375l-6.125 0l0 -1.484375l1.90625 -0.328125l0 -5.796875q0 -1.78125 -0.65625 -2.609375q-0.65625 -0.828125 -1.921875 -0.828125q-1.046875 0 -1.734375 0.4375q-0.671875 0.4375 -1.03125 1.21875l0 7.578125l1.90625 0.328125l0 1.484375l-6.125 0l0 -1.484375zm23.128906 0l1.90625 -0.328125l0 -9.046875l-1.90625 -0.328125l0 -1.5l4.21875 0l0 10.875l1.90625 0.328125l0 1.484375l-6.125 0l0 -1.484375zm4.21875 -14.4375l-2.3125 0l0 -2.359375l2.3125 0l0 2.359375zm3.3242188 14.4375l1.90625 -0.328125l0 -9.046875l-1.90625 -0.328125l0 -1.5l3.96875 0l0.171875 1.890625q0.625 -1.0 1.578125 -1.5625q0.96875 -0.5625 2.1875 -0.5625q2.046875 0 3.171875 1.203125q1.125 1.203125 1.125 3.71875l0 6.1875l1.90625 0.328125l0 1.484375l-6.125 0l0 -1.484375l1.90625 -0.328125l0 -6.140625q0 -1.6875 -0.671875 -2.390625q-0.65625 -0.703125 -2.015625 -0.703125q-0.984375 0 -1.765625 0.484375q-0.765625 0.484375 -1.21875 1.3125l0 7.4375l1.90625 0.328125l0 1.484375l-6.125 0l0 -1.484375z" fill-rule="nonzero"></path></g></svg>

