<?xml version="1.0" standalone="yes"?>

<svg version="1.1" viewBox="0.0 0.0 926.2755905511812 229.36220472440945" fill="none" stroke="none" stroke-linecap="square" stroke-miterlimit="10" xmlns="http://www.w3.org/2000/svg" xmlns:xlink="http://www.w3.org/1999/xlink"><clipPath id="p.0"><path d="m0 0l926.2756 0l0 229.3622l-926.2756 0l0 -229.3622z" clip-rule="nonzero"></path></clipPath><g clip-path="url(#p.0)"><path fill="#000000" fill-opacity="0.0" d="m0 0l926.2756 0l0 229.3622l-926.2756 0z" fill-rule="evenodd"></path><path stroke="#9e9e9e" stroke-width="1.0" stroke-linecap="butt" d="m53.335957 31.501312l0 165.38583" fill-rule="nonzero"></path><path stroke="#9e9e9e" stroke-width="1.0" stroke-linecap="butt" d="m95.01837 72.698166l0 124.18898" fill-rule="nonzero"></path><path stroke="#9e9e9e" stroke-width="1.0" stroke-linecap="butt" d="m136.70079 72.698166l0 124.18898" fill-rule="nonzero"></path><path stroke="#9e9e9e" stroke-width="1.0" stroke-linecap="butt" d="m178.38321 72.698166l0 124.18898" fill-rule="nonzero"></path><path stroke="#9e9e9e" stroke-width="1.0" stroke-linecap="butt" d="m220.06561 31.501312l0 165.38583" fill-rule="nonzero"></path><path stroke="#9e9e9e" stroke-width="1.0" stroke-linecap="butt" d="m261.74802 72.698166l0 124.18898" fill-rule="nonzero"></path><path stroke="#9e9e9e" stroke-width="1.0" stroke-linecap="butt" d="m303.43045 72.698166l0 124.18898" fill-rule="nonzero"></path><path stroke="#9e9e9e" stroke-width="1.0" stroke-linecap="butt" d="m345.11285 72.698166l0 124.18898" fill-rule="nonzero"></path><path stroke="#9e9e9e" stroke-width="1.0" stroke-linecap="butt" d="m386.7953 31.501312l0 165.38583" fill-rule="nonzero"></path><path stroke="#9e9e9e" stroke-width="1.0" stroke-linecap="butt" d="m428.4777 72.698166l0 124.18898" fill-rule="nonzero"></path><path stroke="#9e9e9e" stroke-width="1.0" stroke-linecap="butt" d="m470.1601 72.698166l0 124.18898" fill-rule="nonzero"></path><path stroke="#9e9e9e" stroke-width="1.0" stroke-linecap="butt" d="m511.84253 72.698166l0 124.18898" fill-rule="nonzero"></path><path stroke="#9e9e9e" stroke-width="1.0" stroke-linecap="butt" d="m553.52496 31.501312l0 165.38583" fill-rule="nonzero"></path><path stroke="#9e9e9e" stroke-width="1.0" stroke-linecap="butt" d="m595.20734 72.698166l0 124.18898" fill-rule="nonzero"></path><path stroke="#9e9e9e" stroke-width="1.0" stroke-linecap="butt" d="m636.8898 72.698166l0 124.18898" fill-rule="nonzero"></path><path stroke="#9e9e9e" stroke-width="1.0" stroke-linecap="butt" d="m678.5722 72.698166l0 124.18898" fill-rule="nonzero"></path><path stroke="#9e9e9e" stroke-width="1.0" stroke-linecap="butt" d="m720.2546 31.501312l0 165.38583" fill-rule="nonzero"></path><path stroke="#9e9e9e" stroke-width="1.0" stroke-linecap="butt" d="m761.937 72.698166l0 124.18898" fill-rule="nonzero"></path><path stroke="#9e9e9e" stroke-width="1.0" stroke-linecap="butt" d="m803.61945 72.698166l0 124.18898" fill-rule="nonzero"></path><path stroke="#9e9e9e" stroke-width="1.0" stroke-linecap="butt" d="m845.3018 72.698166l0 124.18898" fill-rule="nonzero"></path><path stroke="#9e9e9e" stroke-width="1.0" stroke-linecap="butt" d="m886.98425 31.501312l0 165.38583" fill-rule="nonzero"></path><path stroke="#9e9e9e" stroke-width="1.0" stroke-linecap="butt" d="m52.83727 32.0l834.6456 0" fill-rule="nonzero"></path><path stroke="#9e9e9e" stroke-width="1.0" stroke-linecap="butt" d="m52.83727 73.19685l834.6456 0" fill-rule="nonzero"></path><path stroke="#9e9e9e" stroke-width="1.0" stroke-linecap="butt" d="m52.83727 113.19685l834.6456 0" fill-rule="nonzero"></path><path stroke="#9e9e9e" stroke-width="1.0" stroke-linecap="butt" d="m52.83727 154.79265l834.6456 0" fill-rule="nonzero"></path><path stroke="#9e9e9e" stroke-width="1.0" stroke-linecap="butt" d="m52.83727 196.38846l834.6456 0" fill-rule="nonzero"></path><path fill="#000000" d="m117.70071 59.51842l0 -1.765625l4.375 -4.6875q0.953125 -1.09375 1.34375 -1.828125q0.40625 -0.75 0.40625 -1.390625q0 -0.859375 -0.46875 -1.390625q-0.453125 -0.546875 -1.296875 -0.546875q-0.9375 0 -1.421875 0.640625q-0.484375 0.625 -0.484375 1.6875l-2.640625 0l-0.015625 -0.0625q-0.046875 -1.828125 1.1875 -3.09375q1.25 -1.265625 3.375 -1.265625q2.078125 0 3.28125 1.09375q1.203125 1.078125 1.203125 2.890625q0 1.21875 -0.671875 2.265625q-0.671875 1.03125 -2.234375 2.703125l-2.40625 2.625l0.015625 0.046875l3.515625 0l0.109375 -1.34375l2.0625 0l0 3.421875l-9.234375 0zm19.671318 -5.265625q0 2.6875 -1.234375 4.078125q-1.21875 1.375 -3.3125 1.375q-2.109375 0 -3.34375 -1.375q-1.234375 -1.390625 -1.234375 -4.078125l0 -2.96875q0 -2.671875 1.21875 -4.0625q1.234375 -1.40625 3.34375 -1.40625q2.09375 0 3.328125 1.40625q1.234375 1.390625 1.234375 4.0625l0 2.96875zm-2.6875 -3.25q0 -1.609375 -0.484375 -2.34375q-0.484375 -0.75 -1.390625 -0.75q-0.921875 0 -1.40625 0.75q-0.46875 0.734375 -0.46875 2.34375l0 3.515625q0 1.625 0.484375 2.375q0.484375 0.734375 1.40625 0.734375q0.90625 0 1.375 -0.734375q0.484375 -0.75 0.484375 -2.375l0 -3.515625zm3.9237366 6.890625l2.28125 -0.28125l0 -9.140625l-2.3125 0l0 -1.546875l5.0 -0.921875l0 11.609375l2.296875 0.28125l0 1.625l-7.265625 0l0 -1.625zm11.16597 -6.28125l1.53125 0q0.953125 0 1.421875 -0.5q0.46875 -0.515625 0.46875 -1.40625q0 -0.8125 -0.46875 -1.296875q-0.46875 -0.5 -1.34375 -0.5q-0.765625 0 -1.28125 0.453125q-0.515625 0.4375 -0.515625 1.15625l-2.625 0l-0.015625 -0.0625q-0.0625 -1.578125 1.203125 -2.609375q1.28125 -1.03125 3.15625 -1.03125q2.09375 0 3.34375 1.0q1.25 1.0 1.25 2.859375q0 0.875 -0.5625 1.671875q-0.546875 0.796875 -1.515625 1.234375q1.109375 0.40625 1.703125 1.234375q0.59375 0.828125 0.59375 1.921875q0 1.84375 -1.359375 2.90625q-1.34375 1.0625 -3.453125 1.0625q-1.875 0 -3.234375 -0.984375q-1.34375 -1.0 -1.296875 -2.828125l0.015625 -0.046875l2.625 0q0 0.78125 0.546875 1.28125q0.5625 0.5 1.421875 0.5q0.9375 0 1.46875 -0.515625q0.546875 -0.515625 0.546875 -1.40625q0 -1.0625 -0.53125 -1.5625q-0.53125 -0.5 -1.5625 -0.5l-1.53125 0l0 -2.03125z" fill-rule="nonzero"></path><path fill="#000000" d="m284.23907 59.51842l0 -1.765625l4.375 -4.6875q0.953125 -1.09375 1.34375 -1.828125q0.40625 -0.75 0.40625 -1.390625q0 -0.859375 -0.46875 -1.390625q-0.453125 -0.546875 -1.296875 -0.546875q-0.9375 0 -1.421875 0.640625q-0.484375 0.625 -0.484375 1.6875l-2.640625 0l-0.015625 -0.0625q-0.046875 -1.828125 1.1875 -3.09375q1.25 -1.265625 3.375 -1.265625q2.078125 0 3.28125 1.09375q1.203125 1.078125 1.203125 2.890625q0 1.21875 -0.671875 2.265625q-0.671875 1.03125 -2.234375 2.703125l-2.40625 2.625l0.015625 0.046875l3.515625 0l0.109375 -1.34375l2.0625 0l0 3.421875l-9.234375 0zm19.671326 -5.265625q0 2.6875 -1.234375 4.078125q-1.21875 1.375 -3.3125 1.375q-2.109375 0 -3.34375 -1.375q-1.234375 -1.390625 -1.234375 -4.078125l0 -2.96875q0 -2.671875 1.21875 -4.0625q1.234375 -1.40625 3.34375 -1.40625q2.09375 0 3.328125 1.40625q1.234375 1.390625 1.234375 4.0625l0 2.96875zm-2.6875 -3.25q0 -1.609375 -0.484375 -2.34375q-0.484375 -0.75 -1.390625 -0.75q-0.921875 0 -1.40625 0.75q-0.46875 0.734375 -0.46875 2.34375l0 3.515625q0 1.625 0.484375 2.375q0.484375 0.734375 1.40625 0.734375q0.90625 0 1.375 -0.734375q0.484375 -0.75 0.484375 -2.375l0 -3.515625zm3.9237366 6.890625l2.28125 -0.28125l0 -9.140625l-2.3125 0l0 -1.546875l5.0 -0.921875l0 11.609375l2.296875 0.28125l0 1.625l-7.265625 0l0 -1.625zm16.30658 -3.40625l1.53125 0l0 1.796875l-1.53125 0l0 1.328125l1.4375 0.28125l0 1.625l-5.578125 0l0 -1.625l1.4375 -0.28125l0 -1.328125l-5.5 0l-0.140625 -1.328125l5.625 -8.953125l2.71875 0l0 8.484375zm-5.8125 0l3.109375 0l0 -4.875l-0.046875 -0.015625l-0.21875 0.390625l-2.84375 4.5z" fill-rule="nonzero"></path><path fill="#000000" d="m451.25113 59.51842l0 -1.765625l4.375 -4.6875q0.953125 -1.09375 1.34375 -1.828125q0.40625 -0.75 0.40625 -1.390625q0 -0.859375 -0.46875 -1.390625q-0.453125 -0.546875 -1.296875 -0.546875q-0.9375 0 -1.421875 0.640625q-0.484375 0.625 -0.484375 1.6875l-2.640625 0l-0.015625 -0.0625q-0.046875 -1.828125 1.1875 -3.09375q1.25 -1.265625 3.375 -1.265625q2.078125 0 3.28125 1.09375q1.203125 1.078125 1.203125 2.890625q0 1.21875 -0.671875 2.265625q-0.671875 1.03125 -2.234375 2.703125l-2.40625 2.625l0.015625 0.046875l3.515625 0l0.109375 -1.34375l2.0625 0l0 3.421875l-9.234375 0zm19.671326 -5.265625q0 2.6875 -1.234375 4.078125q-1.21875 1.375 -3.3125 1.375q-2.109375 0 -3.34375 -1.375q-1.234375 -1.390625 -1.234375 -4.078125l0 -2.96875q0 -2.671875 1.21875 -4.0625q1.234375 -1.40625 3.34375 -1.40625q2.09375 0 3.328125 1.40625q1.234375 1.390625 1.234375 4.0625l0 2.96875zm-2.6875 -3.25q0 -1.609375 -0.484375 -2.34375q-0.484375 -0.75 -1.390625 -0.75q-0.921875 0 -1.40625 0.75q-0.46875 0.734375 -0.46875 2.34375l0 3.515625q0 1.625 0.484375 2.375q0.484375 0.734375 1.40625 0.734375q0.90625 0 1.375 -0.734375q0.484375 -0.75 0.484375 -2.375l0 -3.515625zm3.9237366 6.890625l2.28125 -0.28125l0 -9.140625l-2.3125 0l0 -1.546875l5.0 -0.921875l0 11.609375l2.296875 0.28125l0 1.625l-7.265625 0l0 -1.625zm15.36908 -8.796875l-0.234375 -0.921875l-3.640625 0l-0.375 3.125q0.375 -0.28125 0.90625 -0.453125q0.53125 -0.1875 1.171875 -0.203125q1.9375 -0.015625 3.0 1.1875q1.078125 1.203125 1.078125 3.359375q0 1.9375 -1.171875 3.234375q-1.171875 1.28125 -3.390625 1.28125q-1.84375 0 -3.171875 -1.015625q-1.328125 -1.015625 -1.28125 -2.796875l0.015625 -0.046875l2.59375 -0.125q0 0.90625 0.515625 1.40625q0.515625 0.5 1.328125 0.5q0.953125 0 1.40625 -0.671875q0.453125 -0.671875 0.453125 -1.75q0 -1.171875 -0.484375 -1.875q-0.484375 -0.703125 -1.4375 -0.703125q-0.765625 0 -1.1875 0.296875q-0.40625 0.28125 -0.578125 0.765625l-2.390625 -0.15625l0.78125 -7.53125l7.765625 0l0 3.09375l-1.671875 0z" fill-rule="nonzero"></path><path fill="#000000" d="m617.74396 59.51842l0 -1.765625l4.375 -4.6875q0.953125 -1.09375 1.34375 -1.828125q0.40625 -0.75 0.40625 -1.390625q0 -0.859375 -0.46875 -1.390625q-0.453125 -0.546875 -1.296875 -0.546875q-0.9375 0 -1.421875 0.640625q-0.484375 0.625 -0.484375 1.6875l-2.640625 0l-0.015625 -0.0625q-0.046875 -1.828125 1.1875 -3.09375q1.25 -1.265625 3.375 -1.265625q2.078125 0 3.28125 1.09375q1.203125 1.078125 1.203125 2.890625q0 1.21875 -0.671875 2.265625q-0.671875 1.03125 -2.234375 2.703125l-2.40625 2.625l0.015625 0.046875l3.515625 0l0.109375 -1.34375l2.0625 0l0 3.421875l-9.234375 0zm19.671326 -5.265625q0 2.6875 -1.234375 4.078125q-1.21875 1.375 -3.3125 1.375q-2.109375 0 -3.34375 -1.375q-1.234375 -1.390625 -1.234375 -4.078125l0 -2.96875q0 -2.671875 1.21875 -4.0625q1.234375 -1.40625 3.34375 -1.40625q2.09375 0 3.328125 1.40625q1.234375 1.390625 1.234375 4.0625l0 2.96875zm-2.6875 -3.25q0 -1.609375 -0.484375 -2.34375q-0.484375 -0.75 -1.390625 -0.75q-0.921875 0 -1.40625 0.75q-0.46875 0.734375 -0.46875 2.34375l0 3.515625q0 1.625 0.484375 2.375q0.484375 0.734375 1.40625 0.734375q0.90625 0 1.375 -0.734375q0.484375 -0.75 0.484375 -2.375l0 -3.515625zm3.923706 6.890625l2.28125 -0.28125l0 -9.140625l-2.3125 0l0 -1.546875l5.0 -0.921875l0 11.609375l2.296875 0.28125l0 1.625l-7.265625 0l0 -1.625zm13.90033 -12.078125q0.75 0 1.390625 0.140625q0.65625 0.140625 1.3125 0.421875l-0.484375 1.984375q-0.578125 -0.203125 -1.078125 -0.3125q-0.484375 -0.109375 -1.125 -0.109375q-1.203125 0 -1.9375 0.890625q-0.71875 0.875 -0.734375 2.59375l0.03125 0.046875q0.453125 -0.484375 1.15625 -0.75q0.703125 -0.265625 1.5625 -0.265625q1.8125 0 2.828125 1.28125q1.03125 1.28125 1.03125 3.28125q0 2.046875 -1.265625 3.375q-1.265625 1.3125 -3.28125 1.3125q-2.140625 0 -3.484375 -1.4375q-1.34375 -1.453125 -1.34375 -4.03125l0 -2.375q0 -2.859375 1.515625 -4.453125q1.515625 -1.59375 3.90625 -1.59375zm-0.625 6.6875q-0.75 0 -1.28125 0.25q-0.53125 0.234375 -0.8125 0.65625l0 0.890625q0 1.609375 0.578125 2.46875q0.578125 0.859375 1.546875 0.859375q0.828125 0 1.328125 -0.765625q0.515625 -0.765625 0.515625 -1.84375q0 -1.125 -0.515625 -1.8125q-0.5 -0.703125 -1.359375 -0.703125z" fill-rule="nonzero"></path><path fill="#000000" d="m784.6421 59.51842l0 -1.765625l4.375 -4.6875q0.953125 -1.09375 1.34375 -1.828125q0.40625 -0.75 0.40625 -1.390625q0 -0.859375 -0.46875 -1.390625q-0.453125 -0.546875 -1.296875 -0.546875q-0.9375 0 -1.421875 0.640625q-0.484375 0.625 -0.484375 1.6875l-2.640625 0l-0.015625 -0.0625q-0.046875 -1.828125 1.1875 -3.09375q1.25 -1.265625 3.375 -1.265625q2.078125 0 3.28125 1.09375q1.203125 1.078125 1.203125 2.890625q0 1.21875 -0.671875 2.265625q-0.671875 1.03125 -2.234375 2.703125l-2.40625 2.625l0.015625 0.046875l3.515625 0l0.109375 -1.34375l2.0625 0l0 3.421875l-9.234375 0zm19.671326 -5.265625q0 2.6875 -1.234375 4.078125q-1.21875 1.375 -3.3125 1.375q-2.109375 0 -3.34375 -1.375q-1.234375 -1.390625 -1.234375 -4.078125l0 -2.96875q0 -2.671875 1.21875 -4.0625q1.234375 -1.40625 3.34375 -1.40625q2.09375 0 3.328125 1.40625q1.234375 1.390625 1.234375 4.0625l0 2.96875zm-2.6875 -3.25q0 -1.609375 -0.484375 -2.34375q-0.484375 -0.75 -1.390625 -0.75q-0.921875 0 -1.40625 0.75q-0.46875 0.734375 -0.46875 2.34375l0 3.515625q0 1.625 0.484375 2.375q0.484375 0.734375 1.40625 0.734375q0.90625 0 1.375 -0.734375q0.484375 -0.75 0.484375 -2.375l0 -3.515625zm3.923767 6.890625l2.28125 -0.28125l0 -9.140625l-2.3125 0l0 -1.546875l5.0 -0.921875l0 11.609375l2.296875 0.28125l0 1.625l-7.265625 0l0 -1.625zm17.634705 -9.796875q-2.171875 2.546875 -2.96875 4.75q-0.78125 2.1875 -1.125 5.296875l-0.140625 1.375l-2.703125 0l0.125 -1.375q0.3125 -2.96875 1.34375 -5.453125q1.046875 -2.5 2.859375 -4.59375l-4.75 0l-0.109375 1.34375l-2.078125 0l0 -3.4375l9.546875 0l0 2.09375z" fill-rule="nonzero"></path><path fill="#000000" d="m75.91935 93.44748q0 1.515625 -0.5625 2.765625q-0.5625 1.25 -1.5625 2.015625l2.296875 1.640625l-1.046875 0.9375l-2.59375 -1.859375q-0.390625 0.140625 -0.8125 0.203125q-0.40625 0.078125 -0.828125 0.078125q-2.203125 0 -3.578125 -1.640625q-1.375 -1.65625 -1.375 -4.140625l0 -0.15625q0 -2.484375 1.375 -4.125q1.375 -1.65625 3.578125 -1.65625q2.265625 0 3.6875 1.65625q1.421875 1.640625 1.421875 4.125l0 0.15625zm-1.53125 -0.171875q0 -1.984375 -0.953125 -3.234375q-0.953125 -1.265625 -2.625 -1.265625q-1.609375 0 -2.515625 1.265625q-0.90625 1.25 -0.90625 3.234375l0 0.171875q0 2.0 0.90625 3.265625q0.90625 1.25 2.515625 1.25q1.703125 0 2.640625 -1.25q0.9375 -1.25 0.9375 -3.265625l0 -0.171875zm3.09375 4.796875l1.75 -0.21875l0 -8.53125l-1.78125 0.03125l0 -0.953125l3.328125 -0.71875l0 10.171875l1.75 0.21875l0 0.984375l-5.046875 0l0 -0.984375z" fill-rule="nonzero"></path><path fill="#000000" d="m116.480675 93.44748q0 1.515625 -0.5625 2.765625q-0.5625 1.25 -1.5625 2.015625l2.296875 1.640625l-1.046875 0.9375l-2.59375 -1.859375q-0.390625 0.140625 -0.8125 0.203125q-0.40625 0.078125 -0.828125 0.078125q-2.203125 0 -3.578125 -1.640625q-1.375 -1.65625 -1.375 -4.140625l0 -0.15625q0 -2.484375 1.375 -4.125q1.375 -1.65625 3.578125 -1.65625q2.265625 0 3.6875 1.65625q1.421875 1.640625 1.421875 4.125l0 0.15625zm-1.53125 -0.171875q0 -1.984375 -0.953125 -3.234375q-0.953125 -1.265625 -2.625 -1.265625q-1.609375 0 -2.515625 1.265625q-0.90625 1.25 -0.90625 3.234375l0 0.171875q0 2.0 0.90625 3.265625q0.90625 1.25 2.515625 1.25q1.703125 0 2.640625 -1.25q0.9375 -1.25 0.9375 -3.265625l0 -0.171875zm2.90625 5.78125l0 -1.0625l3.71875 -4.140625q1.0 -1.109375 1.359375 -1.765625q0.359375 -0.65625 0.359375 -1.34375q0 -0.859375 -0.5 -1.4375q-0.5 -0.578125 -1.328125 -0.578125q-1.171875 0 -1.734375 0.609375q-0.546875 0.59375 -0.546875 1.6875l-1.484375 0l-0.015625 -0.046875q-0.03125 -1.46875 0.96875 -2.46875q1.015625 -1.0 2.8125 -1.0q1.546875 0 2.453125 0.90625q0.90625 0.890625 0.90625 2.265625q0 0.9375 -0.546875 1.875q-0.546875 0.921875 -1.546875 2.0l-3.0 3.25l0.015625 0.046875l4.046875 0l0.125 -1.3125l1.296875 0l0 2.515625l-7.359375 0z" fill-rule="nonzero"></path><path fill="#000000" d="m158.26074 93.44748q0 1.515625 -0.5625 2.765625q-0.5625 1.25 -1.5625 2.015625l2.296875 1.640625l-1.046875 0.9375l-2.59375 -1.859375q-0.390625 0.140625 -0.8125 0.203125q-0.40625 0.078125 -0.828125 0.078125q-2.203125 0 -3.578125 -1.640625q-1.375 -1.65625 -1.375 -4.140625l0 -0.15625q0 -2.484375 1.375 -4.125q1.375 -1.65625 3.578125 -1.65625q2.265625 0 3.6875 1.65625q1.421875 1.640625 1.421875 4.125l0 0.15625zm-1.53125 -0.171875q0 -1.984375 -0.953125 -3.234375q-0.953125 -1.265625 -2.625 -1.265625q-1.609375 0 -2.515625 1.265625q-0.90625 1.25 -0.90625 3.234375l0 0.171875q0 2.0 0.90625 3.265625q0.90625 1.25 2.515625 1.25q1.703125 0 2.640625 -1.25q0.9375 -1.25 0.9375 -3.265625l0 -0.171875zm4.984375 -0.625l1.34375 0q1.015625 0 1.4375 -0.5q0.4375 -0.515625 0.4375 -1.4375q0 -0.96875 -0.484375 -1.46875q-0.484375 -0.515625 -1.4375 -0.515625q-0.890625 0 -1.4375 0.53125q-0.546875 0.515625 -0.546875 1.390625l-1.46875 0l-0.015625 -0.046875q-0.046875 -1.28125 0.921875 -2.1875q0.984375 -0.90625 2.546875 -0.90625q1.578125 0 2.515625 0.84375q0.9375 0.84375 0.9375 2.390625q0 0.703125 -0.421875 1.40625q-0.421875 0.703125 -1.28125 1.0625q1.03125 0.34375 1.453125 1.0625q0.421875 0.71875 0.421875 1.609375q0 1.546875 -1.015625 2.453125q-1.015625 0.890625 -2.609375 0.890625q-1.5625 0 -2.578125 -0.84375q-1.015625 -0.84375 -0.96875 -2.28125l0.015625 -0.046875l1.46875 0q0 0.890625 0.546875 1.421875q0.5625 0.53125 1.515625 0.53125q0.984375 0 1.53125 -0.53125q0.5625 -0.53125 0.5625 -1.5625q0 -1.0625 -0.5 -1.5625q-0.484375 -0.5 -1.546875 -0.5l-1.34375 0l0 -1.203125z" fill-rule="nonzero"></path><path fill="#000000" d="m199.62675 93.44748q0 1.515625 -0.5625 2.765625q-0.5625 1.25 -1.5625 2.015625l2.296875 1.640625l-1.046875 0.9375l-2.59375 -1.859375q-0.390625 0.140625 -0.8125 0.203125q-0.40625 0.078125 -0.828125 0.078125q-2.203125 0 -3.578125 -1.640625q-1.375 -1.65625 -1.375 -4.140625l0 -0.15625q0 -2.484375 1.375 -4.125q1.375 -1.65625 3.578125 -1.65625q2.265625 0 3.6875 1.65625q1.421875 1.640625 1.421875 4.125l0 0.15625zm-1.53125 -0.171875q0 -1.984375 -0.953125 -3.234375q-0.953125 -1.265625 -2.625 -1.265625q-1.609375 0 -2.515625 1.265625q-0.90625 1.25 -0.90625 3.234375l0 0.171875q0 2.0 0.90625 3.265625q0.90625 1.25 2.515625 1.25q1.703125 0 2.640625 -1.25q0.9375 -1.25 0.9375 -3.265625l0 -0.171875zm9.28125 1.953125l1.5625 0l0 1.203125l-1.5625 0l0 1.421875l1.265625 0.21875l0 0.984375l-4.078125 0l0 -0.984375l1.28125 -0.21875l0 -1.421875l-5.109375 0l0 -0.875l5.015625 -7.875l1.625 0l0 7.546875zm-5.0 0l3.46875 0l0 -5.359375l-0.046875 -0.015625l-0.15625 0.421875l-3.265625 4.953125z" fill-rule="nonzero"></path><path fill="#000000" d="m242.64902 93.44748q0 1.515625 -0.5625 2.765625q-0.5625 1.25 -1.5625 2.015625l2.296875 1.640625l-1.046875 0.9375l-2.59375 -1.859375q-0.390625 0.140625 -0.8125 0.203125q-0.40625 0.078125 -0.828125 0.078125q-2.203125 0 -3.578125 -1.640625q-1.375 -1.65625 -1.375 -4.140625l0 -0.15625q0 -2.484375 1.375 -4.125q1.375 -1.65625 3.578125 -1.65625q2.265625 0 3.6875 1.65625q1.421875 1.640625 1.421875 4.125l0 0.15625zm-1.53125 -0.171875q0 -1.984375 -0.953125 -3.234375q-0.953125 -1.265625 -2.625 -1.265625q-1.609375 0 -2.515625 1.265625q-0.90625 1.25 -0.90625 3.234375l0 0.171875q0 2.0 0.90625 3.265625q0.90625 1.25 2.515625 1.25q1.703125 0 2.640625 -1.25q0.9375 -1.25 0.9375 -3.265625l0 -0.171875zm3.09375 4.796875l1.75 -0.21875l0 -8.53125l-1.78125 0.03125l0 -0.953125l3.328125 -0.71875l0 10.171875l1.75 0.21875l0 0.984375l-5.046875 0l0 -0.984375z" fill-rule="nonzero"></path><path fill="#000000" d="m283.21033 93.44748q0 1.515625 -0.5625 2.765625q-0.5625 1.25 -1.5625 2.015625l2.296875 1.640625l-1.046875 0.9375l-2.59375 -1.859375q-0.390625 0.140625 -0.8125 0.203125q-0.40625 0.078125 -0.828125 0.078125q-2.203125 0 -3.578125 -1.640625q-1.375 -1.65625 -1.375 -4.140625l0 -0.15625q0 -2.484375 1.375 -4.125q1.375 -1.65625 3.578125 -1.65625q2.265625 0 3.6875 1.65625q1.421875 1.640625 1.421875 4.125l0 0.15625zm-1.53125 -0.171875q0 -1.984375 -0.953125 -3.234375q-0.953125 -1.265625 -2.625 -1.265625q-1.609375 0 -2.515625 1.265625q-0.90625 1.25 -0.90625 3.234375l0 0.171875q0 2.0 0.90625 3.265625q0.90625 1.25 2.515625 1.25q1.703125 0 2.640625 -1.25q0.9375 -1.25 0.9375 -3.265625l0 -0.171875zm2.90625 5.78125l0 -1.0625l3.71875 -4.140625q1.0 -1.109375 1.359375 -1.765625q0.359375 -0.65625 0.359375 -1.34375q0 -0.859375 -0.5 -1.4375q-0.5 -0.578125 -1.328125 -0.578125q-1.171875 0 -1.734375 0.609375q-0.546875 0.59375 -0.546875 1.6875l-1.484375 0l-0.015625 -0.046875q-0.03125 -1.46875 0.96875 -2.46875q1.015625 -1.0 2.8125 -1.0q1.546875 0 2.453125 0.90625q0.90625 0.890625 0.90625 2.265625q0 0.9375 -0.546875 1.875q-0.546875 0.921875 -1.546875 2.0l-3.0 3.25l0.015625 0.046875l4.046875 0l0.125 -1.3125l1.296875 0l0 2.515625l-7.359375 0z" fill-rule="nonzero"></path><path fill="#000000" d="m324.99042 93.44748q0 1.515625 -0.5625 2.765625q-0.5625 1.25 -1.5625 2.015625l2.296875 1.640625l-1.046875 0.9375l-2.59375 -1.859375q-0.390625 0.140625 -0.8125 0.203125q-0.40625 0.078125 -0.828125 0.078125q-2.203125 0 -3.578125 -1.640625q-1.375 -1.65625 -1.375 -4.140625l0 -0.15625q0 -2.484375 1.375 -4.125q1.375 -1.65625 3.578125 -1.65625q2.265625 0 3.6875 1.65625q1.421875 1.640625 1.421875 4.125l0 0.15625zm-1.53125 -0.171875q0 -1.984375 -0.953125 -3.234375q-0.953125 -1.265625 -2.625 -1.265625q-1.609375 0 -2.515625 1.265625q-0.90625 1.25 -0.90625 3.234375l0 0.171875q0 2.0 0.90625 3.265625q0.90625 1.25 2.515625 1.25q1.703125 0 2.640625 -1.25q0.9375 -1.25 0.9375 -3.265625l0 -0.171875zm4.984375 -0.625l1.34375 0q1.015625 0 1.4375 -0.5q0.4375 -0.515625 0.4375 -1.4375q0 -0.96875 -0.484375 -1.46875q-0.484375 -0.515625 -1.4375 -0.515625q-0.890625 0 -1.4375 0.53125q-0.546875 0.515625 -0.546875 1.390625l-1.46875 0l-0.015625 -0.046875q-0.046875 -1.28125 0.921875 -2.1875q0.984375 -0.90625 2.546875 -0.90625q1.578125 0 2.515625 0.84375q0.9375 0.84375 0.9375 2.390625q0 0.703125 -0.421875 1.40625q-0.421875 0.703125 -1.28125 1.0625q1.03125 0.34375 1.453125 1.0625q0.421875 0.71875 0.421875 1.609375q0 1.546875 -1.015625 2.453125q-1.015625 0.890625 -2.609375 0.890625q-1.5625 0 -2.578125 -0.84375q-1.015625 -0.84375 -0.96875 -2.28125l0.015625 -0.046875l1.46875 0q0 0.890625 0.546875 1.421875q0.5625 0.53125 1.515625 0.53125q0.984375 0 1.53125 -0.53125q0.5625 -0.53125 0.5625 -1.5625q0 -1.0625 -0.5 -1.5625q-0.484375 -0.5 -1.546875 -0.5l-1.34375 0l0 -1.203125z" fill-rule="nonzero"></path><path fill="#000000" d="m366.3564 93.44748q0 1.515625 -0.5625 2.765625q-0.5625 1.25 -1.5625 2.015625l2.296875 1.640625l-1.046875 0.9375l-2.59375 -1.859375q-0.390625 0.140625 -0.8125 0.203125q-0.40625 0.078125 -0.828125 0.078125q-2.203125 0 -3.578125 -1.640625q-1.375 -1.65625 -1.375 -4.140625l0 -0.15625q0 -2.484375 1.375 -4.125q1.375 -1.65625 3.578125 -1.65625q2.265625 0 3.6875 1.65625q1.421875 1.640625 1.421875 4.125l0 0.15625zm-1.53125 -0.171875q0 -1.984375 -0.953125 -3.234375q-0.953125 -1.265625 -2.625 -1.265625q-1.609375 0 -2.515625 1.265625q-0.90625 1.25 -0.90625 3.234375l0 0.171875q0 2.0 0.90625 3.265625q0.90625 1.25 2.515625 1.25q1.703125 0 2.640625 -1.25q0.9375 -1.25 0.9375 -3.265625l0 -0.171875zm9.28125 1.953125l1.5625 0l0 1.203125l-1.5625 0l0 1.421875l1.265625 0.21875l0 0.984375l-4.078125 0l0 -0.984375l1.28125 -0.21875l0 -1.421875l-5.109375 0l0 -0.875l5.015625 -7.875l1.625 0l0 7.546875zm-5.0 0l3.46875 0l0 -5.359375l-0.046875 -0.015625l-0.15625 0.421875l-3.265625 4.953125z" fill-rule="nonzero"></path><path fill="#000000" d="m409.37866 93.44748q0 1.515625 -0.5625 2.765625q-0.5625 1.25 -1.5625 2.015625l2.296875 1.640625l-1.046875 0.9375l-2.59375 -1.859375q-0.390625 0.140625 -0.8125 0.203125q-0.40625 0.078125 -0.828125 0.078125q-2.203125 0 -3.578125 -1.640625q-1.375 -1.65625 -1.375 -4.140625l0 -0.15625q0 -2.484375 1.375 -4.125q1.375 -1.65625 3.578125 -1.65625q2.265625 0 3.6875 1.65625q1.421875 1.640625 1.421875 4.125l0 0.15625zm-1.53125 -0.171875q0 -1.984375 -0.953125 -3.234375q-0.953125 -1.265625 -2.625 -1.265625q-1.609375 0 -2.515625 1.265625q-0.90625 1.25 -0.90625 3.234375l0 0.171875q0 2.0 0.90625 3.265625q0.90625 1.25 2.515625 1.25q1.703125 0 2.640625 -1.25q0.9375 -1.25 0.9375 -3.265625l0 -0.171875zm3.09375 4.796875l1.75 -0.21875l0 -8.53125l-1.78125 0.03125l0 -0.953125l3.328125 -0.71875l0 10.171875l1.75 0.21875l0 0.984375l-5.046875 0l0 -0.984375z" fill-rule="nonzero"></path><path fill="#000000" d="m449.94 93.44748q0 1.515625 -0.5625 2.765625q-0.5625 1.25 -1.5625 2.015625l2.296875 1.640625l-1.046875 0.9375l-2.59375 -1.859375q-0.390625 0.140625 -0.8125 0.203125q-0.40625 0.078125 -0.828125 0.078125q-2.203125 0 -3.578125 -1.640625q-1.375 -1.65625 -1.375 -4.140625l0 -0.15625q0 -2.484375 1.375 -4.125q1.375 -1.65625 3.578125 -1.65625q2.265625 0 3.6875 1.65625q1.421875 1.640625 1.421875 4.125l0 0.15625zm-1.53125 -0.171875q0 -1.984375 -0.953125 -3.234375q-0.953125 -1.265625 -2.625 -1.265625q-1.609375 0 -2.515625 1.265625q-0.90625 1.25 -0.90625 3.234375l0 0.171875q0 2.0 0.90625 3.265625q0.90625 1.25 2.515625 1.25q1.703125 0 2.640625 -1.25q0.9375 -1.25 0.9375 -3.265625l0 -0.171875zm2.90625 5.78125l0 -1.0625l3.71875 -4.140625q1.0 -1.109375 1.359375 -1.765625q0.359375 -0.65625 0.359375 -1.34375q0 -0.859375 -0.5 -1.4375q-0.5 -0.578125 -1.328125 -0.578125q-1.171875 0 -1.734375 0.609375q-0.546875 0.59375 -0.546875 1.6875l-1.484375 0l-0.015625 -0.046875q-0.03125 -1.46875 0.96875 -2.46875q1.015625 -1.0 2.8125 -1.0q1.546875 0 2.453125 0.90625q0.90625 0.890625 0.90625 2.265625q0 0.9375 -0.546875 1.875q-0.546875 0.921875 -1.546875 2.0l-3.0 3.25l0.015625 0.046875l4.046875 0l0.125 -1.3125l1.296875 0l0 2.515625l-7.359375 0z" fill-rule="nonzero"></path><path fill="#000000" d="m491.72006 93.44748q0 1.515625 -0.5625 2.765625q-0.5625 1.25 -1.5625 2.015625l2.296875 1.640625l-1.046875 0.9375l-2.59375 -1.859375q-0.390625 0.140625 -0.8125 0.203125q-0.40625 0.078125 -0.828125 0.078125q-2.203125 0 -3.578125 -1.640625q-1.375 -1.65625 -1.375 -4.140625l0 -0.15625q0 -2.484375 1.375 -4.125q1.375 -1.65625 3.578125 -1.65625q2.265625 0 3.6875 1.65625q1.421875 1.640625 1.421875 4.125l0 0.15625zm-1.53125 -0.171875q0 -1.984375 -0.953125 -3.234375q-0.953125 -1.265625 -2.625 -1.265625q-1.609375 0 -2.515625 1.265625q-0.90625 1.25 -0.90625 3.234375l0 0.171875q0 2.0 0.90625 3.265625q0.90625 1.25 2.515625 1.25q1.703125 0 2.640625 -1.25q0.9375 -1.25 0.9375 -3.265625l0 -0.171875zm4.984375 -0.625l1.34375 0q1.015625 0 1.4375 -0.5q0.4375 -0.515625 0.4375 -1.4375q0 -0.96875 -0.484375 -1.46875q-0.484375 -0.515625 -1.4375 -0.515625q-0.890625 0 -1.4375 0.53125q-0.546875 0.515625 -0.546875 1.390625l-1.46875 0l-0.015625 -0.046875q-0.046875 -1.28125 0.921875 -2.1875q0.984375 -0.90625 2.546875 -0.90625q1.578125 0 2.515625 0.84375q0.9375 0.84375 0.9375 2.390625q0 0.703125 -0.421875 1.40625q-0.421875 0.703125 -1.28125 1.0625q1.03125 0.34375 1.453125 1.0625q0.421875 0.71875 0.421875 1.609375q0 1.546875 -1.015625 2.453125q-1.015625 0.890625 -2.609375 0.890625q-1.5625 0 -2.578125 -0.84375q-1.015625 -0.84375 -0.96875 -2.28125l0.015625 -0.046875l1.46875 0q0 0.890625 0.546875 1.421875q0.5625 0.53125 1.515625 0.53125q0.984375 0 1.53125 -0.53125q0.5625 -0.53125 0.5625 -1.5625q0 -1.0625 -0.5 -1.5625q-0.484375 -0.5 -1.546875 -0.5l-1.34375 0l0 -1.203125z" fill-rule="nonzero"></path><path fill="#000000" d="m533.08606 93.44748q0 1.515625 -0.5625 2.765625q-0.5625 1.25 -1.5625 2.015625l2.296875 1.640625l-1.046875 0.9375l-2.59375 -1.859375q-0.390625 0.140625 -0.8125 0.203125q-0.40625 0.078125 -0.828125 0.078125q-2.203125 0 -3.578125 -1.640625q-1.375 -1.65625 -1.375 -4.140625l0 -0.15625q0 -2.484375 1.375 -4.125q1.375 -1.65625 3.578125 -1.65625q2.265625 0 3.6875 1.65625q1.421875 1.640625 1.421875 4.125l0 0.15625zm-1.53125 -0.171875q0 -1.984375 -0.953125 -3.234375q-0.953125 -1.265625 -2.625 -1.265625q-1.609375 0 -2.515625 1.265625q-0.90625 1.25 -0.90625 3.234375l0 0.171875q0 2.0 0.90625 3.265625q0.90625 1.25 2.515625 1.25q1.703125 0 2.640625 -1.25q0.9375 -1.25 0.9375 -3.265625l0 -0.171875zm9.28125 1.953125l1.5625 0l0 1.203125l-1.5625 0l0 1.421875l1.265625 0.21875l0 0.984375l-4.078125 0l0 -0.984375l1.28125 -0.21875l0 -1.421875l-5.109375 0l0 -0.875l5.015625 -7.875l1.625 0l0 7.546875zm-5.0 0l3.46875 0l0 -5.359375l-0.046875 -0.015625l-0.15625 0.421875l-3.265625 4.953125z" fill-rule="nonzero"></path><path fill="#000000" d="m576.10834 93.44748q0 1.515625 -0.5625 2.765625q-0.5625 1.25 -1.5625 2.015625l2.296875 1.640625l-1.046875 0.9375l-2.59375 -1.859375q-0.390625 0.140625 -0.8125 0.203125q-0.40625 0.078125 -0.828125 0.078125q-2.203125 0 -3.578125 -1.640625q-1.375 -1.65625 -1.375 -4.140625l0 -0.15625q0 -2.484375 1.375 -4.125q1.375 -1.65625 3.578125 -1.65625q2.265625 0 3.6875 1.65625q1.421875 1.640625 1.421875 4.125l0 0.15625zm-1.53125 -0.171875q0 -1.984375 -0.953125 -3.234375q-0.953125 -1.265625 -2.625 -1.265625q-1.609375 0 -2.515625 1.265625q-0.90625 1.25 -0.90625 3.234375l0 0.171875q0 2.0 0.90625 3.265625q0.90625 1.25 2.515625 1.25q1.703125 0 2.640625 -1.25q0.9375 -1.25 0.9375 -3.265625l0 -0.171875zm3.09375 4.796875l1.75 -0.21875l0 -8.53125l-1.78125 0.03125l0 -0.953125l3.328125 -0.71875l0 10.171875l1.75 0.21875l0 0.984375l-5.046875 0l0 -0.984375z" fill-rule="nonzero"></path><path fill="#000000" d="m616.6697 93.44748q0 1.515625 -0.5625 2.765625q-0.5625 1.25 -1.5625 2.015625l2.296875 1.640625l-1.046875 0.9375l-2.59375 -1.859375q-0.390625 0.140625 -0.8125 0.203125q-0.40625 0.078125 -0.828125 0.078125q-2.203125 0 -3.578125 -1.640625q-1.375 -1.65625 -1.375 -4.140625l0 -0.15625q0 -2.484375 1.375 -4.125q1.375 -1.65625 3.578125 -1.65625q2.265625 0 3.6875 1.65625q1.421875 1.640625 1.421875 4.125l0 0.15625zm-1.53125 -0.171875q0 -1.984375 -0.953125 -3.234375q-0.953125 -1.265625 -2.625 -1.265625q-1.609375 0 -2.515625 1.265625q-0.90625 1.25 -0.90625 3.234375l0 0.171875q0 2.0 0.90625 3.265625q0.90625 1.25 2.515625 1.25q1.703125 0 2.640625 -1.25q0.9375 -1.25 0.9375 -3.265625l0 -0.171875zm2.90625 5.78125l0 -1.0625l3.71875 -4.140625q1.0 -1.109375 1.359375 -1.765625q0.359375 -0.65625 0.359375 -1.34375q0 -0.859375 -0.5 -1.4375q-0.5 -0.578125 -1.328125 -0.578125q-1.171875 0 -1.734375 0.609375q-0.546875 0.59375 -0.546875 1.6875l-1.484375 0l-0.015625 -0.046875q-0.03125 -1.46875 0.96875 -2.46875q1.015625 -1.0 2.8125 -1.0q1.546875 0 2.453125 0.90625q0.90625 0.890625 0.90625 2.265625q0 0.9375 -0.546875 1.875q-0.546875 0.921875 -1.546875 2.0l-3.0 3.25l0.015625 0.046875l4.046875 0l0.125 -1.3125l1.296875 0l0 2.515625l-7.359375 0z" fill-rule="nonzero"></path><path fill="#000000" d="m658.4497 93.44748q0 1.515625 -0.5625 2.765625q-0.5625 1.25 -1.5625 2.015625l2.296875 1.640625l-1.046875 0.9375l-2.59375 -1.859375q-0.390625 0.140625 -0.8125 0.203125q-0.40625 0.078125 -0.828125 0.078125q-2.203125 0 -3.578125 -1.640625q-1.375 -1.65625 -1.375 -4.140625l0 -0.15625q0 -2.484375 1.375 -4.125q1.375 -1.65625 3.578125 -1.65625q2.265625 0 3.6875 1.65625q1.421875 1.640625 1.421875 4.125l0 0.15625zm-1.53125 -0.171875q0 -1.984375 -0.953125 -3.234375q-0.953125 -1.265625 -2.625 -1.265625q-1.609375 0 -2.515625 1.265625q-0.90625 1.25 -0.90625 3.234375l0 0.171875q0 2.0 0.90625 3.265625q0.90625 1.25 2.515625 1.25q1.703125 0 2.640625 -1.25q0.9375 -1.25 0.9375 -3.265625l0 -0.171875zm4.984375 -0.625l1.34375 0q1.015625 0 1.4375 -0.5q0.4375 -0.515625 0.4375 -1.4375q0 -0.96875 -0.484375 -1.46875q-0.484375 -0.515625 -1.4375 -0.515625q-0.890625 0 -1.4375 0.53125q-0.546875 0.515625 -0.546875 1.390625l-1.46875 0l-0.015625 -0.046875q-0.046875 -1.28125 0.921875 -2.1875q0.984375 -0.90625 2.546875 -0.90625q1.578125 0 2.515625 0.84375q0.9375 0.84375 0.9375 2.390625q0 0.703125 -0.421875 1.40625q-0.421875 0.703125 -1.28125 1.0625q1.03125 0.34375 1.453125 1.0625q0.421875 0.71875 0.421875 1.609375q0 1.546875 -1.015625 2.453125q-1.015625 0.890625 -2.609375 0.890625q-1.5625 0 -2.578125 -0.84375q-1.015625 -0.84375 -0.96875 -2.28125l0.015625 -0.046875l1.46875 0q0 0.890625 0.546875 1.421875q0.5625 0.53125 1.515625 0.53125q0.984375 0 1.53125 -0.53125q0.5625 -0.53125 0.5625 -1.5625q0 -1.0625 -0.5 -1.5625q-0.484375 -0.5 -1.546875 -0.5l-1.34375 0l0 -1.203125z" fill-rule="nonzero"></path><path fill="#000000" d="m699.81573 93.44748q0 1.515625 -0.5625 2.765625q-0.5625 1.25 -1.5625 2.015625l2.296875 1.640625l-1.046875 0.9375l-2.59375 -1.859375q-0.390625 0.140625 -0.8125 0.203125q-0.40625 0.078125 -0.828125 0.078125q-2.203125 0 -3.578125 -1.640625q-1.375 -1.65625 -1.375 -4.140625l0 -0.15625q0 -2.484375 1.375 -4.125q1.375 -1.65625 3.578125 -1.65625q2.265625 0 3.6875 1.65625q1.421875 1.640625 1.421875 4.125l0 0.15625zm-1.53125 -0.171875q0 -1.984375 -0.953125 -3.234375q-0.953125 -1.265625 -2.625 -1.265625q-1.609375 0 -2.515625 1.265625q-0.90625 1.25 -0.90625 3.234375l0 0.171875q0 2.0 0.90625 3.265625q0.90625 1.25 2.515625 1.25q1.703125 0 2.640625 -1.25q0.9375 -1.25 0.9375 -3.265625l0 -0.171875zm9.28125 1.953125l1.5625 0l0 1.203125l-1.5625 0l0 1.421875l1.265625 0.21875l0 0.984375l-4.078125 0l0 -0.984375l1.28125 -0.21875l0 -1.421875l-5.109375 0l0 -0.875l5.015625 -7.875l1.625 0l0 7.546875zm-5.0 0l3.46875 0l0 -5.359375l-0.046875 -0.015625l-0.15625 0.421875l-3.265625 4.953125z" fill-rule="nonzero"></path><path fill="#000000" d="m742.838 93.44748q0 1.515625 -0.5625 2.765625q-0.5625 1.25 -1.5625 2.015625l2.296875 1.640625l-1.046875 0.9375l-2.59375 -1.859375q-0.390625 0.140625 -0.8125 0.203125q-0.40625 0.078125 -0.828125 0.078125q-2.203125 0 -3.578125 -1.640625q-1.375 -1.65625 -1.375 -4.140625l0 -0.15625q0 -2.484375 1.375 -4.125q1.375 -1.65625 3.578125 -1.65625q2.265625 0 3.6875 1.65625q1.421875 1.640625 1.421875 4.125l0 0.15625zm-1.53125 -0.171875q0 -1.984375 -0.953125 -3.234375q-0.953125 -1.265625 -2.625 -1.265625q-1.609375 0 -2.515625 1.265625q-0.90625 1.25 -0.90625 3.234375l0 0.171875q0 2.0 0.90625 3.265625q0.90625 1.25 2.515625 1.25q1.703125 0 2.640625 -1.25q0.9375 -1.25 0.9375 -3.265625l0 -0.171875zm3.09375 4.796875l1.75 -0.21875l0 -8.53125l-1.78125 0.03125l0 -0.953125l3.328125 -0.71875l0 10.171875l1.75 0.21875l0 0.984375l-5.046875 0l0 -0.984375z" fill-rule="nonzero"></path><path fill="#000000" d="m783.3993 93.44748q0 1.515625 -0.5625 2.765625q-0.5625 1.25 -1.5625 2.015625l2.296875 1.640625l-1.046875 0.9375l-2.59375 -1.859375q-0.390625 0.140625 -0.8125 0.203125q-0.40625 0.078125 -0.828125 0.078125q-2.203125 0 -3.578125 -1.640625q-1.375 -1.65625 -1.375 -4.140625l0 -0.15625q0 -2.484375 1.375 -4.125q1.375 -1.65625 3.578125 -1.65625q2.265625 0 3.6875 1.65625q1.421875 1.640625 1.421875 4.125l0 0.15625zm-1.53125 -0.171875q0 -1.984375 -0.953125 -3.234375q-0.953125 -1.265625 -2.625 -1.265625q-1.609375 0 -2.515625 1.265625q-0.90625 1.25 -0.90625 3.234375l0 0.171875q0 2.0 0.90625 3.265625q0.90625 1.25 2.515625 1.25q1.703125 0 2.640625 -1.25q0.9375 -1.25 0.9375 -3.265625l0 -0.171875zm2.90625 5.78125l0 -1.0625l3.71875 -4.140625q1.0 -1.109375 1.359375 -1.765625q0.359375 -0.65625 0.359375 -1.34375q0 -0.859375 -0.5 -1.4375q-0.5 -0.578125 -1.328125 -0.578125q-1.171875 0 -1.734375 0.609375q-0.546875 0.59375 -0.546875 1.6875l-1.484375 0l-0.015625 -0.046875q-0.03125 -1.46875 0.96875 -2.46875q1.015625 -1.0 2.8125 -1.0q1.546875 0 2.453125 0.90625q0.90625 0.890625 0.90625 2.265625q0 0.9375 -0.546875 1.875q-0.546875 0.921875 -1.546875 2.0l-3.0 3.25l0.015625 0.046875l4.046875 0l0.125 -1.3125l1.296875 0l0 2.515625l-7.359375 0z" fill-rule="nonzero"></path><path fill="#000000" d="m825.1794 93.44748q0 1.515625 -0.5625 2.765625q-0.5625 1.25 -1.5625 2.015625l2.296875 1.640625l-1.046875 0.9375l-2.59375 -1.859375q-0.390625 0.140625 -0.8125 0.203125q-0.40625 0.078125 -0.828125 0.078125q-2.203125 0 -3.578125 -1.640625q-1.375 -1.65625 -1.375 -4.140625l0 -0.15625q0 -2.484375 1.375 -4.125q1.375 -1.65625 3.578125 -1.65625q2.265625 0 3.6875 1.65625q1.421875 1.640625 1.421875 4.125l0 0.15625zm-1.53125 -0.171875q0 -1.984375 -0.953125 -3.234375q-0.953125 -1.265625 -2.625 -1.265625q-1.609375 0 -2.515625 1.265625q-0.90625 1.25 -0.90625 3.234375l0 0.171875q0 2.0 0.90625 3.265625q0.90625 1.25 2.515625 1.25q1.703125 0 2.640625 -1.25q0.9375 -1.25 0.9375 -3.265625l0 -0.171875zm4.984375 -0.625l1.34375 0q1.015625 0 1.4375 -0.5q0.4375 -0.515625 0.4375 -1.4375q0 -0.96875 -0.484375 -1.46875q-0.484375 -0.515625 -1.4375 -0.515625q-0.890625 0 -1.4375 0.53125q-0.546875 0.515625 -0.546875 1.390625l-1.46875 0l-0.015625 -0.046875q-0.046875 -1.28125 0.921875 -2.1875q0.984375 -0.90625 2.546875 -0.90625q1.578125 0 2.515625 0.84375q0.9375 0.84375 0.9375 2.390625q0 0.703125 -0.421875 1.40625q-0.421875 0.703125 -1.28125 1.0625q1.03125 0.34375 1.453125 1.0625q0.421875 0.71875 0.421875 1.609375q0 1.546875 -1.015625 2.453125q-1.015625 0.890625 -2.609375 0.890625q-1.5625 0 -2.578125 -0.84375q-1.015625 -0.84375 -0.96875 -2.28125l0.015625 -0.046875l1.46875 0q0 0.890625 0.546875 1.421875q0.5625 0.53125 1.515625 0.53125q0.984375 0 1.53125 -0.53125q0.5625 -0.53125 0.5625 -1.5625q0 -1.0625 -0.5 -1.5625q-0.484375 -0.5 -1.546875 -0.5l-1.34375 0l0 -1.203125z" fill-rule="nonzero"></path><path fill="#000000" d="m866.5454 93.44748q0 1.515625 -0.5625 2.765625q-0.5625 1.25 -1.5625 2.015625l2.296875 1.640625l-1.046875 0.9375l-2.59375 -1.859375q-0.390625 0.140625 -0.8125 0.203125q-0.40625 0.078125 -0.828125 0.078125q-2.203125 0 -3.578125 -1.640625q-1.375 -1.65625 -1.375 -4.140625l0 -0.15625q0 -2.484375 1.375 -4.125q1.375 -1.65625 3.578125 -1.65625q2.265625 0 3.6875 1.65625q1.421875 1.640625 1.421875 4.125l0 0.15625zm-1.53125 -0.171875q0 -1.984375 -0.953125 -3.234375q-0.953125 -1.265625 -2.625 -1.265625q-1.609375 0 -2.515625 1.265625q-0.90625 1.25 -0.90625 3.234375l0 0.171875q0 2.0 0.90625 3.265625q0.90625 1.25 2.515625 1.25q1.703125 0 2.640625 -1.25q0.9375 -1.25 0.9375 -3.265625l0 -0.171875zm9.28125 1.953125l1.5625 0l0 1.203125l-1.5625 0l0 1.421875l1.265625 0.21875l0 0.984375l-4.078125 0l0 -0.984375l1.28125 -0.21875l0 -1.421875l-5.109375 0l0 -0.875l5.015625 -7.875l1.625 0l0 7.546875zm-5.0 0l3.46875 0l0 -5.359375l-0.046875 -0.015625l-0.15625 0.421875l-3.265625 4.953125z" fill-rule="nonzero"></path><path fill="#9fc5e8" d="m115.845146 115.509186l124.7244 0l0 34.992126l-124.7244 0z" fill-rule="evenodd"></path><path fill="#000000" d="m159.56868 129.71712l-1.625 0l-0.4375 -2.4062424q-0.5625 -0.5625 -1.390625 -0.90625q-0.8125 -0.359375 -1.953125 -0.359375q-2.65625 0 -4.09375 1.9375q-1.421875 1.9218674 -1.421875 4.8906174l0 0.265625q0 2.96875 1.390625 4.90625q1.40625 1.9375 3.890625 1.9375q1.171875 0 2.109375 -0.359375q0.953125 -0.359375 1.46875 -0.890625l0.4375 -2.421875l1.625 0l0 3.046875q-0.734375 0.9375 -2.21875 1.6875q-1.46875 0.75 -3.421875 0.75q-3.328125 0 -5.46875 -2.453125q-2.125 -2.46875 -2.125 -6.203125l0 -0.25q0 -3.75 2.09375 -6.2031174q2.109375 -2.453125 5.5 -2.453125q1.953125 0 3.421875 0.765625q1.484375 0.75 2.21875 1.6875l0 3.0312424zm9.683594 7.015625l-3.0 0l-0.9375 4.8125l-1.765625 0l0.9375 -4.8125l-2.765625 0l0 -1.640625l3.09375 0l0.796875 -4.078125l-3.0 0l0 -1.65625l3.328125 0l0.953125 -4.8749924l1.765625 0l-0.953125 4.8749924l2.984375 0l0.96875 -4.8749924l1.765625 0l-0.96875 4.8749924l2.34375 0l0 1.65625l-2.65625 0l-0.796875 4.078125l2.578125 0l0 1.640625l-2.90625 0l-0.9375 4.8125l-1.765625 0l0.9375 -4.8125zm-2.671875 -1.640625l3.0 0l0.796875 -4.078125l-3.0 0l-0.796875 4.078125zm16.394531 4.96875l2.640625 -0.328125l0 -12.781242l-2.6875 0.046875l0 -1.4375l4.984375 -1.078125l0 15.249992l2.625 0.328125l0 1.484375l-7.5625 0l0 -1.484375zm12.484375 1.484375l-2.3125 0l0 -2.375l2.3125 0l0 2.375zm14.042969 -6.5q0 3.265625 -1.453125 5.015625q-1.453125 1.734375 -3.96875 1.734375q-2.515625 0 -3.984375 -1.75q-1.453125 -1.75 -1.453125 -5.0l0 -4.046875q0 -3.2656174 1.453125 -5.0156174q1.453125 -1.75 3.953125 -1.75q2.53125 0 3.984375 1.75q1.46875 1.75 1.46875 5.0156174l0 4.046875zm-2.3125 -4.546875q0 -2.203125 -0.796875 -3.3281174q-0.796875 -1.125 -2.34375 -1.125q-1.5 0 -2.296875 1.125q-0.796875 1.1249924 -0.796875 3.3281174l0 5.015625q0 2.203125 0.796875 3.34375q0.8125 1.125 2.328125 1.125q1.53125 0 2.3125 -1.125q0.796875 -1.125 0.796875 -3.34375l0 -5.015625z" fill-rule="nonzero"></path><path fill="#9fc5e8" d="m668.48553 115.509186l88.22052 0l0 34.992126l-88.22052 0z" fill-rule="evenodd"></path><path fill="#000000" d="m692.2755 129.71712l-1.625 0l-0.4375 -2.4062424q-0.5625 -0.5625 -1.390625 -0.90625q-0.8125 -0.359375 -1.953125 -0.359375q-2.65625 0 -4.09375 1.9375q-1.421875 1.9218674 -1.421875 4.8906174l0 0.265625q0 2.96875 1.390625 4.90625q1.40625 1.9375 3.890625 1.9375q1.171875 0 2.109375 -0.359375q0.953125 -0.359375 1.46875 -0.890625l0.4375 -2.421875l1.625 0l0 3.046875q-0.734375 0.9375 -2.21875 1.6875q-1.46875 0.75 -3.421875 0.75q-3.328125 0 -5.46875 -2.453125q-2.125 -2.46875 -2.125 -6.203125l0 -0.25q0 -3.75 2.09375 -6.2031174q2.109375 -2.453125 5.5 -2.453125q1.953125 0 3.421875 0.765625q1.484375 0.75 2.21875 1.6875l0 3.0312424zm9.683594 7.015625l-3.0 0l-0.9375 4.8125l-1.765625 0l0.9375 -4.8125l-2.765625 0l0 -1.640625l3.09375 0l0.796875 -4.078125l-3.0 0l0 -1.65625l3.328125 0l0.953125 -4.8749924l1.765625 0l-0.953125 4.8749924l2.984375 0l0.96875 -4.8749924l1.765625 0l-0.96875 4.8749924l2.34375 0l0 1.65625l-2.65625 0l-0.796875 4.078125l2.578125 0l0 1.640625l-2.90625 0l-0.9375 4.8125l-1.765625 0l0.9375 -4.8125zm-2.671875 -1.640625l3.0 0l0.796875 -4.078125l-3.0 0l-0.796875 4.078125zm16.113281 6.453125l0 -1.578125l5.59375 -6.21875q1.5 -1.671875 2.03125 -2.65625q0.53125 -0.984375 0.53125 -2.015625q0 -1.2812424 -0.75 -2.1562424q-0.75 -0.875 -1.984375 -0.875q-1.765625 0 -2.609375 0.90625q-0.828125 0.90625 -0.828125 2.5624924l-2.203125 0l-0.03125 -0.078125q-0.0625 -2.2031174 1.453125 -3.7031174q1.53125 -1.5 4.21875 -1.5q2.3125 0 3.671875 1.34375q1.375 1.34375 1.375 3.4218674q0 1.390625 -0.828125 2.78125q-0.828125 1.390625 -2.328125 3.015625l-4.484375 4.890625l0.015625 0.046875l6.0625 0l0.1875 -1.953125l1.953125 0l0 3.765625l-11.046875 0zm16.128906 0l-2.3125 0l0 -2.375l2.3125 0l0 2.375zm14.042969 -6.5q0 3.265625 -1.453125 5.015625q-1.453125 1.734375 -3.96875 1.734375q-2.515625 0 -3.984375 -1.75q-1.453125 -1.75 -1.453125 -5.0l0 -4.046875q0 -3.2656174 1.453125 -5.0156174q1.453125 -1.75 3.953125 -1.75q2.53125 0 3.984375 1.75q1.46875 1.75 1.46875 5.0156174l0 4.046875zm-2.3125 -4.546875q0 -2.203125 -0.796875 -3.3281174q-0.796875 -1.125 -2.34375 -1.125q-1.5 0 -2.296875 1.125q-0.796875 1.1249924 -0.796875 3.3281174l0 5.015625q0 2.203125 0.796875 3.34375q0.8125 1.125 2.328125 1.125q1.53125 0 2.3125 -1.125q0.796875 -1.125 0.796875 -3.34375l0 -5.015625z" fill-rule="nonzero"></path><path fill="#f9cb9c" d="m390.4252 158.12862l118.33072 0l0 34.99211l-118.33072 0z" fill-rule="evenodd"></path><path fill="#000000" d="m418.39523 167.10217l0 1.484375l-1.90625 0.328125l0 10.53125q0 2.28125 -1.453125 3.625q-1.4375 1.34375 -3.75 1.34375q-2.46875 0 -3.921875 -1.25q-1.453125 -1.25 -1.390625 -3.625l0.03125 -0.078125l2.203125 0q0 1.578125 0.796875 2.359375q0.8125 0.78125 2.28125 0.78125q1.28125 0 2.078125 -0.859375q0.8125 -0.859375 0.8125 -2.296875l0 -10.53125l-1.90625 -0.328125l0 -1.484375l4.21875 0l1.90625 0zm6.6289062 1.484375l-1.546875 0.25l3.8125 11.078125l0.390625 1.359375l0.0625 0l0.390625 -1.359375l3.8125 -11.09375l-1.53125 -0.234375l0 -1.484375l5.375 0l0 1.484375l-1.375 0.1875l-5.71875 15.390625l-1.984375 0l-5.71875 -15.390625l-1.359375 -0.1875l0 -1.484375l5.390625 0l0 1.484375zm28.804688 1.90625l-0.0625 0l-5.515625 13.671875l-1.546875 0l-5.515625 -13.671875l-0.0625 0.015625l0.234375 6.90625l0 4.9375l1.921875 0.328125l0 1.484375l-6.140625 0l0 -1.484375l1.921875 -0.328125l0 -13.4375l-1.921875 -0.328125l0 -1.484375l1.921875 0l2.953125 0l5.4375 13.859375l0.0625 0l5.421875 -13.859375l4.875 0l0 1.484375l-1.90625 0.328125l0 13.4375l1.90625 0.328125l0 1.484375l-6.125 0l0 -1.484375l1.90625 -0.328125l0 -4.9375l0.234375 -6.921875zm12.1953125 12.1875l2.640625 -0.328125l0 -12.78125l-2.6875 0.046875l0 -1.4375l4.984375 -1.078125l0 15.25l2.625 0.328125l0 1.484375l-7.5625 0l0 -1.484375zm12.484375 1.484375l-2.3125 0l0 -2.375l2.3125 0l0 2.375zm14.042969 -6.5q0 3.265625 -1.453125 5.015625q-1.453125 1.734375 -3.96875 1.734375q-2.515625 0 -3.984375 -1.75q-1.453125 -1.75 -1.453125 -5.0l0 -4.046875q0 -3.265625 1.453125 -5.015625q1.453125 -1.75 3.953125 -1.75q2.53125 0 3.984375 1.75q1.46875 1.75 1.46875 5.015625l0 4.046875zm-2.3125 -4.546875q0 -2.203125 -0.796875 -3.328125q-0.796875 -1.125 -2.34375 -1.125q-1.5 0 -2.296875 1.125q-0.796875 1.125 -0.796875 3.328125l0 5.015625q0 2.203125 0.796875 3.34375q0.8125 1.125 2.328125 1.125q1.53125 0 2.3125 -1.125q0.796875 -1.125 0.796875 -3.34375l0 -5.015625z" fill-rule="nonzero"></path><path fill="#f9cb9c" d="m741.4147 158.12862l127.18115 0l0 34.99211l-127.18115 0z" fill-rule="evenodd"></path><path fill="#000000" d="m772.1283 167.10217l0 1.484375l-1.90625 0.328125l0 10.53125q0 2.28125 -1.453125 3.625q-1.4375 1.34375 -3.75 1.34375q-2.46875 0 -3.921875 -1.25q-1.453125 -1.25 -1.390625 -3.625l0.03125 -0.078125l2.203125 0q0 1.578125 0.796875 2.359375q0.8125 0.78125 2.28125 0.78125q1.28125 0 2.078125 -0.859375q0.8125 -0.859375 0.8125 -2.296875l0 -10.53125l-1.90625 -0.328125l0 -1.484375l4.21875 0l1.90625 0zm6.6289062 1.484375l-1.546875 0.25l3.8125 11.078125l0.390625 1.359375l0.0625 0l0.390625 -1.359375l3.8125 -11.09375l-1.53125 -0.234375l0 -1.484375l5.375 0l0 1.484375l-1.375 0.1875l-5.71875 15.390625l-1.984375 0l-5.71875 -15.390625l-1.359375 -0.1875l0 -1.484375l5.390625 0l0 1.484375zm28.804688 1.90625l-0.0625 0l-5.515625 13.671875l-1.546875 0l-5.515625 -13.671875l-0.0625 0.015625l0.234375 6.90625l0 4.9375l1.921875 0.328125l0 1.484375l-6.140625 0l0 -1.484375l1.921875 -0.328125l0 -13.4375l-1.921875 -0.328125l0 -1.484375l1.921875 0l2.953125 0l5.4375 13.859375l0.0625 0l5.421875 -13.859375l4.875 0l0 1.484375l-1.90625 0.328125l0 13.4375l1.90625 0.328125l0 1.484375l-6.125 0l0 -1.484375l1.90625 -0.328125l0 -4.9375l0.234375 -6.921875zm11.9140625 13.671875l0 -1.578125l5.59375 -6.21875q1.5 -1.671875 2.03125 -2.65625q0.53125 -0.984375 0.53125 -2.015625q0 -1.28125 -0.75 -2.15625q-0.75 -0.875 -1.984375 -0.875q-1.765625 0 -2.609375 0.90625q-0.828125 0.90625 -0.828125 2.5625l-2.203125 0l-0.03125 -0.078125q-0.0625 -2.203125 1.453125 -3.703125q1.53125 -1.5 4.21875 -1.5q2.3125 0 3.671875 1.34375q1.375 1.34375 1.375 3.421875q0 1.390625 -0.828125 2.78125q-0.828125 1.390625 -2.328125 3.015625l-4.484375 4.890625l0.015625 0.046875l6.0625 0l0.1875 -1.953125l1.953125 0l0 3.765625l-11.046875 0zm16.128906 0l-2.3125 0l0 -2.375l2.3125 0l0 2.375zm14.042969 -6.5q0 3.265625 -1.453125 5.015625q-1.453125 1.734375 -3.96875 1.734375q-2.515625 0 -3.984375 -1.75q-1.453125 -1.75 -1.453125 -5.0l0 -4.046875q0 -3.265625 1.453125 -5.015625q1.453125 -1.75 3.953125 -1.75q2.53125 0 3.984375 1.75q1.46875 1.75 1.46875 5.015625l0 4.046875zm-2.3125 -4.546875q0 -2.203125 -0.796875 -3.328125q-0.796875 -1.125 -2.34375 -1.125q-1.5 0 -2.296875 1.125q-0.796875 1.125 -0.796875 3.328125l0 5.015625q0 2.203125 0.796875 3.34375q0.8125 1.125 2.328125 1.125q1.53125 0 2.3125 -1.125q0.796875 -1.125 0.796875 -3.34375l0 -5.015625z" fill-rule="nonzero"></path></g></svg>

