<?xml version="1.0" standalone="yes"?>

<svg version="1.1" viewBox="0.0 0.0 701.8267716535433 516.6351706036745" fill="none" stroke="none" stroke-linecap="square" stroke-miterlimit="10" xmlns="http://www.w3.org/2000/svg" xmlns:xlink="http://www.w3.org/1999/xlink"><clipPath id="p.0"><path d="m0 0l701.8268 0l0 516.6352l-701.8268 0l0 -516.6352z" clip-rule="nonzero"></path></clipPath><g clip-path="url(#p.0)"><path fill="#000000" fill-opacity="0.0" d="m0 0l701.8268 0l0 516.6352l-701.8268 0z" fill-rule="evenodd"></path><path fill="#cfe2f3" d="m60.829197 237.05774l141.03937 0l0 65.763794l-141.03937 0z" fill-rule="evenodd"></path><path stroke="#a4c2f4" stroke-width="2.0" stroke-linejoin="round" stroke-linecap="butt" d="m60.829197 237.05774l141.03937 0l0 65.763794l-141.03937 0z" fill-rule="evenodd"></path><path fill="#000000" d="m84.251076 276.54214q-0.75 0.78125 -2.21875 1.484375q-1.46875 0.703125 -3.8125 0.703125q-3.421875 0 -5.59375 -2.40625q-2.15625 -2.40625 -2.15625 -6.234375l0 -0.28125q0 -3.859375 2.140625 -6.25q2.140625 -2.390625 5.6875 -2.390625q1.90625 0 3.34375 0.59375q1.4375 0.59375 2.421875 1.5625l0 3.09375l-1.625 0l-0.5625 -2.359375q-0.578125 -0.46875 -1.390625 -0.765625q-0.8125 -0.3125 -1.953125 -0.3125q-2.765625 0 -4.265625 1.90625q-1.484375 1.890625 -1.484375 4.890625l0 0.3125q0 3.0625 1.4375 4.953125q1.453125 1.875 4.0 1.875q1.390625 0 2.28125 -0.28125q0.890625 -0.296875 1.4375 -0.65625l0 -3.734375l-2.796875 -0.125l0 -1.6875l5.109375 0l0 6.109375zm7.7695312 -13.640625l-1.546875 0.25l3.8125 11.078125l0.390625 1.359375l0.0625 0l0.390625 -1.359375l3.8125 -11.09375l-1.53125 -0.234375l0 -1.484375l5.375 0l0 1.484375l-1.375 0.1875l-5.71875 15.390625l-1.984375 0l-5.71875 -15.390625l-1.359375 -0.1875l0 -1.484375l5.390625 0l0 1.484375zm12.1171875 14.09375l1.921875 -0.328125l0 -13.4375l-1.921875 -0.328125l0 -1.484375l13.1875 0l0 4.09375l-1.96875 0l-0.1875 -2.28125l-6.8125 0l0 5.890625l6.609375 0l0 1.8125l-6.609375 0l0 5.734375l1.921875 0.328125l0 1.484375l-6.140625 0l0 -1.484375zm27.277336 -10.546875l-1.75 0l-0.4375 -2.4375q-0.515625 -0.4375 -1.4062424 -0.734375q-0.875 -0.296875 -2.03125 -0.296875q-1.84375 0 -2.828125 0.78125q-0.984375 0.78125 -0.984375 2.03125q0 1.125 1.0 1.875q1.0 0.734375 3.25 1.296875q2.6874924 0.671875 4.0781174 1.96875q1.40625 1.296875 1.40625 3.21875q0 2.0625 -1.6875 3.328125q-1.671875 1.25 -4.3906174 1.25q-1.96875 0 -3.5 -0.640625q-1.53125 -0.65625 -2.484375 -1.703125l0 -3.171875l1.734375 0l0.4375 2.453125q0.671875 0.546875 1.59375 0.90625q0.9375 0.34375 2.21875 0.34375q1.75 0 2.7656174 -0.734375q1.015625 -0.734375 1.015625 -2.0q0 -1.171875 -0.890625 -1.96875q-0.8749924 -0.796875 -3.0937424 -1.328125q-2.71875 -0.640625 -4.25 -1.890625q-1.515625 -1.265625 -1.515625 -3.15625q0 -2.015625 1.703125 -3.34375q1.703125 -1.328125 4.421875 -1.328125q1.796875 0 3.2656174 0.625q1.46875 0.609375 2.359375 1.484375l0 3.171875z" fill-rule="nonzero"></path><path fill="#cfe2f3" d="m172.86351 94.71391l166.14174 0l0 65.76378l-166.14174 0z" fill-rule="evenodd"></path><path stroke="#a4c2f4" stroke-width="2.0" stroke-linejoin="round" stroke-linecap="butt" d="m172.86351 94.71391l166.14174 0l0 65.76378l-166.14174 0z" fill-rule="evenodd"></path><path fill="#000000" d="m254.97345 124.30768l-1.625 0l-0.4375 -2.40625q-0.5625 -0.5625 -1.390625 -0.90625q-0.8125 -0.359375 -1.953125 -0.359375q-2.65625 0 -4.09375 1.9375q-1.421875 1.921875 -1.421875 4.890625l0 0.265625q0 2.96875 1.390625 4.90625q1.40625 1.9375 3.890625 1.9375q1.171875 0 2.109375 -0.359375q0.953125 -0.359375 1.46875 -0.890625l0.4375 -2.421875l1.625 0l0 3.046875q-0.734375 0.9375 -2.21875 1.6875q-1.46875 0.75 -3.421875 0.75q-3.328125 0 -5.46875 -2.453125q-2.125 -2.46875 -2.125 -6.203125l0 -0.25q0 -3.75 2.09375 -6.203125q2.109375 -2.453125 5.5 -2.453125q1.953125 0 3.421875 0.765625q1.484375 0.75 2.21875 1.6875l0 3.03125zm3.1210938 11.828125l0 0zm2.3125 0l-2.3125 0l0 -2.375l2.3125 0l0 2.375zm0 -10.0l-2.3125 0l0 -2.375l2.3125 0l0 2.375zm2.8476562 11.46875l-1.953125 0l7.125 -18.53125l1.953125 0l-7.125 18.53125z" fill-rule="nonzero"></path><path fill="#ffe599" d="m89.697876 424.49338l0 0c-1.458252 -7.469757 3.3294678 -14.864349 12.331551 -19.04602c9.002083 -4.1816406 20.639755 -4.4169617 29.974724 -0.6061096l0 0c3.3067322 -4.343231 9.359024 -7.341919 16.326157 -8.08905c6.967148 -0.74713135 14.030823 0.8450928 19.054413 4.2950134l0 0c2.8169098 -3.9378662 8.347961 -6.5835876 14.630447 -6.998352c6.282486 -0.4147644 12.427292 1.4601135 16.253906 4.9593506l0 0c5.089157 -4.174103 13.186142 -5.9315796 20.787338 -4.511963c7.6011963 1.4196472 13.341354 5.7614136 14.736694 11.146576l0 0c6.235077 1.1854858 11.428772 4.1990967 14.239197 8.262207c2.8104248 4.063141 2.9618683 8.777222 0.41522217 12.924255l0 0c6.13974 5.5699463 7.5759735 12.991821 3.7727356 19.49591c-3.803238 6.50412 -12.274567 11.113281 -22.252625 12.107422c-0.07032776 6.1043396 -4.8732452 11.705597 -12.55751 14.644806c-7.68425 2.9392395 -17.049911 2.7574463 -24.48706 -0.47528076c-3.1678162 7.310974 -12.084198 12.690338 -22.896927 13.813995c-10.812714 1.1236267 -21.58339 -2.2098694 -27.658691 -8.560333c-7.4470367 3.1301575 -16.382866 4.0318604 -24.791748 2.5016785c-8.4088745 -1.5301514 -15.582474 -5.3632812 -19.90258 -10.634735l0 0c-7.6099396 0.62072754 -14.967705 -2.1275024 -18.421654 -6.8807373c-3.4539566 -4.753235 -2.2688293 -10.499634 2.9671936 -14.387268l0 0c-6.7882614 -2.7849426 -10.252045 -8.311157 -8.585121 -13.69696c1.6669312 -5.385803 8.086838 -9.410736 15.911987 -9.975983z" fill-rule="evenodd"></path><path fill="#000000" fill-opacity="0.0" d="m82.22058 448.4542l0 0c3.2033997 1.3142395 6.9040833 1.9103699 10.605171 1.708435m4.847618 19.560059c1.5916061 -0.12982178 3.15168 -0.40472412 4.6399918 -0.8176575m40.052116 8.950378c-1.1194305 -1.1701355 -2.0566711 -2.4205322 -2.795761 -3.7298584m53.353317 -1.5240479l0 0c0.57754517 -1.3328857 0.95173645 -2.7047424 1.1163483 -4.0926514m35.92682 -10.076324c0.07487488 -6.498993 -5.220825 -12.449554 -13.612442 -15.295715m32.092148 -16.306946c-1.3589935 2.2130432 -3.4336548 4.176178 -6.06131 5.7355347m-8.591843 -26.922577l0 0c0.23156738 0.89367676 0.33872986 1.8007812 0.32000732 2.7087402m-35.84343 -9.343079l0 0c-1.2694855 1.0412292 -2.315384 2.2048035 -3.1051178 3.4544678m-27.779526 -1.4159241l0 0c-0.67652893 0.94573975 -1.1817169 1.9465027 -1.5039368 2.9792175m-33.877136 0.8148804l0 0c1.9752655 0.8063965 3.802658 1.776947 5.442047 2.8903809m-47.747787 16.761871l0 0c0.20098114 1.029541 0.51854706 2.0463562 0.9497223 3.040985" fill-rule="evenodd"></path><path stroke="#f1c232" stroke-width="2.0" stroke-linejoin="round" stroke-linecap="butt" d="m89.697876 424.49338l0 0c-1.458252 -7.469757 3.3294678 -14.864349 12.331551 -19.04602c9.002083 -4.1816406 20.639755 -4.4169617 29.974724 -0.6061096l0 0c3.3067322 -4.343231 9.359024 -7.341919 16.326157 -8.08905c6.967148 -0.74713135 14.030823 0.8450928 19.054413 4.2950134l0 0c2.8169098 -3.9378662 8.347961 -6.5835876 14.630447 -6.998352c6.282486 -0.4147644 12.427292 1.4601135 16.253906 4.9593506l0 0c5.089157 -4.174103 13.186142 -5.9315796 20.787338 -4.511963c7.6011963 1.4196472 13.341354 5.7614136 14.736694 11.146576l0 0c6.235077 1.1854858 11.428772 4.1990967 14.239197 8.262207c2.8104248 4.063141 2.9618683 8.777222 0.41522217 12.924255l0 0c6.13974 5.5699463 7.5759735 12.991821 3.7727356 19.49591c-3.803238 6.50412 -12.274567 11.113281 -22.252625 12.107422c-0.07032776 6.1043396 -4.8732452 11.705597 -12.55751 14.644806c-7.68425 2.9392395 -17.049911 2.7574463 -24.48706 -0.47528076c-3.1678162 7.310974 -12.084198 12.690338 -22.896927 13.813995c-10.812714 1.1236267 -21.58339 -2.2098694 -27.658691 -8.560333c-7.4470367 3.1301575 -16.382866 4.0318604 -24.791748 2.5016785c-8.4088745 -1.5301514 -15.582474 -5.3632812 -19.90258 -10.634735l0 0c-7.6099396 0.62072754 -14.967705 -2.1275024 -18.421654 -6.8807373c-3.4539566 -4.753235 -2.2688293 -10.499634 2.9671936 -14.387268l0 0c-6.7882614 -2.7849426 -10.252045 -8.311157 -8.585121 -13.69696c1.6669312 -5.385803 8.086838 -9.410736 15.911987 -9.975983z" fill-rule="evenodd"></path><path stroke="#f1c232" stroke-width="2.0" stroke-linejoin="round" stroke-linecap="butt" d="m82.22058 448.4542l0 0c3.2033997 1.3142395 6.9040833 1.9103699 10.605171 1.708435m4.847618 19.560059c1.5916061 -0.12982178 3.15168 -0.40472412 4.6399918 -0.8176575m40.052116 8.950378c-1.1194305 -1.1701355 -2.0566711 -2.4205322 -2.795761 -3.7298584m53.353317 -1.5240479l0 0c0.57754517 -1.3328857 0.95173645 -2.7047424 1.1163483 -4.0926514m35.92682 -10.076324c0.07487488 -6.498993 -5.220825 -12.449554 -13.612442 -15.295715m32.092148 -16.306946c-1.3589935 2.2130432 -3.4336548 4.176178 -6.06131 5.7355347m-8.591843 -26.922577l0 0c0.23156738 0.89367676 0.33872986 1.8007812 0.32000732 2.7087402m-35.84343 -9.343079l0 0c-1.2694855 1.0412292 -2.315384 2.2048035 -3.1051178 3.4544678m-27.779526 -1.4159241l0 0c-0.67652893 0.94573975 -1.1817169 1.9465027 -1.5039368 2.9792175m-33.877136 0.8148804l0 0c1.9752655 0.8063965 3.802658 1.776947 5.442047 2.8903809m-47.747787 16.761871l0 0c0.20098114 1.029541 0.51854706 2.0463562 0.9497223 3.040985" fill-rule="evenodd"></path><path fill="#000000" d="m122.60968 420.37256l-0.046875 -0.015625l-4.828125 11.96875l-1.34375 0l-4.828125 -11.953125l-0.046875 0l0.203125 6.046875l0 4.328125l1.671875 0.28125l0 1.296875l-5.359375 0l0 -1.296875l1.671875 -0.28125l0 -11.765625l-1.671875 -0.28125l0 -1.3125l1.671875 0l2.578125 0l4.75 12.140625l0.0625 0l4.75 -12.140625l4.265625 0l0 1.3125l-1.671875 0.28125l0 11.765625l1.671875 0.28125l0 1.296875l-5.359375 0l0 -1.296875l1.671875 -0.28125l0 -4.328125l0.1875 -6.046875zm5.432663 10.65625l1.671875 -0.28125l0 -7.921875l-1.671875 -0.296875l0 -1.296875l3.703125 0l0 9.515625l1.671875 0.28125l0 1.296875l-5.375 0l0 -1.296875zm3.703125 -12.640625l-2.03125 0l0 -2.0625l2.03125 0l0 2.0625zm8.289963 12.578125q1.015625 0 1.765625 -0.625q0.765625 -0.625 0.765625 -1.515625l1.828125 0l0.015625 0.046875q0.046875 1.4375 -1.28125 2.5625q-1.328125 1.109375 -3.09375 1.109375q-2.421875 0 -3.703125 -1.578125q-1.265625 -1.578125 -1.265625 -3.96875l0 -0.4375q0 -2.359375 1.28125 -3.9375q1.28125 -1.59375 3.6875 -1.59375q1.34375 0 2.40625 0.4375q1.0625 0.4375 1.75 1.203125l0.09375 2.46875l-1.609375 0l-0.4375 -1.75q-0.359375 -0.34375 -0.921875 -0.546875q-0.5625 -0.21875 -1.28125 -0.21875q-1.578125 0 -2.265625 1.140625q-0.6875 1.140625 -0.6875 2.796875l0 0.4375q0 1.703125 0.671875 2.84375q0.6875 1.125 2.28125 1.125zm6.5128174 -8.4375l0 -1.296875l3.484375 0l0.1875 1.609375q0.484375 -0.859375 1.171875 -1.328125q0.6875 -0.484375 1.578125 -0.484375q0.234375 0 0.484375 0.03125q0.25 0.03125 0.390625 0.078125l-0.265625 1.875l-1.15625 -0.0625q-0.796875 0 -1.34375 0.375q-0.53125 0.375 -0.828125 1.046875l0 6.375l1.671875 0.28125l0 1.296875l-5.375 0l0 -1.296875l1.671875 -0.28125l0 -7.921875l-1.671875 -0.296875zm8.836395 4.140625q0 -2.453125 1.328125 -4.046875q1.34375 -1.59375 3.625 -1.59375q2.296875 0 3.625 1.59375q1.34375 1.578125 1.34375 4.046875l0 0.234375q0 2.484375 -1.328125 4.0625q-1.328125 1.578125 -3.625 1.578125q-2.296875 0 -3.640625 -1.578125q-1.328125 -1.59375 -1.328125 -4.0625l0 -0.234375zm2.015625 0.234375q0 1.765625 0.75 2.921875q0.75 1.140625 2.203125 1.140625q1.4375 0 2.1875 -1.140625q0.75 -1.15625 0.75 -2.921875l0 -0.234375q0 -1.734375 -0.75 -2.890625q-0.75 -1.15625 -2.203125 -1.15625q-1.453125 0 -2.203125 1.15625q-0.734375 1.15625 -0.734375 2.890625l0 0.234375zm18.434586 -2.1875l-1.515625 0l-0.328125 -1.328125q-0.375 -0.359375 -0.9375 -0.5625q-0.546875 -0.203125 -1.265625 -0.203125q-1.078125 0 -1.609375 0.46875q-0.515625 0.46875 -0.515625 1.140625q0 0.65625 0.453125 1.03125q0.46875 0.375 1.890625 0.671875q2.109375 0.453125 3.125 1.234375q1.03125 0.765625 1.03125 2.0625q0 1.484375 -1.203125 2.40625q-1.1875 0.90625 -3.109375 0.90625q-1.265625 0 -2.28125 -0.296875q-1.0 -0.296875 -1.78125 -0.84375l-0.015625 -2.53125l1.515625 0l0.375 1.484375q0.359375 0.3125 0.953125 0.46875q0.59375 0.140625 1.234375 0.140625q1.0625 0 1.671875 -0.4375q0.625 -0.4375 0.625 -1.140625q0 -0.671875 -0.515625 -1.09375q-0.5 -0.4375 -1.921875 -0.75q-2.015625 -0.453125 -3.046875 -1.203125q-1.03125 -0.765625 -1.03125 -2.0625q0 -1.34375 1.15625 -2.296875q1.15625 -0.953125 3.0 -0.953125q1.265625 0 2.265625 0.328125q1.015625 0.328125 1.671875 0.90625l0.109375 2.453125zm2.38797 1.953125q0 -2.453125 1.328125 -4.046875q1.34375 -1.59375 3.625 -1.59375q2.296875 0 3.625 1.59375q1.34375 1.578125 1.34375 4.046875l0 0.234375q0 2.484375 -1.328125 4.0625q-1.328125 1.578125 -3.625 1.578125q-2.296875 0 -3.640625 -1.578125q-1.328125 -1.59375 -1.328125 -4.0625l0 -0.234375zm2.015625 0.234375q0 1.765625 0.75 2.921875q0.75 1.140625 2.203125 1.140625q1.4375 0 2.1875 -1.140625q0.75 -1.15625 0.75 -2.921875l0 -0.234375q0 -1.734375 -0.75 -2.890625q-0.75 -1.15625 -2.203125 -1.15625q-1.453125 0 -2.203125 1.15625q-0.734375 1.15625 -0.734375 2.890625l0 0.234375zm9.747086 -4.171875l0 -1.5l1.734375 0l0 -1.40625q0 -1.78125 0.921875 -2.75q0.9375 -0.96875 2.59375 -0.96875q0.34375 0 0.703125 0.0625q0.359375 0.0625 0.78125 0.15625l-0.25 1.546875q-0.171875 -0.046875 -0.4375 -0.078125q-0.265625 -0.03125 -0.546875 -0.03125q-0.890625 0 -1.328125 0.53125q-0.421875 0.53125 -0.421875 1.53125l0 1.40625l2.3125 0l0 1.5l-2.3125 0l0 8.015625l1.671875 0.28125l0 1.296875l-5.359375 0l0 -1.296875l1.671875 -0.28125l0 -8.015625l-1.734375 0zm11.300232 -4.171875l0 2.671875l2.109375 0l0 1.5l-2.109375 0l0 6.734375q0 0.78125 0.328125 1.09375q0.328125 0.3125 0.859375 0.3125q0.265625 0 0.59375 -0.03125q0.328125 -0.046875 0.5625 -0.109375l0.28125 1.390625q-0.296875 0.1875 -0.859375 0.296875q-0.546875 0.125 -1.09375 0.125q-1.234375 0 -1.96875 -0.734375q-0.71875 -0.75 -0.71875 -2.34375l0 -6.734375l-1.75 0l0 -1.5l1.75 0l0 -2.671875l2.015625 0z" fill-rule="nonzero"></path><path fill="#000000" d="m119.60968 447.98193l-1.4375 0l-0.375 -2.109375q-0.484375 -0.484375 -1.203125 -0.796875q-0.71875 -0.3125 -1.71875 -0.3125q-2.328125 0 -3.578125 1.6875q-1.25 1.6875 -1.25 4.28125l0 0.234375q0 2.59375 1.21875 4.296875q1.234375 1.703125 3.40625 1.703125q1.015625 0 1.84375 -0.3125q0.828125 -0.328125 1.28125 -0.796875l0.375 -2.109375l1.4375 0l0 2.65625q-0.65625 0.828125 -1.953125 1.484375q-1.28125 0.65625 -2.984375 0.65625q-2.921875 0 -4.78125 -2.15625q-1.859375 -2.15625 -1.859375 -5.421875l0 -0.203125q0 -3.28125 1.828125 -5.421875q1.84375 -2.15625 4.8125 -2.15625q1.703125 0 2.984375 0.65625q1.296875 0.65625 1.953125 1.484375l0 2.65625zm2.0851898 -4.34375l0 -1.3125l3.6875 0l0 14.421875l1.671875 0.28125l0 1.296875l-5.359375 0l0 -1.296875l1.671875 -0.28125l0 -12.828125l-1.671875 -0.28125zm6.9983673 9.03125q0 -2.453125 1.328125 -4.046875q1.34375 -1.59375 3.625 -1.59375q2.296875 0 3.625 1.59375q1.34375 1.578125 1.34375 4.046875l0 0.234375q0 2.484375 -1.328125 4.0625q-1.328125 1.578125 -3.625 1.578125q-2.296875 0 -3.640625 -1.578125q-1.328125 -1.59375 -1.328125 -4.0625l0 -0.234375zm2.015625 0.234375q0 1.765625 0.75 2.921875q0.75 1.140625 2.203125 1.140625q1.4375 0 2.1875 -1.140625q0.75 -1.15625 0.75 -2.921875l0 -0.234375q0 -1.734375 -0.75 -2.890625q-0.75 -1.15625 -2.203125 -1.15625q-1.453125 0 -2.203125 1.15625q-0.734375 1.15625 -0.734375 2.890625l0 0.234375zm17.872086 3.78125q-0.515625 0.890625 -1.34375 1.375q-0.828125 0.484375 -1.90625 0.484375q-1.796875 0 -2.8125 -1.15625q-1.015625 -1.171875 -1.015625 -3.609375l0 -4.953125l-1.265625 -0.296875l0 -1.296875l1.265625 0l2.015625 0l0 6.5625q0 1.765625 0.515625 2.4375q0.53125 0.671875 1.640625 0.671875q1.078125 0 1.78125 -0.4375q0.703125 -0.4375 1.0625 -1.234375l0 -6.40625l-1.484375 -0.296875l0 -1.296875l1.484375 0l2.015625 0l0 9.515625l1.265625 0.28125l0 1.296875l-3.078125 0l-0.140625 -1.640625zm12.502045 0.3125q-0.546875 0.765625 -1.328125 1.15625q-0.78125 0.390625 -1.828125 0.390625q-2.03125 0 -3.171875 -1.46875q-1.140625 -1.484375 -1.140625 -3.875l0 -0.21875q0 -2.671875 1.140625 -4.3125q1.140625 -1.640625 3.203125 -1.640625q0.984375 0 1.734375 0.359375q0.75 0.359375 1.28125 1.046875l0 -4.515625l-1.671875 -0.28125l0 -1.3125l1.671875 0l2.03125 0l0 14.421875l1.671875 0.28125l0 1.296875l-3.4375 0l-0.15625 -1.328125zm-5.453125 -3.796875q0 1.671875 0.6875 2.6875q0.6875 1.015625 2.125 1.015625q0.90625 0 1.515625 -0.40625q0.625 -0.421875 1.015625 -1.171875l0 -5.140625q-0.390625 -0.703125 -1.015625 -1.109375q-0.625 -0.40625 -1.5 -0.40625q-1.4375 0 -2.140625 1.203125q-0.6875 1.1875 -0.6875 3.109375l0 0.21875z" fill-rule="nonzero"></path><path fill="#000000" fill-opacity="0.0" d="m31.4042 104.67191l0 35.49607" fill-rule="evenodd"></path><path stroke="#a4c2f4" stroke-width="2.0" stroke-linejoin="round" stroke-linecap="butt" d="m31.4042 104.67191l0 35.49607" fill-rule="evenodd"></path><path fill="#000000" fill-opacity="0.0" d="m31.4042 140.15486l-14.708662 16.440933" fill-rule="evenodd"></path><path stroke="#a4c2f4" stroke-width="2.0" stroke-linejoin="round" stroke-linecap="butt" d="m31.4042 140.15486l-14.708662 16.440933" fill-rule="evenodd"></path><path fill="#000000" fill-opacity="0.0" d="m31.4042 141.88452l12.9763775 13.858261" fill-rule="evenodd"></path><path stroke="#a4c2f4" stroke-width="2.0" stroke-linejoin="round" stroke-linecap="butt" d="m31.4042 141.88452l12.9763775 13.858261" fill-rule="evenodd"></path><path fill="#000000" fill-opacity="0.0" d="m19.288713 121.98163l23.37008 0" fill-rule="evenodd"></path><path stroke="#a4c2f4" stroke-width="2.0" stroke-linejoin="round" stroke-linecap="butt" d="m19.288713 121.98163l23.37008 0" fill-rule="evenodd"></path><path fill="#cfe2f3" d="m24.477924 97.31521l0 0c0 -4.5400467 3.2926445 -8.220474 7.35433 -8.220474l0 0c1.950491 0 3.8210926 0.86608124 5.2002964 2.4077225c1.3792038 1.5416336 2.1540337 3.6325455 2.1540337 5.812752l0 0c0 4.540039 -3.2926445 8.220467 -7.35433 8.220467l0 0c-4.0616856 0 -7.35433 -3.6804276 -7.35433 -8.220467z" fill-rule="evenodd"></path><path stroke="#a4c2f4" stroke-width="2.0" stroke-linejoin="round" stroke-linecap="butt" d="m24.477924 97.31521l0 0c0 -4.5400467 3.2926445 -8.220474 7.35433 -8.220474l0 0c1.950491 0 3.8210926 0.86608124 5.2002964 2.4077225c1.3792038 1.5416336 2.1540337 3.6325455 2.1540337 5.812752l0 0c0 4.540039 -3.2926445 8.220467 -7.35433 8.220467l0 0c-4.0616856 0 -7.35433 -3.6804276 -7.35433 -8.220467z" fill-rule="evenodd"></path><path fill="#cfe2f3" d="m483.82153 290.71127l141.03937 0l0 65.763794l-141.03937 0z" fill-rule="evenodd"></path><path stroke="#a4c2f4" stroke-width="2.0" stroke-linejoin="round" stroke-linecap="butt" d="m483.82153 290.71127l141.03937 0l0 65.763794l-141.03937 0z" fill-rule="evenodd"></path><path fill="#000000" d="m506.88403 320.30505l-1.625 0l-0.4375 -2.40625q-0.5625 -0.5625 -1.390625 -0.90625q-0.8125 -0.359375 -1.953125 -0.359375q-2.65625 0 -4.09375 1.9375q-1.421875 1.921875 -1.421875 4.890625l0 0.265625q0 2.96875 1.390625 4.90625q1.40625 1.9375 3.890625 1.9375q1.171875 0 2.109375 -0.359375q0.953125 -0.359375 1.46875 -0.890625l0.4375 -2.421875l1.625 0l0 3.046875q-0.734375 0.9375 -2.21875 1.6875q-1.46875 0.75 -3.421875 0.75q-3.328125 0 -5.46875 -2.453125q-2.125 -2.46875 -2.125 -6.203125l0 -0.25q0 -3.75 2.09375 -6.203125q2.109375 -2.453125 5.5 -2.453125q1.953125 0 3.421875 0.765625q1.484375 0.75 2.21875 1.6875l0 3.03125zm2.4648438 10.34375l1.90625 -0.328125l0 -9.046875l-1.90625 -0.328125l0 -1.5l4.21875 0l0 10.875l1.90625 0.328125l0 1.484375l-6.125 0l0 -1.484375zm4.21875 -14.4375l-2.3125 0l0 -2.359375l2.3125 0l0 2.359375zm7.6992188 0.1875l0 3.046875l2.40625 0l0 1.71875l-2.40625 0l0 7.703125q0 0.890625 0.359375 1.25q0.375 0.359375 0.984375 0.359375q0.3125 0 0.6875 -0.046875q0.375 -0.0625 0.640625 -0.109375l0.3125 1.578125q-0.328125 0.203125 -0.96875 0.34375q-0.625 0.140625 -1.25 0.140625q-1.40625 0 -2.25 -0.84375q-0.828125 -0.859375 -0.828125 -2.671875l0 -7.703125l-2.0 0l0 -1.71875l2.0 0l0 -3.046875l2.3125 0zm17.773438 3.90625l-1.625 0l-0.4375 -2.40625q-0.5625 -0.5625 -1.390625 -0.90625q-0.8125 -0.359375 -1.953125 -0.359375q-2.65625 0 -4.09375 1.9375q-1.421875 1.921875 -1.421875 4.890625l0 0.265625q0 2.96875 1.390625 4.90625q1.40625 1.9375 3.890625 1.9375q1.171875 0 2.109375 -0.359375q0.953125 -0.359375 1.46875 -0.890625l0.4375 -2.421875l1.625 0l0 3.046875q-0.734375 0.9375 -2.21875 1.6875q-1.46875 0.75 -3.421875 0.75q-3.328125 0 -5.46875 -2.453125q-2.125 -2.46875 -2.125 -6.203125l0 -0.25q0 -3.75 2.09375 -6.203125q2.109375 -2.453125 5.5 -2.453125q1.953125 0 3.421875 0.765625q1.484375 0.75 2.21875 1.6875l0 3.03125z" fill-rule="nonzero"></path><path fill="#ffe599" d="m537.7264 424.49338l0 0c-1.2036743 -7.469757 2.748108 -14.864349 10.178467 -19.04602c7.430359 -4.1816406 17.036133 -4.4169617 24.74121 -0.6061096l0 0c2.7294312 -4.343231 7.7249756 -7.341919 13.475647 -8.08905c5.7507324 -0.74713135 11.581116 0.8450928 15.7276 4.2950134l0 0c2.3250732 -3.9378662 6.890442 -6.5835876 12.075989 -6.998352c5.185608 -0.4147644 10.257507 1.4601135 13.416016 4.9593506l0 0c4.2006226 -4.174103 10.883911 -5.9315796 17.157959 -4.511963c6.274048 1.4196472 11.011963 5.7614136 12.163696 11.146576l0 0c5.1464233 1.1854858 9.43335 4.1990967 11.753052 8.262207c2.3197632 4.063141 2.4447632 8.777222 0.3427124 12.924255l0 0c5.06781 5.5699463 6.253235 12.991821 3.1140747 19.49591c-3.1392212 6.50412 -10.13147 11.113281 -18.36737 12.107422c-0.05810547 6.1043396 -4.0224 11.705597 -10.365051 14.644806c-6.3425903 2.9392395 -14.072998 2.7574463 -20.21167 -0.47528076c-2.614746 7.310974 -9.974304 12.690338 -18.89917 13.813995c-8.924866 1.1236267 -17.815002 -2.2098694 -22.82959 -8.560333c-6.1467896 3.1301575 -13.522461 4.0318604 -20.463135 2.5016785c-6.940735 -1.5301514 -12.861877 -5.3632812 -16.427673 -10.634735l0 0c-6.28125 0.62072754 -12.35437 -2.1275024 -15.205261 -6.8807373c-2.8509521 -4.753235 -1.8727417 -10.499634 2.4490967 -14.387268l0 0c-5.6030273 -2.7849426 -8.462036 -8.311157 -7.0861816 -13.69696c1.3759155 -5.385803 6.6749268 -9.410736 13.133789 -9.975983z" fill-rule="evenodd"></path><path fill="#000000" fill-opacity="0.0" d="m531.55457 448.4542l0 0c2.644104 1.3142395 5.6986694 1.9103699 8.75354 1.708435m4.0012207 19.560059c1.3137207 -0.12982178 2.6014404 -0.40472412 3.829895 -0.8176575m33.059143 8.950378c-0.92401123 -1.1701355 -1.6976318 -2.4205322 -2.3076782 -3.7298584m44.038025 -1.5240479l0 0c0.47668457 -1.3328857 0.78552246 -2.7047424 0.9213867 -4.0926514m29.654114 -10.076324c0.061828613 -6.498993 -4.309265 -12.449554 -11.235718 -15.295715m26.488953 -16.306946c-1.1217651 2.2130432 -2.8341675 4.176178 -5.0030518 5.7355347m-7.091736 -26.922577l0 0c0.19116211 0.89367676 0.27960205 1.8007812 0.26416016 2.7087402m-29.585266 -9.343079l0 0c-1.0478516 1.0412292 -1.9111328 2.2048035 -2.5629883 3.4544678m-22.929321 -1.4159241l0 0c-0.55841064 0.94573975 -0.97540283 1.9465027 -1.241333 2.9792175m-27.96228 0.8148804l0 0c1.6303711 0.8063965 3.138733 1.776947 4.4918823 2.8903809m-39.411133 16.761871l0 0c0.16589355 1.029541 0.42797852 2.0463562 0.7838745 3.040985" fill-rule="evenodd"></path><path stroke="#f1c232" stroke-width="2.0" stroke-linejoin="round" stroke-linecap="butt" d="m537.7264 424.49338l0 0c-1.2036743 -7.469757 2.748108 -14.864349 10.178467 -19.04602c7.430359 -4.1816406 17.036133 -4.4169617 24.74121 -0.6061096l0 0c2.7294312 -4.343231 7.7249756 -7.341919 13.475647 -8.08905c5.7507324 -0.74713135 11.581116 0.8450928 15.7276 4.2950134l0 0c2.3250732 -3.9378662 6.890442 -6.5835876 12.075989 -6.998352c5.185608 -0.4147644 10.257507 1.4601135 13.416016 4.9593506l0 0c4.2006226 -4.174103 10.883911 -5.9315796 17.157959 -4.511963c6.274048 1.4196472 11.011963 5.7614136 12.163696 11.146576l0 0c5.1464233 1.1854858 9.43335 4.1990967 11.753052 8.262207c2.3197632 4.063141 2.4447632 8.777222 0.3427124 12.924255l0 0c5.06781 5.5699463 6.253235 12.991821 3.1140747 19.49591c-3.1392212 6.50412 -10.13147 11.113281 -18.36737 12.107422c-0.05810547 6.1043396 -4.0224 11.705597 -10.365051 14.644806c-6.3425903 2.9392395 -14.072998 2.7574463 -20.21167 -0.47528076c-2.614746 7.310974 -9.974304 12.690338 -18.89917 13.813995c-8.924866 1.1236267 -17.815002 -2.2098694 -22.82959 -8.560333c-6.1467896 3.1301575 -13.522461 4.0318604 -20.463135 2.5016785c-6.940735 -1.5301514 -12.861877 -5.3632812 -16.427673 -10.634735l0 0c-6.28125 0.62072754 -12.35437 -2.1275024 -15.205261 -6.8807373c-2.8509521 -4.753235 -1.8727417 -10.499634 2.4490967 -14.387268l0 0c-5.6030273 -2.7849426 -8.462036 -8.311157 -7.0861816 -13.69696c1.3759155 -5.385803 6.6749268 -9.410736 13.133789 -9.975983z" fill-rule="evenodd"></path><path stroke="#f1c232" stroke-width="2.0" stroke-linejoin="round" stroke-linecap="butt" d="m531.55457 448.4542l0 0c2.644104 1.3142395 5.6986694 1.9103699 8.75354 1.708435m4.0012207 19.560059c1.3137207 -0.12982178 2.6014404 -0.40472412 3.829895 -0.8176575m33.059143 8.950378c-0.92401123 -1.1701355 -1.6976318 -2.4205322 -2.3076782 -3.7298584m44.038025 -1.5240479l0 0c0.47668457 -1.3328857 0.78552246 -2.7047424 0.9213867 -4.0926514m29.654114 -10.076324c0.061828613 -6.498993 -4.309265 -12.449554 -11.235718 -15.295715m26.488953 -16.306946c-1.1217651 2.2130432 -2.8341675 4.176178 -5.0030518 5.7355347m-7.091736 -26.922577l0 0c0.19116211 0.89367676 0.27960205 1.8007812 0.26416016 2.7087402m-29.585266 -9.343079l0 0c-1.0478516 1.0412292 -1.9111328 2.2048035 -2.5629883 3.4544678m-22.929321 -1.4159241l0 0c-0.55841064 0.94573975 -0.97540283 1.9465027 -1.241333 2.9792175m-27.96228 0.8148804l0 0c1.6303711 0.8063965 3.138733 1.776947 4.4918823 2.8903809m-39.411133 16.761871l0 0c0.16589355 1.029541 0.42797852 2.0463562 0.7838745 3.040985" fill-rule="evenodd"></path><path fill="#000000" d="m568.2461 429.94818q-0.75 0.78125 -2.21875 1.484375q-1.46875 0.703125 -3.8125 0.703125q-3.421875 0 -5.59375 -2.40625q-2.15625 -2.40625 -2.15625 -6.234375l0 -0.28125q0 -3.859375 2.140625 -6.25q2.140625 -2.390625 5.6875 -2.390625q1.90625 0 3.34375 0.59375q1.4375 0.59375 2.421875 1.5625l0 3.09375l-1.625 0l-0.5625 -2.359375q-0.578125 -0.46875 -1.390625 -0.765625q-0.8125 -0.3125 -1.953125 -0.3125q-2.765625 0 -4.265625 1.90625q-1.484375 1.890625 -1.484375 4.890625l0 0.3125q0 3.0625 1.4375 4.953125q1.453125 1.875 4.0 1.875q1.390625 0 2.28125 -0.28125q0.890625 -0.296875 1.4375 -0.65625l0 -3.734375l-2.796875 -0.125l0 -1.6875l5.109375 0l0 6.109375zm2.8945312 -4.515625q0 -2.8125 1.515625 -4.640625q1.53125 -1.828125 4.140625 -1.828125q2.625 0 4.15625 1.828125q1.53125 1.8125 1.53125 4.640625l0 0.25q0 2.84375 -1.53125 4.65625q-1.515625 1.796875 -4.140625 1.796875q-2.625 0 -4.15625 -1.8125q-1.515625 -1.8125 -1.515625 -4.640625l0 -0.25zm2.296875 0.25q0 2.015625 0.84375 3.328125q0.859375 1.3125 2.53125 1.3125q1.640625 0 2.5 -1.3125q0.859375 -1.3125 0.859375 -3.328125l0 -0.25q0 -2.0 -0.859375 -3.3125q-0.859375 -1.328125 -2.515625 -1.328125q-1.671875 0 -2.515625 1.328125q-0.84375 1.3125 -0.84375 3.3125l0 0.25zm11.167969 -0.25q0 -2.8125 1.515625 -4.640625q1.53125 -1.828125 4.140625 -1.828125q2.625 0 4.15625 1.828125q1.53125 1.8125 1.53125 4.640625l0 0.25q0 2.84375 -1.53125 4.65625q-1.515625 1.796875 -4.140625 1.796875q-2.625 0 -4.15625 -1.8125q-1.515625 -1.8125 -1.515625 -4.640625l0 -0.25zm2.296875 0.25q0 2.015625 0.84375 3.328125q0.859375 1.3125 2.53125 1.3125q1.640625 0 2.5 -1.3125q0.859375 -1.3125 0.859375 -3.328125l0 -0.25q0 -2.0 -0.859375 -3.3125q-0.859375 -1.328125 -2.515625 -1.328125q-1.671875 0 -2.515625 1.328125q-0.84375 1.3125 -0.84375 3.3125l0 0.25zm11.167969 0.09375q0 -3.0625 1.328125 -4.9375q1.34375 -1.875 3.6875 -1.875q1.203125 0 2.09375 0.46875q0.90625 0.46875 1.515625 1.359375l0.21875 -1.59375l1.9375 0l0 12.515625q0 2.46875 -1.375 3.875q-1.359375 1.421875 -3.890625 1.421875q-0.921875 0 -1.984375 -0.25q-1.0625 -0.25 -1.875 -0.6875l0.59375 -1.796875q0.65625 0.34375 1.53125 0.5625q0.875 0.21875 1.703125 0.21875q1.546875 0 2.265625 -0.875q0.734375 -0.859375 0.734375 -2.46875l0 -1.203125q-0.625 0.796875 -1.5 1.21875q-0.859375 0.40625 -1.984375 0.40625q-2.328125 0 -3.671875 -1.6875q-1.328125 -1.6875 -1.328125 -4.421875l0 -0.25zm2.296875 0.25q0 1.90625 0.8125 3.078125q0.8125 1.15625 2.46875 1.15625q1.03125 0 1.734375 -0.46875q0.703125 -0.484375 1.171875 -1.359375l0 -5.828125q-0.453125 -0.8125 -1.171875 -1.28125q-0.703125 -0.484375 -1.71875 -0.484375q-1.65625 0 -2.484375 1.390625q-0.8125 1.375 -0.8125 3.546875l0 0.25zm10.957031 -10.9375l0 -1.484375l4.21875 0l0 16.46875l1.90625 0.328125l0 1.484375l-6.125 0l0 -1.484375l1.90625 -0.328125l0 -14.65625l-1.90625 -0.328125zm13.652344 17.046875q-2.640625 0 -4.203125 -1.765625q-1.5625 -1.765625 -1.5625 -4.578125l0 -0.515625q0 -2.703125 1.609375 -4.5q1.609375 -1.8125 3.8125 -1.8125q2.546875 0 3.859375 1.546875q1.328125 1.546875 1.328125 4.125l0 1.453125l-8.21875 0l-0.046875 0.046875q0.046875 1.828125 0.9375 3.015625q0.890625 1.171875 2.484375 1.171875q1.171875 0 2.0625 -0.328125q0.890625 -0.34375 1.53125 -0.921875l0.90625 1.5q-0.6875 0.65625 -1.8125 1.109375q-1.109375 0.453125 -2.6875 0.453125zm-0.34375 -11.34375q-1.15625 0 -1.984375 0.984375q-0.8125 0.96875 -1.0 2.4375l0.015625 0.0625l5.84375 0l0 -0.296875q0 -1.359375 -0.734375 -2.265625q-0.71875 -0.921875 -2.140625 -0.921875z" fill-rule="nonzero"></path><path fill="#000000" d="m567.8867 449.05756l-1.625 0l-0.4375 -2.40625q-0.5625 -0.5625 -1.390625 -0.90625q-0.8125 -0.359375 -1.953125 -0.359375q-2.65625 0 -4.09375 1.9375q-1.421875 1.921875 -1.421875 4.890625l0 0.265625q0 2.96875 1.390625 4.90625q1.40625 1.9375 3.890625 1.9375q1.171875 0 2.109375 -0.359375q0.953125 -0.359375 1.46875 -0.890625l0.4375 -2.421875l1.625 0l0 3.046875q-0.734375 0.9375 -2.21875 1.6875q-1.46875 0.75 -3.421875 0.75q-3.328125 0 -5.46875 -2.453125q-2.125 -2.46875 -2.125 -6.203125l0 -0.25q0 -3.75 2.09375 -6.203125q2.109375 -2.453125 5.5 -2.453125q1.953125 0 3.421875 0.765625q1.484375 0.75 2.21875 1.6875l0 3.03125zm2.1523438 -4.96875l0 -1.484375l4.21875 0l0 16.46875l1.90625 0.328125l0 1.484375l-6.125 0l0 -1.484375l1.90625 -0.328125l0 -14.65625l-1.90625 -0.328125zm7.8867188 10.34375q0 -2.8125 1.515625 -4.640625q1.53125 -1.828125 4.140625 -1.828125q2.625 0 4.15625 1.828125q1.53125 1.8125 1.53125 4.640625l0 0.25q0 2.84375 -1.53125 4.65625q-1.515625 1.796875 -4.140625 1.796875q-2.625 0 -4.15625 -1.8125q-1.515625 -1.8125 -1.515625 -4.640625l0 -0.25zm2.296875 0.25q0 2.015625 0.84375 3.328125q0.859375 1.3125 2.53125 1.3125q1.640625 0 2.5 -1.3125q0.859375 -1.3125 0.859375 -3.328125l0 -0.25q0 -2.0 -0.859375 -3.3125q-0.859375 -1.328125 -2.515625 -1.328125q-1.671875 0 -2.515625 1.328125q-0.84375 1.3125 -0.84375 3.3125l0 0.25zm20.214844 4.328125q-0.59375 1.015625 -1.546875 1.578125q-0.9375 0.546875 -2.15625 0.546875q-2.0625 0 -3.234375 -1.328125q-1.15625 -1.328125 -1.15625 -4.125l0 -5.65625l-1.453125 -0.328125l0 -1.5l1.453125 0l2.3125 0l0 7.5q0 2.03125 0.59375 2.796875q0.59375 0.765625 1.859375 0.765625q1.234375 0 2.03125 -0.5q0.8125 -0.5 1.21875 -1.421875l0 -7.3125l-1.703125 -0.328125l0 -1.5l1.703125 0l2.3125 0l0 10.875l1.453125 0.328125l0 1.484375l-3.53125 0l-0.15625 -1.875zm14.0625 0.359375q-0.625 0.875 -1.53125 1.328125q-0.890625 0.4375 -2.078125 0.4375q-2.3125 0 -3.625 -1.6875q-1.296875 -1.6875 -1.296875 -4.421875l0 -0.25q0 -3.0625 1.296875 -4.9375q1.3125 -1.875 3.65625 -1.875q1.125 0 1.984375 0.421875q0.859375 0.421875 1.46875 1.203125l0 -5.171875l-1.90625 -0.328125l0 -1.484375l1.90625 0l2.3125 0l0 16.46875l1.90625 0.328125l0 1.484375l-3.90625 0l-0.1875 -1.515625zm-6.234375 -4.34375q0 1.90625 0.78125 3.078125q0.796875 1.15625 2.4375 1.15625q1.03125 0 1.734375 -0.46875q0.703125 -0.46875 1.15625 -1.328125l0 -5.890625q-0.4375 -0.796875 -1.15625 -1.265625q-0.71875 -0.46875 -1.71875 -0.46875q-1.640625 0 -2.4375 1.375q-0.796875 1.375 -0.796875 3.5625l0 0.25z" fill-rule="nonzero"></path><path fill="#000000" fill-opacity="0.0" d="m460.63516 107.26509l0 35.496063" fill-rule="evenodd"></path><path stroke="#a4c2f4" stroke-width="2.0" stroke-linejoin="round" stroke-linecap="butt" d="m460.63516 107.26509l0 35.496063" fill-rule="evenodd"></path><path fill="#000000" fill-opacity="0.0" d="m460.63516 142.74803l-14.708649 16.440948" fill-rule="evenodd"></path><path stroke="#a4c2f4" stroke-width="2.0" stroke-linejoin="round" stroke-linecap="butt" d="m460.63516 142.74803l-14.708649 16.440948" fill-rule="evenodd"></path><path fill="#000000" fill-opacity="0.0" d="m460.63516 144.47769l12.976379 13.858261" fill-rule="evenodd"></path><path stroke="#a4c2f4" stroke-width="2.0" stroke-linejoin="round" stroke-linecap="butt" d="m460.63516 144.47769l12.976379 13.858261" fill-rule="evenodd"></path><path fill="#000000" fill-opacity="0.0" d="m448.51968 124.57481l23.370087 0" fill-rule="evenodd"></path><path stroke="#a4c2f4" stroke-width="2.0" stroke-linejoin="round" stroke-linecap="butt" d="m448.51968 124.57481l23.370087 0" fill-rule="evenodd"></path><path fill="#cfe2f3" d="m453.7089 99.90838l0 0c0 -4.540039 3.292633 -8.220467 7.3543396 -8.220467l0 0c1.95047 0 3.8210754 0.86608124 5.200287 2.4077148c1.3792114 1.5416412 2.1540222 3.6325455 2.1540222 5.812752l0 0c0 4.5400467 -3.292633 8.220474 -7.354309 8.220474l0 0c-4.0617065 0 -7.3543396 -3.6804276 -7.3543396 -8.220474z" fill-rule="evenodd"></path><path stroke="#a4c2f4" stroke-width="2.0" stroke-linejoin="round" stroke-linecap="butt" d="m453.7089 99.90838l0 0c0 -4.540039 3.292633 -8.220467 7.3543396 -8.220467l0 0c1.95047 0 3.8210754 0.86608124 5.200287 2.4077148c1.3792114 1.5416412 2.1540222 3.6325455 2.1540222 5.812752l0 0c0 4.5400467 -3.292633 8.220474 -7.354309 8.220474l0 0c-4.0617065 0 -7.3543396 -3.6804276 -7.3543396 -8.220474z" fill-rule="evenodd"></path><path fill="#cfe2f3" d="m483.82135 207.18898l141.03937 0l0 65.76378l-141.03937 0z" fill-rule="evenodd"></path><path stroke="#a4c2f4" stroke-width="2.0" stroke-linejoin="round" stroke-linecap="butt" d="m483.82135 207.18898l141.03937 0l0 65.76378l-141.03937 0z" fill-rule="evenodd"></path><path fill="#000000" d="m493.64948 247.1265l1.921875 -0.328125l0 -13.4375l-1.921875 -0.328125l0 -1.484375l13.1875 0l0 4.09375l-1.96875 0l-0.1875 -2.28125l-6.8125 0l0 5.890625l6.609375 0l0 1.8125l-6.609375 0l0 5.734375l1.921875 0.328125l0 1.484375l-6.140625 0l0 -1.484375zm20.917969 -15.578125l0 1.484375l-1.90625 0.328125l0 9.75q0 1.9375 1.09375 2.9375q1.109375 1.0 2.921875 1.0q1.890625 0 3.046875 -0.984375q1.171875 -1.0 1.171875 -2.953125l0 -9.75l-1.921875 -0.328125l0 -1.484375l4.21875 0l1.921875 0l0 1.484375l-1.921875 0.328125l0 9.75q0 2.78125 -1.8125 4.265625q-1.796875 1.484375 -4.703125 1.484375q-2.828125 0 -4.578125 -1.484375q-1.75 -1.484375 -1.75 -4.265625l0 -9.75l-1.90625 -0.328125l0 -1.484375l1.90625 0l4.21875 0zm24.417969 5.03125l-1.75 0l-0.4375 -2.4375q-0.515625 -0.4375 -1.40625 -0.734375q-0.875 -0.296875 -2.03125 -0.296875q-1.84375 0 -2.828125 0.78125q-0.984375 0.78125 -0.984375 2.03125q0 1.125 1.0 1.875q1.0 0.734375 3.25 1.296875q2.6875 0.671875 4.078125 1.96875q1.40625 1.296875 1.40625 3.21875q0 2.0625 -1.6875 3.328125q-1.671875 1.25 -4.390625 1.25q-1.96875 0 -3.5 -0.640625q-1.53125 -0.65625 -2.484375 -1.703125l0 -3.171875l1.734375 0l0.4375 2.453125q0.671875 0.546875 1.59375 0.90625q0.9375 0.34375 2.21875 0.34375q1.75 0 2.765625 -0.734375q1.015625 -0.734375 1.015625 -2.0q0 -1.171875 -0.890625 -1.96875q-0.875 -0.796875 -3.09375 -1.328125q-2.71875 -0.640625 -4.25 -1.890625q-1.515625 -1.265625 -1.515625 -3.15625q0 -2.015625 1.703125 -3.34375q1.703125 -1.328125 4.421875 -1.328125q1.796875 0 3.265625 0.625q1.46875 0.609375 2.359375 1.484375l0 3.171875zm2.2539062 12.03125l0 -1.484375l1.921875 -0.328125l0 -13.4375l-1.921875 -0.328125l0 -1.484375l13.109375 0l0 4.09375l-1.984375 0l-0.1875 -2.28125l-6.71875 0l0 5.515625l6.53125 0l0 1.828125l-6.53125 0l0 6.09375l6.859375 0l0.1875 -2.28125l1.96875 0l0 4.09375l-13.234375 0z" fill-rule="nonzero"></path><path fill="#000000" fill-opacity="0.0" d="m47.845146 122.845146c15.865704 19.759834 76.73272 71.82809 95.19422 118.55906c18.461502 46.730957 12.979004 134.85565 15.574799 161.82675" fill-rule="evenodd"></path><path stroke="#949494" stroke-width="3.0" stroke-linejoin="round" stroke-linecap="butt" d="m47.845146 122.845146c15.865704 19.759834 76.73272 71.82809 95.19422 118.55906c9.230743 23.365479 12.475494 57.079376 13.737045 88.32333c0.6307678 15.621948 0.7657318 30.626434 0.9052429 43.41107c0.03488159 3.1961975 0.07003784 6.253601 0.11329651 9.147278c0.010818481 0.7234192 0.022140503 1.4365845 0.034088135 2.1391296l0.01499939 0.82244873" fill-rule="evenodd"></path><path fill="#949494" stroke="#949494" stroke-width="3.0" stroke-linecap="butt" d="m152.89339 385.45947l5.533142 13.389801l4.3681793 -13.813812z" fill-rule="evenodd"></path><path fill="#000000" fill-opacity="0.0" d="m173.43614 396.3071c0.280365 -30.720917 -6.581482 -139.0372 1.6822205 -184.32547c8.263687 -45.288284 66.94855 -71.25021 47.89995 -87.4042c-19.0486 -16.153984 -135.1596 -7.933075 -162.19154 -9.519691" fill-rule="evenodd"></path><path stroke="#949494" stroke-width="3.0" stroke-linejoin="round" stroke-linecap="butt" d="m173.43614 396.3071c0.28038025 -30.720947 -6.5814667 -139.0372 1.6822205 -184.32547c8.263687 -45.28827 66.94855 -71.25021 47.89995 -87.4042c-9.524292 -8.0770035 -43.314194 -10.060265 -78.10202 -10.22261c-17.393906 -0.08116913 -35.0373 0.29289246 -50.021706 0.58807373c-3.746109 0.07379913 -7.3260117 0.14266205 -10.694298 0.19825745c-1.6841431 0.027793884 -3.3153763 0.05227661 -4.888031 0.072387695l-0.48620605 0.005622864" fill-rule="evenodd"></path><path fill="#949494" stroke="#949494" stroke-width="3.0" stroke-linecap="butt" d="m78.87048 110.26417l-13.65818 4.8329086l13.569305 5.0770874z" fill-rule="evenodd"></path><path fill="#000000" fill-opacity="0.0" d="m479.84515 122.845146c15.865692 19.759834 76.73273 71.82809 95.194214 118.55906c18.461487 46.730957 12.979004 134.85565 15.574829 161.82675" fill-rule="evenodd"></path><path stroke="#949494" stroke-width="3.0" stroke-linejoin="round" stroke-linecap="butt" d="m479.84515 122.845146c15.865692 19.759834 76.73273 71.82809 95.194214 118.55906c9.230713 23.365479 12.475464 57.079376 13.737061 88.32333c0.6307373 15.621948 0.7657471 30.626434 0.9052124 43.41107c0.03491211 3.1961975 0.07006836 6.253601 0.11328125 9.147278c0.010864258 0.7234192 0.022155762 1.4365845 0.034118652 2.1391296l0.015014648 0.82244873" fill-rule="evenodd"></path><path fill="#949494" stroke="#949494" stroke-width="3.0" stroke-linecap="butt" d="m584.8934 385.45947l5.533142 13.389801l4.368225 -13.813812z" fill-rule="evenodd"></path><path fill="#000000" fill-opacity="0.0" d="m488.76904 114.191605c18.378387 21.202103 89.500854 80.62598 110.270325 127.2126c20.76947 46.58661 11.955383 126.92258 14.346436 152.30707" fill-rule="evenodd"></path><path stroke="#949494" stroke-width="3.0" stroke-linejoin="round" stroke-linecap="butt" d="m501.2691 127.14335l1.1271667 1.1086655c0.52285767 0.51301575 1.0542603 1.0332184 1.5938416 1.5604095c2.1583557 2.1087494 4.4471436 4.3294373 6.841339 6.649536c9.576752 9.280457 20.83902 20.151962 32.176117 31.816742c22.674072 23.32956 45.647034 49.832184 56.0318 73.1255c20.76947 46.58661 11.955383 126.92258 14.346436 152.30707" fill-rule="evenodd"></path><path fill="#949494" stroke="#949494" stroke-width="3.0" stroke-linecap="butt" d="m504.8346 123.70222l-13.019928 -6.3549194l5.888977 13.23719z" fill-rule="evenodd"></path><path fill="#000000" fill-opacity="0.0" d="m50.44357 15.577428l257.66928 0l0 44.97638l-257.66928 0z" fill-rule="evenodd"></path><path fill="#000000" d="m66.59463 32.039303l-1.734375 0.265625l2.1875 9.40625l0.3125 2.125l0.078125 0.015625l0.453125 -2.140625l3.140625 -11.15625l2.046875 0l3.140625 11.15625l0.46875 2.1875l0.078125 0l0.34375 -2.1875l2.140625 -9.40625l-1.75 -0.265625l0 -1.484375l5.421875 0l0 1.484375l-1.359375 0.171875l-3.71875 15.40625l-2.0625 0l-3.375 -11.84375l-0.3125 -1.53125l-0.0625 0l-0.296875 1.53125l-3.421875 11.84375l-2.046875 0l-3.7187538 -15.40625l-1.375 -0.171875l0 -1.484375l5.421879 0l0 1.484375zm17.695312 14.09375l1.90625 -0.328125l0 -9.046875l-1.90625 -0.328125l0 -1.5l4.21875 0l0 10.875l1.90625 0.328125l0 1.484375l-6.125 0l0 -1.484375zm4.21875 -14.4375l-2.3125 0l0 -2.359375l2.3125 0l0 2.359375zm3.3242188 14.4375l1.90625 -0.328125l0 -9.046875l-1.90625 -0.328125l0 -1.5l3.96875 0l0.171875 1.890625q0.625 -1.0 1.578125 -1.5625q0.96875 -0.5625 2.1875 -0.5625q2.046875 0 3.171875 1.203125q1.125 1.203125 1.125 3.71875l0 6.1875l1.90625 0.328125l0 1.484375l-6.125 0l0 -1.484375l1.90625 -0.328125l0 -6.140625q0 -1.6875 -0.671875 -2.390625q-0.65625 -0.703125 -2.015625 -0.703125q-0.984375 0 -1.765625 0.484375q-0.765625 0.484375 -1.21875 1.3125l0 7.4375l1.90625 0.328125l0 1.484375l-6.125 0l0 -1.484375zm24.335938 -0.03125q-0.625 0.875 -1.53125 1.328125q-0.890625 0.4375 -2.078125 0.4375q-2.3125 0 -3.625 -1.6875q-1.296875 -1.6875 -1.296875 -4.421875l0 -0.25q0 -3.0625 1.296875 -4.9375q1.3125 -1.875 3.65625 -1.875q1.125 0 1.984375 0.421875q0.859375 0.421875 1.46875 1.203125l0 -5.171875l-1.90625 -0.328125l0 -1.484375l1.90625 0l2.3125 0l0 16.46875l1.90625 0.328125l0 1.484375l-3.90625 0l-0.1875 -1.515625zm-6.234375 -4.34375q0 1.90625 0.78125 3.078125q0.796875 1.15625 2.4375 1.15625q1.03125 0 1.734375 -0.46875q0.703125 -0.46875 1.15625 -1.328125l0 -5.890625q-0.4375 -0.796875 -1.15625 -1.265625q-0.71875 -0.46875 -1.71875 -0.46875q-1.640625 0 -2.4375 1.375q-0.796875 1.375 -0.796875 3.5625l0 0.25zm12.105469 -0.59375q0 -2.8125 1.515625 -4.640625q1.53125 -1.828125 4.140625 -1.828125q2.6249924 0 4.1562424 1.828125q1.53125 1.8125 1.53125 4.640625l0 0.25q0 2.84375 -1.53125 4.65625q-1.515625 1.796875 -4.1406174 1.796875q-2.625 0 -4.15625 -1.8125q-1.515625 -1.8125 -1.515625 -4.640625l0 -0.25zm2.296875 0.25q0 2.015625 0.84375 3.328125q0.859375 1.3125 2.53125 1.3125q1.6406174 0 2.4999924 -1.3125q0.859375 -1.3125 0.859375 -3.328125l0 -0.25q0 -2.0 -0.859375 -3.3125q-0.859375 -1.328125 -2.5156174 -1.328125q-1.671875 0 -2.515625 1.328125q-0.84375 1.3125 -0.84375 3.3125l0 0.25zm15.652336 -4.984375l-1.453125 0.25l1.65625 6.3125l0.265625 1.546875l0.0625 0l0.328125 -1.546875l2.53125 -8.0625l1.859375 0l2.546875 8.0625l0.359375 1.71875l0.0625 0l0.34375 -1.71875l1.5625 -6.3125l-1.484375 -0.25l0 -1.5l4.828125 0l0 1.5l-1.09375 0.15625l-3.203125 11.03125l-1.859375 0l-2.46875 -7.71875l-0.515625 -2.140625l-0.078125 0.015625l-0.484375 2.125l-2.421875 7.71875l-1.859375 0l-3.203125 -11.03125l-1.109375 -0.15625l0 -1.5l4.828125 0l0 1.5zm25.042969 2.484375l-1.734375 0l-0.375 -1.515625q-0.421875 -0.40625 -1.0625 -0.640625q-0.640625 -0.234375 -1.453125 -0.234375q-1.21875 0 -1.828125 0.546875q-0.59375 0.53125 -0.59375 1.28125q0 0.75 0.53125 1.1875q0.53125 0.4375 2.140625 0.78125q2.40625 0.515625 3.578125 1.40625q1.171875 0.875 1.171875 2.359375q0 1.6875 -1.375 2.734375q-1.359375 1.046875 -3.5625 1.046875q-1.4375 0 -2.59375 -0.328125q-1.140625 -0.34375 -2.046875 -0.984375l-0.015625 -2.890625l1.734375 0l0.4375 1.703125q0.40625 0.359375 1.078125 0.53125q0.6875 0.15625 1.40625 0.15625q1.234375 0 1.921875 -0.5q0.703125 -0.5 0.703125 -1.296875q0 -0.765625 -0.578125 -1.25q-0.578125 -0.5 -2.203125 -0.859375q-2.296875 -0.515625 -3.46875 -1.375q-1.171875 -0.875 -1.171875 -2.34375q0 -1.546875 1.3125 -2.640625q1.3125 -1.09375 3.421875 -1.09375q1.453125 0 2.59375 0.375q1.15625 0.375 1.90625 1.046875l0.125 2.796875zm8.042969 7.21875l1.90625 -0.328125l0 -9.046875l-1.90625 -0.328125l0 -1.5l3.984375 0l0.140625 1.65625q0.609375 -0.90625 1.5625153 -1.390625q0.96875 -0.5 2.234375 -0.5q1.265625 0 2.171875 0.59375q0.921875 0.578125 1.375 1.75q0.59375 -1.078125 1.578125 -1.703125q0.984375 -0.640625 2.296875 -0.640625q1.953125 0 3.078125 1.34375q1.125 1.328125 1.125 4.0l0 5.765625l1.90625 0.328125l0 1.484375l-6.140625 0l0 -1.484375l1.90625 -0.328125l0 -5.796875q0 -1.875 -0.640625 -2.65625q-0.640625 -0.78125 -1.90625 -0.78125q-1.21875 0 -1.953125 0.859375q-0.71875 0.84375 -0.84375 2.140625l0 6.234375l1.90625 0.328125l0 1.484375l-6.125 0l0 -1.484375l1.90625 -0.328125l0 -5.796875q0 -1.78125 -0.65625 -2.609375q-0.65625 -0.828125 -1.921875 -0.828125q-1.046875 0 -1.7343903 0.4375q-0.671875 0.4375 -1.03125 1.21875l0 7.578125l1.9062653 0.328125l0 1.484375l-6.1250153 0l0 -1.484375zm23.144547 -4.96875q0 -2.8125 1.515625 -4.640625q1.53125 -1.828125 4.140625 -1.828125q2.625 0 4.15625 1.828125q1.53125 1.8125 1.53125 4.640625l0 0.25q0 2.84375 -1.53125 4.65625q-1.515625 1.796875 -4.140625 1.796875q-2.625 0 -4.15625 -1.8125q-1.515625 -1.8125 -1.515625 -4.640625l0 -0.25zm2.296875 0.25q0 2.015625 0.84375 3.328125q0.859375 1.3125 2.53125 1.3125q1.640625 0 2.5 -1.3125q0.859375 -1.3125 0.859375 -3.328125l0 -0.25q0 -2.0 -0.859375 -3.3125q-0.859375 -1.328125 -2.515625 -1.328125q-1.671875 0 -2.515625 1.328125q-0.84375 1.3125 -0.84375 3.3125l0 0.25zm10.808594 4.71875l1.90625 -0.328125l0 -9.046875l-1.90625 -0.328125l0 -1.5l3.96875 0l0.171875 1.890625q0.625 -1.0 1.578125 -1.5625q0.96875 -0.5625 2.1875 -0.5625q2.046875 0 3.171875 1.203125q1.125 1.203125 1.125 3.71875l0 6.1875l1.90625 0.328125l0 1.484375l-6.125 0l0 -1.484375l1.90625 -0.328125l0 -6.140625q0 -1.6875 -0.671875 -2.390625q-0.65625 -0.703125 -2.015625 -0.703125q-0.984375 0 -1.765625 0.484375q-0.765625 0.484375 -1.21875 1.3125l0 7.4375l1.90625 0.328125l0 1.484375l-6.125 0l0 -1.484375zm15.8046875 -4.96875q0 -2.8125 1.515625 -4.640625q1.53125 -1.828125 4.140625 -1.828125q2.625 0 4.15625 1.828125q1.53125 1.8125 1.53125 4.640625l0 0.25q0 2.84375 -1.53125 4.65625q-1.515625 1.796875 -4.140625 1.796875q-2.625 0 -4.15625 -1.8125q-1.515625 -1.8125 -1.515625 -4.640625l0 -0.25zm2.296875 0.25q0 2.015625 0.84375 3.328125q0.859375 1.3125 2.53125 1.3125q1.640625 0 2.5 -1.3125q0.859375 -1.3125 0.859375 -3.328125l0 -0.25q0 -2.0 -0.859375 -3.3125q-0.859375 -1.328125 -2.515625 -1.328125q-1.671875 0 -2.515625 1.328125q-0.84375 1.3125 -0.84375 3.3125l0 0.25zm17.636719 -0.109375l-5.71875 0l0 -1.796875l5.71875 0l0 1.796875zm2.8554688 -4.875l0 -1.5l3.96875 0l0.21875 1.84375q0.546875 -0.96875 1.328125 -1.515625q0.796875 -0.5625 1.8125 -0.5625q0.28125 0 0.5625 0.046875q0.28125 0.046875 0.4375 0.09375l-0.296875 2.140625l-1.3125 -0.078125q-0.921875 0 -1.546875 0.4375q-0.609375 0.421875 -0.953125 1.203125l0 7.265625l1.90625 0.328125l0 1.484375l-6.125 0l0 -1.484375l1.90625 -0.328125l0 -9.046875l-1.90625 -0.328125zm15.707031 11.4375q-2.640625 0 -4.203125 -1.765625q-1.5625 -1.765625 -1.5625 -4.578125l0 -0.515625q0 -2.703125 1.609375 -4.5q1.609375 -1.8125 3.8125 -1.8125q2.546875 0 3.859375 1.546875q1.328125 1.546875 1.328125 4.125l0 1.453125l-8.21875 0l-0.046875 0.046875q0.046875 1.828125 0.9375 3.015625q0.890625 1.171875 2.484375 1.171875q1.171875 0 2.0625 -0.328125q0.890625 -0.34375 1.53125 -0.921875l0.90625 1.5q-0.6875 0.65625 -1.8125 1.109375q-1.109375 0.453125 -2.6875 0.453125zm-0.34375 -11.34375q-1.15625 0 -1.984375 0.984375q-0.8125 0.96875 -1.0 2.4375l0.015625 0.0625l5.84375 0l0 -0.296875q0 -1.359375 -0.734375 -2.265625q-0.71875 -0.921875 -2.140625 -0.921875zm7.1835938 14.484375l1.90625 -0.328125l0 -13.921875l-1.90625 -0.328125l0 -1.5l3.890625 0l0.203125 1.546875q0.640625 -0.859375 1.546875 -1.3125q0.90625 -0.46875 2.109375 -0.46875q2.34375 0 3.65625 1.875q1.3125 1.875 1.3125 4.9375l0 0.25q0 2.734375 -1.3125 4.421875q-1.3125 1.6875 -3.625 1.6875q-1.171875 0 -2.0625 -0.390625q-0.875 -0.40625 -1.5 -1.171875l0 4.375l1.90625 0.328125l0 1.484375l-6.125 0l0 -1.484375zm10.390625 -9.5q0 -2.171875 -0.84375 -3.546875q-0.84375 -1.390625 -2.5 -1.390625q-0.984375 0 -1.6875 0.453125q-0.703125 0.4375 -1.140625 1.21875l0 6.171875q0.4375 0.78125 1.125 1.21875q0.703125 0.421875 1.71875 0.421875q1.640625 0 2.484375 -1.1875q0.84375 -1.203125 0.84375 -3.109375l0 -0.25zm4.4375 -0.34375q0 -2.8125 1.515625 -4.640625q1.53125 -1.828125 4.140625 -1.828125q2.625 0 4.15625 1.828125q1.53125 1.8125 1.53125 4.640625l0 0.25q0 2.84375 -1.53125 4.65625q-1.515625 1.796875 -4.140625 1.796875q-2.625 0 -4.15625 -1.8125q-1.515625 -1.8125 -1.515625 -4.640625l0 -0.25zm2.296875 0.25q0 2.015625 0.84375 3.328125q0.859375 1.3125 2.53125 1.3125q1.640625 0 2.5 -1.3125q0.859375 -1.3125 0.859375 -3.328125l0 -0.25q0 -2.0 -0.859375 -3.3125q-0.859375 -1.328125 -2.515625 -1.328125q-1.671875 0 -2.515625 1.328125q-0.84375 1.3125 -0.84375 3.3125l0 0.25z" fill-rule="nonzero"></path><path fill="#000000" fill-opacity="0.0" d="m437.81104 12.309711l243.37012 0l0 48.25197l-243.37012 0z" fill-rule="evenodd"></path><path fill="#000000" d="m469.71484 42.412212q-0.75 0.78125 -2.21875 1.484375q-1.46875 0.703125 -3.8125 0.703125q-3.421875 0 -5.59375 -2.40625q-2.15625 -2.40625 -2.15625 -6.234375l0 -0.28125q0 -3.859375 2.140625 -6.25q2.140625 -2.390625 5.6875 -2.390625q1.90625 0 3.34375 0.59375q1.4375 0.59375 2.421875 1.5625l0 3.09375l-1.625 0l-0.5625 -2.359375q-0.578125 -0.46875 -1.390625 -0.765625q-0.8125 -0.3125 -1.953125 -0.3125q-2.765625 0 -4.265625 1.90625q-1.484375 1.890625 -1.484375 4.890625l0 0.3125q0 3.0625 1.4375 4.953125q1.453125 1.875 4.0 1.875q1.390625 0 2.28125 -0.28125q0.890625 -0.296875 1.4375 -0.65625l0 -3.734375l-2.796875 -0.125l0 -1.6875l5.109375 0l0 6.109375zm2.8945312 -4.515625q0 -2.8125 1.515625 -4.640625q1.53125 -1.828125 4.140625 -1.828125q2.625 0 4.15625 1.828125q1.53125 1.8125 1.53125 4.640625l0 0.25q0 2.84375 -1.53125 4.65625q-1.515625 1.796875 -4.140625 1.796875q-2.625 0 -4.15625 -1.8125q-1.515625 -1.8125 -1.515625 -4.640625l0 -0.25zm2.296875 0.25q0 2.015625 0.84375 3.328125q0.859375 1.3125 2.53125 1.3125q1.640625 0 2.5 -1.3125q0.859375 -1.3125 0.859375 -3.328125l0 -0.25q0 -2.0 -0.859375 -3.3125q-0.859375 -1.328125 -2.515625 -1.328125q-1.671875 0 -2.515625 1.328125q-0.84375 1.3125 -0.84375 3.3125l0 0.25zm11.167969 -0.25q0 -2.8125 1.515625 -4.640625q1.53125 -1.828125 4.140625 -1.828125q2.625 0 4.15625 1.828125q1.53125 1.8125 1.53125 4.640625l0 0.25q0 2.84375 -1.53125 4.65625q-1.515625 1.796875 -4.140625 1.796875q-2.625 0 -4.15625 -1.8125q-1.515625 -1.8125 -1.515625 -4.640625l0 -0.25zm2.296875 0.25q0 2.015625 0.84375 3.328125q0.859375 1.3125 2.53125 1.3125q1.640625 0 2.5 -1.3125q0.859375 -1.3125 0.859375 -3.328125l0 -0.25q0 -2.0 -0.859375 -3.3125q-0.859375 -1.328125 -2.515625 -1.328125q-1.671875 0 -2.515625 1.328125q-0.84375 1.3125 -0.84375 3.3125l0 0.25zm11.167969 0.09375q0 -3.0625 1.328125 -4.9375q1.34375 -1.875 3.6875 -1.875q1.203125 0 2.09375 0.46875q0.90625 0.46875 1.515625 1.359375l0.21875 -1.59375l1.9375 0l0 12.515625q0 2.46875 -1.375 3.875q-1.359375 1.421875 -3.890625 1.421875q-0.921875 0 -1.984375 -0.25q-1.0625 -0.25 -1.875 -0.6875l0.59375 -1.796875q0.65625 0.34375 1.53125 0.5625q0.875 0.21875 1.703125 0.21875q1.546875 0 2.265625 -0.875q0.734375 -0.859375 0.734375 -2.46875l0 -1.203125q-0.625 0.796875 -1.5 1.21875q-0.859375 0.40625 -1.984375 0.40625q-2.328125 0 -3.671875 -1.6875q-1.328125 -1.6875 -1.328125 -4.421875l0 -0.25zm2.296875 0.25q0 1.90625 0.8125 3.078125q0.8125 1.15625 2.46875 1.15625q1.03125 0 1.734375 -0.46875q0.703125 -0.484375 1.171875 -1.359375l0 -5.828125q-0.453125 -0.8125 -1.171875 -1.28125q-0.703125 -0.484375 -1.71875 -0.484375q-1.65625 0 -2.484375 1.390625q-0.8125 1.375 -0.8125 3.546875l0 0.25zm10.957031 -10.9375l0 -1.484375l4.21875 0l0 16.46875l1.90625 0.328125l0 1.484375l-6.125 0l0 -1.484375l1.90625 -0.328125l0 -14.65625l-1.90625 -0.328125zm13.652344 17.046875q-2.640625 0 -4.203125 -1.765625q-1.5625 -1.765625 -1.5625 -4.578125l0 -0.515625q0 -2.703125 1.609375 -4.5q1.609375 -1.8125 3.8125 -1.8125q2.546875 0 3.859375 1.546875q1.328125 1.546875 1.328125 4.125l0 1.453125l-8.21875 0l-0.046875 0.046875q0.046875 1.828125 0.9375 3.015625q0.890625 1.171875 2.484375 1.171875q1.171875 0 2.0625 -0.328125q0.890625 -0.34375 1.53125 -0.921875l0.90625 1.5q-0.6875 0.65625 -1.8125 1.109375q-1.109375 0.453125 -2.6875 0.453125zm-0.34375 -11.34375q-1.15625 0 -1.984375 0.984375q-0.8125 0.96875 -1.0 2.4375l0.015625 0.0625l5.84375 0l0 -0.296875q0 -1.359375 -0.734375 -2.265625q-0.71875 -0.921875 -2.140625 -0.921875zm12.9765625 9.609375l1.90625 -0.328125l0 -9.046875l-1.90625 -0.328125l0 -1.5l3.984375 0l0.140625 1.65625q0.609375 -0.90625 1.5625 -1.390625q0.96875 -0.5 2.234375 -0.5q1.265625 0 2.171875 0.59375q0.921875 0.578125 1.375 1.75q0.59375 -1.078125 1.578125 -1.703125q0.984375 -0.640625 2.296875 -0.640625q1.953125 0 3.078125 1.34375q1.125 1.328125 1.125 4.0l0 5.765625l1.90625 0.328125l0 1.484375l-6.140625 0l0 -1.484375l1.90625 -0.328125l0 -5.796875q0 -1.875 -0.640625 -2.65625q-0.640625 -0.78125 -1.90625 -0.78125q-1.21875 0 -1.953125 0.859375q-0.71875 0.84375 -0.84375 2.140625l0 6.234375l1.90625 0.328125l0 1.484375l-6.125 0l0 -1.484375l1.90625 -0.328125l0 -5.796875q0 -1.78125 -0.65625 -2.609375q-0.65625 -0.828125 -1.921875 -0.828125q-1.046875 0 -1.734375 0.4375q-0.671875 0.4375 -1.03125 1.21875l0 7.578125l1.90625 0.328125l0 1.484375l-6.125 0l0 -1.484375zm23.144531 -4.96875q0 -2.8125 1.515625 -4.640625q1.53125 -1.828125 4.140625 -1.828125q2.625 0 4.15625 1.828125q1.53125 1.8125 1.53125 4.640625l0 0.25q0 2.84375 -1.53125 4.65625q-1.515625 1.796875 -4.140625 1.796875q-2.625 0 -4.15625 -1.8125q-1.515625 -1.8125 -1.515625 -4.640625l0 -0.25zm2.296875 0.25q0 2.015625 0.84375 3.328125q0.859375 1.3125 2.53125 1.3125q1.640625 0 2.5 -1.3125q0.859375 -1.3125 0.859375 -3.328125l0 -0.25q0 -2.0 -0.859375 -3.3125q-0.859375 -1.328125 -2.515625 -1.328125q-1.671875 0 -2.515625 1.328125q-0.84375 1.3125 -0.84375 3.3125l0 0.25zm10.808594 4.71875l1.90625 -0.328125l0 -9.046875l-1.90625 -0.328125l0 -1.5l3.96875 0l0.171875 1.890625q0.625 -1.0 1.578125 -1.5625q0.96875 -0.5625 2.1875 -0.5625q2.046875 0 3.171875 1.203125q1.125 1.203125 1.125 3.71875l0 6.1875l1.90625 0.328125l0 1.484375l-6.125 0l0 -1.484375l1.90625 -0.328125l0 -6.140625q0 -1.6875 -0.671875 -2.390625q-0.65625 -0.703125 -2.015625 -0.703125q-0.984375 0 -1.765625 0.484375q-0.765625 0.484375 -1.21875 1.3125l0 7.4375l1.90625 0.328125l0 1.484375l-6.125 0l0 -1.484375zm15.8046875 -4.96875q0 -2.8125 1.515625 -4.640625q1.53125 -1.828125 4.140625 -1.828125q2.625 0 4.15625 1.828125q1.53125 1.8125 1.53125 4.640625l0 0.25q0 2.84375 -1.53125 4.65625q-1.515625 1.796875 -4.140625 1.796875q-2.625 0 -4.15625 -1.8125q-1.515625 -1.8125 -1.515625 -4.640625l0 -0.25zm2.296875 0.25q0 2.015625 0.84375 3.328125q0.859375 1.3125 2.53125 1.3125q1.640625 0 2.5 -1.3125q0.859375 -1.3125 0.859375 -3.328125l0 -0.25q0 -2.0 -0.859375 -3.3125q-0.859375 -1.328125 -2.515625 -1.328125q-1.671875 0 -2.515625 1.328125q-0.84375 1.3125 -0.84375 3.3125l0 0.25zm17.636719 -0.109375l-5.71875 0l0 -1.796875l5.71875 0l0 1.796875zm2.8554688 -4.875l0 -1.5l3.96875 0l0.21875 1.84375q0.546875 -0.96875 1.328125 -1.515625q0.796875 -0.5625 1.8125 -0.5625q0.28125 0 0.5625 0.046875q0.28125 0.046875 0.4375 0.09375l-0.296875 2.140625l-1.3125 -0.078125q-0.921875 0 -1.546875 0.4375q-0.609375 0.421875 -0.953125 1.203125l0 7.265625l1.90625 0.328125l0 1.484375l-6.125 0l0 -1.484375l1.90625 -0.328125l0 -9.046875l-1.90625 -0.328125zm15.707031 11.4375q-2.640625 0 -4.203125 -1.765625q-1.5625 -1.765625 -1.5625 -4.578125l0 -0.515625q0 -2.703125 1.609375 -4.5q1.609375 -1.8125 3.8125 -1.8125q2.546875 0 3.859375 1.546875q1.328125 1.546875 1.328125 4.125l0 1.453125l-8.21875 0l-0.046875 0.046875q0.046875 1.828125 0.9375 3.015625q0.890625 1.171875 2.484375 1.171875q1.171875 0 2.0625 -0.328125q0.890625 -0.34375 1.53125 -0.921875l0.90625 1.5q-0.6875 0.65625 -1.8125 1.109375q-1.109375 0.453125 -2.6875 0.453125zm-0.34375 -11.34375q-1.15625 0 -1.984375 0.984375q-0.8125 0.96875 -1.0 2.4375l0.015625 0.0625l5.84375 0l0 -0.296875q0 -1.359375 -0.734375 -2.265625q-0.71875 -0.921875 -2.140625 -0.921875zm7.1835938 14.484375l1.90625 -0.328125l0 -13.921875l-1.90625 -0.328125l0 -1.5l3.890625 0l0.203125 1.546875q0.640625 -0.859375 1.546875 -1.3125q0.90625 -0.46875 2.109375 -0.46875q2.34375 0 3.65625 1.875q1.3125 1.875 1.3125 4.9375l0 0.25q0 2.734375 -1.3125 4.421875q-1.3125 1.6875 -3.625 1.6875q-1.171875 0 -2.0625 -0.390625q-0.875 -0.40625 -1.5 -1.171875l0 4.375l1.90625 0.328125l0 1.484375l-6.125 0l0 -1.484375zm10.390625 -9.5q0 -2.171875 -0.84375 -3.546875q-0.84375 -1.390625 -2.5 -1.390625q-0.984375 0 -1.6875 0.453125q-0.703125 0.4375 -1.140625 1.21875l0 6.171875q0.4375 0.78125 1.125 1.21875q0.703125 0.421875 1.71875 0.421875q1.640625 0 2.484375 -1.1875q0.84375 -1.203125 0.84375 -3.109375l0 -0.25zm4.4375 -0.34375q0 -2.8125 1.515625 -4.640625q1.53125 -1.828125 4.140625 -1.828125q2.625 0 4.15625 1.828125q1.53125 1.8125 1.53125 4.640625l0 0.25q0 2.84375 -1.53125 4.65625q-1.515625 1.796875 -4.140625 1.796875q-2.625 0 -4.15625 -1.8125q-1.515625 -1.8125 -1.515625 -4.640625l0 -0.25zm2.296875 0.25q0 2.015625 0.84375 3.328125q0.859375 1.3125 2.53125 1.3125q1.640625 0 2.5 -1.3125q0.859375 -1.3125 0.859375 -3.328125l0 -0.25q0 -2.0 -0.859375 -3.3125q-0.859375 -1.328125 -2.515625 -1.328125q-1.671875 0 -2.515625 1.328125q-0.84375 1.3125 -0.84375 3.3125l0 0.25z" fill-rule="nonzero"></path></g></svg>

