<?xml version="1.0" standalone="yes"?>

<svg version="1.1" viewBox="0.0 0.0 775.1784776902887 599.1364829396325" fill="none" stroke="none" stroke-linecap="square" stroke-miterlimit="10" xmlns="http://www.w3.org/2000/svg" xmlns:xlink="http://www.w3.org/1999/xlink"><clipPath id="p.0"><path d="m0 0l775.17847 0l0 599.1365l-775.17847 0l0 -599.1365z" clip-rule="nonzero"></path></clipPath><g clip-path="url(#p.0)"><path fill="#000000" fill-opacity="0.0" d="m0 0l775.17847 0l0 599.1365l-775.17847 0z" fill-rule="evenodd"></path><path fill="#efefef" d="m4.437144 2.9589705l404.59845 0l0 215.9685l-404.59845 0z" fill-rule="evenodd"></path><path fill="#000000" d="m180.37698 17.952097q2.78125 0 4.265625 1.234375q1.5 1.234375 1.5 3.5q0 1.25 -0.703125 2.21875q-0.6875 0.953125 -1.96875 1.5q1.390625 0.453125 2.0 1.484375q0.625 1.03125 0.625 2.546875l0 1.375q0 0.7812481 0.1875 1.1562481q0.203125 0.375 0.65625 0.453125l0.5625 0.0625l0 1.515625l-1.234375 0q-1.34375 0 -1.921875 -0.9375q-0.5625 -0.9375 -0.5625 -2.281248l0 -1.3125q0 -1.40625 -0.8125 -2.25q-0.8125 -0.84375 -2.171875 -0.84375l-3.703125 0l0 5.812498l1.921875 0.328125l0 1.484375l-6.140625 0l0 -1.484375l1.921875 -0.328125l0 -13.437498l-1.921875 -0.328125l0 -1.46875l1.921875 0l5.578125 0zm-3.28125 7.609375l3.046875 0q1.921875 0 2.796875 -0.734375q0.890625 -0.734375 0.890625 -2.15625q0 -1.34375 -0.84375 -2.125q-0.84375 -0.796875 -2.609375 -0.796875l-3.28125 0l0 5.8125zm18.023438 9.687498q-2.640625 0 -4.203125 -1.765625q-1.5625 -1.7656231 -1.5625 -4.578123l0 -0.515625q0 -2.703125 1.609375 -4.5q1.609375 -1.8125 3.8125 -1.8125q2.546875 0 3.859375 1.546875q1.328125 1.546875 1.328125 4.125l0 1.453125l-8.21875 0l-0.046875 0.046875q0.046875 1.828125 0.9375 3.015623q0.890625 1.171875 2.484375 1.171875q1.171875 0 2.0625 -0.328125q0.890625 -0.34375 1.53125 -0.921875l0.90625 1.5q-0.6875 0.65625 -1.8125 1.109375q-1.109375 0.453125 -2.6875 0.453125zm-0.34375 -11.343748q-1.15625 0 -1.984375 0.984375q-0.8125 0.96875 -1.0 2.4375l0.015625 0.0625l5.84375 0l0 -0.296875q0 -1.359375 -0.734375 -2.265625q-0.71875 -0.921875 -2.140625 -0.921875zm7.1835938 14.484373l1.90625 -0.328125l0 -13.921873l-1.90625 -0.328125l0 -1.5l3.890625 0l0.203125 1.546875q0.640625 -0.859375 1.546875 -1.3125q0.90625 -0.46875 2.109375 -0.46875q2.34375 0 3.65625 1.875q1.3125 1.875 1.3125 4.9375l0 0.25q0 2.734375 -1.3125 4.421873q-1.3125 1.6875 -3.625 1.6875q-1.171875 0 -2.0625 -0.390625q-0.875 -0.40625 -1.5 -1.171875l0 4.375l1.90625 0.328125l0 1.484375l-6.125 0l0 -1.484375zm10.390625 -9.499998q0 -2.171875 -0.84375 -3.546875q-0.84375 -1.390625 -2.5 -1.390625q-0.984375 0 -1.6875 0.453125q-0.703125 0.4375 -1.140625 1.21875l0 6.171875q0.4375 0.7812481 1.125 1.2187481q0.703125 0.421875 1.71875 0.421875q1.640625 0 2.484375 -1.1875q0.84375 -1.2031231 0.84375 -3.109373l0 -0.25zm4.4375 -0.34375q0 -2.8125 1.515625 -4.640625q1.53125 -1.828125 4.140625 -1.828125q2.625 0 4.15625 1.828125q1.53125 1.8125 1.53125 4.640625l0 0.25q0 2.84375 -1.53125 4.656248q-1.515625 1.796875 -4.140625 1.796875q-2.625 0 -4.15625 -1.8125q-1.515625 -1.8124981 -1.515625 -4.640623l0 -0.25zm2.296875 0.25q0 2.015625 0.84375 3.328123q0.859375 1.3125 2.53125 1.3125q1.640625 0 2.5 -1.3125q0.859375 -1.3124981 0.859375 -3.328123l0 -0.25q0 -2.0 -0.859375 -3.3125q-0.859375 -1.328125 -2.515625 -1.328125q-1.671875 0 -2.515625 1.328125q-0.84375 1.3125 -0.84375 3.3125l0 0.25zm20.855469 -2.5l-1.734375 0l-0.375 -1.515625q-0.421875 -0.40625 -1.0625 -0.640625q-0.640625 -0.234375 -1.453125 -0.234375q-1.21875 0 -1.828125 0.546875q-0.59375 0.53125 -0.59375 1.28125q0 0.75 0.53125 1.1875q0.53125 0.4375 2.140625 0.78125q2.40625 0.515625 3.578125 1.40625q1.171875 0.875 1.171875 2.359375q0 1.6874981 -1.375 2.734373q-1.359375 1.046875 -3.5625 1.046875q-1.4375 0 -2.59375 -0.328125q-1.140625 -0.34375 -2.046875 -0.984375l-0.015625 -2.890623l1.734375 0l0.4375 1.7031231q0.40625 0.359375 1.078125 0.53125q0.6875 0.15625 1.40625 0.15625q1.234375 0 1.921875 -0.5q0.703125 -0.5 0.703125 -1.2968731q0 -0.765625 -0.578125 -1.25q-0.578125 -0.5 -2.203125 -0.859375q-2.296875 -0.515625 -3.46875 -1.375q-1.171875 -0.875 -1.171875 -2.34375q0 -1.546875 1.3125 -2.640625q1.3125 -1.09375 3.421875 -1.09375q1.453125 0 2.59375 0.375q1.15625 0.375 1.90625 1.046875l0.125 2.796875z" fill-rule="nonzero"></path><path fill="#000000" fill-opacity="0.0" d="m345.71915 555.11206l-203.937 -0.94488525" fill-rule="evenodd"></path><path stroke="#f1c232" stroke-width="4.0" stroke-linejoin="round" stroke-linecap="butt" d="m345.71915 555.11206l-203.937 -0.94488525" fill-rule="evenodd"></path><path fill="#e06666" d="m310.71466 555.11206l0 0c0 -7.6798096 6.676941 -13.905518 14.913391 -13.905518l0 0c8.23642 0 14.913391 6.225708 14.913391 13.905518l0 0c0 7.6798096 -6.6769714 13.905518 -14.913391 13.905518l0 0c-8.23645 0 -14.913391 -6.225708 -14.913391 -13.905518z" fill-rule="evenodd"></path><path fill="#000000" fill-opacity="0.0" d="m210.73491 476.54776l52.62993 -40.251953" fill-rule="evenodd"></path><path stroke="#e06666" stroke-width="4.0" stroke-linejoin="round" stroke-linecap="round" d="m210.73491 476.54776l52.62993 -40.251953" fill-rule="evenodd"></path><path fill="#000000" fill-opacity="0.0" d="m273.90628 412.54776l40.91336 -35.527557" fill-rule="evenodd"></path><path stroke="#e06666" stroke-width="4.0" stroke-linejoin="round" stroke-linecap="round" d="m273.90628 412.54776l40.91336 -35.527557" fill-rule="evenodd"></path><path fill="#000000" fill-opacity="0.0" d="m453.6228 477.2092l-179.71652 -36.850403" fill-rule="evenodd"></path><path stroke="#674ea7" stroke-width="4.0" stroke-linejoin="round" stroke-linecap="round" d="m453.6228 477.2092l-179.71652 -36.850403" fill-rule="evenodd"></path><path fill="#000000" fill-opacity="0.0" d="m273.90628 412.54776l254.33072 -36.188965" fill-rule="evenodd"></path><path stroke="#674ea7" stroke-width="4.0" stroke-linejoin="round" stroke-linecap="round" d="m273.90628 412.54776l254.33072 -36.188965" fill-rule="evenodd"></path><path fill="#000000" fill-opacity="0.0" d="m288.81964 426.45328l-144.22046 -0.28347778" fill-rule="evenodd"></path><path stroke="#f1c232" stroke-width="4.0" stroke-linejoin="round" stroke-linecap="butt" d="m288.81964 426.45328l-144.22046 -0.28347778" fill-rule="evenodd"></path><path fill="#000000" fill-opacity="0.0" d="m141.4042 302.6273l563.4961 -2.803131" fill-rule="evenodd"></path><path stroke="#999999" stroke-width="4.0" stroke-linejoin="round" stroke-linecap="butt" d="m141.4042 302.6273l539.49634 -2.6837463" fill-rule="evenodd"></path><path fill="#999999" stroke="#999999" stroke-width="4.0" stroke-linecap="butt" d="m680.9334 306.55038l18.119324 -6.6971436l-18.185059 -6.5165405z" fill-rule="evenodd"></path><path fill="#e06666" d="m254.71466 427.11206l0 0c0 -7.679779 6.676941 -13.905487 14.913391 -13.905487l0 0c8.23642 0 14.913391 6.225708 14.913391 13.905487l0 0c0 7.6798096 -6.6769714 13.905518 -14.913391 13.905518l0 0c-8.23645 0 -14.913391 -6.225708 -14.913391 -13.905518z" fill-rule="evenodd"></path><path fill="#b6d7a8" d="m13.1164875 180.53596l0 0c0 -14.768188 23.640776 -26.740158 52.803154 -26.740158l0 0c29.162369 0 52.803146 11.97197 52.803146 26.740158l0 0c0 14.768173 -23.640778 26.740158 -52.803146 26.740158l0 0c-29.162376 0 -52.803154 -11.971985 -52.803154 -26.740158z" fill-rule="evenodd"></path><path fill="#000000" d="m46.32478 174.15909l0 -1.171875l3.34375 0l0 13.046875l1.5 0.25l0 1.171875l-4.84375 0l0 -1.171875l1.515625 -0.25l0 -11.609375l-1.515625 -0.265625zm6.1256256 12.125l1.515625 -0.25l0 -7.171875l-1.515625 -0.265625l0 -1.171875l3.34375 0l0 8.609375l1.5 0.25l0 1.171875l-4.84375 0l0 -1.171875zm3.34375 -11.4375l-1.828125 0l0 -1.859375l1.828125 0l0 1.859375zm11.974438 7.96875q0 2.171875 -1.046875 3.5q-1.046875 1.328125 -2.8749962 1.328125q-0.984375 0 -1.703125 -0.375q-0.71875 -0.375 -1.203125 -1.109375l-0.171875 1.296875l-1.578125 0l0 -13.03125l-1.515625 -0.265625l0 -1.171875l3.34375 0l0 5.625q0.46875 -0.671875 1.171875 -1.015625q0.703125 -0.359375 1.640625 -0.359375q1.8593712 0 2.8906212 1.484375q1.046875 1.484375 1.046875 3.90625l0 0.1875zm-1.84375 -0.1875q0 -1.734375 -0.640625 -2.8125q-0.625 -1.09375 -1.9218712 -1.09375q-0.84375 0 -1.421875 0.40625q-0.578125 0.40625 -0.921875 1.09375l0 4.4375q0.34375 0.6875 0.921875 1.09375q0.59375 0.40625 1.4375 0.40625q1.2968712 0 1.9218712 -0.90625q0.625 -0.921875 0.625 -2.4375l0 -0.1875zm8.600739 -0.15625l-4.546875 0l0 -1.4375l4.546875 0l0 1.4375zm8.666519 4.984375q-0.078125 -0.40625 -0.125 -0.734375q-0.046875 -0.328125 -0.0625 -0.640625q-0.53125 0.671875 -1.328125 1.125q-0.796875 0.4375 -1.6875 0.4375q-1.578125 0 -2.390625 -0.765625q-0.8125 -0.765625 -0.8125 -2.15625q0 -1.421875 1.15625 -2.1875q1.15625 -0.78125 3.15625 -0.78125l1.890625 0l0 -1.171875q0 -0.875 -0.5625 -1.390625q-0.546875 -0.515625 -1.546875 -0.515625q-0.6875 0 -1.21875 0.171875q-0.515625 0.171875 -0.84375 0.484375l-0.1875 1.0625l-1.40625 0l0 -1.953125q0.6875 -0.546875 1.65625 -0.875q0.96875 -0.328125 2.109375 -0.328125q1.71875 0 2.765625 0.875q1.0625 0.859375 1.0625 2.484375l0 4.84375q0 0.1875 0 0.375q0.015625 0.1875 0.03125 0.375l0.734375 0.09375l0 1.171875l-2.390625 0zm-2.9375 -1.34375q0.90625 0 1.65625 -0.421875q0.75 -0.4375 1.078125 -1.0625l0 -1.640625l-1.953125 0q-1.125 0 -1.78125 0.515625q-0.640625 0.515625 -0.640625 1.265625q0 0.65625 0.40625 1.0q0.40625 0.34375 1.234375 0.34375z" fill-rule="nonzero"></path><path fill="#b6d7a8" d="m150.5653 180.53418l0 0c0 -14.768173 23.640778 -26.740158 52.803146 -26.740158l0 0c29.162369 0 52.803146 11.971985 52.803146 26.740158l0 0c0 14.768188 -23.640778 26.740158 -52.803146 26.740158l0 0c-29.162369 0 -52.803146 -11.97197 -52.803146 -26.740158z" fill-rule="evenodd"></path><path fill="#000000" d="m183.50943 174.1573l0 -1.171875l3.34375 0l0 13.046875l1.5 0.25l0 1.171875l-4.84375 0l0 -1.171875l1.515625 -0.25l0 -11.609375l-1.515625 -0.265625zm6.1256256 12.125l1.515625 -0.25l0 -7.171875l-1.515625 -0.265625l0 -1.171875l3.34375 0l0 8.609375l1.5 0.25l0 1.171875l-4.84375 0l0 -1.171875zm3.34375 -11.4375l-1.828125 0l0 -1.859375l1.828125 0l0 1.859375zm11.974442 7.96875q0 2.171875 -1.046875 3.5q-1.046875 1.328125 -2.875 1.328125q-0.984375 0 -1.703125 -0.375q-0.71875 -0.375 -1.203125 -1.109375l-0.171875 1.296875l-1.578125 0l0 -13.03125l-1.515625 -0.265625l0 -1.171875l3.34375 0l0 5.625q0.46875 -0.671875 1.171875 -1.015625q0.703125 -0.359375 1.640625 -0.359375q1.859375 0 2.890625 1.484375q1.046875 1.484375 1.046875 3.90625l0 0.1875zm-1.84375 -0.1875q0 -1.734375 -0.640625 -2.8125q-0.625 -1.09375 -1.921875 -1.09375q-0.84375 0 -1.421875 0.40625q-0.578125 0.40625 -0.921875 1.09375l0 4.4375q0.34375 0.6875 0.921875 1.09375q0.59375 0.40625 1.4375 0.40625q1.296875 0 1.921875 -0.90625q0.625 -0.921875 0.625 -2.4375l0 -0.1875zm8.600739 -0.15625l-4.546875 0l0 -1.4375l4.546875 0l0 1.4375zm11.307144 0.34375q0 2.171875 -1.046875 3.5q-1.046875 1.328125 -2.875 1.328125q-0.984375 0 -1.703125 -0.375q-0.71875 -0.375 -1.203125 -1.109375l-0.171875 1.296875l-1.578125 0l0 -13.03125l-1.515625 -0.265625l0 -1.171875l3.34375 0l0 5.625q0.46875 -0.671875 1.171875 -1.015625q0.703125 -0.359375 1.640625 -0.359375q1.859375 0 2.890625 1.484375q1.046875 1.484375 1.046875 3.90625l0 0.1875zm-1.84375 -0.1875q0 -1.734375 -0.640625 -2.8125q-0.625 -1.09375 -1.921875 -1.09375q-0.84375 0 -1.421875 0.40625q-0.578125 0.40625 -0.921875 1.09375l0 4.4375q0.34375 0.6875 0.921875 1.09375q0.59375 0.40625 1.4375 0.40625q1.296875 0 1.921875 -0.90625q0.625 -0.921875 0.625 -2.4375l0 -0.1875z" fill-rule="nonzero"></path><path fill="#b6d7a8" d="m84.75428 85.49303l0 0c0 -14.768181 23.640778 -26.740158 52.803154 -26.740158l0 0c29.162369 0 52.803146 11.971977 52.803146 26.740158l0 0c0 14.768181 -23.640778 26.740158 -52.803146 26.740158l0 0c-29.162376 0 -52.803154 -11.971977 -52.803154 -26.740158z" fill-rule="evenodd"></path><path fill="#000000" d="m119.73101 92.413025q-0.078125 -0.40625 -0.125 -0.734375q-0.046875 -0.328125 -0.0625 -0.640625q-0.53125 0.671875 -1.328125 1.125q-0.796875 0.4375 -1.6875 0.4375q-1.578125 0 -2.390625 -0.765625q-0.8125 -0.765625 -0.8125 -2.15625q0 -1.421875 1.15625 -2.1875q1.15625 -0.78125 3.15625 -0.78125l1.890625 0l0 -1.171875q0 -0.875 -0.5625 -1.390625q-0.546875 -0.515625 -1.546875 -0.515625q-0.6875 0 -1.21875 0.171875q-0.515625 0.171875 -0.84375 0.484375l-0.1875 1.0625l-1.40625 0l0 -1.953125q0.6875 -0.546875 1.65625 -0.875q0.96875 -0.328125 2.109375 -0.328125q1.71875 0 2.765625 0.875q1.0625 0.859375 1.0625 2.484375l0 4.84375q0 0.1875 0 0.375q0.015625 0.1875 0.03125 0.375l0.734375 0.09375l0 1.171875l-2.390625 0zm-2.9375 -1.34375q0.90625 0 1.65625 -0.421875q0.75 -0.4375 1.078125 -1.0625l0 -1.640625l-1.953125 0q-1.125 0 -1.78125 0.515625q-0.640625 0.515625 -0.640625 1.265625q0 0.65625 0.40625 1.0q0.40625 0.34375 1.234375 0.34375zm6.4473877 4.03125l1.5 -0.265625l0 -11.015625l-1.5 -0.265625l0 -1.171875l3.078125 0l0.15625 1.21875q0.5 -0.6875 1.21875 -1.046875q0.7343674 -0.359375 1.6718674 -0.359375q1.859375 0 2.890625 1.484375q1.046875 1.46875 1.046875 3.90625l0 0.1875q0 2.171875 -1.046875 3.5q-1.03125 1.328125 -2.859375 1.328125q-0.9375 0 -1.6406174 -0.296875q-0.6875 -0.3125 -1.1875 -0.9375l0 3.46875l1.5156174 0.265625l0 1.171875l-4.8437424 0l0 -1.171875zm8.218742 -7.515625q0 -1.71875 -0.671875 -2.8125q-0.65625 -1.09375 -1.984375 -1.09375q-0.765625 0 -1.3281174 0.359375q-0.5625 0.34375 -0.90625 0.953125l0 4.890625q0.34375 0.625 0.890625 0.96875q0.5624924 0.328125 1.3749924 0.328125q1.296875 0 1.953125 -0.9375q0.671875 -0.953125 0.671875 -2.46875l0 -0.1875zm3.0770264 7.515625l1.5 -0.265625l0 -11.015625l-1.5 -0.265625l0 -1.171875l3.078125 0l0.15625 1.21875q0.5 -0.6875 1.21875 -1.046875q0.734375 -0.359375 1.671875 -0.359375q1.859375 0 2.890625 1.484375q1.046875 1.46875 1.046875 3.90625l0 0.1875q0 2.171875 -1.046875 3.5q-1.03125 1.328125 -2.859375 1.328125q-0.9375 0 -1.640625 -0.296875q-0.6875 -0.3125 -1.1875 -0.9375l0 3.46875l1.515625 0.265625l0 1.171875l-4.84375 0l0 -1.171875zm8.21875 -7.515625q0 -1.71875 -0.671875 -2.8125q-0.65625 -1.09375 -1.984375 -1.09375q-0.765625 0 -1.328125 0.359375q-0.5625 0.34375 -0.90625 0.953125l0 4.890625q0.34375 0.625 0.890625 0.96875q0.5625 0.328125 1.375 0.328125q1.296875 0 1.953125 -0.9375q0.671875 -0.953125 0.671875 -2.46875l0 -0.1875zm8.436401 -0.15625l-4.546875 0l0 -1.4375l4.546875 0l0 1.4375zm8.666519 4.984375q-0.078125 -0.40625 -0.125 -0.734375q-0.046875 -0.328125 -0.0625 -0.640625q-0.53125 0.671875 -1.328125 1.125q-0.796875 0.4375 -1.6875 0.4375q-1.578125 0 -2.390625 -0.765625q-0.8125 -0.765625 -0.8125 -2.15625q0 -1.421875 1.15625 -2.1875q1.15625 -0.78125 3.15625 -0.78125l1.890625 0l0 -1.171875q0 -0.875 -0.5625 -1.390625q-0.546875 -0.515625 -1.546875 -0.515625q-0.6875 0 -1.21875 0.171875q-0.515625 0.171875 -0.84375 0.484375l-0.1875 1.0625l-1.40625 0l0 -1.953125q0.6875 -0.546875 1.65625 -0.875q0.96875 -0.328125 2.109375 -0.328125q1.71875 0 2.765625 0.875q1.0625 0.859375 1.0625 2.484375l0 4.84375q0 0.1875 0 0.375q0.015625 0.1875 0.03125 0.375l0.734375 0.09375l0 1.171875l-2.390625 0zm-2.9375 -1.34375q0.90625 0 1.65625 -0.421875q0.75 -0.4375 1.078125 -1.0625l0 -1.640625l-1.953125 0q-1.125 0 -1.78125 0.515625q-0.640625 0.515625 -0.640625 1.265625q0 0.65625 0.40625 1.0q0.40625 0.34375 1.234375 0.34375z" fill-rule="nonzero"></path><path fill="#b6d7a8" d="m293.62042 180.53418l0 0c0 -14.768173 23.640778 -26.740158 52.80316 -26.740158l0 0c29.162354 0 52.80313 11.971985 52.80313 26.740158l0 0c0 14.768188 -23.640778 26.740158 -52.80313 26.740158l0 0c-29.162384 0 -52.80316 -11.97197 -52.80316 -26.740158z" fill-rule="evenodd"></path><path fill="#000000" d="m326.93802 174.1573l0 -1.171875l3.34375 0l0 13.046875l1.5 0.25l0 1.171875l-4.84375 0l0 -1.171875l1.515625 -0.25l0 -11.609375l-1.515625 -0.265625zm6.125641 12.125l1.515625 -0.25l0 -7.171875l-1.515625 -0.265625l0 -1.171875l3.34375 0l0 8.609375l1.5 0.25l0 1.171875l-4.84375 0l0 -1.171875zm3.34375 -11.4375l-1.828125 0l0 -1.859375l1.828125 0l0 1.859375zm11.974426 7.96875q0 2.171875 -1.046875 3.5q-1.046875 1.328125 -2.875 1.328125q-0.984375 0 -1.703125 -0.375q-0.71875 -0.375 -1.203125 -1.109375l-0.171875 1.296875l-1.578125 0l0 -13.03125l-1.515625 -0.265625l0 -1.171875l3.34375 0l0 5.625q0.46875 -0.671875 1.171875 -1.015625q0.703125 -0.359375 1.640625 -0.359375q1.859375 0 2.890625 1.484375q1.046875 1.484375 1.046875 3.90625l0 0.1875zm-1.84375 -0.1875q0 -1.734375 -0.640625 -2.8125q-0.625 -1.09375 -1.921875 -1.09375q-0.84375 0 -1.421875 0.40625q-0.578125 0.40625 -0.921875 1.09375l0 4.4375q0.34375 0.6875 0.921875 1.09375q0.59375 0.40625 1.4375 0.40625q1.296875 0 1.921875 -0.90625q0.625 -0.921875 0.625 -2.4375l0 -0.1875zm8.600739 -0.15625l-4.546875 0l0 -1.4375l4.546875 0l0 1.4375zm6.6196594 3.75q0.921875 0 1.609375 -0.5625q0.6875 -0.5625 0.6875 -1.375l1.640625 0l0.015625 0.046875q0.046875 1.3125 -1.15625 2.3125q-1.1875 1.0 -2.796875 1.0q-2.1875 0 -3.34375 -1.421875q-1.15625 -1.421875 -1.15625 -3.59375l0 -0.390625q0 -2.140625 1.15625 -3.5625q1.171875 -1.4375 3.34375 -1.4375q1.21875 0 2.171875 0.40625q0.96875 0.390625 1.59375 1.078125l0.078125 2.234375l-1.453125 0l-0.40625 -1.578125q-0.3125 -0.3125 -0.828125 -0.5q-0.515625 -0.203125 -1.15625 -0.203125q-1.4375 0 -2.0625 1.03125q-0.609375 1.03125 -0.609375 2.53125l0 0.390625q0 1.546875 0.609375 2.578125q0.625 1.015625 2.0625 1.015625z" fill-rule="nonzero"></path><path fill="#000000" fill-opacity="0.0" d="m119.0535 112.233185l-34.299217 49.385834" fill-rule="evenodd"></path><path stroke="#38761d" stroke-width="3.0" stroke-linejoin="round" stroke-linecap="butt" d="m119.0535 112.233185l-24.03138 34.601654" fill-rule="evenodd"></path><path fill="#38761d" stroke="#38761d" stroke-width="3.0" stroke-linecap="butt" d="m90.952194 144.00822l-3.6961517 14.008621l11.835983 -8.355377z" fill-rule="evenodd"></path><path fill="#000000" fill-opacity="0.0" d="m543.1365 362.45328l-401.3543 -0.28347778" fill-rule="evenodd"></path><path stroke="#f1c232" stroke-width="4.0" stroke-linejoin="round" stroke-linecap="butt" d="m543.1365 362.45328l-401.3543 -0.28347778" fill-rule="evenodd"></path><path fill="#000000" fill-opacity="0.0" d="m314.8058 377.01758l0 0" fill-rule="evenodd"></path><path stroke="#f1c232" stroke-width="4.0" stroke-linejoin="round" stroke-linecap="butt" d="m314.8058 377.01758l0 0" fill-rule="evenodd"></path><path fill="#000000" fill-opacity="0.0" d="m314.8058 377.01758l0 0" fill-rule="evenodd"></path><path stroke="#f1c232" stroke-width="4.0" stroke-linejoin="round" stroke-linecap="butt" d="m314.8058 377.01758l0 0" fill-rule="evenodd"></path><path fill="#000000" fill-opacity="0.0" d="m314.8058 349.20657l0 0" fill-rule="evenodd"></path><path stroke="#f1c232" stroke-width="4.0" stroke-linejoin="round" stroke-linecap="butt" d="m314.8058 349.20657l0 0" fill-rule="evenodd"></path><path fill="#000000" fill-opacity="0.0" d="m151.78215 114.16273l28.97638 47.464577" fill-rule="evenodd"></path><path stroke="#38761d" stroke-width="3.0" stroke-linejoin="round" stroke-linecap="butt" d="m151.78215 114.16273l19.59729 32.10122" fill-rule="evenodd"></path><path fill="#38761d" stroke="#38761d" stroke-width="3.0" stroke-linecap="butt" d="m167.15009 148.8459l11.323227 9.038101l-2.8645172 -14.202011z" fill-rule="evenodd"></path><path fill="#b6d7a8" d="m13.1164875 364.53595l0 0c0 -14.768158 23.640776 -26.740143 52.803154 -26.740143l0 0c29.162369 0 52.803146 11.971985 52.803146 26.740143l0 0c0 14.768188 -23.640778 26.740173 -52.803146 26.740173l0 0c-29.162376 0 -52.803154 -11.971985 -52.803154 -26.740173z" fill-rule="evenodd"></path><path fill="#000000" d="m46.32478 358.1591l0 -1.171875l3.34375 0l0 13.046875l1.5 0.25l0 1.171875l-4.84375 0l0 -1.171875l1.515625 -0.25l0 -11.609375l-1.515625 -0.265625zm6.1256256 12.125l1.515625 -0.25l0 -7.171875l-1.515625 -0.265625l0 -1.171875l3.34375 0l0 8.609375l1.5 0.25l0 1.171875l-4.84375 0l0 -1.171875zm3.34375 -11.4375l-1.828125 0l0 -1.859375l1.828125 0l0 1.859375zm11.974438 7.96875q0 2.171875 -1.046875 3.5q-1.046875 1.328125 -2.8749962 1.328125q-0.984375 0 -1.703125 -0.375q-0.71875 -0.375 -1.203125 -1.109375l-0.171875 1.296875l-1.578125 0l0 -13.03125l-1.515625 -0.265625l0 -1.171875l3.34375 0l0 5.625q0.46875 -0.671875 1.171875 -1.015625q0.703125 -0.359375 1.640625 -0.359375q1.8593712 0 2.8906212 1.484375q1.046875 1.484375 1.046875 3.90625l0 0.1875zm-1.84375 -0.1875q0 -1.734375 -0.640625 -2.8125q-0.625 -1.09375 -1.9218712 -1.09375q-0.84375 0 -1.421875 0.40625q-0.578125 0.40625 -0.921875 1.09375l0 4.4375q0.34375 0.6875 0.921875 1.09375q0.59375 0.40625 1.4375 0.40625q1.2968712 0 1.9218712 -0.90625q0.625 -0.921875 0.625 -2.4375l0 -0.1875zm8.600739 -0.15625l-4.546875 0l0 -1.4375l4.546875 0l0 1.4375zm8.666519 4.984375q-0.078125 -0.40625 -0.125 -0.734375q-0.046875 -0.328125 -0.0625 -0.640625q-0.53125 0.671875 -1.328125 1.125q-0.796875 0.4375 -1.6875 0.4375q-1.578125 0 -2.390625 -0.765625q-0.8125 -0.765625 -0.8125 -2.15625q0 -1.421875 1.15625 -2.1875q1.15625 -0.78125 3.15625 -0.78125l1.890625 0l0 -1.171875q0 -0.875 -0.5625 -1.390625q-0.546875 -0.515625 -1.546875 -0.515625q-0.6875 0 -1.21875 0.171875q-0.515625 0.171875 -0.84375 0.484375l-0.1875 1.0625l-1.40625 0l0 -1.953125q0.6875 -0.546875 1.65625 -0.875q0.96875 -0.328125 2.109375 -0.328125q1.71875 0 2.765625 0.875q1.0625 0.859375 1.0625 2.484375l0 4.84375q0 0.1875 0 0.375q0.015625 0.1875 0.03125 0.375l0.734375 0.09375l0 1.171875l-2.390625 0zm-2.9375 -1.34375q0.90625 0 1.65625 -0.421875q0.75 -0.4375 1.078125 -1.0625l0 -1.640625l-1.953125 0q-1.125 0 -1.78125 0.515625q-0.640625 0.515625 -0.640625 1.265625q0 0.65625 0.40625 1.0q0.40625 0.34375 1.234375 0.34375z" fill-rule="nonzero"></path><path fill="#b6d7a8" d="m14.565307 428.53418l0 0c0 -14.768188 23.640774 -26.740143 52.803146 -26.740143l0 0c29.162376 0 52.803154 11.971954 52.803154 26.740143l0 0c0 14.768188 -23.640778 26.740143 -52.803154 26.740143l0 0c-29.162373 0 -52.803146 -11.971954 -52.803146 -26.740143z" fill-rule="evenodd"></path><path fill="#000000" d="m47.509426 422.1573l0 -1.171875l3.34375 0l0 13.046875l1.5 0.25l0 1.171875l-4.84375 0l0 -1.171875l1.515625 -0.25l0 -11.609375l-1.515625 -0.265625zm6.1256256 12.125l1.515625 -0.25l0 -7.171875l-1.515625 -0.265625l0 -1.171875l3.34375 0l0 8.609375l1.5 0.25l0 1.171875l-4.84375 0l0 -1.171875zm3.34375 -11.4375l-1.828125 0l0 -1.859375l1.828125 0l0 1.859375zm11.974438 7.96875q0 2.171875 -1.046875 3.5q-1.046875 1.328125 -2.875 1.328125q-0.984375 0 -1.703125 -0.375q-0.71875 -0.375 -1.203125 -1.109375l-0.17187119 1.296875l-1.578125 0l0 -13.03125l-1.515625 -0.265625l0 -1.171875l3.3437462 0l0 5.625q0.46875 -0.671875 1.171875 -1.015625q0.703125 -0.359375 1.640625 -0.359375q1.859375 0 2.890625 1.484375q1.046875 1.484375 1.046875 3.90625l0 0.1875zm-1.84375 -0.1875q0 -1.734375 -0.640625 -2.8125q-0.625 -1.09375 -1.921875 -1.09375q-0.84375 0 -1.421875 0.40625q-0.578125 0.40625 -0.921875 1.09375l0 4.4375q0.34375 0.6875 0.921875 1.09375q0.59375 0.40625 1.4375 0.40625q1.296875 0 1.921875 -0.90625q0.625 -0.921875 0.625 -2.4375l0 -0.1875zm8.600739 -0.15625l-4.546875 0l0 -1.4375l4.546875 0l0 1.4375zm11.307144 0.34375q0 2.171875 -1.046875 3.5q-1.046875 1.328125 -2.875 1.328125q-0.984375 0 -1.703125 -0.375q-0.71875 -0.375 -1.203125 -1.109375l-0.171875 1.296875l-1.578125 0l0 -13.03125l-1.515625 -0.265625l0 -1.171875l3.34375 0l0 5.625q0.46875 -0.671875 1.171875 -1.015625q0.703125 -0.359375 1.640625 -0.359375q1.859375 0 2.890625 1.484375q1.046875 1.484375 1.046875 3.90625l0 0.1875zm-1.84375 -0.1875q0 -1.734375 -0.640625 -2.8125q-0.625 -1.09375 -1.921875 -1.09375q-0.84375 0 -1.421875 0.40625q-0.578125 0.40625 -0.921875 1.09375l0 4.4375q0.34375 0.6875 0.921875 1.09375q0.59375 0.40625 1.4375 0.40625q1.296875 0 1.921875 -0.90625q0.625 -0.921875 0.625 -2.4375l0 -0.1875z" fill-rule="nonzero"></path><path fill="#b6d7a8" d="m13.620424 492.53418l0 0c0 -14.768188 23.640776 -26.740143 52.803154 -26.740143l0 0c29.162369 0 52.803146 11.971954 52.803146 26.740143l0 0c0 14.768188 -23.640778 26.740173 -52.803146 26.740173l0 0c-29.162376 0 -52.803154 -11.971985 -52.803154 -26.740173z" fill-rule="evenodd"></path><path fill="#000000" d="m46.93803 486.1573l0 -1.171875l3.34375 0l0 13.046875l1.5 0.25l0 1.171875l-4.84375 0l0 -1.171875l1.515625 -0.25l0 -11.609375l-1.515625 -0.265625zm6.1256256 12.125l1.515625 -0.25l0 -7.171875l-1.515625 -0.265625l0 -1.171875l3.34375 0l0 8.609375l1.5 0.25l0 1.171875l-4.84375 0l0 -1.171875zm3.34375 -11.4375l-1.828125 0l0 -1.859375l1.828125 0l0 1.859375zm11.974438 7.96875q0 2.171875 -1.046875 3.5q-1.046875 1.328125 -2.875 1.328125q-0.9843712 0 -1.7031212 -0.375q-0.71875 -0.375 -1.203125 -1.109375l-0.171875 1.296875l-1.578125 0l0 -13.03125l-1.515625 -0.265625l0 -1.171875l3.34375 0l0 5.625q0.46875 -0.671875 1.171875 -1.015625q0.703125 -0.359375 1.6406212 -0.359375q1.859375 0 2.890625 1.484375q1.046875 1.484375 1.046875 3.90625l0 0.1875zm-1.84375 -0.1875q0 -1.734375 -0.640625 -2.8125q-0.625 -1.09375 -1.9218712 -1.09375q-0.84375 0 -1.421875 0.40625q-0.578125 0.40625 -0.921875 1.09375l0 4.4375q0.34375 0.6875 0.921875 1.09375q0.59375 0.40625 1.4375 0.40625q1.2968712 0 1.9218712 -0.90625q0.625 -0.921875 0.625 -2.4375l0 -0.1875zm8.600739 -0.15625l-4.546875 0l0 -1.4375l4.546875 0l0 1.4375zm6.619644 3.75q0.921875 0 1.609375 -0.5625q0.6875 -0.5625 0.6875 -1.375l1.640625 0l0.015625 0.046875q0.046875 1.3125 -1.15625 2.3125q-1.1875 1.0 -2.796875 1.0q-2.1875 0 -3.34375 -1.421875q-1.15625 -1.421875 -1.15625 -3.59375l0 -0.390625q0 -2.140625 1.15625 -3.5625q1.171875 -1.4375 3.34375 -1.4375q1.21875 0 2.171875 0.40625q0.96875 0.390625 1.59375 1.078125l0.078125 2.234375l-1.453125 0l-0.40625 -1.578125q-0.3125 -0.3125 -0.828125 -0.5q-0.515625 -0.203125 -1.15625 -0.203125q-1.4375 0 -2.0625 1.03125q-0.609375 1.03125 -0.609375 2.53125l0 0.390625q0 1.546875 0.609375 2.578125q0.625 1.015625 2.0625 1.015625z" fill-rule="nonzero"></path><path fill="#b6d7a8" d="m12.754283 557.49304l0 0c0 -14.768188 23.640774 -26.740173 52.80315 -26.740173l0 0c29.162369 0 52.803146 11.971985 52.803146 26.740173l0 0c0 14.768188 -23.640778 26.740112 -52.803146 26.740112l0 0c-29.162376 0 -52.80315 -11.971924 -52.80315 -26.740112z" fill-rule="evenodd"></path><path fill="#000000" d="m47.73101 564.413q-0.078125 -0.40625 -0.125 -0.734375q-0.046875 -0.328125 -0.0625 -0.640625q-0.53125 0.671875 -1.328125 1.125q-0.796875 0.4375 -1.6875 0.4375q-1.578125 0 -2.390625 -0.765625q-0.8125 -0.765625 -0.8125 -2.15625q0 -1.421875 1.15625 -2.1875q1.15625 -0.78125 3.15625 -0.78125l1.890625 0l0 -1.171875q0 -0.875 -0.5625 -1.390625q-0.546875 -0.515625 -1.546875 -0.515625q-0.6875 0 -1.21875 0.171875q-0.515625 0.171875 -0.84375 0.484375l-0.1875 1.0625l-1.40625 0l0 -1.953125q0.6875 -0.546875 1.65625 -0.875q0.96875 -0.328125 2.109375 -0.328125q1.71875 0 2.765625 0.875q1.0625 0.859375 1.0625 2.484375l0 4.84375q0 0.1875 0 0.375q0.015625 0.1875 0.03125 0.375l0.734375 0.09375l0 1.171875l-2.390625 0zm-2.9375 -1.34375q0.90625 0 1.65625 -0.421875q0.75 -0.4375 1.078125 -1.0625l0 -1.640625l-1.953125 0q-1.125 0 -1.78125 0.515625q-0.640625 0.515625 -0.640625 1.265625q0 0.65625 0.40625 1.0q0.40625 0.34375 1.234375 0.34375zm6.4473877 4.03125l1.5 -0.265625l0 -11.015625l-1.5 -0.265625l0 -1.171875l3.078125 0l0.15625 1.21875q0.5 -0.6875 1.21875 -1.046875q0.734375 -0.359375 1.671875 -0.359375q1.859375 0 2.8906212 1.484375q1.046875 1.46875 1.046875 3.90625l0 0.1875q0 2.171875 -1.046875 3.5q-1.0312462 1.328125 -2.8593712 1.328125q-0.9375 0 -1.640625 -0.296875q-0.6875 -0.3125 -1.1875 -0.9375l0 3.46875l1.515625 0.265625l0 1.171875l-4.84375 0l0 -1.171875zm8.21875 -7.515625q0 -1.71875 -0.671875 -2.8125q-0.65625 -1.09375 -1.984375 -1.09375q-0.765625 0 -1.328125 0.359375q-0.5625 0.34375 -0.90625 0.953125l0 4.890625q0.34375 0.625 0.890625 0.96875q0.5625 0.328125 1.375 0.328125q1.296875 0 1.953125 -0.9375q0.671875 -0.953125 0.671875 -2.46875l0 -0.1875zm3.0770226 7.515625l1.5000038 -0.265625l0 -11.015625l-1.5000038 -0.265625l0 -1.171875l3.0781288 0l0.15625 1.21875q0.5 -0.6875 1.21875 -1.046875q0.734375 -0.359375 1.671875 -0.359375q1.859375 0 2.890625 1.484375q1.046875 1.46875 1.046875 3.90625l0 0.1875q0 2.171875 -1.046875 3.5q-1.03125 1.328125 -2.859375 1.328125q-0.9375 0 -1.640625 -0.296875q-0.6875 -0.3125 -1.1875 -0.9375l0 3.46875l1.515625 0.265625l0 1.171875l-4.843754 0l0 -1.171875zm8.218754 -7.515625q0 -1.71875 -0.671875 -2.8125q-0.65625 -1.09375 -1.984375 -1.09375q-0.765625 0 -1.328125 0.359375q-0.5625 0.34375 -0.90625 0.953125l0 4.890625q0.34375 0.625 0.890625 0.96875q0.5625 0.328125 1.375 0.328125q1.296875 0 1.953125 -0.9375q0.671875 -0.953125 0.671875 -2.46875l0 -0.1875zm8.436401 -0.15625l-4.546875 0l0 -1.4375l4.546875 0l0 1.4375zm8.666519 4.984375q-0.078125 -0.40625 -0.125 -0.734375q-0.046875 -0.328125 -0.0625 -0.640625q-0.53125 0.671875 -1.328125 1.125q-0.796875 0.4375 -1.6875 0.4375q-1.578125 0 -2.390625 -0.765625q-0.8125 -0.765625 -0.8125 -2.15625q0 -1.421875 1.15625 -2.1875q1.15625 -0.78125 3.15625 -0.78125l1.890625 0l0 -1.171875q0 -0.875 -0.5625 -1.390625q-0.546875 -0.515625 -1.546875 -0.515625q-0.6875 0 -1.21875 0.171875q-0.515625 0.171875 -0.84375 0.484375l-0.1875 1.0625l-1.40625 0l0 -1.953125q0.6875 -0.546875 1.65625 -0.875q0.96875 -0.328125 2.109375 -0.328125q1.71875 0 2.765625 0.875q1.0625 0.859375 1.0625 2.484375l0 4.84375q0 0.1875 0 0.375q0.015625 0.1875 0.03125 0.375l0.734375 0.09375l0 1.171875l-2.390625 0zm-2.9375 -1.34375q0.90625 0 1.65625 -0.421875q0.75 -0.4375 1.078125 -1.0625l0 -1.640625l-1.953125 0q-1.125 0 -1.78125 0.515625q-0.640625 0.515625 -0.640625 1.265625q0 0.65625 0.40625 1.0q0.40625 0.34375 1.234375 0.34375z" fill-rule="nonzero"></path><path fill="#e06666" d="m299.8924 363.11206l0 0c0 -7.679779 6.676941 -13.905487 14.913391 -13.905487l0 0c8.23642 0 14.913361 6.225708 14.913361 13.905487l0 0c0 7.6798096 -6.676941 13.905518 -14.913361 13.905518l0 0c-8.23645 0 -14.913391 -6.225708 -14.913391 -13.905518z" fill-rule="evenodd"></path><path fill="#674ea7" d="m258.9929 426.45328l0 0c0 -7.6798096 6.676941 -13.905518 14.913391 -13.905518l0 0c8.23642 0 14.913361 6.225708 14.913361 13.905518l0 0c0 7.6798096 -6.676941 13.905518 -14.913361 13.905518l0 0c-8.23645 0 -14.913391 -6.225708 -14.913391 -13.905518z" fill-rule="evenodd"></path><path fill="#000000" fill-opacity="0.0" d="m465.71915 491.11206l-323.937 -0.94488525" fill-rule="evenodd"></path><path stroke="#f1c232" stroke-width="4.0" stroke-linejoin="round" stroke-linecap="butt" d="m465.71915 491.11206l-323.937 -0.94488525" fill-rule="evenodd"></path><path fill="#e06666" d="m195.82152 490.45328l0 0c0 -7.6798096 6.676956 -13.905518 14.913391 -13.905518l0 0c8.236435 0 14.913391 6.225708 14.913391 13.905518l0 0c0 7.6798096 -6.676956 13.905518 -14.913391 13.905518l0 0c-8.236435 0 -14.913391 -6.225708 -14.913391 -13.905518z" fill-rule="evenodd"></path><path fill="#674ea7" d="m315.8924 555.11206l0 0c0 -7.6798096 6.676941 -13.905518 14.913391 -13.905518l0 0c8.23642 0 14.913361 6.225708 14.913361 13.905518l0 0c0 7.6798096 -6.676941 13.905518 -14.913361 13.905518l0 0c-8.23645 0 -14.913391 -6.225708 -14.913391 -13.905518z" fill-rule="evenodd"></path><path fill="#ea9999" d="m315.44104 302.12335l0 0c0 -14.768188 25.27652 -26.740143 56.456696 -26.740143l0 0c31.180145 0 56.456665 11.971954 56.456665 26.740143l0 0c0 14.768188 -25.27652 26.740173 -56.456665 26.740173l0 0c-31.180176 0 -56.456696 -11.971985 -56.456696 -26.740173z" fill-rule="evenodd"></path><path fill="#000000" d="m357.54044 287.23087l-0.046875 -0.015625l-4.375 10.828125l-1.203125 0l-4.375 -10.8125l-0.046875 0l0.1875 5.46875l0 3.921875l1.515625 0.25l0 1.171875l-4.859375 0l0 -1.171875l1.515625 -0.25l0 -10.640625l-1.515625 -0.265625l0 -1.1875l1.515625 0l2.34375 0l4.296875 10.984375l0.0625 0l4.296875 -10.984375l3.859375 0l0 1.1875l-1.515625 0.265625l0 10.640625l1.515625 0.25l0 1.171875l-4.859375 0l0 -1.171875l1.515625 -0.25l0 -3.921875l0.171875 -5.46875zm16.181702 4.15625q0 2.953125 -1.6875 4.90625q-1.6875 1.9375 -4.390625 1.9375q-2.609375 0 -4.25 -1.9375q-1.625 -1.953125 -1.625 -4.90625l0 -0.1875q0 -2.9375 1.625 -4.890625q1.640625 -1.96875 4.25 -1.96875q2.703125 0 4.390625 1.96875q1.6875 1.953125 1.6875 4.890625l0 0.1875zm-1.828125 -0.203125q0 -2.359375 -1.125 -3.84375q-1.125 -1.5 -3.125 -1.5q-1.90625 0 -2.984375 1.5q-1.0625 1.484375 -1.0625 3.84375l0 0.203125q0 2.375 1.0625 3.875q1.078125 1.484375 2.984375 1.484375q2.03125 0 3.140625 -1.484375q1.109375 -1.484375 1.109375 -3.875l0 -0.203125zm2.8194885 5.6875l1.0 -0.140625l4.71875 -12.203125l1.5625 0l4.640625 12.203125l1.0 0.140625l0 1.171875l-3.875 0l0 -1.171875l1.015625 -0.171875l-0.890625 -2.484375l-5.40625 0l-0.921875 2.484375l1.015625 0.171875l0 1.171875l-3.859375 0l0 -1.171875zm4.328125 -4.1875l4.28125 0l-2.09375 -5.796875l-0.046875 0l-2.140625 5.796875zm15.398621 -8.15625q2.109375 0 3.296875 0.921875q1.203125 0.90625 1.203125 2.734375q0 0.90625 -0.578125 1.625q-0.5625 0.703125 -1.5 1.046875q1.21875 0.25 1.921875 1.1875q0.703125 0.9375 0.703125 2.1875q0 1.859375 -1.203125 2.84375q-1.203125 0.96875 -3.265625 0.96875l-6.5 0l0 -1.171875l1.515625 -0.25l0 -10.640625l-1.515625 -0.265625l0 -1.1875l1.515625 0l4.40625 0zm-2.578125 7.171875l0 4.921875l3.15625 0q1.25 0 1.9375 -0.609375q0.6875 -0.625 0.6875 -1.765625q0 -1.1875 -0.578125 -1.859375q-0.578125 -0.6875 -1.765625 -0.6875l-3.4375 0zm0 -1.421875l3.046875 0q0.984375 -0.03125 1.59375 -0.578125q0.609375 -0.5625 0.609375 -1.546875q0 -1.09375 -0.6875 -1.625q-0.6875 -0.546875 -1.984375 -0.546875l-2.578125 0l0 4.296875z" fill-rule="nonzero"></path><path fill="#000000" d="m353.2187 318.8715l2.078125 -0.25l0 -10.125l-2.125 0.03125l0 -1.140625l3.953125 -0.859375l0 12.09375l2.078125 0.25l0 1.171875l-5.984375 0l0 -1.171875zm16.282166 -3.984375q0 2.59375 -1.15625 3.96875q-1.140625 1.375 -3.140625 1.375q-1.984375 0 -3.140625 -1.375q-1.15625 -1.375 -1.15625 -3.96875l0 -3.1875q0 -2.578125 1.140625 -3.96875q1.15625 -1.390625 3.140625 -1.390625q2.0 0 3.15625 1.390625q1.15625 1.390625 1.15625 3.96875l0 3.1875zm-1.828125 -3.578125q0 -1.765625 -0.640625 -2.640625q-0.625 -0.890625 -1.84375 -0.890625q-1.1875 0 -1.828125 0.890625q-0.625 0.875 -0.625 2.640625l0 3.953125q0 1.75 0.640625 2.65625q0.640625 0.890625 1.828125 0.890625q1.21875 0 1.84375 -0.890625q0.625 -0.890625 0.625 -2.65625l0 -3.953125zm12.468018 3.578125q0 2.59375 -1.15625 3.96875q-1.140625 1.375 -3.140625 1.375q-1.984375 0 -3.140625 -1.375q-1.15625 -1.375 -1.15625 -3.96875l0 -3.1875q0 -2.578125 1.140625 -3.96875q1.15625 -1.390625 3.140625 -1.390625q2.0 0 3.15625 1.390625q1.15625 1.390625 1.15625 3.96875l0 3.1875zm-1.828125 -3.578125q0 -1.765625 -0.640625 -2.640625q-0.625 -0.890625 -1.84375 -0.890625q-1.1875 0 -1.828125 0.890625q-0.625 0.875 -0.625 2.640625l0 3.953125q0 1.75 0.640625 2.65625q0.640625 0.890625 1.828125 0.890625q1.21875 0 1.84375 -0.890625q0.625 -0.890625 0.625 -2.65625l0 -3.953125zm12.468018 3.578125q0 2.59375 -1.15625 3.96875q-1.140625 1.375 -3.140625 1.375q-1.984375 0 -3.140625 -1.375q-1.15625 -1.375 -1.15625 -3.96875l0 -3.1875q0 -2.578125 1.140625 -3.96875q1.15625 -1.390625 3.140625 -1.390625q2.0 0 3.15625 1.390625q1.15625 1.390625 1.15625 3.96875l0 3.1875zm-1.828125 -3.578125q0 -1.765625 -0.640625 -2.640625q-0.625 -0.890625 -1.84375 -0.890625q-1.1875 0 -1.828125 0.890625q-0.625 0.875 -0.625 2.640625l0 3.953125q0 1.75 0.640625 2.65625q0.640625 0.890625 1.828125 0.890625q1.21875 0 1.84375 -0.890625q0.625 -0.890625 0.625 -2.65625l0 -3.953125z" fill-rule="nonzero"></path><path fill="#674ea7" d="m513.3097 362.45328l0 0c0 -7.6798096 6.676941 -13.905518 14.913391 -13.905518l0 0c8.23645 0 14.913391 6.225708 14.913391 13.905518l0 0c0 7.6798096 -6.676941 13.905518 -14.913391 13.905518l0 0c-8.23645 0 -14.913391 -6.225708 -14.913391 -13.905518z" fill-rule="evenodd"></path><path fill="#674ea7" d="m435.8924 491.11206l0 0c0 -7.679779 6.676941 -13.905487 14.913391 -13.905487l0 0c8.23642 0 14.913361 6.225708 14.913361 13.905487l0 0c0 7.6798096 -6.676941 13.905518 -14.913361 13.905518l0 0c-8.23645 0 -14.913391 -6.225708 -14.913391 -13.905518z" fill-rule="evenodd"></path><path fill="#b4a7d6" d="m533.8032 301.92233l0 0c0 -14.768158 25.27655 -26.740143 56.456726 -26.740143l0 0c31.180176 0 56.456665 11.971985 56.456665 26.740143l0 0c0 14.768188 -25.27649 26.740173 -56.456665 26.740173l0 0c-31.180176 0 -56.456726 -11.971985 -56.456726 -26.740173z" fill-rule="evenodd"></path><path fill="#000000" d="m575.90265 287.02985l-0.046875 -0.015625l-4.375 10.828125l-1.203125 0l-4.375 -10.8125l-0.046875 0l0.1875 5.46875l0 3.921875l1.515625 0.25l0 1.171875l-4.859375 0l0 -1.171875l1.515625 -0.25l0 -10.640625l-1.515625 -0.265625l0 -1.1875l1.515625 0l2.34375 0l4.296875 10.984375l0.0625 0l4.296875 -10.984375l3.859375 0l0 1.1875l-1.515625 0.265625l0 10.640625l1.515625 0.25l0 1.171875l-4.859375 0l0 -1.171875l1.515625 -0.25l0 -3.921875l0.171875 -5.46875zm16.181702 4.15625q0 2.953125 -1.6875 4.90625q-1.6875 1.9375 -4.390625 1.9375q-2.609375 0 -4.25 -1.9375q-1.625 -1.953125 -1.625 -4.90625l0 -0.1875q0 -2.9375 1.625 -4.890625q1.640625 -1.96875 4.25 -1.96875q2.703125 0 4.390625 1.96875q1.6875 1.953125 1.6875 4.890625l0 0.1875zm-1.828125 -0.203125q0 -2.359375 -1.125 -3.84375q-1.125 -1.5 -3.125 -1.5q-1.90625 0 -2.984375 1.5q-1.0625 1.484375 -1.0625 3.84375l0 0.203125q0 2.375 1.0625 3.875q1.078125 1.484375 2.984375 1.484375q2.03125 0 3.140625 -1.484375q1.109375 -1.484375 1.109375 -3.875l0 -0.203125zm2.819458 5.6875l1.0 -0.140625l4.71875 -12.203125l1.5625 0l4.640625 12.203125l1.0 0.140625l0 1.171875l-3.875 0l0 -1.171875l1.015625 -0.171875l-0.890625 -2.484375l-5.40625 0l-0.921875 2.484375l1.015625 0.171875l0 1.171875l-3.859375 0l0 -1.171875zm4.328125 -4.1875l4.28125 0l-2.09375 -5.796875l-0.046875 0l-2.140625 5.796875zm15.398621 -8.15625q2.109375 0 3.296875 0.921875q1.203125 0.90625 1.203125 2.734375q0 0.90625 -0.578125 1.625q-0.5625 0.703125 -1.5 1.046875q1.21875 0.25 1.921875 1.1875q0.703125 0.9375 0.703125 2.1875q0 1.859375 -1.203125 2.84375q-1.203125 0.96875 -3.265625 0.96875l-6.5 0l0 -1.171875l1.515625 -0.25l0 -10.640625l-1.515625 -0.265625l0 -1.1875l1.515625 0l4.40625 0zm-2.578125 7.171875l0 4.921875l3.15625 0q1.25 0 1.9375 -0.609375q0.6875 -0.625 0.6875 -1.765625q0 -1.1875 -0.578125 -1.859375q-0.578125 -0.6875 -1.765625 -0.6875l-3.4375 0zm0 -1.421875l3.046875 0q0.984375 -0.03125 1.59375 -0.578125q0.609375 -0.5625 0.609375 -1.546875q0 -1.09375 -0.6875 -1.625q-0.6875 -0.546875 -1.984375 -0.546875l-2.578125 0l0 4.296875z" fill-rule="nonzero"></path><path fill="#000000" d="m573.05664 318.67047l2.078125 -0.25l0 -10.125l-2.125 0.03125l0 -1.140625l3.953125 -0.859375l0 12.09375l2.078125 0.25l0 1.171875l-5.984375 0l0 -1.171875zm16.282166 -3.984375q0 2.59375 -1.15625 3.96875q-1.140625 1.375 -3.140625 1.375q-1.984375 0 -3.140625 -1.375q-1.15625 -1.375 -1.15625 -3.96875l0 -3.1875q0 -2.578125 1.140625 -3.96875q1.15625 -1.390625 3.140625 -1.390625q2.0 0 3.15625 1.390625q1.15625 1.390625 1.15625 3.96875l0 3.1875zm-1.828125 -3.578125q0 -1.765625 -0.640625 -2.640625q-0.625 -0.890625 -1.84375 -0.890625q-1.1875 0 -1.828125 0.890625q-0.625 0.875 -0.625 2.640625l0 3.953125q0 1.75 0.640625 2.65625q0.640625 0.890625 1.828125 0.890625q1.21875 0 1.84375 -0.890625q0.625 -0.890625 0.625 -2.65625l0 -3.953125zm12.468018 3.578125q0 2.59375 -1.15625 3.96875q-1.140625 1.375 -3.140625 1.375q-1.984375 0 -3.140625 -1.375q-1.15625 -1.375 -1.15625 -3.96875l0 -3.1875q0 -2.578125 1.140625 -3.96875q1.15625 -1.390625 3.140625 -1.390625q2.0 0 3.15625 1.390625q1.15625 1.390625 1.15625 3.96875l0 3.1875zm-1.828125 -3.578125q0 -1.765625 -0.640625 -2.640625q-0.625 -0.890625 -1.84375 -0.890625q-1.1875 0 -1.828125 0.890625q-0.625 0.875 -0.625 2.640625l0 3.953125q0 1.75 0.640625 2.65625q0.640625 0.890625 1.828125 0.890625q1.21875 0 1.84375 -0.890625q0.625 -0.890625 0.625 -2.65625l0 -3.953125zm3.8742676 7.5625l2.078125 -0.25l0 -10.125l-2.125 0.03125l0 -1.140625l3.953125 -0.859375l0 12.09375l2.078125 0.25l0 1.171875l-5.984375 0l0 -1.171875z" fill-rule="nonzero"></path><path fill="#000000" fill-opacity="0.0" d="m371.89774 328.86353l-46.55121 24.409454" fill-rule="evenodd"></path><path stroke="#e06666" stroke-width="3.0" stroke-linejoin="round" stroke-linecap="butt" d="m371.89774 328.86353l-46.55121 24.409454" fill-rule="evenodd"></path><path fill="#000000" fill-opacity="0.0" d="m330.79208 541.19934l-109.511826 -40.91339" fill-rule="evenodd"></path><path stroke="#e06666" stroke-width="4.0" stroke-linejoin="round" stroke-linecap="round" d="m330.79208 541.19934l-109.511826 -40.91339" fill-rule="evenodd"></path><path fill="#000000" fill-opacity="0.0" d="m590.25995 328.6625l-62.04724 19.874023" fill-rule="evenodd"></path><path stroke="#674ea7" stroke-width="4.0" stroke-linejoin="round" stroke-linecap="round" d="m590.25995 328.6625l-62.04724 19.874023" fill-rule="evenodd"></path><path fill="#000000" fill-opacity="0.0" d="m330.8058 541.20654l120.0 -36.188965" fill-rule="evenodd"></path><path stroke="#674ea7" stroke-width="4.0" stroke-linejoin="round" stroke-linecap="round" d="m330.8058 541.20654l120.0 -36.188965" fill-rule="evenodd"></path><path fill="#f1c232" d="m155.8924 363.11206l0 0c0 -7.679779 6.676941 -13.905487 14.913376 -13.905487l0 0c8.236435 0 14.913391 6.225708 14.913391 13.905487l0 0c0 7.6798096 -6.676956 13.905518 -14.913391 13.905518l0 0c-8.236435 0 -14.913376 -6.225708 -14.913376 -13.905518z" fill-rule="evenodd"></path><path fill="#000000" fill-opacity="0.0" d="m705.3648 280.36026l80.72443 0l0 53.480316l-80.72443 0z" fill-rule="evenodd"></path><path fill="#000000" d="m725.9273 293.76465l0 3.0l-1.546875 0l-0.140625 -1.546875l-3.0 0l0 10.640625l1.515625 0.25l0 1.171875l-4.859375 0l0 -1.171875l1.515625 -0.25l0 -10.640625l-3.0 0l-0.140625 1.546875l-1.5625 0l0 -3.0l11.21875 0zm0.96221924 12.34375l1.515625 -0.25l0 -7.171875l-1.515625 -0.265625l0 -1.171875l3.34375 0l0 8.609375l1.5 0.25l0 1.171875l-4.84375 0l0 -1.171875zm3.34375 -11.4375l-1.828125 0l0 -1.859375l1.828125 0l0 1.859375zm2.4276123 11.4375l1.5 -0.25l0 -7.171875l-1.5 -0.265625l0 -1.171875l3.15625 0l0.109375 1.296875q0.484375 -0.703125 1.25 -1.09375q0.765625 -0.390625 1.765625 -0.390625q1.0 0 1.71875 0.46875q0.71875 0.453125 1.078125 1.375q0.46875 -0.84375 1.25 -1.34375q0.78125 -0.5 1.828125 -0.5q1.53125 0 2.421875 1.046875q0.890625 1.046875 0.890625 3.171875l0 4.578125l1.515625 0.25l0 1.171875l-4.859375 0l0 -1.171875l1.515625 -0.25l0 -4.59375q0 -1.484375 -0.515625 -2.09375q-0.515625 -0.625 -1.515625 -0.625q-0.953125 0 -1.53125 0.671875q-0.578125 0.671875 -0.671875 1.6875l0 4.953125l1.515625 0.25l0 1.171875l-4.859375 0l0 -1.171875l1.515625 -0.25l0 -4.59375q0 -1.421875 -0.53125 -2.0625q-0.515625 -0.65625 -1.515625 -0.65625q-0.828125 0 -1.375 0.34375q-0.53125 0.34375 -0.828125 0.953125l0 6.015625l1.515625 0.25l0 1.171875l-4.84375 0l0 -1.171875zm22.564331 1.359375q-2.09375 0 -3.34375 -1.390625q-1.234375 -1.390625 -1.234375 -3.625l0 -0.40625q0 -2.140625 1.28125 -3.5625q1.28125 -1.421875 3.015625 -1.421875q2.03125 0 3.0625 1.21875q1.046875 1.21875 1.046875 3.265625l0 1.140625l-6.5 0l-0.03125 0.046875q0.03125 1.453125 0.734375 2.390625q0.703125 0.921875 1.96875 0.921875q0.9375 0 1.625 -0.265625q0.703125 -0.265625 1.21875 -0.734375l0.71875 1.1875q-0.546875 0.53125 -1.4375 0.890625q-0.875 0.34375 -2.125 0.34375zm-0.28125 -8.96875q-0.90625 0 -1.5625 0.78125q-0.65625 0.765625 -0.796875 1.9375l0.015625 0.046875l4.625 0l0 -0.25q0 -1.078125 -0.578125 -1.796875q-0.5625 -0.71875 -1.703125 -0.71875z" fill-rule="nonzero"></path><path fill="#000000" fill-opacity="0.0" d="m589.5197 574.2598l1.0393677 -239.8425" fill-rule="evenodd"></path><path stroke="#666666" stroke-width="2.0" stroke-linejoin="round" stroke-linecap="butt" stroke-dasharray="8.0,6.0" d="m589.5197 574.2598l1.0393677 -239.8425" fill-rule="evenodd"></path><path fill="#000000" fill-opacity="0.0" d="m374.41208 576.71655l0.1574707 -250.29922" fill-rule="evenodd"></path><path stroke="#666666" stroke-width="2.0" stroke-linejoin="round" stroke-linecap="butt" stroke-dasharray="8.0,6.0" d="m374.41208 576.71655l0.1574707 -250.29922" fill-rule="evenodd"></path></g></svg>

