<?xml version="1.0" standalone="yes"?>

<svg version="1.1" viewBox="0.0 0.0 1109.1128608923884 286.20472440944883" fill="none" stroke="none" stroke-linecap="square" stroke-miterlimit="10" xmlns="http://www.w3.org/2000/svg" xmlns:xlink="http://www.w3.org/1999/xlink"><clipPath id="p.0"><path d="m0 0l1109.1129 0l0 286.2047l-1109.1129 0l0 -286.2047z" clip-rule="nonzero"></path></clipPath><g clip-path="url(#p.0)"><path fill="#000000" fill-opacity="0.0" d="m0 0l1109.1129 0l0 286.2047l-1109.1129 0z" fill-rule="evenodd"></path><path fill="#000000" fill-opacity="0.0" d="m292.9346 176.57887l62.456696 -69.22835" fill-rule="evenodd"></path><path stroke="#3c78d8" stroke-width="4.0" stroke-linejoin="round" stroke-linecap="butt" d="m292.9346 176.57889l46.380035 -51.40866" fill-rule="evenodd"></path><path fill="#3c78d8" stroke="#3c78d8" stroke-width="4.0" stroke-linecap="butt" d="m344.2202 129.59595l7.253998 -17.90364l-17.065125 9.0522z" fill-rule="evenodd"></path><path fill="#000000" fill-opacity="0.0" d="m439.32773 108.29541l78.1102 68.28346" fill-rule="evenodd"></path><path stroke="#434343" stroke-width="4.0" stroke-linejoin="round" stroke-linecap="butt" d="m439.32773 108.29541l60.04117 52.48761" fill-rule="evenodd"></path><path fill="#434343" stroke="#434343" stroke-width="4.0" stroke-linecap="butt" d="m495.02048 165.75723l18.014923 6.972992l-9.318085 -16.921402z" fill-rule="evenodd"></path><path fill="#efefef" d="m873.8886 190.0147l209.4173 0l0 74.74016l-209.4173 0z" fill-rule="evenodd"></path><path fill="#ffffff" d="m21.375328 31.191904l0 0c0 -8.346771 6.7663937 -15.113163 15.113163 -15.113163l140.26186 0c4.0082703 0 7.852356 1.5922737 10.68663 4.4265423c2.834259 2.8342686 4.426529 6.67836 4.426529 10.686621l0 60.450844c0 8.346764 -6.766388 15.113159 -15.113159 15.113159l-140.26186 0c-8.346769 0 -15.113163 -6.7663956 -15.113163 -15.113159z" fill-rule="evenodd"></path><path stroke="#c9daf8" stroke-width="3.0" stroke-linejoin="round" stroke-linecap="butt" d="m21.375328 31.191904l0 0c0 -8.346771 6.7663937 -15.113163 15.113163 -15.113163l140.26186 0c4.0082703 0 7.852356 1.5922737 10.68663 4.4265423c2.834259 2.8342686 4.426529 6.67836 4.426529 10.686621l0 60.450844c0 8.346764 -6.766388 15.113159 -15.113159 15.113159l-140.26186 0c-8.346769 0 -15.113163 -6.7663956 -15.113163 -15.113159z" fill-rule="evenodd"></path><path fill="#000000" d="m65.8577 69.95732l0 -1.484375l1.921875 -0.328125l0 -13.4375l-1.921875 -0.328125l0 -1.484375l13.109375 0l0 4.09375l-1.984375 0l-0.1875 -2.28125l-6.71875 0l0 5.515625l6.53125 0l0 1.828125l-6.53125 0l0 6.09375l6.859375 0l0.1875 -2.28125l1.96875 0l0 4.09375l-13.234375 0zm24.070312 -1.515625q-0.625 0.875 -1.53125 1.328125q-0.890625 0.4375 -2.078125 0.4375q-2.3125 0 -3.625 -1.6875q-1.296875 -1.6875 -1.296875 -4.421875l0 -0.25q0 -3.0625 1.296875 -4.9375q1.3125 -1.875 3.65625 -1.875q1.125 0 1.984375 0.421875q0.859375 0.421875 1.46875 1.203125l0 -5.171875l-1.90625 -0.328125l0 -1.484375l1.90625 0l2.3125 0l0 16.46875l1.90625 0.328125l0 1.484375l-3.90625 0l-0.1875 -1.515625zm-6.234375 -4.34375q0 1.90625 0.78125 3.078125q0.796875 1.15625 2.4375 1.15625q1.03125 0 1.734375 -0.46875q0.703125 -0.46875 1.15625 -1.328125l0 -5.890625q-0.4375 -0.796875 -1.15625 -1.265625q-0.71875 -0.46875 -1.71875 -0.46875q-1.640625 0 -2.4375 1.375q-0.796875 1.375 -0.796875 3.5625l0 0.25zm12.089844 4.375l1.90625 -0.328125l0 -9.046875l-1.90625 -0.328125l0 -1.5l4.21875 0l0 10.875l1.90625 0.328125l0 1.484375l-6.125 0l0 -1.484375zm4.21875 -14.4375l-2.3125 0l0 -2.359375l2.3125 0l0 2.359375zm7.6992188 0.1875l0 3.046875l2.40625 0l0 1.71875l-2.40625 0l0 7.703125q0 0.890625 0.359375 1.25q0.375 0.359375 0.984375 0.359375q0.3125 0 0.6875 -0.046875q0.375 -0.0625 0.640625 -0.109375l0.3125 1.578125q-0.328125 0.203125 -0.96875 0.34375q-0.625 0.140625 -1.25 0.140625q-1.40625 0 -2.25 -0.84375q-0.828125 -0.859375 -0.828125 -2.671875l0 -7.703125l-2.0 0l0 -1.71875l2.0 0l0 -3.046875l2.3125 0zm4.7578125 14.25l1.90625 -0.328125l0 -9.046875l-1.90625 -0.328125l0 -1.5l4.21875 0l0 10.875l1.90625 0.328125l0 1.484375l-6.125 0l0 -1.484375zm4.21875 -14.4375l-2.3125 0l0 -2.359375l2.3125 0l0 2.359375zm3.6835938 9.46875q0 -2.8125 1.515625 -4.640625q1.53125 -1.828125 4.140625 -1.828125q2.625 0 4.15625 1.828125q1.53125 1.8125 1.53125 4.640625l0 0.25q0 2.84375 -1.53125 4.65625q-1.515625 1.796875 -4.140625 1.796875q-2.625 0 -4.15625 -1.8125q-1.515625 -1.8125 -1.515625 -4.640625l0 -0.25zm2.296875 0.25q0 2.015625 0.84375 3.328125q0.859375 1.3125 2.53125 1.3125q1.640625 0 2.5 -1.3125q0.859375 -1.3125 0.859375 -3.328125l0 -0.25q0 -2.0 -0.859375 -3.3125q-0.859375 -1.328125 -2.515625 -1.328125q-1.671875 0 -2.515625 1.328125q-0.84375 1.3125 -0.84375 3.3125l0 0.25zm10.808594 4.71875l1.90625 -0.328125l0 -9.046875l-1.90625 -0.328125l0 -1.5l3.96875 0l0.171875 1.890625q0.625 -1.0 1.578125 -1.5625q0.96875 -0.5625 2.1875 -0.5625q2.046875 0 3.171875 1.203125q1.125 1.203125 1.125 3.71875l0 6.1875l1.90625 0.328125l0 1.484375l-6.125 0l0 -1.484375l1.90625 -0.328125l0 -6.140625q0 -1.6875 -0.671875 -2.390625q-0.65625 -0.703125 -2.015625 -0.703125q-0.984375 0 -1.765625 0.484375q-0.765625 0.484375 -1.21875 1.3125l0 7.4375l1.90625 0.328125l0 1.484375l-6.125 0l0 -1.484375z" fill-rule="nonzero"></path><path fill="#e6b8af" d="m315.79355 31.191904l0 0c0 -8.346771 6.766388 -15.113163 15.113159 -15.113163l140.26187 0c4.0082397 0 7.852356 1.5922737 10.686615 4.4265423c2.834259 2.8342686 4.426544 6.67836 4.426544 10.686621l0 60.450844c0 8.346764 -6.766388 15.113159 -15.113159 15.113159l-140.26187 0c-8.346771 0 -15.113159 -6.7663956 -15.113159 -15.113159z" fill-rule="evenodd"></path><path stroke="#dd7e6b" stroke-width="3.0" stroke-linejoin="round" stroke-linecap="butt" d="m315.79355 31.191904l0 0c0 -8.346771 6.766388 -15.113163 15.113159 -15.113163l140.26187 0c4.0082397 0 7.852356 1.5922737 10.686615 4.4265423c2.834259 2.8342686 4.426544 6.67836 4.426544 10.686621l0 60.450844c0 8.346764 -6.766388 15.113159 -15.113159 15.113159l-140.26187 0c-8.346771 0 -15.113159 -6.7663956 -15.113159 -15.113159z" fill-rule="evenodd"></path><path fill="#000000" d="m367.78177 52.910446q2.78125 0 4.265625 1.234375q1.5 1.234375 1.5 3.5q0 1.25 -0.703125 2.21875q-0.6875 0.953125 -1.96875 1.5q1.390625 0.453125 2.0 1.484375q0.625 1.03125 0.625 2.546875l0 1.375q0 0.78125 0.1875 1.15625q0.203125 0.375 0.65625 0.453125l0.5625 0.0625l0 1.515625l-1.234375 0q-1.34375 0 -1.921875 -0.9375q-0.5625 -0.9375 -0.5625 -2.28125l0 -1.3125q0 -1.40625 -0.8125 -2.25q-0.8125 -0.84375 -2.171875 -0.84375l-3.703125 0l0 5.8125l1.921875 0.328125l0 1.484375l-6.140625 0l0 -1.484375l1.921875 -0.328125l0 -13.4375l-1.921875 -0.328125l0 -1.46875l1.921875 0l5.578125 0zm-3.28125 7.609375l3.046875 0q1.921875 0 2.796875 -0.734375q0.890625 -0.734375 0.890625 -2.15625q0 -1.34375 -0.84375 -2.125q-0.84375 -0.796875 -2.609375 -0.796875l-3.28125 0l0 5.8125zm18.023438 9.6875q-2.640625 0 -4.203125 -1.765625q-1.5625 -1.765625 -1.5625 -4.578125l0 -0.515625q0 -2.703125 1.609375 -4.5q1.609375 -1.8125 3.8125 -1.8125q2.546875 0 3.859375 1.546875q1.328125 1.546875 1.328125 4.125l0 1.453125l-8.21875 0l-0.046875 0.046875q0.046875 1.828125 0.9375 3.015625q0.890625 1.171875 2.484375 1.171875q1.171875 0 2.0625 -0.328125q0.890625 -0.34375 1.53125 -0.921875l0.90625 1.5q-0.6875 0.65625 -1.8125 1.109375q-1.109375 0.453125 -2.6875 0.453125zm-0.34375 -11.34375q-1.15625 0 -1.984375 0.984375q-0.8125 0.96875 -1.0 2.4375l0.015625 0.0625l5.84375 0l0 -0.296875q0 -1.359375 -0.734375 -2.265625q-0.71875 -0.921875 -2.140625 -0.921875zm11.808594 -0.09375l-1.515625 0.234375l2.609375 7.21875l0.203125 0.90625l0.078125 0l0.21875 -0.90625l2.53125 -7.21875l-1.53125 -0.234375l0 -1.5l4.890625 0l0 1.5l-1.03125 0.171875l-4.265625 11.015625l-1.734375 0l-4.3125 -11.015625l-1.03125 -0.171875l0 -1.5l4.890625 0l0 1.5zm9.050781 9.703125l1.90625 -0.328125l0 -9.046875l-1.90625 -0.328125l0 -1.5l4.21875 0l0 10.875l1.90625 0.328125l0 1.484375l-6.125 0l0 -1.484375zm4.21875 -14.4375l-2.3125 0l0 -2.359375l2.3125 0l0 2.359375zm9.449219 16.171875q-2.640625 0 -4.203125 -1.765625q-1.5625 -1.765625 -1.5625 -4.578125l0 -0.515625q0 -2.703125 1.609375 -4.5q1.609375 -1.8125 3.8125 -1.8125q2.546875 0 3.859375 1.546875q1.328125 1.546875 1.328125 4.125l0 1.453125l-8.21875 0l-0.046875 0.046875q0.046875 1.828125 0.9375 3.015625q0.890625 1.171875 2.484375 1.171875q1.171875 0 2.0625 -0.328125q0.890625 -0.34375 1.53125 -0.921875l0.90625 1.5q-0.6875 0.65625 -1.8125 1.109375q-1.109375 0.453125 -2.6875 0.453125zm-0.34375 -11.34375q-1.15625 0 -1.984375 0.984375q-0.8125 0.96875 -1.0 2.4375l0.015625 0.0625l5.84375 0l0 -0.296875q0 -1.359375 -0.734375 -2.265625q-0.71875 -0.921875 -2.140625 -0.921875zm11.964844 -0.09375l-1.453125 0.25l1.65625 6.3125l0.265625 1.546875l0.0625 0l0.328125 -1.546875l2.53125 -8.0625l1.859375 0l2.546875 8.0625l0.359375 1.71875l0.0625 0l0.34375 -1.71875l1.5625 -6.3125l-1.484375 -0.25l0 -1.5l4.828125 0l0 1.5l-1.09375 0.15625l-3.203125 11.03125l-1.859375 0l-2.46875 -7.71875l-0.515625 -2.140625l-0.078125 0.015625l-0.484375 2.125l-2.421875 7.71875l-1.859375 0l-3.203125 -11.03125l-1.109375 -0.15625l0 -1.5l4.828125 0l0 1.5z" fill-rule="nonzero"></path><path fill="#e6b8af" d="m610.2118 31.191904l0 0c0 -8.346771 6.7663574 -15.113163 15.113159 -15.113163l140.26184 0c4.0082397 0 7.852356 1.5922737 10.6866455 4.4265423c2.8342285 2.8342686 4.4265137 6.67836 4.4265137 10.686621l0 60.450844c0 8.346764 -6.7664185 15.113159 -15.113159 15.113159l-140.26184 0c-8.346802 0 -15.113159 -6.7663956 -15.113159 -15.113159z" fill-rule="evenodd"></path><path stroke="#dd7e6b" stroke-width="3.0" stroke-linejoin="round" stroke-linecap="butt" d="m610.2118 31.191904l0 0c0 -8.346771 6.7663574 -15.113163 15.113159 -15.113163l140.26184 0c4.0082397 0 7.852356 1.5922737 10.6866455 4.4265423c2.8342285 2.8342686 4.4265137 6.67836 4.4265137 10.686621l0 60.450844c0 8.346764 -6.7664185 15.113159 -15.113159 15.113159l-140.26184 0c-8.346802 0 -15.113159 -6.7663956 -15.113159 -15.113159z" fill-rule="evenodd"></path><path fill="#000000" d="m634.5594 52.89482q2.734375 0 4.25 1.40625q1.515625 1.40625 1.515625 3.703125q0 2.3125 -1.515625 3.71875q-1.515625 1.390625 -4.25 1.390625l-3.625 0l0 5.03125l1.921875 0.328125l0 1.484375l-6.140625 0l0 -1.484375l1.921875 -0.328125l0 -13.4375l-1.921875 -0.328125l0 -1.484375l1.921875 0l5.921875 0zm-3.625 8.40625l3.625 0q1.734375 0 2.59375 -0.921875q0.859375 -0.9375 0.859375 -2.359375q0 -1.40625 -0.859375 -2.359375q-0.859375 -0.953125 -2.59375 -0.953125l-3.625 0l0 6.59375zm11.261719 2.203125q0 -2.8125 1.515625 -4.640625q1.53125 -1.828125 4.140625 -1.828125q2.625 0 4.15625 1.828125q1.53125 1.8125 1.53125 4.640625l0 0.25q0 2.84375 -1.53125 4.65625q-1.515625 1.796875 -4.140625 1.796875q-2.625 0 -4.15625 -1.8125q-1.515625 -1.8125 -1.515625 -4.640625l0 -0.25zm2.296875 0.25q0 2.015625 0.84375 3.328125q0.859375 1.3125 2.53125 1.3125q1.640625 0 2.5 -1.3125q0.859375 -1.3125 0.859375 -3.328125l0 -0.25q0 -2.0 -0.859375 -3.3125q-0.859375 -1.328125 -2.515625 -1.328125q-1.671875 0 -2.515625 1.328125q-0.84375 1.3125 -0.84375 3.3125l0 0.25zm20.855469 -2.5l-1.734375 0l-0.375 -1.515625q-0.421875 -0.40625 -1.0625 -0.640625q-0.640625 -0.234375 -1.453125 -0.234375q-1.21875 0 -1.828125 0.546875q-0.59375 0.53125 -0.59375 1.28125q0 0.75 0.53125 1.1875q0.53125 0.4375 2.140625 0.78125q2.40625 0.515625 3.578125 1.40625q1.171875 0.875 1.171875 2.359375q0 1.6875 -1.375 2.734375q-1.359375 1.046875 -3.5625 1.046875q-1.4375 0 -2.59375 -0.328125q-1.140625 -0.34375 -2.046875 -0.984375l-0.015625 -2.890625l1.734375 0l0.4375 1.703125q0.40625 0.359375 1.078125 0.53125q0.6875 0.15625 1.40625 0.15625q1.234375 0 1.921875 -0.5q0.703125 -0.5 0.703125 -1.296875q0 -0.765625 -0.578125 -1.25q-0.578125 -0.5 -2.203125 -0.859375q-2.296875 -0.515625 -3.46875 -1.375q-1.171875 -0.875 -1.171875 -2.34375q0 -1.546875 1.3125 -2.640625q1.3125 -1.09375 3.421875 -1.09375q1.453125 0 2.59375 0.375q1.15625 0.375 1.90625 1.046875l0.125 2.796875zm6.5625 -7.03125l0 3.046875l2.40625 0l0 1.71875l-2.40625 0l0 7.703125q0 0.890625 0.359375 1.25q0.375 0.359375 0.984375 0.359375q0.3125 0 0.6875 -0.046875q0.375 -0.0625 0.640625 -0.109375l0.3125 1.578125q-0.328125 0.203125 -0.96875 0.34375q-0.625 0.140625 -1.25 0.140625q-1.40625 0 -2.25 -0.84375q-0.828125 -0.859375 -0.828125 -2.671875l0 -7.703125l-2.0 0l0 -1.71875l2.0 0l0 -3.046875l2.3125 0zm11.2421875 9.421875l-5.71875 0l0 -1.796875l5.71875 0l0 1.796875zm12.558594 -2.390625l-1.734375 0l-0.375 -1.515625q-0.421875 -0.40625 -1.0625 -0.640625q-0.640625 -0.234375 -1.453125 -0.234375q-1.21875 0 -1.828125 0.546875q-0.59375 0.53125 -0.59375 1.28125q0 0.75 0.53125 1.1875q0.53125 0.4375 2.140625 0.78125q2.40625 0.515625 3.578125 1.40625q1.171875 0.875 1.171875 2.359375q0 1.6875 -1.375 2.734375q-1.359375 1.046875 -3.5625 1.046875q-1.4375 0 -2.59375 -0.328125q-1.140625 -0.34375 -2.046875 -0.984375l-0.015625 -2.890625l1.734375 0l0.4375 1.703125q0.40625 0.359375 1.078125 0.53125q0.6875 0.15625 1.40625 0.15625q1.234375 0 1.921875 -0.5q0.703125 -0.5 0.703125 -1.296875q0 -0.765625 -0.578125 -1.25q-0.578125 -0.5 -2.203125 -0.859375q-2.296875 -0.515625 -3.46875 -1.375q-1.171875 -0.875 -1.171875 -2.34375q0 -1.546875 1.3125 -2.640625q1.3125 -1.09375 3.421875 -1.09375q1.453125 0 2.59375 0.375q1.15625 0.375 1.90625 1.046875l0.125 2.796875zm11.59375 6.828125q-0.59375 1.015625 -1.546875 1.578125q-0.9375 0.546875 -2.15625 0.546875q-2.0625 0 -3.234375 -1.328125q-1.15625 -1.328125 -1.15625 -4.125l0 -5.65625l-1.453125 -0.328125l0 -1.5l1.453125 0l2.3125 0l0 7.5q0 2.03125 0.59375 2.796875q0.59375 0.765625 1.859375 0.765625q1.234375 0 2.03125 -0.5q0.8125 -0.5 1.21875 -1.421875l0 -7.3125l-1.703125 -0.328125l0 -1.5l1.703125 0l2.3125 0l0 10.875l1.453125 0.328125l0 1.484375l-3.53125 0l-0.15625 -1.875zm17.109375 -3.984375q0 2.734375 -1.3125 4.421875q-1.3125 1.6875 -3.625 1.6875q-1.25 0 -2.171875 -0.46875q-0.90625 -0.484375 -1.515625 -1.40625l-0.203125 1.625l-2.0 0l0 -16.46875l-1.90625 -0.328125l0 -1.484375l4.21875 0l0 7.09375q0.59375 -0.84375 1.484375 -1.28125q0.890625 -0.453125 2.0625 -0.453125q2.34375 0 3.65625 1.875q1.3125 1.875 1.3125 4.9375l0 0.25zm-2.3125 -0.25q0 -2.1875 -0.796875 -3.5625q-0.796875 -1.375 -2.4375 -1.375q-1.0625 0 -1.796875 0.515625q-0.734375 0.515625 -1.171875 1.390625l0 5.59375q0.4375 0.890625 1.171875 1.40625q0.75 0.515625 1.8125 0.515625q1.640625 0 2.421875 -1.15625q0.796875 -1.171875 0.796875 -3.078125l0 -0.25zm4.1640625 4.625l1.90625 -0.328125l0 -9.046875l-1.90625 -0.328125l0 -1.5l3.984375 0l0.140625 1.65625q0.609375 -0.90625 1.5625 -1.390625q0.96875 -0.5 2.234375 -0.5q1.265625 0 2.171875 0.59375q0.921875 0.578125 1.375 1.75q0.59375 -1.078125 1.578125 -1.703125q0.984375 -0.640625 2.296875 -0.640625q1.953125 0 3.078125 1.34375q1.125 1.328125 1.125 4.0l0 5.765625l1.90625 0.328125l0 1.484375l-6.140625 0l0 -1.484375l1.90625 -0.328125l0 -5.796875q0 -1.875 -0.640625 -2.65625q-0.640625 -0.78125 -1.90625 -0.78125q-1.21875 0 -1.953125 0.859375q-0.71875 0.84375 -0.84375 2.140625l0 6.234375l1.90625 0.328125l0 1.484375l-6.125 0l0 -1.484375l1.90625 -0.328125l0 -5.796875q0 -1.78125 -0.65625 -2.609375q-0.65625 -0.828125 -1.921875 -0.828125q-1.046875 0 -1.734375 0.4375q-0.671875 0.4375 -1.03125 1.21875l0 7.578125l1.90625 0.328125l0 1.484375l-6.125 0l0 -1.484375zm23.128906 0l1.90625 -0.328125l0 -9.046875l-1.90625 -0.328125l0 -1.5l4.21875 0l0 10.875l1.90625 0.328125l0 1.484375l-6.125 0l0 -1.484375zm4.21875 -14.4375l-2.3125 0l0 -2.359375l2.3125 0l0 2.359375zm7.6992188 0.1875l0 3.046875l2.40625 0l0 1.71875l-2.40625 0l0 7.703125q0 0.890625 0.359375 1.25q0.375 0.359375 0.984375 0.359375q0.3125 0 0.6875 -0.046875q0.375 -0.0625 0.640625 -0.109375l0.3125 1.578125q-0.328125 0.203125 -0.96875 0.34375q-0.625 0.140625 -1.25 0.140625q-1.40625 0 -2.25 -0.84375q-0.828125 -0.859375 -0.828125 -2.671875l0 -7.703125l-2.0 0l0 -1.71875l2.0 0l0 -3.046875l2.3125 0z" fill-rule="nonzero"></path><path fill="#e6b8af" d="m904.63 31.191904l0 0c0 -8.346771 6.7663574 -15.113163 15.113159 -15.113163l140.26184 0c4.008301 0 7.852295 1.5922737 10.6866455 4.4265423c2.8342285 2.8342686 4.4265137 6.67836 4.4265137 10.686621l0 60.450844c0 8.346764 -6.7663574 15.113159 -15.113159 15.113159l-140.26184 0c-8.346802 0 -15.113159 -6.7663956 -15.113159 -15.113159z" fill-rule="evenodd"></path><path stroke="#dd7e6b" stroke-width="3.0" stroke-linejoin="round" stroke-linecap="butt" d="m904.63 31.191904l0 0c0 -8.346771 6.7663574 -15.113163 15.113159 -15.113163l140.26184 0c4.008301 0 7.852295 1.5922737 10.6866455 4.4265423c2.8342285 2.8342686 4.4265137 6.67836 4.4265137 10.686621l0 60.450844c0 8.346764 -6.7663574 15.113159 -15.113159 15.113159l-140.26184 0c-8.346802 0 -15.113159 -6.7663956 -15.113159 -15.113159z" fill-rule="evenodd"></path><path fill="#000000" d="m928.60065 52.89482q3.34375 0 5.375 2.0625q2.03125 2.046875 2.03125 5.3125l0 2.328125q0 3.265625 -2.03125 5.3125q-2.03125 2.046875 -5.375 2.046875l-7.15625 0l0 -1.484375l1.921875 -0.328125l0 -13.4375l-1.921875 -0.328125l0 -1.484375l1.921875 0l5.234375 0zm-2.9375 1.8125l0 13.4375l2.9375 0q2.359375 0 3.71875 -1.546875q1.375 -1.5625 1.375 -4.0l0 -2.359375q0 -2.40625 -1.375 -3.96875q-1.359375 -1.5625 -3.71875 -1.5625l-2.9375 0zm18.410156 15.5q-2.640625 0 -4.203125 -1.765625q-1.5625 -1.765625 -1.5625 -4.578125l0 -0.515625q0 -2.703125 1.609375 -4.5q1.609375 -1.8125 3.8125 -1.8125q2.546875 0 3.859375 1.546875q1.328125 1.546875 1.328125 4.125l0 1.453125l-8.21875 0l-0.046875 0.046875q0.046875 1.828125 0.9375 3.015625q0.890625 1.171875 2.484375 1.171875q1.171875 0 2.0625 -0.328125q0.890625 -0.34375 1.53125 -0.921875l0.90625 1.5q-0.6875 0.65625 -1.8125 1.109375q-1.109375 0.453125 -2.6875 0.453125zm-0.34375 -11.34375q-1.15625 0 -1.984375 0.984375q-0.8125 0.96875 -1.0 2.4375l0.015625 0.0625l5.84375 0l0 -0.296875q0 -1.359375 -0.734375 -2.265625q-0.71875 -0.921875 -2.140625 -0.921875zm7.1835938 14.484375l1.90625 -0.328125l0 -13.921875l-1.90625 -0.328125l0 -1.5l3.890625 0l0.203125 1.546875q0.640625 -0.859375 1.546875 -1.3125q0.90625 -0.46875 2.109375 -0.46875q2.34375 0 3.65625 1.875q1.3125 1.875 1.3125 4.9375l0 0.25q0 2.734375 -1.3125 4.421875q-1.3125 1.6875 -3.625 1.6875q-1.171875 0 -2.0625 -0.390625q-0.875 -0.40625 -1.5 -1.171875l0 4.375l1.90625 0.328125l0 1.484375l-6.125 0l0 -1.484375zm10.390625 -9.5q0 -2.171875 -0.84375 -3.546875q-0.84375 -1.390625 -2.5 -1.390625q-0.984375 0 -1.6875 0.453125q-0.703125 0.4375 -1.140625 1.21875l0 6.171875q0.4375 0.78125 1.125 1.21875q0.703125 0.421875 1.71875 0.421875q1.640625 0 2.484375 -1.1875q0.84375 -1.203125 0.84375 -3.109375l0 -0.25zm4.109375 -10.6875l0 -1.484375l4.21875 0l0 16.46875l1.90625 0.328125l0 1.484375l-6.125 0l0 -1.484375l1.90625 -0.328125l0 -14.65625l-1.90625 -0.328125zm7.8867188 10.34375q0 -2.8125 1.515625 -4.640625q1.53125 -1.828125 4.140625 -1.828125q2.625 0 4.15625 1.828125q1.53125 1.8125 1.53125 4.640625l0 0.25q0 2.84375 -1.53125 4.65625q-1.515625 1.796875 -4.140625 1.796875q-2.625 0 -4.15625 -1.8125q-1.515625 -1.8125 -1.515625 -4.640625l0 -0.25zm2.296875 0.25q0 2.015625 0.84375 3.328125q0.859375 1.3125 2.53125 1.3125q1.640625 0 2.5 -1.3125q0.859375 -1.3125 0.859375 -3.328125l0 -0.25q0 -2.0 -0.859375 -3.3125q-0.859375 -1.328125 -2.515625 -1.328125q-1.671875 0 -2.515625 1.328125q-0.84375 1.3125 -0.84375 3.3125l0 0.25zm23.199219 -4.984375l-1.140625 0.171875l-4.828125 12.96875q-0.484375 1.265625 -1.390625 2.21875q-0.890625 0.953125 -2.421875 0.953125q-0.265625 0 -0.703125 -0.0625q-0.421875 -0.0625 -0.65625 -0.125l0.234375 -1.8125q-0.078125 -0.015625 0.40625 0.015625q0.484375 0.03125 0.625 0.03125q0.734375 0 1.1875 -0.640625q0.453125 -0.625 0.796875 -1.46875l0.546875 -1.3125l-4.171875 -10.75l-1.171875 -0.1875l0 -1.5l5.125 0l0 1.5l-1.421875 0.234375l2.1875 6.25l0.421875 1.625l0.0625 0l2.640625 -7.875l-1.4375 -0.234375l0 -1.5l5.109375 0l0 1.5zm1.1171875 9.703125l1.90625 -0.328125l0 -9.046875l-1.90625 -0.328125l0 -1.5l3.984375 0l0.140625 1.65625q0.609375 -0.90625 1.5625 -1.390625q0.96875 -0.5 2.234375 -0.5q1.265625 0 2.171875 0.59375q0.921875 0.578125 1.375 1.75q0.59375 -1.078125 1.578125 -1.703125q0.984375 -0.640625 2.296875 -0.640625q1.953125 0 3.078125 1.34375q1.125 1.328125 1.125 4.0l0 5.765625l1.90625 0.328125l0 1.484375l-6.140625 0l0 -1.484375l1.90625 -0.328125l0 -5.796875q0 -1.875 -0.640625 -2.65625q-0.640625 -0.78125 -1.90625 -0.78125q-1.21875 0 -1.953125 0.859375q-0.71875 0.84375 -0.84375 2.140625l0 6.234375l1.90625 0.328125l0 1.484375l-6.125 0l0 -1.484375l1.90625 -0.328125l0 -5.796875q0 -1.78125 -0.65625 -2.609375q-0.65625 -0.828125 -1.921875 -0.828125q-1.046875 0 -1.734375 0.4375q-0.671875 0.4375 -1.03125 1.21875l0 7.578125l1.90625 0.328125l0 1.484375l-6.125 0l0 -1.484375zm28.910095 1.734375q-2.640625 0 -4.203125 -1.765625q-1.562439 -1.765625 -1.562439 -4.578125l0 -0.515625q0 -2.703125 1.609314 -4.5q1.609375 -1.8125 3.8125 -1.8125q2.546875 0 3.859375 1.546875q1.328125 1.546875 1.328125 4.125l0 1.453125l-8.21875 0l-0.046875 0.046875q0.046875 1.828125 0.9375 3.015625q0.890625 1.171875 2.484375 1.171875q1.171875 0 2.0625 -0.328125q0.890625 -0.34375 1.53125 -0.921875l0.90625 1.5q-0.6875 0.65625 -1.8125 1.109375q-1.109375 0.453125 -2.6875 0.453125zm-0.34375 -11.34375q-1.15625 0 -1.984375 0.984375q-0.8125 0.96875 -1.0 2.4375l0.015625 0.0625l5.84375 0l0 -0.296875q0 -1.359375 -0.734375 -2.265625q-0.71875 -0.921875 -2.140625 -0.921875zm7.1210938 9.609375l1.90625 -0.328125l0 -9.046875l-1.90625 -0.328125l0 -1.5l3.96875 0l0.171875 1.890625q0.625 -1.0 1.578125 -1.5625q0.96875 -0.5625 2.1875 -0.5625q2.046875 0 3.171875 1.203125q1.125 1.203125 1.125 3.71875l0 6.1875l1.90625 0.328125l0 1.484375l-6.125 0l0 -1.484375l1.90625 -0.328125l0 -6.140625q0 -1.6875 -0.671875 -2.390625q-0.65625 -0.703125 -2.015625 -0.703125q-0.984375 0 -1.765625 0.484375q-0.765625 0.484375 -1.21875 1.3125l0 7.4375l1.90625 0.328125l0 1.484375l-6.125 0l0 -1.484375zm19.820312 -14.25l0 3.046875l2.40625 0l0 1.71875l-2.40625 0l0 7.703125q0 0.890625 0.359375 1.25q0.375 0.359375 0.984375 0.359375q0.3125 0 0.6875 -0.046875q0.375 -0.0625 0.640625 -0.109375l0.3125 1.578125q-0.328125 0.203125 -0.96875 0.34375q-0.625 0.140625 -1.25 0.140625q-1.40625 0 -2.25 -0.84375q-0.828125 -0.859375 -0.828125 -2.671875l0 -7.703125l-2.0 0l0 -1.71875l2.0 0l0 -3.046875l2.3125 0z" fill-rule="nonzero"></path><path fill="#ffffff" d="m207.6905 191.69203l0 0c0 -8.346756 6.766388 -15.113159 15.113159 -15.113159l140.26186 0c4.0082703 0 7.852356 1.5922699 10.686615 4.426544c2.8342896 2.8342743 4.426544 6.67836 4.426544 10.686615l0 60.45085c0 8.346771 -6.766388 15.113159 -15.113159 15.113159l-140.26186 0c-8.346771 0 -15.113159 -6.766388 -15.113159 -15.113159z" fill-rule="evenodd"></path><path stroke="#c9daf8" stroke-width="3.0" stroke-linejoin="round" stroke-linecap="butt" d="m207.6905 191.69203l0 0c0 -8.346756 6.766388 -15.113159 15.113159 -15.113159l140.26186 0c4.0082703 0 7.852356 1.5922699 10.686615 4.426544c2.8342896 2.8342743 4.426544 6.67836 4.426544 10.686615l0 60.45085c0 8.346771 -6.766388 15.113159 -15.113159 15.113159l-140.26186 0c-8.346771 0 -15.113159 -6.766388 -15.113159 -15.113159z" fill-rule="evenodd"></path><path fill="#000000" d="m262.29007 198.89496q2.734375 0 4.25 1.40625q1.515625 1.40625 1.515625 3.703125q0 2.3125 -1.515625 3.71875q-1.515625 1.390625 -4.25 1.390625l-3.625 0l0 5.03125l1.921875 0.328125l0 1.484375l-6.1406403 0l0 -1.484375l1.9218903 -0.328125l0 -13.4375l-1.9218903 -0.328125l0 -1.484375l1.9218903 0l5.921875 0zm-3.625 8.40625l3.625 0q1.734375 0 2.59375 -0.921875q0.859375 -0.9375 0.859375 -2.359375q0 -1.40625 -0.859375 -2.359375q-0.859375 -0.953125 -2.59375 -0.953125l-3.625 0l0 6.59375zm17.027344 8.90625q-2.640625 0 -4.203125 -1.765625q-1.5625 -1.765625 -1.5625 -4.578125l0 -0.515625q0 -2.703125 1.609375 -4.5q1.609375 -1.8125 3.8125 -1.8125q2.546875 0 3.859375 1.546875q1.328125 1.546875 1.328125 4.125l0 1.453125l-8.21875 0l-0.046875 0.046875q0.046875 1.828125 0.9375 3.015625q0.890625 1.171875 2.484375 1.171875q1.171875 0 2.0625 -0.328125q0.890625 -0.34375 1.53125 -0.921875l0.90625 1.5q-0.6875 0.65625 -1.8125 1.109375q-1.109375 0.453125 -2.6875 0.453125zm-0.34375 -11.34375q-1.15625 0 -1.984375 0.984375q-0.8125 0.96875 -1.0 2.4375l0.015625 0.0625l5.84375 0l0 -0.296875q0 -1.359375 -0.734375 -2.265625q-0.71875 -0.921875 -2.140625 -0.921875zm13.246094 11.34375q-2.640625 0 -4.203125 -1.765625q-1.5625 -1.765625 -1.5625 -4.578125l0 -0.515625q0 -2.703125 1.609375 -4.5q1.609375 -1.8125 3.8125 -1.8125q2.546875 0 3.859375 1.546875q1.328125 1.546875 1.328125 4.125l0 1.453125l-8.21875 0l-0.046875 0.046875q0.046875 1.828125 0.9375 3.015625q0.890625 1.171875 2.484375 1.171875q1.171875 0 2.0625 -0.328125q0.890625 -0.34375 1.53125 -0.921875l0.90625 1.5q-0.6875 0.65625 -1.8125 1.109375q-1.109375 0.453125 -2.6875 0.453125zm-0.34375 -11.34375q-1.15625 0 -1.984375 0.984375q-0.8125 0.96875 -1.0 2.4375l0.015625 0.0625l5.84375 0l0 -0.296875q0 -1.359375 -0.734375 -2.265625q-0.71875 -0.921875 -2.140625 -0.921875zm7.4648438 -0.09375l0 -1.5l3.96875 0l0.21875 1.84375q0.546875 -0.96875 1.328125 -1.515625q0.796875 -0.5625 1.8125 -0.5625q0.28125 0 0.5625 0.046875q0.28125 0.046875 0.4375 0.09375l-0.296875 2.140625l-1.3125 -0.078125q-0.921875 0 -1.546875 0.4375q-0.609375 0.421875 -0.953125 1.203125l0 7.265625l1.90625 0.328125l0 1.484375l-6.125 0l0 -1.484375l1.90625 -0.328125l0 -9.046875l-1.90625 -0.328125zm10.222656 4.265625q0 -4.625 1.859375 -7.890625q1.859375 -3.265625 3.90625 -4.359375l0.078125 0.015625l0.4375 1.359375q-1.609375 1.25 -2.796875 4.015625q-1.1875 2.765625 -1.1875 6.828125l0 0.15625q0 4.078125 1.171875 6.828125q1.1875 2.765625 2.8125 4.125l-0.4375 1.265625l-0.078125 0q-2.046875 -1.078125 -3.90625 -4.34375q-1.859375 -3.265625 -1.859375 -7.90625l0 -0.09375zm17.164062 -1.78125l-1.734375 0l-0.375 -1.515625q-0.421875 -0.40625 -1.0625 -0.640625q-0.640625 -0.234375 -1.453125 -0.234375q-1.21875 0 -1.828125 0.546875q-0.59375 0.53125 -0.59375 1.28125q0 0.75 0.53125 1.1875q0.53125 0.4375 2.140625 0.78125q2.40625 0.515625 3.578125 1.40625q1.171875 0.875 1.171875 2.359375q0 1.6875 -1.375 2.734375q-1.359375 1.046875 -3.5625 1.046875q-1.4375 0 -2.59375 -0.328125q-1.140625 -0.34375 -2.046875 -0.984375l-0.015625 -2.890625l1.734375 0l0.4375 1.703125q0.40625 0.359375 1.078125 0.53125q0.6875 0.15625 1.40625 0.15625q1.234375 0 1.921875 -0.5q0.703125 -0.5 0.703125 -1.296875q0 -0.765625 -0.578125 -1.25q-0.578125 -0.5 -2.203125 -0.859375q-2.296875 -0.515625 -3.46875 -1.375q-1.171875 -0.875 -1.171875 -2.34375q0 -1.546875 1.3125 -2.640625q1.3125 -1.09375 3.421875 -1.09375q1.453125 0 2.59375 0.375q1.15625 0.375 1.90625 1.046875l0.125 2.796875zm7.890625 1.875q0 4.640625 -1.875 7.90625q-1.859375 3.265625 -3.890625 4.34375l-0.078125 0l-0.4375 -1.265625q1.59375 -1.21875 2.78125 -4.046875q1.203125 -2.8125 1.203125 -6.90625l0 -0.15625q0 -4.015625 -1.234375 -6.84375q-1.234375 -2.828125 -2.75 -4.109375l0.4375 -1.265625l0.078125 0q2.03125 1.09375 3.890625 4.359375q1.875 3.265625 1.875 7.890625l0 0.09375z" fill-rule="nonzero"></path><path fill="#000000" d="m259.67874 227.91058q2.78125 0 4.265625 1.234375q1.5 1.234375 1.5 3.5q0 1.25 -0.703125 2.21875q-0.6875 0.953125 -1.96875 1.5q1.390625 0.453125 2.0 1.484375q0.625 1.03125 0.625 2.546875l0 1.375q0 0.78125 0.1875 1.15625q0.203125 0.375 0.65625 0.453125l0.5625 0.0625l0 1.515625l-1.234375 0q-1.34375 0 -1.921875 -0.9375q-0.5625 -0.9375 -0.5625 -2.28125l0 -1.3125q0 -1.40625 -0.8125 -2.25q-0.8125 -0.84375 -2.171875 -0.84375l-3.703125 0l0 5.8125l1.921875 0.328125l0 1.484375l-6.1406403 0l0 -1.484375l1.921875 -0.328125l0 -13.4375l-1.921875 -0.328125l0 -1.46875l1.921875 0l5.5781403 0zm-3.28125 7.609375l3.046875 0q1.921875 0 2.796875 -0.734375q0.890625 -0.734375 0.890625 -2.15625q0 -1.34375 -0.84375 -2.125q-0.84375 -0.796875 -2.609375 -0.796875l-3.28125 0l0 5.8125zm18.023438 9.6875q-2.640625 0 -4.203125 -1.765625q-1.5625 -1.765625 -1.5625 -4.578125l0 -0.515625q0 -2.703125 1.609375 -4.5q1.609375 -1.8125 3.8125 -1.8125q2.546875 0 3.859375 1.546875q1.328125 1.546875 1.328125 4.125l0 1.453125l-8.21875 0l-0.046875 0.046875q0.046875 1.828125 0.9375 3.015625q0.890625 1.171875 2.484375 1.171875q1.171875 0 2.0625 -0.328125q0.890625 -0.34375 1.53125 -0.921875l0.90625 1.5q-0.6875 0.65625 -1.8125 1.109375q-1.109375 0.453125 -2.6875 0.453125zm-0.34375 -11.34375q-1.15625 0 -1.984375 0.984375q-0.8125 0.96875 -1.0 2.4375l0.015625 0.0625l5.84375 0l0 -0.296875q0 -1.359375 -0.734375 -2.265625q-0.71875 -0.921875 -2.140625 -0.921875zm11.808594 -0.09375l-1.515625 0.234375l2.609375 7.21875l0.203125 0.90625l0.078125 0l0.21875 -0.90625l2.53125 -7.21875l-1.53125 -0.234375l0 -1.5l4.890625 0l0 1.5l-1.03125 0.171875l-4.265625 11.015625l-1.734375 0l-4.3125 -11.015625l-1.03125 -0.171875l0 -1.5l4.890625 0l0 1.5zm9.050781 9.703125l1.90625 -0.328125l0 -9.046875l-1.90625 -0.328125l0 -1.5l4.21875 0l0 10.875l1.90625 0.328125l0 1.484375l-6.125 0l0 -1.484375zm4.21875 -14.4375l-2.3125 0l0 -2.359375l2.3125 0l0 2.359375zm9.449219 16.171875q-2.640625 0 -4.203125 -1.765625q-1.5625 -1.765625 -1.5625 -4.578125l0 -0.515625q0 -2.703125 1.609375 -4.5q1.609375 -1.8125 3.8125 -1.8125q2.546875 0 3.859375 1.546875q1.328125 1.546875 1.328125 4.125l0 1.453125l-8.21875 0l-0.046875 0.046875q0.046875 1.828125 0.9375 3.015625q0.890625 1.171875 2.484375 1.171875q1.171875 0 2.0625 -0.328125q0.890625 -0.34375 1.53125 -0.921875l0.90625 1.5q-0.6875 0.65625 -1.8125 1.109375q-1.109375 0.453125 -2.6875 0.453125zm-0.34375 -11.34375q-1.15625 0 -1.984375 0.984375q-0.8125 0.96875 -1.0 2.4375l0.015625 0.0625l5.84375 0l0 -0.296875q0 -1.359375 -0.734375 -2.265625q-0.71875 -0.921875 -2.140625 -0.921875zm11.964844 -0.09375l-1.453125 0.25l1.65625 6.3125l0.265625 1.546875l0.0625 0l0.328125 -1.546875l2.53125 -8.0625l1.859375 0l2.546875 8.0625l0.359375 1.71875l0.0625 0l0.34375 -1.71875l1.5625 -6.3125l-1.484375 -0.25l0 -1.5l4.828125 0l0 1.5l-1.09375 0.15625l-3.203125 11.03125l-1.859375 0l-2.46875 -7.71875l-0.515625 -2.140625l-0.078125 0.015625l-0.484375 2.125l-2.421875 7.71875l-1.859375 0l-3.203125 -11.03125l-1.109375 -0.15625l0 -1.5l4.828125 0l0 1.5z" fill-rule="nonzero"></path><path fill="#e6b8af" d="m432.19385 191.69203l0 0c0 -8.346756 6.766388 -15.113159 15.113159 -15.113159l140.2619 0c4.0082397 0 7.852356 1.5922699 10.686584 4.426544c2.8342896 2.8342743 4.4265747 6.67836 4.4265747 10.686615l0 60.45085c0 8.346771 -6.7664185 15.113159 -15.113159 15.113159l-140.2619 0c-8.346771 0 -15.113159 -6.766388 -15.113159 -15.113159z" fill-rule="evenodd"></path><path stroke="#dd7e6b" stroke-width="3.0" stroke-linejoin="round" stroke-linecap="butt" d="m432.19385 191.69203l0 0c0 -8.346756 6.766388 -15.113159 15.113159 -15.113159l140.2619 0c4.0082397 0 7.852356 1.5922699 10.686584 4.426544c2.8342896 2.8342743 4.4265747 6.67836 4.4265747 10.686615l0 60.45085c0 8.346771 -6.7664185 15.113159 -15.113159 15.113159l-140.2619 0c-8.346771 0 -15.113159 -6.766388 -15.113159 -15.113159z" fill-rule="evenodd"></path><path fill="#000000" d="m462.37155 213.39496q2.734375 0 4.25 1.40625q1.515625 1.40625 1.515625 3.703125q0 2.3125 -1.515625 3.71875q-1.515625 1.390625 -4.25 1.390625l-3.625 0l0 5.03125l1.921875 0.328125l0 1.484375l-6.140625 0l0 -1.484375l1.921875 -0.328125l0 -13.4375l-1.921875 -0.328125l0 -1.484375l1.921875 0l5.921875 0zm-3.625 8.40625l3.625 0q1.734375 0 2.59375 -0.921875q0.859375 -0.9375 0.859375 -2.359375q0 -1.40625 -0.859375 -2.359375q-0.859375 -0.953125 -2.59375 -0.953125l-3.625 0l0 6.59375zm11.246094 -2.53125l0 -1.5l3.96875 0l0.21875 1.84375q0.546875 -0.96875 1.328125 -1.515625q0.796875 -0.5625 1.8125 -0.5625q0.28125 0 0.5625 0.046875q0.28125 0.046875 0.4375 0.09375l-0.296875 2.140625l-1.3125 -0.078125q-0.921875 0 -1.546875 0.4375q-0.609375 0.421875 -0.953125 1.203125l0 7.265625l1.90625 0.328125l0 1.484375l-6.125 0l0 -1.484375l1.90625 -0.328125l0 -9.046875l-1.90625 -0.328125zm15.707031 11.4375q-2.640625 0 -4.203125 -1.765625q-1.5625 -1.765625 -1.5625 -4.578125l0 -0.515625q0 -2.703125 1.609375 -4.5q1.609375 -1.8125 3.8125 -1.8125q2.546875 0 3.859375 1.546875q1.328125 1.546875 1.328125 4.125l0 1.453125l-8.21875 0l-0.046875 0.046875q0.046875 1.828125 0.9375 3.015625q0.890625 1.171875 2.484375 1.171875q1.171875 0 2.0625 -0.328125q0.890625 -0.34375 1.53125 -0.921875l0.90625 1.5q-0.6875 0.65625 -1.8125 1.109375q-1.109375 0.453125 -2.6875 0.453125zm-0.34375 -11.34375q-1.15625 0 -1.984375 0.984375q-0.8125 0.96875 -1.0 2.4375l0.015625 0.0625l5.84375 0l0 -0.296875q0 -1.359375 -0.734375 -2.265625q-0.71875 -0.921875 -2.140625 -0.921875zm13.949219 4.78125l-5.71875 0l0 -1.796875l5.71875 0l0 1.796875zm12.558594 -2.390625l-1.734375 0l-0.375 -1.515625q-0.421875 -0.40625 -1.0625 -0.640625q-0.640625 -0.234375 -1.453125 -0.234375q-1.21875 0 -1.828125 0.546875q-0.59375 0.53125 -0.59375 1.28125q0 0.75 0.53125 1.1875q0.53125 0.4375 2.140625 0.78125q2.40625 0.515625 3.578125 1.40625q1.1718445 0.875 1.1718445 2.359375q0 1.6875 -1.3749695 2.734375q-1.359375 1.046875 -3.5625 1.046875q-1.4375 0 -2.59375 -0.328125q-1.140625 -0.34375 -2.046875 -0.984375l-0.015625 -2.890625l1.734375 0l0.4375 1.703125q0.40625 0.359375 1.078125 0.53125q0.6875 0.15625 1.40625 0.15625q1.234375 0 1.921875 -0.5q0.703125 -0.5 0.703125 -1.296875q0 -0.765625 -0.578125 -1.25q-0.578125 -0.5 -2.203125 -0.859375q-2.296875 -0.515625 -3.46875 -1.375q-1.171875 -0.875 -1.171875 -2.34375q0 -1.546875 1.3125 -2.640625q1.3125 -1.09375 3.421875 -1.09375q1.453125 0 2.59375 0.375q1.15625 0.375 1.90625 1.046875l0.125 2.796875zm11.5937195 6.828125q-0.59375 1.015625 -1.546875 1.578125q-0.9375 0.546875 -2.15625 0.546875q-2.0625 0 -3.234375 -1.328125q-1.15625 -1.328125 -1.15625 -4.125l0 -5.65625l-1.453125 -0.328125l0 -1.5l1.453125 0l2.3125 0l0 7.5q0 2.03125 0.59375 2.796875q0.59375 0.765625 1.859375 0.765625q1.234375 0 2.03125 -0.5q0.8125 -0.5 1.21875 -1.421875l0 -7.3125l-1.703125 -0.328125l0 -1.5l1.703125 0l2.3125 0l0 10.875l1.453125 0.328125l0 1.484375l-3.53125 0l-0.15625 -1.875zm17.109375 -3.984375q0 2.734375 -1.3125 4.421875q-1.3125 1.6875 -3.625 1.6875q-1.25 0 -2.171875 -0.46875q-0.90625 -0.484375 -1.515625 -1.40625l-0.203125 1.625l-2.0 0l0 -16.46875l-1.90625 -0.328125l0 -1.484375l4.21875 0l0 7.09375q0.59375 -0.84375 1.484375 -1.28125q0.890625 -0.453125 2.0625 -0.453125q2.34375 0 3.65625 1.875q1.3125 1.875 1.3125 4.9375l0 0.25zm-2.3125 -0.25q0 -2.1875 -0.796875 -3.5625q-0.796875 -1.375 -2.4375 -1.375q-1.0625 0 -1.796875 0.515625q-0.734375 0.515625 -1.171875 1.390625l0 5.59375q0.4375 0.890625 1.171875 1.40625q0.75 0.515625 1.8125 0.515625q1.640625 0 2.421875 -1.15625q0.796875 -1.171875 0.796875 -3.078125l0 -0.25zm4.1640625 4.625l1.90625 -0.328125l0 -9.046875l-1.90625 -0.328125l0 -1.5l3.984375 0l0.140625 1.65625q0.609375 -0.90625 1.5625 -1.390625q0.96875 -0.5 2.234375 -0.5q1.265625 0 2.171875 0.59375q0.921875 0.578125 1.375 1.75q0.59375 -1.078125 1.578125 -1.703125q0.984375 -0.640625 2.296875 -0.640625q1.953125 0 3.078125 1.34375q1.125 1.328125 1.125 4.0l0 5.765625l1.90625 0.328125l0 1.484375l-6.140625 0l0 -1.484375l1.90625 -0.328125l0 -5.796875q0 -1.875 -0.640625 -2.65625q-0.640625 -0.78125 -1.90625 -0.78125q-1.21875 0 -1.953125 0.859375q-0.71875 0.84375 -0.84375 2.140625l0 6.234375l1.90625 0.328125l0 1.484375l-6.125 0l0 -1.484375l1.90625 -0.328125l0 -5.796875q0 -1.78125 -0.65625 -2.609375q-0.65625 -0.828125 -1.921875 -0.828125q-1.046875 0 -1.734375 0.4375q-0.671875 0.4375 -1.03125 1.21875l0 7.578125l1.90625 0.328125l0 1.484375l-6.125 0l0 -1.484375zm23.128906 0l1.90625 -0.328125l0 -9.046875l-1.90625 -0.328125l0 -1.5l4.21875 0l0 10.875l1.90625 0.328125l0 1.484375l-6.125 0l0 -1.484375zm4.21875 -14.4375l-2.3125 0l0 -2.359375l2.3125 0l0 2.359375zm7.6992188 0.1875l0 3.046875l2.40625 0l0 1.71875l-2.40625 0l0 7.703125q0 0.890625 0.359375 1.25q0.375 0.359375 0.984375 0.359375q0.3125 0 0.6875 -0.046875q0.375 -0.0625 0.640625 -0.109375l0.3125 1.578125q-0.328125 0.203125 -0.96875 0.34375q-0.625 0.140625 -1.25 0.140625q-1.40625 0 -2.25 -0.84375q-0.828125 -0.859375 -0.828125 -2.671875l0 -7.703125l-2.0 0l0 -1.71875l2.0 0l0 -3.046875l2.3125 0z" fill-rule="nonzero"></path><path fill="#000000" fill-opacity="0.0" d="m191.86351 61.417324l123.93703 0" fill-rule="evenodd"></path><path stroke="#3c78d8" stroke-width="4.0" stroke-linejoin="round" stroke-linecap="butt" d="m191.86351 61.417324l99.93703 0" fill-rule="evenodd"></path><path fill="#3c78d8" stroke="#3c78d8" stroke-width="4.0" stroke-linecap="butt" d="m291.80054 68.024254l18.152374 -6.60693l-18.152374 -6.60693z" fill-rule="evenodd"></path><path fill="#000000" fill-opacity="0.0" d="m486.28174 61.417324l123.93701 0" fill-rule="evenodd"></path><path stroke="#434343" stroke-width="4.0" stroke-linejoin="round" stroke-linecap="butt" d="m486.28174 61.417324l99.93701 0" fill-rule="evenodd"></path><path fill="#434343" stroke="#434343" stroke-width="4.0" stroke-linecap="butt" d="m586.21875 68.024254l18.152405 -6.60693l-18.152405 -6.60693z" fill-rule="evenodd"></path><path fill="#000000" fill-opacity="0.0" d="m780.69995 61.417324l123.93701 0" fill-rule="evenodd"></path><path stroke="#3c78d8" stroke-width="4.0" stroke-linejoin="round" stroke-linecap="butt" d="m780.69995 61.417324l99.93701 0" fill-rule="evenodd"></path><path fill="#3c78d8" stroke="#3c78d8" stroke-width="4.0" stroke-linecap="butt" d="m880.63696 68.024254l18.152405 -6.60693l-18.152405 -6.60693z" fill-rule="evenodd"></path><path fill="#000000" fill-opacity="0.0" d="m184.04329 21.565582l139.55907 0l0 36.755905l-139.55907 0z" fill-rule="evenodd"></path><path fill="#666666" d="m220.64005 32.486034q2.390625 0 3.71875 1.234375q1.328125 1.234375 1.328125 3.25q0 2.03125 -1.328125 3.25q-1.328125 1.21875 -3.71875 1.21875l-3.171875 0l0 4.40625l1.671875 0.28125l0 1.296875l-5.359375 0l0 -1.296875l1.671875 -0.28125l0 -11.765625l-1.671875 -0.28125l0 -1.3125l1.671875 0l5.1875 0zm-3.171875 7.375l3.171875 0q1.515625 0 2.265625 -0.8125q0.75 -0.828125 0.75 -2.0625q0 -1.234375 -0.75 -2.0625q-0.75 -0.84375 -2.265625 -0.84375l-3.171875 0l0 5.78125zm10.033157 -2.234375l0 -1.296875l3.484375 0l0.1875 1.609375q0.484375 -0.859375 1.171875 -1.328125q0.6875 -0.484375 1.578125 -0.484375q0.234375 0 0.484375 0.03125q0.25 0.03125 0.390625 0.078125l-0.265625 1.875l-1.15625 -0.0625q-0.796875 0 -1.34375 0.375q-0.53125 0.375 -0.828125 1.046875l0 6.375l1.671875 0.28125l0 1.296875l-5.375 0l0 -1.296875l1.671875 -0.28125l0 -7.921875l-1.671875 -0.296875zm8.836395 4.140625q0 -2.453125 1.328125 -4.046875q1.34375 -1.59375 3.625 -1.59375q2.296875 0 3.625 1.59375q1.34375 1.578125 1.34375 4.046875l0 0.234375q0 2.484375 -1.328125 4.0625q-1.328125 1.578125 -3.625 1.578125q-2.296875 0 -3.640625 -1.578125q-1.328125 -1.59375 -1.328125 -4.0625l0 -0.234375zm2.015625 0.234375q0 1.765625 0.75 2.921875q0.75 1.140625 2.203125 1.140625q1.4375 0 2.1875 -1.140625q0.75 -1.15625 0.75 -2.921875l0 -0.234375q0 -1.734375 -0.75 -2.890625q-0.75 -1.15625 -2.203125 -1.15625q-1.453125 0 -2.203125 1.15625q-0.734375 1.15625 -0.734375 2.890625l0 0.234375zm9.700211 8.390625l1.671875 -0.296875l0 -12.171875l-1.671875 -0.296875l0 -1.296875l3.40625 0l0.171875 1.359375q0.5625 -0.765625 1.359375 -1.15625q0.796875 -0.40625 1.828125 -0.40625q2.0625 0 3.203125 1.640625q1.15625 1.625 1.15625 4.3125l0 0.21875q0 2.390625 -1.15625 3.875q-1.140625 1.46875 -3.171875 1.46875q-1.015625 0 -1.796875 -0.34375q-0.765625 -0.34375 -1.3125 -1.03125l0 3.828125l1.671875 0.296875l0 1.296875l-5.359375 0l0 -1.296875zm9.09375 -8.3125q0 -1.890625 -0.75 -3.09375q-0.734375 -1.21875 -2.1875 -1.21875q-0.859375 0 -1.484375 0.390625q-0.609375 0.390625 -0.984375 1.0625l0 5.40625q0.375 0.6875 0.984375 1.0625q0.609375 0.375 1.5 0.375q1.4375 0 2.171875 -1.046875q0.75 -1.046875 0.75 -2.71875l0 -0.21875zm4.069763 -0.3125q0 -2.453125 1.328125 -4.046875q1.34375 -1.59375 3.625 -1.59375q2.296875 0 3.625 1.59375q1.34375 1.578125 1.34375 4.046875l0 0.234375q0 2.484375 -1.328125 4.0625q-1.328125 1.578125 -3.625 1.578125q-2.296875 0 -3.640625 -1.578125q-1.328125 -1.59375 -1.328125 -4.0625l0 -0.234375zm2.015625 0.234375q0 1.765625 0.75 2.921875q0.75 1.140625 2.203125 1.140625q1.4375 0 2.1875 -1.140625q0.75 -1.15625 0.75 -2.921875l0 -0.234375q0 -1.734375 -0.75 -2.890625q-0.75 -1.15625 -2.203125 -1.15625q-1.453125 0 -2.203125 1.15625q-0.734375 1.15625 -0.734375 2.890625l0 0.234375zm18.43457 -2.1875l-1.515625 0l-0.328125 -1.328125q-0.375 -0.359375 -0.9375 -0.5625q-0.546875 -0.203125 -1.265625 -0.203125q-1.078125 0 -1.609375 0.46875q-0.515625 0.46875 -0.515625 1.140625q0 0.65625 0.453125 1.03125q0.46875 0.375 1.890625 0.671875q2.109375 0.453125 3.125 1.234375q1.03125 0.765625 1.03125 2.0625q0 1.484375 -1.203125 2.40625q-1.1875 0.90625 -3.109375 0.90625q-1.265625 0 -2.28125 -0.296875q-1.0 -0.296875 -1.78125 -0.84375l-0.015625 -2.53125l1.515625 0l0.375 1.484375q0.359375 0.3125 0.953125 0.46875q0.59375 0.140625 1.234375 0.140625q1.0625 0 1.671875 -0.4375q0.625 -0.4375 0.625 -1.140625q0 -0.671875 -0.515625 -1.09375q-0.5 -0.4375 -1.921875 -0.75q-2.015625 -0.453125 -3.046875 -1.203125q-1.03125 -0.765625 -1.03125 -2.0625q0 -1.34375 1.15625 -2.296875q1.15625 -0.953125 3.0 -0.953125q1.265625 0 2.265625 0.328125q1.015625 0.328125 1.671875 0.90625l0.109375 2.453125zm7.45047 7.828125q-2.328125 0 -3.703125 -1.546875q-1.359375 -1.546875 -1.359375 -4.0l0 -0.453125q0 -2.375 1.40625 -3.9375q1.421875 -1.578125 3.34375 -1.578125q2.234375 0 3.390625 1.359375q1.15625 1.34375 1.15625 3.59375l0 1.265625l-7.203125 0l-0.03125 0.046875q0.03125 1.609375 0.8125 2.640625q0.78125 1.03125 2.1875 1.03125q1.015625 0 1.78125 -0.296875q0.78125 -0.296875 1.34375 -0.8125l0.796875 1.3125q-0.59375 0.578125 -1.578125 0.984375q-0.96875 0.390625 -2.34375 0.390625zm-0.3125 -9.921875q-1.015625 0 -1.734375 0.859375q-0.71875 0.84375 -0.875 2.140625l0.015625 0.046875l5.109375 0l0 -0.265625q0 -1.1875 -0.640625 -1.984375q-0.625 -0.796875 -1.875 -0.796875z" fill-rule="nonzero"></path><path fill="#000000" fill-opacity="0.0" d="m474.54364 23.253298l139.55902 0l0 36.755905l-139.55902 0z" fill-rule="evenodd"></path><path fill="#666666" d="m526.4605 38.595627l-1.515625 0l-0.390625 -2.140625q-0.453125 -0.390625 -1.234375 -0.640625q-0.765625 -0.265625 -1.78125 -0.265625q-1.609375 0 -2.46875 0.6875q-0.859375 0.6875 -0.859375 1.78125q0 0.96875 0.875 1.625q0.875 0.65625 2.84375 1.140625q2.359375 0.59375 3.578125 1.734375q1.21875 1.125 1.21875 2.8125q0 1.796875 -1.46875 2.90625q-1.46875 1.09375 -3.84375 1.09375q-1.71875 0 -3.0625 -0.5625q-1.34375 -0.5625 -2.1875 -1.484375l0 -2.78125l1.53125 0l0.375 2.140625q0.59375 0.484375 1.40625 0.796875q0.8125 0.3125 1.9375 0.3125q1.53125 0 2.40625 -0.640625q0.890625 -0.65625 0.890625 -1.765625q0 -1.015625 -0.765625 -1.703125q-0.765625 -0.703125 -2.71875 -1.171875q-2.375 -0.5625 -3.703125 -1.65625q-1.328125 -1.109375 -1.328125 -2.765625q0 -1.75 1.484375 -2.90625q1.484375 -1.171875 3.859375 -1.171875q1.578125 0 2.859375 0.546875q1.28125 0.53125 2.0625 1.296875l0 2.78125zm2.0958252 9.21875l1.671875 -0.28125l0 -12.828125l-1.671875 -0.28125l0 -1.3125l3.6875 0l0 6.375q0.578125 -0.796875 1.40625 -1.234375q0.828125 -0.4375 1.84375 -0.4375q1.78125 0 2.765625 1.0625q0.984375 1.0625 0.984375 3.28125l0 5.375l1.671875 0.28125l0 1.296875l-5.359375 0l0 -1.296875l1.671875 -0.28125l0 -5.390625q0 -1.375 -0.59375 -2.03125q-0.59375 -0.65625 -1.75 -0.65625q-0.84375 0 -1.53125 0.390625q-0.671875 0.390625 -1.109375 1.078125l0 6.609375l1.671875 0.28125l0 1.296875l-5.359375 0l0 -1.296875zm21.283081 1.296875q-0.09375 -0.453125 -0.15625 -0.8125q-0.046875 -0.359375 -0.0625 -0.71875q-0.578125 0.75 -1.46875 1.25q-0.875 0.5 -1.859375 0.5q-1.734375 0 -2.640625 -0.84375q-0.90625 -0.859375 -0.90625 -2.390625q0 -1.578125 1.28125 -2.4375q1.28125 -0.859375 3.5 -0.859375l2.078125 0l0 -1.28125q0 -0.984375 -0.609375 -1.546875q-0.609375 -0.5625 -1.71875 -0.5625q-0.75 0 -1.328125 0.1875q-0.578125 0.1875 -0.9375 0.53125l-0.21875 1.171875l-1.5625 0l0 -2.15625q0.765625 -0.609375 1.828125 -0.96875q1.078125 -0.359375 2.34375 -0.359375q1.890625 0 3.0625 0.96875q1.171875 0.953125 1.171875 2.75l0 5.34375q0 0.21875 0 0.421875q0 0.203125 0.03125 0.40625l0.8125 0.109375l0 1.296875l-2.640625 0zm-3.25 -1.484375q1.0 0 1.828125 -0.46875q0.828125 -0.484375 1.1875 -1.171875l0 -1.8125l-2.15625 0q-1.234375 0 -1.953125 0.578125q-0.71875 0.5625 -0.71875 1.390625q0 0.71875 0.4375 1.109375q0.453125 0.375 1.375 0.375zm7.7471313 -8.3125l0 -1.296875l3.484375 0l0.1875 1.609375q0.484375 -0.859375 1.171875 -1.328125q0.6875 -0.484375 1.578125 -0.484375q0.234375 0 0.484375 0.03125q0.25 0.03125 0.390625 0.078125l-0.265625 1.875l-1.15625 -0.0625q-0.796875 0 -1.34375 0.375q-0.53125 0.375 -0.828125 1.046875l0 6.375l1.671875 0.28125l0 1.296875l-5.375 0l0 -1.296875l1.671875 -0.28125l0 -7.921875l-1.671875 -0.296875zm13.898926 10.015625q-2.328125 0 -3.703125 -1.546875q-1.359375 -1.546875 -1.359375 -4.0l0 -0.453125q0 -2.375 1.40625 -3.9375q1.421875 -1.578125 3.34375 -1.578125q2.234375 0 3.390625 1.359375q1.15625 1.34375 1.15625 3.59375l0 1.265625l-7.203125 0l-0.03125 0.046875q0.03125 1.609375 0.8125 2.640625q0.78125 1.03125 2.1875 1.03125q1.015625 0 1.78125 -0.296875q0.78125 -0.296875 1.34375 -0.8125l0.796875 1.3125q-0.59375 0.578125 -1.578125 0.984375q-0.96875 0.390625 -2.34375 0.390625zm-0.3125 -9.921875q-1.015625 0 -1.734375 0.859375q-0.71875 0.84375 -0.875 2.140625l0.015625 0.046875l5.109375 0l0 -0.265625q0 -1.1875 -0.640625 -1.984375q-0.625 -0.796875 -1.875 -0.796875z" fill-rule="nonzero"></path><path fill="#000000" fill-opacity="0.0" d="m918.1519 236.42336l131.62201 -0.5354309" fill-rule="evenodd"></path><path stroke="#3c78d8" stroke-width="4.0" stroke-linejoin="round" stroke-linecap="butt" d="m918.1519 236.42336l107.62225 -0.43780518" fill-rule="evenodd"></path><path fill="#3c78d8" stroke="#3c78d8" stroke-width="4.0" stroke-linecap="butt" d="m1025.801 242.59242l18.125366 -6.68071l-18.179077 -6.5330353z" fill-rule="evenodd"></path><path fill="#000000" fill-opacity="0.0" d="m885.96375 198.20612l192.09448 0l0 36.755905l-192.09448 0z" fill-rule="evenodd"></path><path fill="#666666" d="m903.91626 218.12657l-0.875 0.1875l0 0.0625l0.875 0.1875l5.71875 2.34375l0 2.0625l-8.359375 -3.890625l0 -1.53125l8.359375 -3.875l0 2.0625l-5.71875 2.390625zm7.8099365 4.640625l1.671875 -0.28125l0 -12.828125l-1.671875 -0.28125l0 -1.3125l3.6875 0l0 6.375q0.578125 -0.796875 1.40625 -1.234375q0.828125 -0.4375 1.84375 -0.4375q1.78125 0 2.765625 1.0625q0.984375 1.0625 0.984375 3.28125l0 5.375l1.671875 0.28125l0 1.296875l-5.359375 0l0 -1.296875l1.671875 -0.28125l0 -5.390625q0 -1.375 -0.59375 -2.03125q-0.59375 -0.65625 -1.75 -0.65625q-0.84375 0 -1.53125 0.390625q-0.671875 0.390625 -1.109375 1.078125l0 6.609375l1.671875 0.28125l0 1.296875l-5.359375 0l0 -1.296875zm21.970581 -0.34375q-0.515625 0.890625 -1.34375 1.375q-0.828125 0.484375 -1.90625 0.484375q-1.796875 0 -2.8125 -1.15625q-1.015625 -1.171875 -1.015625 -3.609375l0 -4.953125l-1.265625 -0.296875l0 -1.296875l1.265625 0l2.015625 0l0 6.5625q0 1.765625 0.515625 2.4375q0.53125 0.671875 1.640625 0.671875q1.078125 0 1.78125 -0.4375q0.703125 -0.4375 1.0625 -1.234375l0 -6.40625l-1.484375 -0.296875l0 -1.296875l1.484375 0l2.015625 0l0 9.515625l1.265625 0.28125l0 1.296875l-3.078125 0l-0.140625 -1.640625zm4.627075 0.34375l1.671875 -0.28125l0 -7.921875l-1.671875 -0.296875l0 -1.296875l3.484375 0l0.125 1.4375q0.546875 -0.78125 1.375 -1.203125q0.84375 -0.4375 1.953125 -0.4375q1.109375 0 1.90625 0.515625q0.796875 0.5 1.1875 1.53125q0.53125 -0.9375 1.390625 -1.484375q0.859375 -0.5625 2.015625 -0.5625q1.6875 0 2.671875 1.171875q0.984375 1.15625 0.984375 3.484375l0 5.0625l1.671875 0.28125l0 1.296875l-5.359375 0l0 -1.296875l1.671875 -0.28125l0 -5.078125q0 -1.640625 -0.578125 -2.3125q-0.5625 -0.6875 -1.671875 -0.6875q-1.046875 0 -1.6875 0.75q-0.640625 0.734375 -0.75 1.859375l0 5.46875l1.671875 0.28125l0 1.296875l-5.359375 0l0 -1.296875l1.671875 -0.28125l0 -5.078125q0 -1.5625 -0.578125 -2.28125q-0.578125 -0.71875 -1.671875 -0.71875q-0.921875 0 -1.53125 0.375q-0.59375 0.375 -0.90625 1.0625l0 6.640625l1.671875 0.28125l0 1.296875l-5.359375 0l0 -1.296875zm27.791931 1.296875q-0.09375 -0.453125 -0.15625 -0.8125q-0.046875 -0.359375 -0.0625 -0.71875q-0.578125 0.75 -1.46875 1.25q-0.875 0.5 -1.859375 0.5q-1.734375 0 -2.640625 -0.84375q-0.90625 -0.859375 -0.90625 -2.390625q0 -1.578125 1.28125 -2.4375q1.28125 -0.859375 3.5 -0.859375l2.078125 0l0 -1.28125q0 -0.984375 -0.609375 -1.546875q-0.609375 -0.5625 -1.71875 -0.5625q-0.75 0 -1.328125 0.1875q-0.578125 0.1875 -0.9375 0.53125l-0.21875 1.171875l-1.5625 0l0 -2.15625q0.765625 -0.609375 1.828125 -0.96875q1.078125 -0.359375 2.34375 -0.359375q1.890625 0 3.0625 0.96875q1.171875 0.953125 1.171875 2.75l0 5.34375q0 0.21875 0 0.421875q0 0.203125 0.03125 0.40625l0.8125 0.109375l0 1.296875l-2.640625 0zm-3.25 -1.484375q1.0 0 1.828125 -0.46875q0.828125 -0.484375 1.1875 -1.171875l0 -1.8125l-2.15625 0q-1.234375 0 -1.953125 0.578125q-0.71875 0.5625 -0.71875 1.390625q0 0.71875 0.4375 1.109375q0.453125 0.375 1.375 0.375zm7.4502563 0.1875l1.671875 -0.28125l0 -7.921875l-1.671875 -0.296875l0 -1.296875l3.484375 0l0.140625 1.65625q0.546875 -0.890625 1.375 -1.375q0.84375 -0.484375 1.921875 -0.484375q1.796875 0 2.78125 1.046875q0.984375 1.046875 0.984375 3.25l0 5.421875l1.671875 0.28125l0 1.296875l-5.375 0l0 -1.296875l1.671875 -0.28125l0 -5.390625q0 -1.453125 -0.578125 -2.0625q-0.578125 -0.625 -1.765625 -0.625q-0.875 0 -1.546875 0.421875q-0.671875 0.421875 -1.0625 1.140625l0 6.515625l1.671875 0.28125l0 1.296875l-5.375 0l0 -1.296875zm26.573486 1.296875q-0.09375 -0.453125 -0.15625 -0.8125q-0.046875 -0.359375 -0.0625 -0.71875q-0.578125 0.75 -1.46875 1.25q-0.875 0.5 -1.859375 0.5q-1.734375 0 -2.640625 -0.84375q-0.90625 -0.859375 -0.90625 -2.390625q0 -1.578125 1.28125 -2.4375q1.28125 -0.859375 3.5 -0.859375l2.078125 0l0 -1.28125q0 -0.984375 -0.609375 -1.546875q-0.609375 -0.5625 -1.71875 -0.5625q-0.75 0 -1.328125 0.1875q-0.578125 0.1875 -0.9375 0.53125l-0.21875 1.171875l-1.5625 0l0 -2.15625q0.765625 -0.609375 1.828125 -0.96875q1.078125 -0.359375 2.34375 -0.359375q1.890625 0 3.0625 0.96875q1.171875 0.953125 1.171875 2.75l0 5.34375q0 0.21875 0 0.421875q0 0.203125 0.03125 0.40625l0.8125 0.109375l0 1.296875l-2.640625 0zm-3.25 -1.484375q1.0 0 1.828125 -0.46875q0.828125 -0.484375 1.1875 -1.171875l0 -1.8125l-2.15625 0q-1.234375 0 -1.953125 0.578125q-0.71875 0.5625 -0.71875 1.390625q0 0.71875 0.4375 1.109375q0.453125 0.375 1.375 0.375zm12.731506 0.125q1.015625 0 1.765625 -0.625q0.765625 -0.625 0.765625 -1.515625l1.828125 0l0.015625 0.046875q0.046875 1.4375 -1.28125 2.5625q-1.328125 1.109375 -3.09375 1.109375q-2.421875 0 -3.703125 -1.578125q-1.265625 -1.578125 -1.265625 -3.96875l0 -0.4375q0 -2.359375 1.28125 -3.9375q1.28125 -1.59375 3.6875 -1.59375q1.34375 0 2.40625 0.4375q1.0625 0.4375 1.75 1.203125l0.09375 2.46875l-1.609375 0l-0.4375 -1.75q-0.359375 -0.34375 -0.921875 -0.546875q-0.5625 -0.21875 -1.28125 -0.21875q-1.578125 0 -2.265625 1.140625q-0.6875 1.140625 -0.6875 2.796875l0 0.4375q0 1.703125 0.671875 2.84375q0.6875 1.125 2.28125 1.125zm10.044067 -12.40625l0 2.671875l2.109375 0l0 1.5l-2.109375 0l0 6.734375q0 0.78125 0.328125 1.09375q0.328125 0.3125 0.859375 0.3125q0.265625 0 0.59375 -0.03125q0.328125 -0.046875 0.5625 -0.109375l0.28125 1.390625q-0.296875 0.1875 -0.859375 0.296875q-0.546875 0.125 -1.09375 0.125q-1.234375 0 -1.96875 -0.734375q-0.71875 -0.75 -0.71875 -2.34375l0 -6.734375l-1.75 0l0 -1.5l1.75 0l0 -2.671875l2.015625 0zm4.279358 12.46875l1.671875 -0.28125l0 -7.921875l-1.671875 -0.296875l0 -1.296875l3.703125 0l0 9.515625l1.671875 0.28125l0 1.296875l-5.375 0l0 -1.296875zm3.703125 -12.640625l-2.03125 0l0 -2.0625l2.03125 0l0 2.0625zm3.321167 8.28125q0 -2.453125 1.328125 -4.046875q1.34375 -1.59375 3.625 -1.59375q2.296875 0 3.625 1.59375q1.34375 1.578125 1.34375 4.046875l0 0.234375q0 2.484375 -1.328125 4.0625q-1.328125 1.578125 -3.625 1.578125q-2.296875 0 -3.640625 -1.578125q-1.328125 -1.59375 -1.328125 -4.0625l0 -0.234375zm2.015625 0.234375q0 1.765625 0.75 2.921875q0.75 1.140625 2.203125 1.140625q1.4375 0 2.1875 -1.140625q0.75 -1.15625 0.75 -2.921875l0 -0.234375q0 -1.734375 -0.75 -2.890625q-0.75 -1.15625 -2.203125 -1.15625q-1.453125 0 -2.203125 1.15625q-0.734375 1.15625 -0.734375 2.890625l0 0.234375zm9.637695 4.125l1.671875 -0.28125l0 -7.921875l-1.671875 -0.296875l0 -1.296875l3.484375 0l0.140625 1.65625q0.546875 -0.890625 1.375 -1.375q0.84375 -0.484375 1.921875 -0.484375q1.796875 0 2.78125 1.046875q0.984375 1.046875 0.984375 3.25l0 5.421875l1.671875 0.28125l0 1.296875l-5.375 0l0 -1.296875l1.671875 -0.28125l0 -5.390625q0 -1.453125 -0.578125 -2.0625q-0.578125 -0.625 -1.765625 -0.625q-0.875 0 -1.546875 0.421875q-0.671875 0.421875 -1.0625 1.140625l0 6.515625l1.671875 0.28125l0 1.296875l-5.375 0l0 -1.296875zm14.397705 -6.890625l0 -2.0l8.765625 3.875l0 1.53125l-8.765625 3.890625l0 -2.015625l6.125 -2.4375l0.875 -0.171875l0 -0.0625l-0.875 -0.203125l-6.125 -2.40625z" fill-rule="nonzero"></path></g></svg>

