<?xml version="1.0" standalone="yes"?>

<svg version="1.1" viewBox="0.0 0.0 265.9133858267717 260.87926509186354" fill="none" stroke="none" stroke-linecap="square" stroke-miterlimit="10" xmlns="http://www.w3.org/2000/svg" xmlns:xlink="http://www.w3.org/1999/xlink"><clipPath id="p.0"><path d="m0 0l265.9134 0l0 260.87927l-265.9134 0l0 -260.87927z" clip-rule="nonzero"></path></clipPath><g clip-path="url(#p.0)"><path fill="#000000" fill-opacity="0.0" d="m0 0l265.9134 0l0 260.87927l-265.9134 0z" fill-rule="evenodd"></path><path fill="#b6d7a8" d="m13.1164875 132.53596l0 0c0 -14.768181 23.640776 -26.740158 52.803154 -26.740158l0 0c29.162369 0 52.803146 11.971977 52.803146 26.740158l0 0c0 14.768173 -23.640778 26.740158 -52.803146 26.740158l0 0c-29.162376 0 -52.803154 -11.971985 -52.803154 -26.740158z" fill-rule="evenodd"></path><path fill="#000000" d="m55.376667 129.88846l0 -1.5l3.96875 0l0.21875 1.84375q0.546875 -0.96875 1.328125 -1.515625q0.796875 -0.5625 1.8125 -0.5625q0.28125 0 0.5625 0.046875q0.28125 0.046875 0.4375 0.09375l-0.296875 2.140625l-1.3125 -0.078125q-0.921875 0 -1.546875 0.4375q-0.609375 0.421875 -0.953125 1.203125l0 7.265625l1.90625 0.328125l0 1.484375l-6.125 0l0 -1.484375l1.90625 -0.328125l0 -9.046875l-1.90625 -0.328125zm10.019527 11.1875l0 -1.578125l5.59375 -6.21875q1.5 -1.671875 2.03125 -2.65625q0.53125 -0.984375 0.53125 -2.015625q0 -1.2812424 -0.75 -2.1562424q-0.75 -0.875 -1.984375 -0.875q-1.765625 0 -2.609375 0.90625q-0.828125 0.90625 -0.828125 2.5624924l-2.203125 0l-0.03125 -0.078125q-0.0625 -2.2031174 1.453125 -3.7031174q1.53125 -1.5 4.21875 -1.5q2.3125 0 3.671875 1.34375q1.375 1.34375 1.375 3.4218674q0 1.390625 -0.828125 2.78125q-0.828125 1.390625 -2.328125 3.015625l-4.484375 4.890625l0.015625 0.046875l6.0625 0l0.1875 -1.953125l1.953125 0l0 3.765625l-11.046875 0z" fill-rule="nonzero"></path><path fill="#b6d7a8" d="m150.5653 132.53418l0 0c0 -14.768181 23.640778 -26.740158 52.803146 -26.740158l0 0c29.162369 0 52.803146 11.971977 52.803146 26.740158l0 0c0 14.768188 -23.640778 26.740158 -52.803146 26.740158l0 0c-29.162369 0 -52.803146 -11.97197 -52.803146 -26.740158z" fill-rule="evenodd"></path><path fill="#000000" d="m192.97197 129.88667l0 -1.5l3.96875 0l0.21875 1.84375q0.546875 -0.96875 1.328125 -1.515625q0.796875 -0.5625 1.8125 -0.5625q0.28125 0 0.5625 0.046875q0.28125 0.046875 0.4375 0.09375l-0.296875 2.140625l-1.3125 -0.078125q-0.921875 0 -1.546875 0.4375q-0.609375 0.421875 -0.953125 1.203125l0 7.265625l1.90625 0.328125l0 1.484375l-6.125 0l0 -1.484375l1.90625 -0.328125l0 -9.046875l-1.90625 -0.328125zm13.128906 1.59375l2.015625 0q1.546875 0 2.171875 -0.765625q0.640625 -0.78125 0.640625 -2.140625q0 -1.4687424 -0.734375 -2.2343674q-0.71875 -0.765625 -2.125 -0.765625q-1.359375 0 -2.171875 0.796875q-0.8125 0.796875 -0.8125 2.1093674l-2.21875 0l-0.015625 -0.078125q-0.0625 -1.9374924 1.390625 -3.2812424q1.46875 -1.359375 3.828125 -1.359375q2.359375 0 3.765625 1.265625q1.40625 1.25 1.40625 3.5937424q0 1.046875 -0.640625 2.09375q-0.640625 1.046875 -1.90625 1.609375q1.53125 0.5 2.171875 1.578125q0.640625 1.078125 0.640625 2.40625q0 2.34375 -1.53125 3.6875q-1.53125 1.328125 -3.90625 1.328125q-2.34375 0 -3.875 -1.265625q-1.515625 -1.265625 -1.46875 -3.421875l0.046875 -0.0625l2.203125 0q0 1.34375 0.8125 2.140625q0.828125 0.796875 2.28125 0.796875q1.453125 0 2.28125 -0.796875q0.84375 -0.796875 0.84375 -2.359375q0 -1.578125 -0.75 -2.328125q-0.734375 -0.75 -2.328125 -0.75l-2.015625 0l0 -1.796875z" fill-rule="nonzero"></path><path fill="#b6d7a8" d="m12.754283 226.2271l0 0c0 -14.768188 23.640774 -26.740158 52.80315 -26.740158l0 0c29.162369 0 52.803146 11.97197 52.803146 26.740158l0 0c0 14.768173 -23.640778 26.740158 -52.803146 26.740158l0 0c-29.162376 0 -52.80315 -11.971985 -52.80315 -26.740158z" fill-rule="evenodd"></path><path fill="#000000" d="m56.696106 223.57959l0 -1.5l3.9687462 0l0.21875 1.84375q0.546875 -0.96875 1.328125 -1.515625q0.796875 -0.5625 1.8125038 -0.5625q0.28125 0 0.5625 0.046875q0.28125 0.046875 0.4375 0.09375l-0.296875 2.140625l-1.3125038 -0.078125q-0.921875 0 -1.546875 0.4375q-0.609375 0.421875 -0.953125 1.203125l0 7.265625l1.90625 0.328125l0 1.484375l-6.124996 0l0 -1.484375l1.90625 -0.328125l0 -9.046875l-1.90625 -0.328125zm10.300781 9.703125l2.640625 -0.328125l0 -12.78125l-2.6875 0.046875l0 -1.4375l4.984375 -1.078125l0 15.25l2.625 0.328125l0 1.484375l-7.5625 0l0 -1.484375z" fill-rule="nonzero"></path><path fill="#000000" fill-opacity="0.0" d="m120.092865 62.39423l-54.173225 43.401577" fill-rule="evenodd"></path><path stroke="#38761d" stroke-width="3.0" stroke-linejoin="round" stroke-linecap="butt" d="m120.092865 62.39423l-40.125565 32.147106" fill-rule="evenodd"></path><path fill="#38761d" stroke="#38761d" stroke-width="3.0" stroke-linecap="butt" d="m76.86907 90.67418l-7.526718 12.379471l13.723175 -4.6451416z" fill-rule="evenodd"></path><path fill="#000000" fill-opacity="0.0" d="m156.47083 62.70741l46.89763 43.086613" fill-rule="evenodd"></path><path stroke="#38761d" stroke-width="3.0" stroke-linejoin="round" stroke-linecap="butt" d="m156.47083 62.70741l33.642548 30.908665" fill-rule="evenodd"></path><path fill="#38761d" stroke="#38761d" stroke-width="3.0" stroke-linecap="butt" d="m186.76091 97.26505l13.377945 5.5618134l-6.6730347 -12.859772z" fill-rule="evenodd"></path><path fill="#000000" fill-opacity="0.0" d="m65.91964 159.27612l-0.34645844 40.220474" fill-rule="evenodd"></path><path stroke="#38761d" stroke-width="3.0" stroke-linejoin="round" stroke-linecap="butt" d="m65.91963 159.27612l-0.19140625 22.221146" fill-rule="evenodd"></path><path fill="#38761d" stroke="#38761d" stroke-width="3.0" stroke-linecap="butt" d="m60.77321 181.45459l4.8377457 13.656464l5.072281 -13.571106z" fill-rule="evenodd"></path><path fill="#b6d7a8" d="m84.75428 37.493027l0 0c0 -14.768181 23.640778 -26.740158 52.803154 -26.740158l0 0c29.162369 0 52.803146 11.971976 52.803146 26.740158l0 0c0 14.768181 -23.640778 26.740158 -52.803146 26.740158l0 0c-29.162376 0 -52.803154 -11.971977 -52.803154 -26.740158z" fill-rule="evenodd"></path><path fill="#000000" d="m126.68634 34.845528l0 -1.5l3.96875 0l0.21875 1.84375q0.546875 -0.96875 1.328125 -1.515625q0.796875 -0.5625 1.8125 -0.5625q0.28125 0 0.5625 0.046875q0.28125 0.046875 0.4375 0.09375l-0.296875 2.140625l-1.3125 -0.078125q-0.921875 0 -1.546875 0.4375q-0.609375 0.421875 -0.953125 1.203125l0 7.265625l1.90625 0.328125l0 1.484375l-6.125 0l0 -1.484375l1.90625 -0.328125l0 -9.046875l-1.90625 -0.328125zm19.582031 5.4375l2.359375 0l0 1.8125l-2.359375 0l0 2.125l1.90625 0.328125l0 1.484375l-6.109375 0l0 -1.484375l1.90625 -0.328125l0 -2.125l-7.671875 0l0 -1.296875l7.53125 -11.828125l2.4375 0l0 11.3125zm-7.5 0l5.203125 0l0 -8.015625l-0.078125 -0.03125l-0.234375 0.625l-4.890625 7.421875z" fill-rule="nonzero"></path></g></svg>

