<?xml version="1.0" standalone="yes"?>

<svg version="1.1" viewBox="0.0 0.0 687.7874015748032 427.81102362204723" fill="none" stroke="none" stroke-linecap="square" stroke-miterlimit="10" xmlns="http://www.w3.org/2000/svg" xmlns:xlink="http://www.w3.org/1999/xlink"><clipPath id="p.0"><path d="m0 0l687.7874 0l0 427.81104l-687.7874 0l0 -427.81104z" clip-rule="nonzero"></path></clipPath><g clip-path="url(#p.0)"><path fill="#000000" fill-opacity="0.0" d="m0 0l687.7874 0l0 427.81104l-687.7874 0z" fill-rule="evenodd"></path><path fill="#efefef" d="m568.1391 3.8582678l112.409485 0l0 122.77165l-112.409485 0z" fill-rule="evenodd"></path><path fill="#000000" d="m592.62946 30.778265l0 -1.171875l1.515625 -0.25l0 -10.640625l-1.515625 -0.265625l0 -1.1875l1.515625 0l1.828125 0l1.515625 0l0 1.1875l-1.515625 0.265625l0 10.640625l4.6875 0l0.140625 -1.5625l1.5625 0l0 2.984375l-9.734375 0zm15.672302 0.1875q-2.09375 0 -3.34375 -1.390625q-1.234375 -1.390625 -1.234375 -3.625l0 -0.40625q0 -2.140625 1.28125 -3.5625q1.28125 -1.421875 3.015625 -1.421875q2.03125 0 3.0625 1.21875q1.046875 1.21875 1.046875 3.265625l0 1.140625l-6.5 0l-0.03125 0.046875q0.03125 1.453125 0.734375 2.390625q0.703125 0.921875 1.96875 0.921875q0.9375 0 1.625 -0.265625q0.703125 -0.265625 1.21875 -0.734375l0.71875 1.1875q-0.546875 0.53125 -1.4375 0.890625q-0.875 0.34375 -2.125 0.34375zm-0.28125 -8.96875q-0.90625 0 -1.5625 0.78125q-0.65625 0.765625 -0.796875 1.9375l0.015625 0.046875l4.625 0l0 -0.25q0 -1.078125 -0.578125 -1.796875q-0.5625 -0.71875 -1.703125 -0.71875zm5.732666 3.953125q0 -2.421875 1.0625 -3.90625q1.0625 -1.484375 2.921875 -1.484375q0.953125 0 1.65625 0.375q0.71875 0.359375 1.203125 1.0625l0.171875 -1.25l1.53125 0l0 9.90625q0 1.9375019 -1.09375 3.046877q-1.078125 1.125 -3.078125 1.125q-0.71875 0 -1.5625 -0.203125q-0.84375 -0.1875 -1.484375 -0.53125l0.46875 -1.421875q0.515625 0.265625 1.203125 0.4375q0.703125 0.1875 1.359375 0.1875q1.21875 0 1.78125 -0.6875q0.578125 -0.6875019 0.578125 -1.9531269l0 -0.953125q-0.484375 0.625 -1.171875 0.953125q-0.6875 0.3125 -1.578125 0.3125q-1.84375 0 -2.90625 -1.328125q-1.0625 -1.34375 -1.0625 -3.5l0 -0.1875zm1.828125 0.1875q0 1.515625 0.640625 2.4375q0.640625 0.90625 1.953125 0.90625q0.828125 0 1.375 -0.375q0.5625 -0.375 0.921875 -1.0625l0 -4.609375q-0.34375 -0.640625 -0.921875 -1.015625q-0.5625 -0.375 -1.359375 -0.375q-1.296875 0 -1.953125 1.09375q-0.65625 1.09375 -0.65625 2.8125l0 0.1875zm13.307922 4.828125q-2.09375 0 -3.34375 -1.390625q-1.234375 -1.390625 -1.234375 -3.625l0 -0.40625q0 -2.140625 1.28125 -3.5625q1.28125 -1.421875 3.015625 -1.421875q2.03125 0 3.0625 1.21875q1.046875 1.21875 1.046875 3.265625l0 1.140625l-6.5 0l-0.03125 0.046875q0.03125 1.453125 0.734375 2.390625q0.703125 0.921875 1.96875 0.921875q0.9375 0 1.625 -0.265625q0.703125 -0.265625 1.21875 -0.734375l0.71875 1.1875q-0.546875 0.53125 -1.4375 0.890625q-0.875 0.34375 -2.125 0.34375zm-0.28125 -8.96875q-0.90625 0 -1.5625 0.78125q-0.65625 0.765625 -0.796875 1.9375l0.015625 0.046875l4.625 0l0 -0.25q0 -1.078125 -0.578125 -1.796875q-0.5625 -0.71875 -1.703125 -0.71875zm5.467041 7.609375l1.5 -0.25l0 -7.171875l-1.5 -0.265625l0 -1.171875l3.140625 0l0.125 1.484375q0.5 -0.796875 1.25 -1.234375q0.765625 -0.4375 1.734375 -0.4375q1.625 0 2.515625 0.953125q0.890625 0.9375 0.890625 2.921875l0 4.921875l1.515625 0.25l0 1.171875l-4.859375 0l0 -1.171875l1.515625 -0.25l0 -4.875q0 -1.328125 -0.53125 -1.875q-0.515625 -0.5625 -1.59375 -0.5625q-0.796875 0 -1.40625 0.375q-0.59375 0.375 -0.96875 1.046875l0 5.890625l1.515625 0.25l0 1.171875l-4.84375 0l0 -1.171875zm19.037598 -0.03125q-0.5 0.6875 -1.21875 1.046875q-0.703125 0.34375 -1.640625 0.34375q-1.828125 0 -2.875 -1.328125q-1.03125 -1.328125 -1.03125 -3.5l0 -0.1875q0 -2.421875 1.03125 -3.90625q1.046875 -1.484375 2.90625 -1.484375q0.890625 0 1.5625 0.328125q0.6875 0.328125 1.171875 0.953125l0 -4.09375l-1.515625 -0.265625l0 -1.171875l1.515625 0l1.828125 0l0 13.046875l1.515625 0.25l0 1.171875l-3.109375 0l-0.140625 -1.203125zm-4.9375 -3.4375q0 1.515625 0.625 2.4375q0.625 0.90625 1.921875 0.90625q0.8125 0 1.375 -0.359375q0.5625 -0.375 0.921875 -1.046875l0 -4.65625q-0.359375 -0.640625 -0.921875 -1.0q-0.5625 -0.375 -1.359375 -0.375q-1.296875 0 -1.9375 1.09375q-0.625 1.078125 -0.625 2.8125l0 0.1875z" fill-rule="nonzero"></path><path fill="#9fc5e8" d="m4.5371017 37.288715l92.91338 0l0 28.094486l-92.91338 0z" fill-rule="evenodd"></path><path stroke="#6d9eeb" stroke-width="3.0" stroke-linejoin="round" stroke-linecap="butt" d="m4.5371017 37.288715l92.91338 0l0 28.094486l-92.91338 0z" fill-rule="evenodd"></path><path fill="#000000" d="m42.132465 48.688457l0 -1.5l3.96875 0l0.21875 1.84375q0.546875 -0.96875 1.328125 -1.515625q0.796875 -0.5625 1.8125 -0.5625q0.28125 0 0.5625 0.046875q0.28125 0.046875 0.4375 0.09375l-0.296875 2.140625l-1.3125 -0.078125q-0.921875 0 -1.546875 0.4375q-0.609375 0.421875 -0.953125 1.203125l0 7.265625l1.90625 0.328125l0 1.484375l-6.125 0l0 -1.484375l1.90625 -0.328125l0 -9.046875l-1.90625 -0.328125zm10.300781 9.703125l2.640625 -0.328125l0 -12.78125l-2.6875 0.046875l0 -1.4375l4.984375 -1.078125l0 15.25l2.625 0.328125l0 1.484375l-7.5625 0l0 -1.484375z" fill-rule="nonzero"></path><path fill="#ead1dc" d="m101.424 37.288715l77.007866 0l0 28.094486l-77.007866 0z" fill-rule="evenodd"></path><path stroke="#c27ba0" stroke-width="3.0" stroke-linejoin="round" stroke-linecap="butt" d="m101.424 37.288715l77.007866 0l0 28.094486l-77.007866 0z" fill-rule="evenodd"></path><path fill="#000000" d="m131.0666 48.688457l0 -1.5l3.96875 0l0.21875 1.84375q0.546875 -0.96875 1.328125 -1.515625q0.796875 -0.5625 1.8125 -0.5625q0.28125 0 0.5625 0.046875q0.28125 0.046875 0.4375 0.09375l-0.296875 2.140625l-1.3125 -0.078125q-0.921875 0 -1.546875 0.4375q-0.609375 0.421875 -0.953125 1.203125l0 7.265625l1.90625 0.328125l0 1.484375l-6.125 0l0 -1.484375l1.90625 -0.328125l0 -9.046875l-1.90625 -0.328125zm10.300781 9.703125l2.640625 -0.328125l0 -12.78125l-2.6875 0.046875l0 -1.4375l4.984375 -1.078125l0 15.25l2.625 0.328125l0 1.484375l-7.5625 0l0 -1.484375z" fill-rule="nonzero"></path><path fill="#9fc5e8" d="m184.55103 37.288715l77.00787 0l0 28.094486l-77.00787 0z" fill-rule="evenodd"></path><path stroke="#6d9eeb" stroke-width="3.0" stroke-linejoin="round" stroke-linecap="butt" d="m184.55103 37.288715l77.00787 0l0 28.094486l-77.00787 0z" fill-rule="evenodd"></path><path fill="#000000" d="m212.512 48.688457l0 -1.5l3.96875 0l0.21875 1.84375q0.546875 -0.96875 1.328125 -1.515625q0.796875 -0.5625 1.8125 -0.5625q0.28125 0 0.5625 0.046875q0.28125 0.046875 0.4375 0.09375l-0.296875 2.140625l-1.3125 -0.078125q-0.921875 0 -1.546875 0.4375q-0.609375 0.421875 -0.953125 1.203125l0 7.265625l1.90625 0.328125l0 1.484375l-6.125 0l0 -1.484375l1.90625 -0.328125l0 -9.046875l-1.90625 -0.328125zm10.019531 11.1875l0 -1.578125l5.59375 -6.21875q1.5 -1.671875 2.03125 -2.65625q0.53125 -0.984375 0.53125 -2.015625q0 -1.28125 -0.75 -2.15625q-0.75 -0.875 -1.984375 -0.875q-1.765625 0 -2.609375 0.90625q-0.828125 0.90625 -0.828125 2.5625l-2.203125 0l-0.03125 -0.078125q-0.0625 -2.203125 1.453125 -3.703125q1.53125 -1.5 4.21875 -1.5q2.3125 0 3.671875 1.34375q1.375 1.34375 1.375 3.421875q0 1.390625 -0.828125 2.78125q-0.828125 1.390625 -2.328125 3.015625l-4.484375 4.890625l0.015625 0.046875l6.0625 0l0.1875 -1.953125l1.953125 0l0 3.765625l-11.046875 0z" fill-rule="nonzero"></path><path fill="#ead1dc" d="m150.4918 283.5285l64.0 0l0 28.094482l-64.0 0z" fill-rule="evenodd"></path><path stroke="#c27ba0" stroke-width="3.0" stroke-linejoin="round" stroke-linecap="butt" d="m150.4918 283.5285l64.0 0l0 28.094482l-64.0 0z" fill-rule="evenodd"></path><path fill="#000000" d="m171.94884 294.92825l0 -1.5l3.96875 0l0.21875 1.84375q0.546875 -0.96875 1.328125 -1.515625q0.796875 -0.5625 1.8125 -0.5625q0.28125 0 0.5625 0.046875q0.28125 0.046875 0.4375 0.09375l-0.296875 2.140625l-1.3125 -0.078125q-0.921875 0 -1.546875 0.4375q-0.609375 0.421875 -0.953125 1.203125l0 7.265625l1.90625 0.328125l0 1.484375l-6.125 0l0 -1.484375l1.90625 -0.328125l0 -9.046875l-1.90625 -0.328125zm10.019531 11.1875l0 -1.578125l5.59375 -6.21875q1.5 -1.671875 2.03125 -2.65625q0.53125 -0.984375 0.53125 -2.015625q0 -1.28125 -0.75 -2.15625q-0.75 -0.875 -1.984375 -0.875q-1.765625 0 -2.609375 0.90625q-0.828125 0.90625 -0.828125 2.5625l-2.203125 0l-0.03125 -0.078125q-0.0625 -2.203125 1.453125 -3.703125q1.53125 -1.5 4.21875 -1.5q2.3125 0 3.671875 1.34375q1.375 1.34375 1.375 3.421875q0 1.390625 -0.828125 2.78125q-0.828125 1.390625 -2.328125 3.015625l-4.484375 4.890625l0.015625 0.046875l6.0625 0l0.1875 -1.953125l1.953125 0l0 3.765625l-11.046875 0z" fill-rule="nonzero"></path><path fill="#9fc5e8" d="m335.54797 53.4345l88.566925 0l0 28.09449l-88.566925 0z" fill-rule="evenodd"></path><path stroke="#6d9eeb" stroke-width="3.0" stroke-linejoin="round" stroke-linecap="butt" d="m335.54797 53.4345l88.566925 0l0 28.09449l-88.566925 0z" fill-rule="evenodd"></path><path fill="#000000" d="m368.96033 64.83424l0 -1.5l3.96875 0l0.21875 1.84375q0.546875 -0.96875 1.328125 -1.515625q0.796875 -0.5625 1.8125 -0.5625q0.28125 0 0.5625 0.046875q0.28125 0.046875 0.4375 0.09375l-0.296875 2.140625l-1.3125 -0.078125q-0.921875 0 -1.546875 0.4375q-0.609375 0.421875 -0.953125 1.203125l0 7.265625l1.90625 0.328125l0 1.484375l-6.125 0l0 -1.484375l1.90625 -0.328125l0 -9.046875l-1.90625 -0.328125zm19.582031 5.4375l2.359375 0l0 1.8125l-2.359375 0l0 2.125l1.90625 0.328125l0 1.484375l-6.109375 0l0 -1.484375l1.90625 -0.328125l0 -2.125l-7.671875 0l0 -1.296875l7.53125 -11.828125l2.4375 0l0 11.3125zm-7.5 0l5.203125 0l0 -8.015625l-0.078125 -0.03125l-0.234375 0.625l-4.890625 7.421875z" fill-rule="nonzero"></path><path fill="#ead1dc" d="m428.3078 53.435814l72.91339 0l0 28.09449l-72.91339 0z" fill-rule="evenodd"></path><path stroke="#c27ba0" stroke-width="3.0" stroke-linejoin="round" stroke-linecap="butt" d="m428.3078 53.435814l72.91339 0l0 28.09449l-72.91339 0z" fill-rule="evenodd"></path><path fill="#000000" d="m453.8934 64.835556l0 -1.5l3.96875 0l0.21875 1.84375q0.546875 -0.96875 1.328125 -1.515625q0.796875 -0.5625 1.8125 -0.5625q0.28125 0 0.5625 0.046875q0.28125 0.046875 0.4375 0.09375l-0.296875 2.140625l-1.3125 -0.078125q-0.921875 0 -1.546875 0.4375q-0.609375 0.421875 -0.953125 1.203125l0 7.265625l1.90625 0.328125l0 1.484375l-6.125 0l0 -1.484375l1.90625 -0.328125l0 -9.046875l-1.90625 -0.328125zm19.582031 5.4375l2.359375 0l0 1.8125l-2.359375 0l0 2.125l1.90625 0.328125l0 1.484375l-6.109375 0l0 -1.484375l1.90625 -0.328125l0 -2.125l-7.671875 0l0 -1.296875l7.53125 -11.828125l2.4375 0l0 11.3125zm-7.5 0l5.203125 0l0 -8.015625l-0.078125 -0.03125l-0.234375 0.625l-4.890625 7.421875z" fill-rule="nonzero"></path><path fill="#9fc5e8" d="m4.949885 79.929016l119.14961 0l0 28.09449l-119.14961 0z" fill-rule="evenodd"></path><path stroke="#6d9eeb" stroke-width="3.0" stroke-linejoin="round" stroke-linecap="butt" d="m4.949885 79.929016l119.14961 0l0 28.09449l-119.14961 0z" fill-rule="evenodd"></path><path fill="#000000" d="m54.128204 91.32876l0 -1.5l3.96875 0l0.21875 1.84375q0.546875 -0.96875 1.328125 -1.515625q0.796875 -0.5625 1.8125 -0.5625q0.28125 0 0.5625 0.046875q0.28125 0.046875 0.4375 0.09375l-0.296875 2.140625l-1.3125 -0.078125q-0.921875 0 -1.546875 0.4375q-0.609375 0.421875 -0.953125 1.203125l0 7.265625l1.90625 0.328125l0 1.484375l-6.125 0l0 -1.484375l1.90625 -0.328125l0 -9.046875l-1.90625 -0.328125zm13.128906 1.59375l2.0156174 0q1.546875 0 2.171875 -0.765625q0.640625 -0.78125 0.640625 -2.140625q0 -1.46875 -0.734375 -2.234375q-0.71875 -0.765625 -2.125 -0.765625q-1.3593674 0 -2.1718674 0.796875q-0.8125 0.796875 -0.8125 2.109375l-2.21875 0l-0.015625 -0.078125q-0.0625 -1.9375 1.390625 -3.28125q1.46875 -1.359375 3.8281174 -1.359375q2.359375 0 3.765625 1.265625q1.40625 1.25 1.40625 3.59375q0 1.046875 -0.640625 2.09375q-0.640625 1.046875 -1.90625 1.609375q1.53125 0.5 2.171875 1.578125q0.640625 1.078125 0.640625 2.40625q0 2.34375 -1.53125 3.6875q-1.53125 1.328125 -3.90625 1.328125q-2.3437424 0 -3.8749924 -1.265625q-1.515625 -1.265625 -1.46875 -3.421875l0.046875 -0.0625l2.203125 0q0 1.34375 0.8125 2.140625q0.828125 0.796875 2.2812424 0.796875q1.453125 0 2.28125 -0.796875q0.84375 -0.796875 0.84375 -2.359375q0 -1.578125 -0.75 -2.328125q-0.734375 -0.75 -2.328125 -0.75l-2.0156174 0l0 -1.796875z" fill-rule="nonzero"></path><path fill="#ead1dc" d="m128.63576 79.929016l112.40944 0l0 28.09449l-112.40944 0z" fill-rule="evenodd"></path><path stroke="#c27ba0" stroke-width="3.0" stroke-linejoin="round" stroke-linecap="butt" d="m128.63576 79.929016l112.40944 0l0 28.09449l-112.40944 0z" fill-rule="evenodd"></path><path fill="#000000" d="m174.44398 91.32876l0 -1.5l3.96875 0l0.21875 1.84375q0.546875 -0.96875 1.328125 -1.515625q0.796875 -0.5625 1.8125 -0.5625q0.28125 0 0.5625 0.046875q0.28125 0.046875 0.4375 0.09375l-0.296875 2.140625l-1.3125 -0.078125q-0.921875 0 -1.546875 0.4375q-0.609375 0.421875 -0.953125 1.203125l0 7.265625l1.90625 0.328125l0 1.484375l-6.125 0l0 -1.484375l1.90625 -0.328125l0 -9.046875l-1.90625 -0.328125zm13.128906 1.59375l2.015625 0q1.546875 0 2.171875 -0.765625q0.640625 -0.78125 0.640625 -2.140625q0 -1.46875 -0.734375 -2.234375q-0.71875 -0.765625 -2.125 -0.765625q-1.359375 0 -2.171875 0.796875q-0.8125 0.796875 -0.8125 2.109375l-2.21875 0l-0.015625 -0.078125q-0.0625 -1.9375 1.390625 -3.28125q1.46875 -1.359375 3.828125 -1.359375q2.359375 0 3.7656403 1.265625q1.40625 1.25 1.40625 3.59375q0 1.046875 -0.640625 2.09375q-0.640625 1.046875 -1.9062653 1.609375q1.5312653 0.5 2.1718903 1.578125q0.640625 1.078125 0.640625 2.40625q0 2.34375 -1.53125 3.6875q-1.5312653 1.328125 -3.9062653 1.328125q-2.34375 0 -3.875 -1.265625q-1.515625 -1.265625 -1.46875 -3.421875l0.046875 -0.0625l2.203125 0q0 1.34375 0.8125 2.140625q0.828125 0.796875 2.28125 0.796875q1.453125 0 2.28125 -0.796875q0.84376526 -0.796875 0.84376526 -2.359375q0 -1.578125 -0.75001526 -2.328125q-0.734375 -0.75 -2.328125 -0.75l-2.015625 0l0 -1.796875z" fill-rule="nonzero"></path><path fill="#ffffff" d="m4.5367813 229.28871l101.70079 0l0 35.622055l-101.70079 0z" fill-rule="evenodd"></path><path stroke="#6d9eeb" stroke-width="3.0" stroke-linejoin="round" stroke-linecap="butt" d="m4.5367813 229.28871l101.70079 0l0 35.622055l-101.70079 0z" fill-rule="evenodd"></path><path fill="#ffffff" d="m5.9186335 280.0l139.08661 0l0 35.62204l-139.08661 0z" fill-rule="evenodd"></path><path stroke="#6d9eeb" stroke-width="3.0" stroke-linejoin="round" stroke-linecap="butt" d="m5.9186335 280.0l139.08661 0l0 35.62204l-139.08661 0z" fill-rule="evenodd"></path><path fill="#000000" d="m113.87244 295.1635l0 -1.5l3.96875 0l0.21875 1.84375q0.546875 -0.96875 1.328125 -1.515625q0.796875 -0.5625 1.8125 -0.5625q0.28125 0 0.5625 0.046875q0.28125 0.046875 0.4375 0.09375l-0.296875 2.140625l-1.3125 -0.078125q-0.921875 0 -1.546875 0.4375q-0.609375 0.421875 -0.953125 1.203125l0 7.265625l1.90625 0.328125l0 1.484375l-6.125 0l0 -1.484375l1.90625 -0.328125l0 -9.046875l-1.90625 -0.328125zm10.019531 11.1875l0 -1.578125l5.59375 -6.21875q1.5 -1.671875 2.03125 -2.65625q0.53125 -0.984375 0.53125 -2.015625q0 -1.28125 -0.75 -2.15625q-0.75 -0.875 -1.984375 -0.875q-1.765625 0 -2.609375 0.90625q-0.828125 0.90625 -0.828125 2.5625l-2.203125 0l-0.03125 -0.078125q-0.0625 -2.203125 1.453125 -3.703125q1.53125 -1.5 4.21875 -1.5q2.3125 0 3.671875 1.34375q1.375 1.34375 1.375 3.421875q0 1.390625 -0.828125 2.78125q-0.828125 1.390625 -2.328125 3.015625l-4.484375 4.890625l0.015625 0.046875l6.0625 0l0.1875 -1.953125l1.953125 0l0 3.765625l-11.046875 0z" fill-rule="nonzero"></path><path fill="#ffffff" d="m5.0802603 330.7154l128.69292 0l0 35.62204l-128.69292 0z" fill-rule="evenodd"></path><path stroke="#6d9eeb" stroke-width="3.0" stroke-linejoin="round" stroke-linecap="butt" d="m5.0802603 330.7154l128.69292 0l0 35.62204l-128.69292 0z" fill-rule="evenodd"></path><path fill="#ffffff" d="m4.43832 381.43045l259.3386 0l0 35.62204l-259.3386 0z" fill-rule="evenodd"></path><path stroke="#6d9eeb" stroke-width="3.0" stroke-linejoin="round" stroke-linecap="butt" d="m4.43832 381.43045l259.3386 0l0 35.62204l-259.3386 0z" fill-rule="evenodd"></path><path fill="#d9d9d9" d="m10.130733 283.54593l47.464565 0l0 28.251984l-47.464565 0z" fill-rule="evenodd"></path><path stroke="#6d9eeb" stroke-width="3.0" stroke-linejoin="round" stroke-linecap="butt" d="m10.130733 283.54593l47.464565 0l0 28.251984l-47.464565 0z" fill-rule="evenodd"></path><path fill="#000000" d="m25.001688 295.0244l0 -1.5l3.968752 0l0.21875 1.84375q0.546875 -0.96875 1.328125 -1.515625q0.796875 -0.5625 1.8125 -0.5625q0.28125 0 0.5625 0.046875q0.28125 0.046875 0.4375 0.09375l-0.296875 2.140625l-1.3125 -0.078125q-0.921875 0 -1.546875 0.4375q-0.609375 0.421875 -0.953125 1.203125l0 7.265625l1.90625 0.328125l0 1.484375l-6.125002 0l0 -1.484375l1.9062519 -0.328125l0 -9.046875l-1.9062519 -0.328125zm10.300783 9.703125l2.640625 -0.328125l0 -12.78125l-2.6875 0.046875l0 -1.4375l4.984375 -1.078125l0 15.25l2.625 0.328125l0 1.484375l-7.5625 0l0 -1.484375z" fill-rule="nonzero"></path><path fill="#d9d9d9" d="m8.527649 385.089l47.464565 0l0 28.094513l-47.464565 0z" fill-rule="evenodd"></path><path stroke="#6d9eeb" stroke-width="3.0" stroke-linejoin="round" stroke-linecap="butt" d="m8.527649 385.089l47.464565 0l0 28.094513l-47.464565 0z" fill-rule="evenodd"></path><path fill="#000000" d="m23.398603 396.48874l0 -1.5l3.968752 0l0.21875 1.84375q0.546875 -0.96875 1.328125 -1.515625q0.796875 -0.5625 1.8125 -0.5625q0.28125 0 0.5625 0.046875q0.28125 0.046875 0.4375 0.09375l-0.296875 2.140625l-1.3125 -0.078125q-0.921875 0 -1.546875 0.4375q-0.609375 0.421875 -0.953125 1.203125l0 7.265625l1.90625 0.328125l0 1.484375l-6.125002 0l0 -1.484375l1.9062519 -0.328125l0 -9.046875l-1.9062519 -0.328125zm10.300783 9.703125l2.640625 -0.328125l0 -12.78125l-2.6875 0.046875l0 -1.4375l4.984375 -1.078125l0 15.25l2.625 0.328125l0 1.484375l-7.5625 0l0 -1.484375z" fill-rule="nonzero"></path><path fill="#ffe599" d="m287.7874 193.60455l0 0c0 -11.44046 23.640778 -20.714783 52.80313 -20.714783c29.162384 0 52.80316 9.2743225 52.80316 20.714783l0 82.85913c0 11.44046 -23.640778 20.714783 -52.80316 20.714783c-29.162354 0 -52.80313 -9.2743225 -52.80313 -20.714783z" fill-rule="evenodd"></path><path fill="#000000" fill-opacity="0.0" d="m393.3937 193.60455l0 0c0 11.44046 -23.640778 20.714783 -52.80316 20.714783c-29.162354 0 -52.80313 -9.2743225 -52.80313 -20.714783" fill-rule="evenodd"></path><path fill="#000000" fill-opacity="0.0" d="m287.7874 193.60455l0 0c0 -11.44046 23.640778 -20.714783 52.80313 -20.714783c29.162384 0 52.80316 9.2743225 52.80316 20.714783l0 82.85913c0 11.44046 -23.640778 20.714783 -52.80316 20.714783c-29.162354 0 -52.80313 -9.2743225 -52.80313 -20.714783z" fill-rule="evenodd"></path><path stroke="#f1c232" stroke-width="1.0" stroke-linejoin="round" stroke-linecap="butt" d="m393.3937 193.60455l0 0c0 11.44046 -23.640778 20.714783 -52.80316 20.714783c-29.162354 0 -52.80313 -9.2743225 -52.80313 -20.714783" fill-rule="evenodd"></path><path stroke="#f1c232" stroke-width="1.0" stroke-linejoin="round" stroke-linecap="butt" d="m287.7874 193.60455l0 0c0 -11.44046 23.640778 -20.714783 52.80313 -20.714783c29.162384 0 52.80316 9.2743225 52.80316 20.714783l0 82.85913c0 11.44046 -23.640778 20.714783 -52.80316 20.714783c-29.162354 0 -52.80313 -9.2743225 -52.80313 -20.714783z" fill-rule="evenodd"></path><path fill="#000000" d="m309.22498 224.94963q2.4375 0 3.734375 1.09375q1.3125 1.078125 1.3125 3.0625q0 1.078125 -0.609375 1.921875q-0.609375 0.84375 -1.734375 1.328125q1.21875 0.40625 1.75 1.3125q0.546875 0.890625 0.546875 2.21875l0 1.1875q0 0.6875 0.171875 1.015625q0.1875 0.328125 0.578125 0.390625l0.5 0.0625l0 1.328125l-1.09375 0q-1.171875 0 -1.671875 -0.8125q-0.5 -0.828125 -0.5 -2.0l0 -1.15625q0 -1.21875 -0.71875 -1.953125q-0.703125 -0.75 -1.890625 -0.75l-3.234375 0l0 5.09375l1.671875 0.28125l0 1.296875l-5.359375 0l0 -1.296875l1.671875 -0.28125l0 -11.765625l-1.671875 -0.28125l0 -1.296875l1.671875 0l4.875 0zm-2.859375 6.671875l2.65625 0q1.6875 0 2.453125 -0.640625q0.78125 -0.65625 0.78125 -1.890625q0 -1.1875 -0.75 -1.875q-0.734375 -0.6875 -2.28125 -0.6875l-2.859375 0l0 5.09375zm15.99646 8.46875q-2.328125 0 -3.703125 -1.546875q-1.359375 -1.546875 -1.359375 -4.0l0 -0.453125q0 -2.375 1.40625 -3.9375q1.421875 -1.578125 3.34375 -1.578125q2.234375 0 3.390625 1.359375q1.15625 1.34375 1.15625 3.59375l0 1.265625l-7.203125 0l-0.03125 0.046875q0.03125 1.609375 0.8125 2.640625q0.78125 1.03125 2.1875 1.03125q1.015625 0 1.78125 -0.296875q0.78125 -0.296875 1.34375 -0.8125l0.796875 1.3125q-0.59375 0.578125 -1.578125 0.984375q-0.96875 0.390625 -2.34375 0.390625zm-0.3125 -9.921875q-1.015625 0 -1.734375 0.859375q-0.71875 0.84375 -0.875 2.140625l0.015625 0.046875l5.109375 0l0 -0.265625q0 -1.1875 -0.640625 -1.984375q-0.625 -0.796875 -1.875 -0.796875zm6.309723 8.40625l1.671875 -0.28125l0 -7.921875l-1.671875 -0.296875l0 -1.296875l3.484375 0l0.125 1.4375q0.546875 -0.78125 1.375 -1.203125q0.84375 -0.4375 1.953125 -0.4375q1.109375 0 1.90625 0.515625q0.796875 0.5 1.1875 1.53125q0.53125 -0.9375 1.390625 -1.484375q0.859375 -0.5625 2.015625 -0.5625q1.6875 0 2.671875 1.171875q0.984375 1.15625 0.984375 3.484375l0 5.0625l1.671875 0.28125l0 1.296875l-5.359375 0l0 -1.296875l1.671875 -0.28125l0 -5.078125q0 -1.640625 -0.578125 -2.3125q-0.5625 -0.6875 -1.671875 -0.6875q-1.046875 0 -1.6875 0.75q-0.640625 0.734375 -0.75 1.859375l0 5.46875l1.671875 0.28125l0 1.296875l-5.359375 0l0 -1.296875l1.671875 -0.28125l0 -5.078125q0 -1.5625 -0.578125 -2.28125q-0.578125 -0.71875 -1.671875 -0.71875q-0.921875 0 -1.53125 0.375q-0.59375 0.375 -0.90625 1.0625l0 6.640625l1.671875 0.28125l0 1.296875l-5.359375 0l0 -1.296875zm20.557587 -4.359375q0 -2.453125 1.328125 -4.046875q1.34375 -1.59375 3.625 -1.59375q2.296875 0 3.625 1.59375q1.34375 1.578125 1.34375 4.046875l0 0.234375q0 2.484375 -1.328125 4.0625q-1.328125 1.578125 -3.625 1.578125q-2.296875 0 -3.640625 -1.578125q-1.328125 -1.59375 -1.328125 -4.0625l0 -0.234375zm2.015625 0.234375q0 1.765625 0.75 2.921875q0.75 1.140625 2.203125 1.140625q1.4375 0 2.1875 -1.140625q0.75 -1.15625 0.75 -2.921875l0 -0.234375q0 -1.734375 -0.75 -2.890625q-0.75 -1.15625 -2.203125 -1.15625q-1.453125 0 -2.203125 1.15625q-0.734375 1.15625 -0.734375 2.890625l0 0.234375zm13.465851 -8.34375l0 2.671875l2.109375 0l0 1.5l-2.109375 0l0 6.734375q0 0.78125 0.328125 1.09375q0.328125 0.3125 0.859375 0.3125q0.265625 0 0.59375 -0.03125q0.328125 -0.046875 0.5625 -0.109375l0.28125 1.390625q-0.296875 0.1875 -0.859375 0.296875q-0.546875 0.125 -1.09375 0.125q-1.234375 0 -1.96875 -0.734375q-0.71875 -0.75 -0.71875 -2.34375l0 -6.734375l-1.75 0l0 -1.5l1.75 0l0 -2.671875l2.015625 0zm9.357452 13.984375q-2.328125 0 -3.703125 -1.546875q-1.359375 -1.546875 -1.359375 -4.0l0 -0.453125q0 -2.375 1.40625 -3.9375q1.421875 -1.578125 3.34375 -1.578125q2.234375 0 3.390625 1.359375q1.15625 1.34375 1.15625 3.59375l0 1.265625l-7.203125 0l-0.03125 0.046875q0.03125 1.609375 0.8125 2.640625q0.78125 1.03125 2.1875 1.03125q1.015625 0 1.78125 -0.296875q0.78125 -0.296875 1.34375 -0.8125l0.796875 1.3125q-0.59375 0.578125 -1.578125 0.984375q-0.96875 0.390625 -2.34375 0.390625zm-0.3125 -9.921875q-1.015625 0 -1.734375 0.859375q-0.71875 0.84375 -0.875 2.140625l0.015625 0.046875l5.109375 0l0 -0.265625q0 -1.1875 -0.640625 -1.984375q-0.625 -0.796875 -1.875 -0.796875z" fill-rule="nonzero"></path><path fill="#000000" d="m316.4937 264.51215q1.015625 0 1.765625 -0.625q0.765625 -0.625 0.765625 -1.515625l1.828125 0l0.015625 0.046875q0.046875 1.4375 -1.28125 2.5625q-1.328125 1.109375 -3.09375 1.109375q-2.421875 0 -3.703125 -1.578125q-1.265625 -1.578125 -1.265625 -3.96875l0 -0.4375q0 -2.359375 1.28125 -3.9375q1.28125 -1.5937653 3.6875 -1.5937653q1.34375 0 2.40625 0.4375q1.0625 0.4375 1.75 1.2031403l0.09375 2.46875l-1.609375 0l-0.4375 -1.75q-0.359375 -0.34375 -0.921875 -0.546875q-0.5625 -0.21875 -1.28125 -0.21875q-1.578125 0 -2.265625 1.140625q-0.6875 1.140625 -0.6875 2.796875l0 0.4375q0 1.703125 0.671875 2.84375q0.6875 1.125 2.28125 1.125zm13.762817 1.359375q-0.09375 -0.453125 -0.15625 -0.8125q-0.046875 -0.359375 -0.0625 -0.71875q-0.578125 0.75 -1.46875 1.25q-0.875 0.5 -1.859375 0.5q-1.734375 0 -2.640625 -0.84375q-0.90625 -0.859375 -0.90625 -2.390625q0 -1.578125 1.28125 -2.4375q1.28125 -0.859375 3.5 -0.859375l2.078125 0l0 -1.28125q0 -0.984375 -0.609375 -1.546875q-0.609375 -0.5625 -1.71875 -0.5625q-0.75 0 -1.328125 0.1875q-0.578125 0.1875 -0.9375 0.53125l-0.21875 1.171875l-1.5625 0l0 -2.1562653q0.765625 -0.609375 1.828125 -0.96875q1.078125 -0.359375 2.34375 -0.359375q1.890625 0 3.0625 0.96875q1.171875 0.95314026 1.171875 2.7500153l0 5.34375q0 0.21875 0 0.421875q0 0.203125 0.03125 0.40625l0.8125 0.109375l0 1.296875l-2.640625 0zm-3.25 -1.484375q1.0 0 1.828125 -0.46875q0.828125 -0.484375 1.1875 -1.171875l0 -1.8125l-2.15625 0q-1.234375 0 -1.953125 0.578125q-0.71875 0.5625 -0.71875 1.390625q0 0.71875 0.4375 1.109375q0.453125 0.375 1.375 0.375zm12.731506 0.125q1.015625 0 1.765625 -0.625q0.765625 -0.625 0.765625 -1.515625l1.828125 0l0.015625 0.046875q0.046875 1.4375 -1.28125 2.5625q-1.328125 1.109375 -3.09375 1.109375q-2.421875 0 -3.703125 -1.578125q-1.265625 -1.578125 -1.265625 -3.96875l0 -0.4375q0 -2.359375 1.28125 -3.9375q1.28125 -1.5937653 3.6875 -1.5937653q1.34375 0 2.40625 0.4375q1.0625 0.4375 1.75 1.2031403l0.09375 2.46875l-1.609375 0l-0.4375 -1.75q-0.359375 -0.34375 -0.921875 -0.546875q-0.5625 -0.21875 -1.28125 -0.21875q-1.578125 0 -2.265625 1.140625q-0.6875 1.140625 -0.6875 2.796875l0 0.4375q0 1.703125 0.671875 2.84375q0.6875 1.125 2.28125 1.125zm6.2471924 0.0625l1.671875 -0.28125l0 -12.82814l-1.671875 -0.28125l0 -1.3125l3.6875 0l0 6.3750153q0.578125 -0.79689026 1.40625 -1.2343903q0.828125 -0.4375 1.84375 -0.4375q1.78125 0 2.765625 1.0625q0.984375 1.0625153 0.984375 3.2812653l0 5.375l1.671875 0.28125l0 1.296875l-5.359375 0l0 -1.296875l1.671875 -0.28125l0 -5.390625q0 -1.375 -0.59375 -2.03125q-0.59375 -0.65625 -1.75 -0.65625q-0.84375 0 -1.53125 0.390625q-0.671875 0.390625 -1.109375 1.078125l0 6.609375l1.671875 0.28125l0 1.296875l-5.359375 0l0 -1.296875zm19.111206 1.515625q-2.328125 0 -3.703125 -1.546875q-1.359375 -1.546875 -1.359375 -4.0l0 -0.453125q0 -2.375 1.40625 -3.9375q1.421875 -1.5781403 3.34375 -1.5781403q2.234375 0 3.390625 1.359375q1.15625 1.3437653 1.15625 3.5937653l0 1.265625l-7.203125 0l-0.03125 0.046875q0.03125 1.609375 0.8125 2.640625q0.78125 1.03125 2.1875 1.03125q1.015625 0 1.78125 -0.296875q0.78125 -0.296875 1.34375 -0.8125l0.796875 1.3125q-0.59375 0.578125 -1.578125 0.984375q-0.96875 0.390625 -2.34375 0.390625zm-0.3125 -9.921875q-1.015625 0 -1.734375 0.859375q-0.71875 0.84375 -0.875 2.140625l0.015625 0.046875l5.109375 0l0 -0.265625q0 -1.1875 -0.640625 -1.984375q-0.625 -0.796875 -1.875 -0.796875z" fill-rule="nonzero"></path><path fill="#000000" fill-opacity="0.0" d="m139.85825 297.57574c36.98204 0 55.47194 -15.637787 73.964066 -31.275574c18.492126 -15.637802 36.98648 -31.275589 73.972946 -31.275589" fill-rule="evenodd"></path><path stroke="#666666" stroke-width="3.0" stroke-linejoin="round" stroke-linecap="butt" d="m139.85825 297.57574c36.98204 0 55.471954 -15.637787 73.96408 -31.275574c9.246063 -7.8189087 18.492676 -15.637817 30.051071 -21.501984c5.7792206 -2.9320831 12.136368 -5.3754883 19.360397 -7.0858765c1.8059998 -0.42759705 3.6661682 -0.8093872 5.5850525 -1.1415253c0.23983765 -0.041519165 0.48062134 -0.08227539 0.72232056 -0.12223816l0.30664062 -0.04949951" fill-rule="evenodd"></path><path fill="#666666" stroke="#666666" stroke-width="3.0" stroke-linecap="butt" d="m270.2262 241.33978l13.196167 -5.980316l-13.952942 -3.9011536z" fill-rule="evenodd"></path><path fill="#000000" fill-opacity="0.0" d="m340.59055 297.17847c0 21.996918 -46.125977 32.993835 -92.25197 43.993835c-46.125977 11.0 -92.25197 22.003082 -92.25197 44.006165" fill-rule="evenodd"></path><path stroke="#666666" stroke-width="3.0" stroke-linejoin="round" stroke-linecap="butt" d="m340.59055 297.17847c0 21.996948 -46.125977 32.993866 -92.25197 43.993866c-23.062988 5.5 -46.125977 11.000763 -63.423218 17.876923c-4.3243103 1.7190247 -8.288269 3.5240173 -11.801758 5.4364624c-1.7567749 0.9562073 -3.4008942 1.9393005 -4.921173 2.9519348c-0.76013184 0.50631714 -1.4892883 1.0200195 -2.186081 1.5414429c-0.17419434 0.1303711 -0.3463745 0.26119995 -0.51649475 0.39248657l-0.33155823 0.2600708" fill-rule="evenodd"></path><path fill="#666666" stroke="#666666" stroke-width="3.0" stroke-linecap="butt" d="m160.87842 367.1343l-2.581482 14.256165l11.141235 -9.261505z" fill-rule="evenodd"></path><path fill="#9fc5e8" d="m62.850376 283.5285l77.00787 0l0 28.094482l-77.00787 0z" fill-rule="evenodd"></path><path stroke="#6d9eeb" stroke-width="3.0" stroke-linejoin="round" stroke-linecap="butt" d="m62.850376 283.5285l77.00787 0l0 28.094482l-77.00787 0z" fill-rule="evenodd"></path><path fill="#000000" d="m90.81134 294.92825l0 -1.5l3.96875 0l0.21875 1.84375q0.546875 -0.96875 1.328125 -1.515625q0.796875 -0.5625 1.8125 -0.5625q0.28125 0 0.5625 0.046875q0.28125 0.046875 0.4375 0.09375l-0.296875 2.140625l-1.3125 -0.078125q-0.921875 0 -1.546875 0.4375q-0.609375 0.421875 -0.953125 1.203125l0 7.265625l1.90625 0.328125l0 1.484375l-6.125 0l0 -1.484375l1.90625 -0.328125l0 -9.046875l-1.90625 -0.328125zm10.019531 11.1875l0 -1.578125l5.59375 -6.21875q1.5 -1.671875 2.03125 -2.65625q0.53125 -0.984375 0.53125 -2.015625q0 -1.28125 -0.75 -2.15625q-0.75 -0.875 -1.984375 -0.875q-1.765625 0 -2.609375 0.90625q-0.828125 0.90625 -0.828125 2.5625l-2.203125 0l-0.03125 -0.078125q-0.0625 -2.203125 1.453125 -3.703125q1.53125 -1.5 4.21875 -1.5q2.3125 0 3.671875 1.34375q1.375 1.34375 1.375 3.421875q0 1.390625 -0.828125 2.78125q-0.828125 1.390625 -2.328125 3.015625l-4.484375 4.890625l0.015625 0.046875l6.0625 0l0.1875 -1.953125l1.953125 0l0 3.765625l-11.046875 0z" fill-rule="nonzero"></path><path fill="#9fc5e8" d="m9.105893 232.80911l92.91338 0l0 28.094482l-92.91338 0z" fill-rule="evenodd"></path><path stroke="#6d9eeb" stroke-width="3.0" stroke-linejoin="round" stroke-linecap="butt" d="m9.105893 232.80911l92.91338 0l0 28.094482l-92.91338 0z" fill-rule="evenodd"></path><path fill="#000000" d="m46.701256 244.20886l0 -1.5l3.96875 0l0.21875 1.84375q0.546875 -0.96875 1.328125 -1.515625q0.796875 -0.5625 1.8125 -0.5625q0.28125 0 0.5625 0.046875q0.28125 0.046875 0.4375 0.09375l-0.296875 2.140625l-1.3125 -0.078125q-0.921875 0 -1.546875 0.4375q-0.609375 0.421875 -0.953125 1.203125l0 7.265625l1.90625 0.328125l0 1.484375l-6.125 0l0 -1.484375l1.90625 -0.328125l0 -9.046875l-1.90625 -0.328125zm10.300781 9.703125l2.640625 -0.328125l0 -12.78125l-2.6875 0.046875l0 -1.4375l4.984375 -1.078125l0 15.25l2.625 0.328125l0 1.484375l-7.5625 0l0 -1.484375z" fill-rule="nonzero"></path><path fill="#9fc5e8" d="m9.429481 334.16882l119.149605 0l0 28.094482l-119.149605 0z" fill-rule="evenodd"></path><path stroke="#6d9eeb" stroke-width="3.0" stroke-linejoin="round" stroke-linecap="butt" d="m9.429481 334.16882l119.149605 0l0 28.094482l-119.149605 0z" fill-rule="evenodd"></path><path fill="#000000" d="m58.6078 345.56857l0 -1.5l3.96875 0l0.21875 1.84375q0.546875 -0.96875 1.3281212 -1.515625q0.796875 -0.5625 1.8125 -0.5625q0.28125 0 0.5625 0.046875q0.28125 0.046875 0.4375 0.09375l-0.296875 2.140625l-1.3125 -0.078125q-0.921875 0 -1.5468712 0.4375q-0.609375 0.421875 -0.953125 1.203125l0 7.265625l1.9062462 0.328125l0 1.484375l-6.124996 0l0 -1.484375l1.90625 -0.328125l0 -9.046875l-1.90625 -0.328125zm13.128902 1.59375l2.015625 0q1.546875 0 2.171875 -0.765625q0.640625 -0.78125 0.640625 -2.140625q0 -1.46875 -0.734375 -2.234375q-0.71875 -0.765625 -2.125 -0.765625q-1.359375 0 -2.171875 0.796875q-0.8125 0.796875 -0.8125 2.109375l-2.21875 0l-0.015625 -0.078125q-0.0625 -1.9375 1.390625 -3.28125q1.46875 -1.359375 3.828125 -1.359375q2.359375 0 3.765625 1.265625q1.40625 1.25 1.40625 3.59375q0 1.046875 -0.640625 2.09375q-0.640625 1.046875 -1.90625 1.609375q1.53125 0.5 2.171875 1.578125q0.640625 1.078125 0.640625 2.40625q0 2.34375 -1.53125 3.6875q-1.53125 1.328125 -3.90625 1.328125q-2.34375 0 -3.875 -1.265625q-1.515625 -1.265625 -1.46875 -3.421875l0.046875 -0.0625l2.203125 0q0 1.34375 0.8125 2.140625q0.828125 0.796875 2.28125 0.796875q1.453125 0 2.28125 -0.796875q0.84375 -0.796875 0.84375 -2.359375q0 -1.578125 -0.75 -2.328125q-0.734375 -0.75 -2.328125 -0.75l-2.015625 0l0 -1.796875z" fill-rule="nonzero"></path><path fill="#9fc5e8" d="m171.05179 385.53137l88.566925 0l0 28.094482l-88.566925 0z" fill-rule="evenodd"></path><path stroke="#6d9eeb" stroke-width="3.0" stroke-linejoin="round" stroke-linecap="butt" d="m171.05179 385.53137l88.566925 0l0 28.094482l-88.566925 0z" fill-rule="evenodd"></path><path fill="#000000" d="m204.46416 396.93112l0 -1.5l3.96875 0l0.21875 1.84375q0.546875 -0.96875 1.328125 -1.515625q0.796875 -0.5625 1.8125 -0.5625q0.28125 0 0.5625 0.046875q0.28125 0.046875 0.4375 0.09375l-0.296875 2.140625l-1.3125 -0.078125q-0.921875 0 -1.546875 0.4375q-0.609375 0.421875 -0.953125 1.203125l0 7.265625l1.90625 0.328125l0 1.484375l-6.125 0l0 -1.484375l1.90625 -0.328125l0 -9.046875l-1.90625 -0.328125zm19.582031 5.4375l2.359375 0l0 1.8125l-2.359375 0l0 2.125l1.90625 0.328125l0 1.484375l-6.109375 0l0 -1.484375l1.90625 -0.328125l0 -2.125l-7.671875 0l0 -1.296875l7.53125 -11.828125l2.4375 0l0 11.3125zm-7.5 0l5.203125 0l0 -8.015625l-0.078125 -0.03125l-0.234375 0.625l-4.890625 7.421875z" fill-rule="nonzero"></path><path fill="#d9d9d9" d="m61.118282 385.24408l79.244095 0l0 28.094513l-79.244095 0z" fill-rule="evenodd"></path><path stroke="#6d9eeb" stroke-width="3.0" stroke-linejoin="round" stroke-linecap="butt" d="m61.118282 385.24408l79.244095 0l0 28.094513l-79.244095 0z" fill-rule="evenodd"></path><path fill="#000000" d="m90.34385 396.64383l0 -1.5l3.96875 0l0.21875 1.84375q0.546875 -0.96875 1.328125 -1.515625q0.796875 -0.5625 1.8125 -0.5625q0.28125 0 0.5625 0.046875q0.28125 0.046875 0.4375 0.09375l-0.296875 2.140625l-1.3125 -0.078125q-0.921875 0 -1.546875 0.4375q-0.609375 0.421875 -0.953125 1.203125l0 7.265625l1.90625 0.328125l0 1.484375l-6.125 0l0 -1.484375l1.90625 -0.328125l0 -9.046875l-1.90625 -0.328125zm13.128906 1.59375l2.015625 0q1.546875 0 2.171875 -0.765625q0.640625 -0.78125 0.640625 -2.140625q0 -1.46875 -0.734375 -2.234375q-0.71875 -0.765625 -2.125 -0.765625q-1.359375 0 -2.171875 0.796875q-0.8125 0.796875 -0.8125 2.109375l-2.21875 0l-0.015625 -0.078125q-0.0625 -1.9375 1.390625 -3.28125q1.46875 -1.359375 3.828125 -1.359375q2.359375 0 3.765625 1.265625q1.40625 1.25 1.40625 3.59375q0 1.046875 -0.640625 2.09375q-0.640625 1.046875 -1.90625 1.609375q1.53125 0.5 2.171875 1.578125q0.640625 1.078125 0.640625 2.40625q0 2.34375 -1.53125 3.6875q-1.53125 1.328125 -3.90625 1.328125q-2.34375 0 -3.875 -1.265625q-1.515625 -1.265625 -1.46875 -3.421875l0.046875 -0.0625l2.203125 0q0 1.34375 0.8125 2.140625q0.828125 0.796875 2.28125 0.796875q1.453125 0 2.28125 -0.796875q0.84375 -0.796875 0.84375 -2.359375q0 -1.578125 -0.75 -2.328125q-0.734375 -0.75 -2.328125 -0.75l-2.015625 0l0 -1.796875z" fill-rule="nonzero"></path><path fill="#fff2cc" d="m146.19525 385.16678l19.81102 0l0 28.094482l-19.81102 0z" fill-rule="evenodd"></path><path stroke="#6d9eeb" stroke-width="3.0" stroke-linejoin="round" stroke-linecap="butt" d="m146.19525 385.16678l19.81102 0l0 28.094482l-19.81102 0z" fill-rule="evenodd"></path><path fill="#000000" fill-opacity="0.0" d="m131.18898 385.00723l49.826767 0l0 28.251984l-49.826767 0z" fill-rule="evenodd"></path><path fill="#000000" d="m145.55939 396.48572l0 -1.5l3.96875 0l0.21875 1.84375q0.546875 -0.96875 1.328125 -1.515625q0.796875 -0.5625 1.8125 -0.5625q0.28125 0 0.5625 0.046875q0.28125 0.046875 0.4375 0.09375l-0.296875 2.140625l-1.3125 -0.078125q-0.921875 0 -1.546875 0.4375q-0.609375 0.421875 -0.953125 1.203125l0 7.265625l1.90625 0.328125l0 1.484375l-6.125 0l0 -1.484375l1.90625 -0.328125l0 -9.046875l-1.90625 -0.328125zm10.019531 11.1875l0 -1.578125l5.59375 -6.21875q1.5 -1.671875 2.03125 -2.65625q0.53125 -0.984375 0.53125 -2.015625q0 -1.28125 -0.75 -2.15625q-0.75 -0.875 -1.984375 -0.875q-1.765625 0 -2.609375 0.90625q-0.828125 0.90625 -0.828125 2.5625l-2.203125 0l-0.03125 -0.078125q-0.0625 -2.203125 1.453125 -3.703125q1.53125 -1.5 4.21875 -1.5q2.3125 0 3.671875 1.34375q1.375 1.34375 1.375 3.421875q0 1.390625 -0.828125 2.78125q-0.828125 1.390625 -2.328125 3.015625l-4.484375 4.890625l0.015625 0.046875l6.0625 0l0.1875 -1.953125l1.953125 0l0 3.765625l-11.046875 0z" fill-rule="nonzero"></path><path fill="#ead1dc" d="m110.383194 233.68922l77.00787 0l0 28.094498l-77.00787 0z" fill-rule="evenodd"></path><path stroke="#c27ba0" stroke-width="3.0" stroke-linejoin="round" stroke-linecap="butt" d="m110.383194 233.68922l77.00787 0l0 28.094498l-77.00787 0z" fill-rule="evenodd"></path><path fill="#000000" d="m140.0258 245.08896l0 -1.5l3.96875 0l0.21875 1.84375q0.546875 -0.96875 1.328125 -1.515625q0.796875 -0.5625 1.8125 -0.5625q0.28125 0 0.5625 0.046875q0.28125 0.046875 0.4375 0.09375l-0.296875 2.140625l-1.3125 -0.078125q-0.921875 0 -1.546875 0.4375q-0.609375 0.421875 -0.953125 1.203125l0 7.265625l1.90625 0.328125l0 1.484375l-6.125 0l0 -1.484375l1.90625 -0.328125l0 -9.046875l-1.90625 -0.328125zm10.300781 9.703125l2.640625 -0.328125l0 -12.78125l-2.6875 0.046875l0 -1.4375l4.984375 -1.078125l0 15.25l2.625 0.328125l0 1.484375l-7.5625 0l0 -1.484375z" fill-rule="nonzero"></path><path fill="#ead1dc" d="m138.47504 334.16882l112.409454 0l0 28.094482l-112.409454 0z" fill-rule="evenodd"></path><path stroke="#c27ba0" stroke-width="3.0" stroke-linejoin="round" stroke-linecap="butt" d="m138.47504 334.16882l112.409454 0l0 28.094482l-112.409454 0z" fill-rule="evenodd"></path><path fill="#000000" d="m184.28328 345.56857l0 -1.5l3.96875 0l0.21875 1.84375q0.546875 -0.96875 1.328125 -1.515625q0.796875 -0.5625 1.8125 -0.5625q0.28125 0 0.5625 0.046875q0.28125 0.046875 0.4375 0.09375l-0.296875 2.140625l-1.3125 -0.078125q-0.921875 0 -1.546875 0.4375q-0.609375 0.421875 -0.953125 1.203125l0 7.265625l1.90625 0.328125l0 1.484375l-6.125 0l0 -1.484375l1.90625 -0.328125l0 -9.046875l-1.90625 -0.328125zm13.128906 1.59375l2.015625 0q1.546875 0 2.171875 -0.765625q0.640625 -0.78125 0.640625 -2.140625q0 -1.46875 -0.734375 -2.234375q-0.71875 -0.765625 -2.125 -0.765625q-1.359375 0 -2.171875 0.796875q-0.8125 0.796875 -0.8125 2.109375l-2.21875 0l-0.015625 -0.078125q-0.0625 -1.9375 1.390625 -3.28125q1.46875 -1.359375 3.828125 -1.359375q2.359375 0 3.765625 1.265625q1.40625 1.25 1.40625 3.59375q0 1.046875 -0.640625 2.09375q-0.640625 1.046875 -1.90625 1.609375q1.53125 0.5 2.171875 1.578125q0.640625 1.078125 0.640625 2.40625q0 2.34375 -1.53125 3.6875q-1.53125 1.328125 -3.90625 1.328125q-2.34375 0 -3.875 -1.265625q-1.515625 -1.265625 -1.46875 -3.421875l0.046875 -0.0625l2.203125 0q0 1.34375 0.8125 2.140625q0.828125 0.796875 2.28125 0.796875q1.453125 0 2.28125 -0.796875q0.84375 -0.796875 0.84375 -2.359375q0 -1.578125 -0.75 -2.328125q-0.734375 -0.75 -2.328125 -0.75l-2.015625 0l0 -1.796875z" fill-rule="nonzero"></path><path fill="#ead1dc" d="m268.96063 385.8363l72.91339 0l0 28.094513l-72.91339 0z" fill-rule="evenodd"></path><path stroke="#c27ba0" stroke-width="3.0" stroke-linejoin="round" stroke-linecap="butt" d="m268.96063 385.8363l72.91339 0l0 28.094513l-72.91339 0z" fill-rule="evenodd"></path><path fill="#000000" d="m294.54623 397.23605l0 -1.5l3.96875 0l0.21875 1.84375q0.546875 -0.96875 1.328125 -1.515625q0.796875 -0.5625 1.8125 -0.5625q0.28125 0 0.5625 0.046875q0.28125 0.046875 0.4375 0.09375l-0.296875 2.140625l-1.3125 -0.078125q-0.921875 0 -1.546875 0.4375q-0.609375 0.421875 -0.953125 1.203125l0 7.265625l1.90625 0.328125l0 1.484375l-6.125 0l0 -1.484375l1.90625 -0.328125l0 -9.046875l-1.90625 -0.328125zm19.582031 5.4375l2.359375 0l0 1.8125l-2.359375 0l0 2.125l1.90625 0.328125l0 1.484375l-6.109375 0l0 -1.484375l1.90625 -0.328125l0 -2.125l-7.671875 0l0 -1.296875l7.53125 -11.828125l2.4375 0l0 11.3125zm-7.5 0l5.203125 0l0 -8.015625l-0.078125 -0.03125l-0.234375 0.625l-4.890625 7.421875z" fill-rule="nonzero"></path><path fill="#ead1dc" d="m266.23947 37.288715l64.0 0l0 28.094486l-64.0 0z" fill-rule="evenodd"></path><path stroke="#c27ba0" stroke-width="3.0" stroke-linejoin="round" stroke-linecap="butt" d="m266.23947 37.288715l64.0 0l0 28.094486l-64.0 0z" fill-rule="evenodd"></path><path fill="#000000" d="m287.6965 48.688457l0 -1.5l3.96875 0l0.21875 1.84375q0.546875 -0.96875 1.328125 -1.515625q0.796875 -0.5625 1.8125 -0.5625q0.28125 0 0.5625 0.046875q0.28125 0.046875 0.4375 0.09375l-0.296875 2.140625l-1.3125 -0.078125q-0.921875 0 -1.546875 0.4375q-0.609375 0.421875 -0.953125 1.203125l0 7.265625l1.90625 0.328125l0 1.484375l-6.125 0l0 -1.484375l1.90625 -0.328125l0 -9.046875l-1.90625 -0.328125zm10.019531 11.1875l0 -1.578125l5.59375 -6.21875q1.5 -1.671875 2.03125 -2.65625q0.53125 -0.984375 0.53125 -2.015625q0 -1.28125 -0.75 -2.15625q-0.75 -0.875 -1.984375 -0.875q-1.765625 0 -2.609375 0.90625q-0.828125 0.90625 -0.828125 2.5625l-2.203125 0l-0.03125 -0.078125q-0.0625 -2.203125 1.453125 -3.703125q1.53125 -1.5 4.21875 -1.5q2.3125 0 3.671875 1.34375q1.375 1.34375 1.375 3.421875q0 1.390625 -0.828125 2.78125q-0.828125 1.390625 -2.328125 3.015625l-4.484375 4.890625l0.015625 0.046875l6.0625 0l0.1875 -1.953125l1.953125 0l0 3.765625l-11.046875 0z" fill-rule="nonzero"></path><path fill="#9fc5e8" d="m581.2311 54.45669l84.97638 0l0 25.228344l-84.97638 0z" fill-rule="evenodd"></path><path stroke="#6d9eeb" stroke-width="3.0" stroke-linejoin="round" stroke-linecap="butt" d="m581.2311 54.45669l84.97638 0l0 25.228344l-84.97638 0z" fill-rule="evenodd"></path><path fill="#000000" d="m611.06586 69.35024q0 2.171875 -1.046875 3.5q-1.046875 1.328125 -2.875 1.328125q-0.984375 0 -1.703125 -0.375q-0.71875 -0.375 -1.203125 -1.109375l-0.171875 1.296875l-1.578125 0l0 -13.031254l-1.515625 -0.265625l0 -1.171875l3.34375 0l0 5.625004q0.46875 -0.671875 1.171875 -1.015625q0.703125 -0.3593788 1.640625 -0.3593788q1.859375 0 2.890625 1.4843788q1.046875 1.484375 1.046875 3.90625l0 0.1875zm-1.84375 -0.1875q0 -1.734375 -0.640625 -2.8125q-0.625 -1.09375 -1.921875 -1.09375q-0.84375 0 -1.421875 0.40625q-0.578125 0.40625 -0.921875 1.09375l0 4.4375q0.34375 0.6875 0.921875 1.09375q0.59375 0.40625 1.4375 0.40625q1.296875 0 1.921875 -0.90625q0.625 -0.921875 0.625 -2.4375l0 -0.1875zm10.632019 3.34375q-0.46875 0.8125 -1.21875 1.25q-0.734375 0.421875 -1.71875 0.421875q-1.625 0 -2.546875 -1.046875q-0.921875 -1.046875 -0.921875 -3.265625l0 -4.46875l-1.140625 -0.265625l0 -1.1718788l1.140625 0l1.828125 0l0 5.937504q0 1.59375 0.46875 2.203125q0.484375 0.59375 1.484375 0.59375q0.96875 0 1.59375 -0.390625q0.640625 -0.390625 0.96875 -1.109375l0 -5.796875l-1.34375 -0.265625l0 -1.1718788l1.34375 0l1.828125 0l0 8.609379l1.15625 0.25l0 1.171875l-2.796875 0l-0.125 -1.484375zm4.1603394 0.3125l1.515625 -0.25l0 -7.171875l-1.515625 -0.265625l0 -1.1718788l3.34375 0l0 8.609379l1.5 0.25l0 1.171875l-4.84375 0l0 -1.171875zm3.34375 -11.437504l-1.828125 0l0 -1.859375l1.828125 0l0 1.859375zm2.5369263 -0.6875l0 -1.171875l3.34375 0l0 13.046879l1.5 0.25l0 1.171875l-4.84375 0l0 -1.171875l1.515625 -0.25l0 -11.609379l-1.515625 -0.265625zm12.891235 12.093754q-0.5 0.6875 -1.21875 1.046875q-0.703125 0.34375 -1.640625 0.34375q-1.828125 0 -2.875 -1.328125q-1.03125 -1.328125 -1.03125 -3.5l0 -0.1875q0 -2.421875 1.03125 -3.90625q1.046875 -1.4843788 2.90625 -1.4843788q0.890625 0 1.5625 0.3281288q0.6875 0.328125 1.171875 0.953125l0 -4.093754l-1.515625 -0.265625l0 -1.171875l1.515625 0l1.828125 0l0 13.046879l1.515625 0.25l0 1.171875l-3.109375 0l-0.140625 -1.203125zm-4.9375 -3.4375q0 1.515625 0.625 2.4375q0.625 0.90625 1.921875 0.90625q0.8125 0 1.375 -0.359375q0.5625 -0.375 0.921875 -1.046875l0 -4.65625q-0.359375 -0.640625 -0.921875 -1.0q-0.5625 -0.375 -1.359375 -0.375q-1.296875 0 -1.9375 1.09375q-0.625 1.078125 -0.625 2.8125l0 0.1875z" fill-rule="nonzero"></path><path fill="#ead1dc" d="m581.2322 87.87133l84.97638 0l0 25.22834l-84.97638 0z" fill-rule="evenodd"></path><path stroke="#c27ba0" stroke-width="3.0" stroke-linejoin="round" stroke-linecap="butt" d="m581.2322 87.87133l84.97638 0l0 25.22834l-84.97638 0z" fill-rule="evenodd"></path><path fill="#000000" d="m611.1339 94.95238l0 2.421875l1.90625 0l0 1.34375l-1.90625 0l0 6.09375q0 0.703125 0.296875 1.0q0.296875 0.28125 0.765625 0.28125q0.25 0 0.546875 -0.03125q0.296875 -0.046875 0.5 -0.09375l0.265625 1.25q-0.265625 0.171875 -0.765625 0.265625q-0.5 0.109375 -1.0 0.109375q-1.125 0 -1.78125 -0.671875q-0.65625 -0.671875 -0.65625 -2.109375l0 -6.09375l-1.578125 0l0 -1.34375l1.578125 0l0 -2.421875l1.828125 0zm8.222778 12.640625q-2.09375 0 -3.34375 -1.390625q-1.234375 -1.390625 -1.234375 -3.625l0 -0.40625q0 -2.140625 1.28125 -3.5625q1.28125 -1.421875 3.015625 -1.421875q2.03125 0 3.0625 1.21875q1.046875 1.21875 1.046875 3.265625l0 1.140625l-6.5 0l-0.03125 0.046875q0.03125 1.453125 0.734375 2.390625q0.703125 0.921875 1.96875 0.921875q0.9375 0 1.625 -0.265625q0.703125 -0.265625 1.21875 -0.734375l0.71875 1.1875q-0.546875 0.53125 -1.4375 0.890625q-0.875 0.34375 -2.125 0.34375zm-0.28125 -8.96875q-0.90625 0 -1.5625 0.78125q-0.65625 0.765625 -0.796875 1.9375l0.015625 0.046875l4.625 0l0 -0.25q0 -1.078125 -0.578125 -1.796875q-0.5625 -0.71875 -1.703125 -0.71875zm13.404541 1.890625l-1.359375 0l-0.296875 -1.203125q-0.34375 -0.3125 -0.84375 -0.5q-0.5 -0.1875 -1.140625 -0.1875q-0.984375 0 -1.453125 0.421875q-0.46875 0.421875 -0.46875 1.03125q0 0.59375 0.40625 0.9375q0.421875 0.34375 1.703125 0.609375q1.90625 0.40625 2.828125 1.109375q0.921875 0.703125 0.921875 1.875q0 1.34375 -1.078125 2.171875q-1.078125 0.8125 -2.8125 0.8125q-1.15625 0 -2.0625 -0.25q-0.90625 -0.265625 -1.625 -0.765625l0 -2.296875l1.375 0l0.34375 1.34375q0.3125 0.28125 0.84375 0.421875q0.546875 0.125 1.125 0.125q0.96875 0 1.515625 -0.390625q0.5625 -0.390625 0.5625 -1.03125q0 -0.609375 -0.46875 -1.0q-0.453125 -0.390625 -1.734375 -0.671875q-1.828125 -0.40625 -2.765625 -1.09375q-0.921875 -0.6875 -0.921875 -1.859375q0 -1.21875 1.046875 -2.078125q1.046875 -0.859375 2.71875 -0.859375q1.140625 0 2.046875 0.296875q0.90625 0.296875 1.515625 0.828125l0.078125 2.203125zm5.02594 -5.5625l0 2.421875l1.90625 0l0 1.34375l-1.90625 0l0 6.09375q0 0.703125 0.296875 1.0q0.296875 0.28125 0.765625 0.28125q0.25 0 0.546875 -0.03125q0.296875 -0.046875 0.5 -0.09375l0.265625 1.25q-0.265625 0.171875 -0.765625 0.265625q-0.5 0.109375 -1.0 0.109375q-1.125 0 -1.78125 -0.671875q-0.65625 -0.671875 -0.65625 -2.109375l0 -6.09375l-1.578125 0l0 -1.34375l1.578125 0l0 -2.421875l1.828125 0z" fill-rule="nonzero"></path><path fill="#efefef" d="m568.1391 220.13649l112.409485 0l0 193.03935l-112.409485 0z" fill-rule="evenodd"></path><path fill="#000000" d="m592.62946 247.05649l0 -1.171875l1.515625 -0.25l0 -10.640625l-1.515625 -0.265625l0 -1.1875l1.515625 0l1.828125 0l1.515625 0l0 1.1875l-1.515625 0.265625l0 10.640625l4.6875 0l0.140625 -1.5625l1.5625 0l0 2.984375l-9.734375 0zm15.672302 0.1875q-2.09375 0 -3.34375 -1.390625q-1.234375 -1.390625 -1.234375 -3.625l0 -0.40625q0 -2.140625 1.28125 -3.5625q1.28125 -1.421875 3.015625 -1.421875q2.03125 0 3.0625 1.21875q1.046875 1.21875 1.046875 3.265625l0 1.140625l-6.5 0l-0.03125 0.046875q0.03125 1.453125 0.734375 2.390625q0.703125 0.921875 1.96875 0.921875q0.9375 0 1.625 -0.265625q0.703125 -0.265625 1.21875 -0.734375l0.71875 1.1875q-0.546875 0.53125 -1.4375 0.890625q-0.875 0.34375 -2.125 0.34375zm-0.28125 -8.96875q-0.90625 0 -1.5625 0.78125q-0.65625 0.765625 -0.796875 1.9375l0.015625 0.046875l4.625 0l0 -0.25q0 -1.078125 -0.578125 -1.796875q-0.5625 -0.71875 -1.703125 -0.71875zm5.732666 3.953125q0 -2.421875 1.0625 -3.90625q1.0625 -1.484375 2.921875 -1.484375q0.953125 0 1.65625 0.375q0.71875 0.359375 1.203125 1.0625l0.171875 -1.25l1.53125 0l0 9.90625q0 1.9375 -1.09375 3.046875q-1.078125 1.125 -3.078125 1.125q-0.71875 0 -1.5625 -0.203125q-0.84375 -0.1875 -1.484375 -0.53125l0.46875 -1.421875q0.515625 0.265625 1.203125 0.4375q0.703125 0.1875 1.359375 0.1875q1.21875 0 1.78125 -0.6875q0.578125 -0.6875 0.578125 -1.953125l0 -0.953125q-0.484375 0.625 -1.171875 0.953125q-0.6875 0.3125 -1.578125 0.3125q-1.84375 0 -2.90625 -1.328125q-1.0625 -1.34375 -1.0625 -3.5l0 -0.1875zm1.828125 0.1875q0 1.515625 0.640625 2.4375q0.640625 0.90625 1.953125 0.90625q0.828125 0 1.375 -0.375q0.5625 -0.375 0.921875 -1.0625l0 -4.609375q-0.34375 -0.640625 -0.921875 -1.015625q-0.5625 -0.375 -1.359375 -0.375q-1.296875 0 -1.953125 1.09375q-0.65625 1.09375 -0.65625 2.8125l0 0.1875zm13.307922 4.828125q-2.09375 0 -3.34375 -1.390625q-1.234375 -1.390625 -1.234375 -3.625l0 -0.40625q0 -2.140625 1.28125 -3.5625q1.28125 -1.421875 3.015625 -1.421875q2.03125 0 3.0625 1.21875q1.046875 1.21875 1.046875 3.265625l0 1.140625l-6.5 0l-0.03125 0.046875q0.03125 1.453125 0.734375 2.390625q0.703125 0.921875 1.96875 0.921875q0.9375 0 1.625 -0.265625q0.703125 -0.265625 1.21875 -0.734375l0.71875 1.1875q-0.546875 0.53125 -1.4375 0.890625q-0.875 0.34375 -2.125 0.34375zm-0.28125 -8.96875q-0.90625 0 -1.5625 0.78125q-0.65625 0.765625 -0.796875 1.9375l0.015625 0.046875l4.625 0l0 -0.25q0 -1.078125 -0.578125 -1.796875q-0.5625 -0.71875 -1.703125 -0.71875zm5.467041 7.609375l1.5 -0.25l0 -7.171875l-1.5 -0.265625l0 -1.171875l3.140625 0l0.125 1.484375q0.5 -0.796875 1.25 -1.234375q0.765625 -0.4375 1.734375 -0.4375q1.625 0 2.515625 0.953125q0.890625 0.9375 0.890625 2.921875l0 4.921875l1.515625 0.25l0 1.171875l-4.859375 0l0 -1.171875l1.515625 -0.25l0 -4.875q0 -1.328125 -0.53125 -1.875q-0.515625 -0.5625 -1.59375 -0.5625q-0.796875 0 -1.40625 0.375q-0.59375 0.375 -0.96875 1.046875l0 5.890625l1.515625 0.25l0 1.171875l-4.84375 0l0 -1.171875zm19.037598 -0.03125q-0.5 0.6875 -1.21875 1.046875q-0.703125 0.34375 -1.640625 0.34375q-1.828125 0 -2.875 -1.328125q-1.03125 -1.328125 -1.03125 -3.5l0 -0.1875q0 -2.421875 1.03125 -3.90625q1.046875 -1.484375 2.90625 -1.484375q0.890625 0 1.5625 0.328125q0.6875 0.328125 1.171875 0.953125l0 -4.09375l-1.515625 -0.265625l0 -1.171875l1.515625 0l1.828125 0l0 13.046875l1.515625 0.25l0 1.171875l-3.109375 0l-0.140625 -1.203125zm-4.9375 -3.4375q0 1.515625 0.625 2.4375q0.625 0.90625 1.921875 0.90625q0.8125 0 1.375 -0.359375q0.5625 -0.375 0.921875 -1.046875l0 -4.65625q-0.359375 -0.640625 -0.921875 -1.0q-0.5625 -0.375 -1.359375 -0.375q-1.296875 0 -1.9375 1.09375q-0.625 1.078125 -0.625 2.8125l0 0.1875z" fill-rule="nonzero"></path><path fill="#9fc5e8" d="m584.1175 342.73657l81.165344 0l0 25.228363l-81.165344 0z" fill-rule="evenodd"></path><path stroke="#6d9eeb" stroke-width="3.0" stroke-linejoin="round" stroke-linecap="butt" d="m584.1175 342.73657l81.165344 0l0 25.228363l-81.165344 0z" fill-rule="evenodd"></path><path fill="#000000" d="m612.0468 357.63013q0 2.171875 -1.046875 3.5q-1.046875 1.328125 -2.875 1.328125q-0.984375 0 -1.703125 -0.375q-0.71875 -0.375 -1.203125 -1.109375l-0.171875 1.296875l-1.578125 0l0 -13.03125l-1.515625 -0.265625l0 -1.171875l3.34375 0l0 5.625q0.46875 -0.671875 1.171875 -1.015625q0.703125 -0.359375 1.640625 -0.359375q1.859375 0 2.890625 1.484375q1.046875 1.484375 1.046875 3.90625l0 0.1875zm-1.84375 -0.1875q0 -1.734375 -0.640625 -2.8125q-0.625 -1.09375 -1.921875 -1.09375q-0.84375 0 -1.421875 0.40625q-0.578125 0.40625 -0.921875 1.09375l0 4.4375q0.34375 0.6875 0.921875 1.09375q0.59375 0.40625 1.4375 0.40625q1.296875 0 1.921875 -0.90625q0.625 -0.921875 0.625 -2.4375l0 -0.1875zm10.632019 3.34375q-0.46875 0.8125 -1.21875 1.25q-0.734375 0.421875 -1.71875 0.421875q-1.625 0 -2.546875 -1.046875q-0.921875 -1.046875 -0.921875 -3.265625l0 -4.46875l-1.140625 -0.265625l0 -1.171875l1.140625 0l1.828125 0l0 5.9375q0 1.59375 0.46875 2.203125q0.484375 0.59375 1.484375 0.59375q0.96875 0 1.59375 -0.390625q0.640625 -0.390625 0.96875 -1.109375l0 -5.796875l-1.34375 -0.265625l0 -1.171875l1.34375 0l1.828125 0l0 8.609375l1.15625 0.25l0 1.171875l-2.796875 0l-0.125 -1.484375zm4.1603394 0.3125l1.515625 -0.25l0 -7.171875l-1.515625 -0.265625l0 -1.171875l3.34375 0l0 8.609375l1.5 0.25l0 1.171875l-4.84375 0l0 -1.171875zm3.34375 -11.4375l-1.828125 0l0 -1.859375l1.828125 0l0 1.859375zm2.5369263 -0.6875l0 -1.171875l3.34375 0l0 13.046875l1.5 0.25l0 1.171875l-4.84375 0l0 -1.171875l1.515625 -0.25l0 -11.609375l-1.515625 -0.265625zm12.891235 12.09375q-0.5 0.6875 -1.21875 1.046875q-0.703125 0.34375 -1.640625 0.34375q-1.828125 0 -2.875 -1.328125q-1.03125 -1.328125 -1.03125 -3.5l0 -0.1875q0 -2.421875 1.03125 -3.90625q1.046875 -1.484375 2.90625 -1.484375q0.890625 0 1.5625 0.328125q0.6875 0.328125 1.171875 0.953125l0 -4.09375l-1.515625 -0.265625l0 -1.171875l1.515625 0l1.828125 0l0 13.046875l1.515625 0.25l0 1.171875l-3.109375 0l-0.140625 -1.203125zm-4.9375 -3.4375q0 1.515625 0.625 2.4375q0.625 0.90625 1.921875 0.90625q0.8125 0 1.375 -0.359375q0.5625 -0.375 0.921875 -1.046875l0 -4.65625q-0.359375 -0.640625 -0.921875 -1.0q-0.5625 -0.375 -1.359375 -0.375q-1.296875 0 -1.9375 1.09375q-0.625 1.078125 -0.625 2.8125l0 0.1875z" fill-rule="nonzero"></path><path fill="#ead1dc" d="m584.1186 377.17953l81.165344 0l0 25.228333l-81.165344 0z" fill-rule="evenodd"></path><path stroke="#c27ba0" stroke-width="3.0" stroke-linejoin="round" stroke-linecap="butt" d="m584.1186 377.17953l81.165344 0l0 25.228333l-81.165344 0z" fill-rule="evenodd"></path><path fill="#000000" d="m612.1148 384.26056l0 2.421875l1.90625 0l0 1.34375l-1.90625 0l0 6.09375q0 0.703125 0.296875 1.0q0.296875 0.28125 0.765625 0.28125q0.25 0 0.546875 -0.03125q0.296875 -0.046875 0.5 -0.09375l0.265625 1.25q-0.265625 0.171875 -0.765625 0.265625q-0.5 0.109375 -1.0 0.109375q-1.125 0 -1.78125 -0.671875q-0.65625 -0.671875 -0.65625 -2.109375l0 -6.09375l-1.578125 0l0 -1.34375l1.578125 0l0 -2.421875l1.828125 0zm8.222778 12.640625q-2.09375 0 -3.34375 -1.390625q-1.234375 -1.390625 -1.234375 -3.625l0 -0.40625q0 -2.140625 1.28125 -3.5625q1.28125 -1.421875 3.015625 -1.421875q2.03125 0 3.0625 1.21875q1.046875 1.21875 1.046875 3.265625l0 1.140625l-6.5 0l-0.03125 0.046875q0.03125 1.453125 0.734375 2.390625q0.703125 0.921875 1.96875 0.921875q0.9375 0 1.625 -0.265625q0.703125 -0.265625 1.21875 -0.734375l0.71875 1.1875q-0.546875 0.53125 -1.4375 0.890625q-0.875 0.34375 -2.125 0.34375zm-0.28125 -8.96875q-0.90625 0 -1.5625 0.78125q-0.65625 0.765625 -0.796875 1.9375l0.015625 0.046875l4.625 0l0 -0.25q0 -1.078125 -0.578125 -1.796875q-0.5625 -0.71875 -1.703125 -0.71875zm13.404541 1.890625l-1.359375 0l-0.296875 -1.203125q-0.34375 -0.3125 -0.84375 -0.5q-0.5 -0.1875 -1.140625 -0.1875q-0.984375 0 -1.453125 0.421875q-0.46875 0.421875 -0.46875 1.03125q0 0.59375 0.40625 0.9375q0.421875 0.34375 1.703125 0.609375q1.90625 0.40625 2.828125 1.109375q0.921875 0.703125 0.921875 1.875q0 1.34375 -1.078125 2.171875q-1.078125 0.8125 -2.8125 0.8125q-1.15625 0 -2.0625 -0.25q-0.90625 -0.265625 -1.625 -0.765625l0 -2.296875l1.375 0l0.34375 1.34375q0.3125 0.28125 0.84375 0.421875q0.546875 0.125 1.125 0.125q0.96875 0 1.515625 -0.390625q0.5625 -0.390625 0.5625 -1.03125q0 -0.609375 -0.46875 -1.0q-0.453125 -0.390625 -1.734375 -0.671875q-1.828125 -0.40625 -2.765625 -1.09375q-0.921875 -0.6875 -0.921875 -1.859375q0 -1.21875 1.046875 -2.078125q1.046875 -0.859375 2.71875 -0.859375q1.140625 0 2.046875 0.296875q0.90625 0.296875 1.515625 0.828125l0.078125 2.203125zm5.02594 -5.5625l0 2.421875l1.90625 0l0 1.34375l-1.90625 0l0 6.09375q0 0.703125 0.296875 1.0q0.296875 0.28125 0.765625 0.28125q0.25 0 0.546875 -0.03125q0.296875 -0.046875 0.5 -0.09375l0.265625 1.25q-0.265625 0.171875 -0.765625 0.265625q-0.5 0.109375 -1.0 0.109375q-1.125 0 -1.78125 -0.671875q-0.65625 -0.671875 -0.65625 -2.109375l0 -6.09375l-1.578125 0l0 -1.34375l1.578125 0l0 -2.421875l1.828125 0z" fill-rule="nonzero"></path><path fill="#d9d9d9" d="m584.1181 260.2441l81.165344 0l0 41.66928l-81.165344 0z" fill-rule="evenodd"></path><path stroke="#6d9eeb" stroke-width="3.0" stroke-linejoin="round" stroke-linecap="butt" d="m584.1181 260.2441l81.165344 0l0 41.66928l-81.165344 0z" fill-rule="evenodd"></path><path fill="#000000" d="m604.1916 270.10812l-1.359375 0l-0.296875 -1.203125q-0.34375 -0.3125 -0.84375 -0.5q-0.5 -0.1875 -1.140625 -0.1875q-0.984375 0 -1.453125 0.421875q-0.46875 0.421875 -0.46875 1.03125q0 0.59375 0.40625 0.9375q0.421875 0.34375 1.703125 0.609375q1.90625 0.40625 2.828125 1.109375q0.921875 0.703125 0.921875 1.875q0 1.34375 -1.078125 2.171875q-1.078125 0.8125 -2.8125 0.8125q-1.15625 0 -2.0625 -0.25q-0.90625 -0.265625 -1.625 -0.765625l0 -2.296875l1.375 0l0.34375 1.34375q0.3125 0.28125 0.84375 0.421875q0.546875 0.125 1.125 0.125q0.96875 0 1.515625 -0.390625q0.5625 -0.390625 0.5625 -1.03125q0 -0.609375 -0.46875 -1.0q-0.453125 -0.390625 -1.734375 -0.671875q-1.828125 -0.40625 -2.765625 -1.09375q-0.921875 -0.6875 -0.921875 -1.859375q0 -1.21875 1.046875 -2.078125q1.046875 -0.859375 2.71875 -0.859375q1.140625 0 2.046875 0.296875q0.90625 0.296875 1.515625 0.828125l0.078125 2.203125zm9.010315 5.40625q-0.46875 0.8125 -1.21875 1.25q-0.734375 0.421875 -1.71875 0.421875q-1.625 0 -2.546875 -1.046875q-0.921875 -1.046875 -0.921875 -3.265625l0 -4.46875l-1.140625 -0.265625l0 -1.171875l1.140625 0l1.828125 0l0 5.9375q0 1.59375 0.46875 2.203125q0.484375 0.59375 1.484375 0.59375q0.96875 0 1.59375 -0.390625q0.640625 -0.390625 0.96875 -1.109375l0 -5.796875l-1.34375 -0.265625l0 -1.171875l1.34375 0l1.828125 0l0 8.609375l1.15625 0.25l0 1.171875l-2.796875 0l-0.125 -1.484375zm13.347839 -3.15625q0 2.171875 -1.046875 3.5q-1.046875 1.328125 -2.875 1.328125q-0.984375 0 -1.703125 -0.375q-0.71875 -0.375 -1.203125 -1.109375l-0.171875 1.296875l-1.578125 0l0 -13.03125l-1.515625 -0.265625l0 -1.171875l3.34375 0l0 5.625q0.46875 -0.671875 1.171875 -1.015625q0.703125 -0.359375 1.640625 -0.359375q1.859375 0 2.890625 1.484375q1.046875 1.484375 1.046875 3.90625l0 0.1875zm-1.84375 -0.1875q0 -1.734375 -0.640625 -2.8125q-0.625 -1.09375 -1.921875 -1.09375q-0.84375 0 -1.421875 0.40625q-0.578125 0.40625 -0.921875 1.09375l0 4.4375q0.34375 0.6875 0.921875 1.09375q0.59375 0.40625 1.4375 0.40625q1.296875 0 1.921875 -0.90625q0.625 -0.921875 0.625 -2.4375l0 -0.1875zm11.132019 -2.0625l-1.359375 0l-0.296875 -1.203125q-0.34375 -0.3125 -0.84375 -0.5q-0.5 -0.1875 -1.140625 -0.1875q-0.984375 0 -1.453125 0.421875q-0.46875 0.421875 -0.46875 1.03125q0 0.59375 0.40625 0.9375q0.421875 0.34375 1.703125 0.609375q1.90625 0.40625 2.828125 1.109375q0.921875 0.703125 0.921875 1.875q0 1.34375 -1.078125 2.171875q-1.078125 0.8125 -2.8125 0.8125q-1.15625 0 -2.0625 -0.25q-0.90625 -0.265625 -1.625 -0.765625l0 -2.296875l1.375 0l0.34375 1.34375q0.3125 0.28125 0.84375 0.421875q0.546875 0.125 1.125 0.125q0.96875 0 1.515625 -0.390625q0.5625 -0.390625 0.5625 -1.03125q0 -0.609375 -0.46875 -1.0q-0.453125 -0.390625 -1.734375 -0.671875q-1.828125 -0.40625 -2.765625 -1.09375q-0.921875 -0.6875 -0.921875 -1.859375q0 -1.21875 1.046875 -2.078125q1.046875 -0.859375 2.71875 -0.859375q1.140625 0 2.046875 0.296875q0.90625 0.296875 1.515625 0.828125l0.078125 2.203125zm6.416565 7.078125q-2.09375 0 -3.34375 -1.390625q-1.234375 -1.390625 -1.234375 -3.625l0 -0.40625q0 -2.140625 1.28125 -3.5625q1.28125 -1.421875 3.015625 -1.421875q2.03125 0 3.0625 1.21875q1.046875 1.21875 1.046875 3.265625l0 1.140625l-6.5 0l-0.03125 0.046875q0.03125 1.453125 0.734375 2.390625q0.703125 0.921875 1.96875 0.921875q0.9375 0 1.625 -0.265625q0.703125 -0.265625 1.21875 -0.734375l0.71875 1.1875q-0.546875 0.53125 -1.4375 0.890625q-0.875 0.34375 -2.125 0.34375zm-0.28125 -8.96875q-0.90625 0 -1.5625 0.78125q-0.65625 0.765625 -0.796875 1.9375l0.015625 0.046875l4.625 0l0 -0.25q0 -1.078125 -0.578125 -1.796875q-0.5625 -0.71875 -1.703125 -0.71875zm8.920166 -3.671875l0 2.421875l1.90625 0l0 1.34375l-1.90625 0l0 6.09375q0 0.703125 0.296875 1.0q0.296875 0.28125 0.765625 0.28125q0.25 0 0.546875 -0.03125q0.296875 -0.046875 0.5 -0.09375l0.265625 1.25q-0.265625 0.171875 -0.765625 0.265625q-0.5 0.109375 -1.0 0.109375q-1.125 0 -1.78125 -0.671875q-0.65625 -0.671875 -0.65625 -2.109375l0 -6.09375l-1.578125 0l0 -1.34375l1.578125 0l0 -2.421875l1.828125 0z" fill-rule="nonzero"></path><path fill="#000000" d="m612.0474 294.35812q0 2.171875 -1.046875 3.5q-1.046875 1.328125 -2.875 1.328125q-0.984375 0 -1.703125 -0.375q-0.71875 -0.375 -1.203125 -1.109375l-0.171875 1.296875l-1.578125 0l0 -13.03125l-1.515625 -0.265625l0 -1.171875l3.34375 0l0 5.625q0.46875 -0.671875 1.171875 -1.015625q0.703125 -0.359375 1.640625 -0.359375q1.859375 0 2.890625 1.484375q1.046875 1.484375 1.046875 3.90625l0 0.1875zm-1.84375 -0.1875q0 -1.734375 -0.640625 -2.8125q-0.625 -1.09375 -1.921875 -1.09375q-0.84375 0 -1.421875 0.40625q-0.578125 0.40625 -0.921875 1.09375l0 4.4375q0.34375 0.6875 0.921875 1.09375q0.59375 0.40625 1.4375 0.40625q1.296875 0 1.921875 -0.90625q0.625 -0.921875 0.625 -2.4375l0 -0.1875zm10.632019 3.34375q-0.46875 0.8125 -1.21875 1.25q-0.734375 0.421875 -1.71875 0.421875q-1.625 0 -2.546875 -1.046875q-0.921875 -1.046875 -0.921875 -3.265625l0 -4.46875l-1.140625 -0.265625l0 -1.171875l1.140625 0l1.828125 0l0 5.9375q0 1.59375 0.46875 2.203125q0.484375 0.59375 1.484375 0.59375q0.96875 0 1.59375 -0.390625q0.640625 -0.390625 0.96875 -1.109375l0 -5.796875l-1.34375 -0.265625l0 -1.171875l1.34375 0l1.828125 0l0 8.609375l1.15625 0.25l0 1.171875l-2.796875 0l-0.125 -1.484375zm4.1603394 0.3125l1.515625 -0.25l0 -7.171875l-1.515625 -0.265625l0 -1.171875l3.34375 0l0 8.609375l1.5 0.25l0 1.171875l-4.84375 0l0 -1.171875zm3.34375 -11.4375l-1.828125 0l0 -1.859375l1.828125 0l0 1.859375zm2.5369263 -0.6875l0 -1.171875l3.34375 0l0 13.046875l1.5 0.25l0 1.171875l-4.84375 0l0 -1.171875l1.515625 -0.25l0 -11.609375l-1.515625 -0.265625zm12.891235 12.09375q-0.5 0.6875 -1.21875 1.046875q-0.703125 0.34375 -1.640625 0.34375q-1.828125 0 -2.875 -1.328125q-1.03125 -1.328125 -1.03125 -3.5l0 -0.1875q0 -2.421875 1.03125 -3.90625q1.046875 -1.484375 2.90625 -1.484375q0.890625 0 1.5625 0.328125q0.6875 0.328125 1.171875 0.953125l0 -4.09375l-1.515625 -0.265625l0 -1.171875l1.515625 0l1.828125 0l0 13.046875l1.515625 0.25l0 1.171875l-3.109375 0l-0.140625 -1.203125zm-4.9375 -3.4375q0 1.515625 0.625 2.4375q0.625 0.90625 1.921875 0.90625q0.8125 0 1.375 -0.359375q0.5625 -0.375 0.921875 -1.046875l0 -4.65625q-0.359375 -0.640625 -0.921875 -1.0q-0.5625 -0.375 -1.359375 -0.375q-1.296875 0 -1.9375 1.09375q-0.625 1.078125 -0.625 2.8125l0 0.1875z" fill-rule="nonzero"></path><path fill="#fff2cc" d="m584.1175 309.194l81.165344 0l0 25.228333l-81.165344 0z" fill-rule="evenodd"></path><path stroke="#6d9eeb" stroke-width="3.0" stroke-linejoin="round" stroke-linecap="butt" d="m584.1175 309.194l81.165344 0l0 25.228333l-81.165344 0z" fill-rule="evenodd"></path><path fill="#000000" d="m602.55994 320.04065l0 -1.34375l1.5625 0l0 -1.28125q0 -1.609375 0.828125 -2.484375q0.84375 -0.875 2.359375 -0.875q0.3125 0 0.625 0.0625q0.328125 0.046875 0.71875 0.140625l-0.234375 1.390625q-0.15625 -0.046875 -0.40625 -0.0625q-0.234375 -0.03125 -0.484375 -0.03125q-0.796875 0 -1.1875 0.484375q-0.390625 0.46875 -0.390625 1.375l0 1.28125l2.09375 0l0 1.34375l-2.09375 0l0 7.265625l1.515625 0.25l0 1.171875l-4.859375 0l0 -1.171875l1.515625 -0.25l0 -7.265625l-1.5625 0zm11.381714 8.875q-2.09375 0 -3.34375 -1.390625q-1.234375 -1.390625 -1.234375 -3.625l0 -0.40625q0 -2.140625 1.28125 -3.5625q1.28125 -1.421875 3.015625 -1.421875q2.03125 0 3.0625 1.21875q1.046875 1.21875 1.046875 3.265625l0 1.140625l-6.5 0l-0.03125 0.046875q0.03125 1.453125 0.734375 2.390625q0.703125 0.921875 1.96875 0.921875q0.9375 0 1.625 -0.265625q0.703125 -0.265625 1.21875 -0.734375l0.71875 1.1875q-0.546875 0.53125 -1.4375 0.890625q-0.875 0.34375 -2.125 0.34375zm-0.28125 -8.96875q-0.90625 0 -1.5625 0.78125q-0.65625 0.765625 -0.796875 1.9375l0.015625 0.046875l4.625 0l0 -0.25q0 -1.078125 -0.578125 -1.796875q-0.5625 -0.71875 -1.703125 -0.71875zm8.920166 -3.671875l0 2.421875l1.90625 0l0 1.34375l-1.90625 0l0 6.09375q0 0.703125 0.296875 1.0q0.296875 0.28125 0.765625 0.28125q0.25 0 0.546875 -0.03125q0.296875 -0.046875 0.5 -0.09375l0.265625 1.25q-0.265625 0.171875 -0.765625 0.265625q-0.5 0.109375 -1.0 0.109375q-1.125 0 -1.78125 -0.671875q-0.65625 -0.671875 -0.65625 -2.109375l0 -6.09375l-1.578125 0l0 -1.34375l1.578125 0l0 -2.421875l1.828125 0zm8.144592 11.21875q0.921875 0 1.609375 -0.5625q0.6875 -0.5625 0.6875 -1.375l1.640625 0l0.015625 0.046875q0.046875 1.3125 -1.15625 2.3125q-1.1875 1.0 -2.796875 1.0q-2.1875 0 -3.34375 -1.421875q-1.15625 -1.421875 -1.15625 -3.59375l0 -0.390625q0 -2.140625 1.15625 -3.5625q1.171875 -1.4375 3.34375 -1.4375q1.21875 0 2.171875 0.40625q0.96875 0.390625 1.59375 1.078125l0.078125 2.234375l-1.453125 0l-0.40625 -1.578125q-0.3125 -0.3125 -0.828125 -0.5q-0.515625 -0.203125 -1.15625 -0.203125q-1.4375 0 -2.0625 1.03125q-0.609375 1.03125 -0.609375 2.53125l0 0.390625q0 1.546875 0.609375 2.578125q0.625 1.015625 2.0625 1.015625zm5.306885 0.0625l1.515625 -0.25l0 -11.609375l-1.515625 -0.265625l0 -1.171875l3.34375 0l0 5.765625q0.515625 -0.71875 1.265625 -1.109375q0.75 -0.40625 1.671875 -0.40625q1.609375 0 2.5 0.96875q0.890625 0.953125 0.890625 2.953125l0 4.875l1.515625 0.25l0 1.171875l-4.859375 0l0 -1.171875l1.515625 -0.25l0 -4.890625q0 -1.234375 -0.53125 -1.828125q-0.53125 -0.59375 -1.59375 -0.59375q-0.75 0 -1.375 0.359375q-0.609375 0.34375 -1.0 0.96875l0 5.984375l1.5 0.25l0 1.171875l-4.84375 0l0 -1.171875z" fill-rule="nonzero"></path></g></svg>

